solid OpenSCAD_Model
  facet normal 0.347588 -0.370145 0.861496
    outer loop
      vertex 2.91587 -2.73819 10
      vertex 2.5497 -3.08205 10
      vertex 7.9678 -9.63142 5
    endloop
  endfacet
  facet normal 0.482913 0.156908 0.861496
    outer loop
      vertex 11.6222 4.60156 5
      vertex 3.71911 1.4725 10
      vertex 12.1073 3.10862 5
    endloop
  endfacet
  facet normal 0 0 -1
    outer loop
      vertex 12.4014 -1.56666 0
      vertex 12.4014 1.56666 0
      vertex 12.5 0 0
    endloop
  endfacet
  facet normal 0 0 -1
    outer loop
      vertex 12.1073 -3.10862 0
      vertex 12.4014 1.56666 0
      vertex 12.4014 -1.56666 0
    endloop
  endfacet
  facet normal 0 0 -1
    outer loop
      vertex 12.1073 -3.10862 0
      vertex 12.1073 3.10862 0
      vertex 12.4014 1.56666 0
    endloop
  endfacet
  facet normal 0 0 -1
    outer loop
      vertex 11.6222 -4.60156 0
      vertex 12.1073 3.10862 0
      vertex 12.1073 -3.10862 0
    endloop
  endfacet
  facet normal 0 0 -1
    outer loop
      vertex 11.6222 -4.60156 0
      vertex 11.6222 4.60156 0
      vertex 12.1073 3.10862 0
    endloop
  endfacet
  facet normal 0 0 -1
    outer loop
      vertex 10.9538 -6.02192 0
      vertex 11.6222 4.60156 0
      vertex 11.6222 -4.60156 0
    endloop
  endfacet
  facet normal 0 0 -1
    outer loop
      vertex 10.9538 -6.02192 0
      vertex 10.9538 6.02192 0
      vertex 11.6222 4.60156 0
    endloop
  endfacet
  facet normal 0 0 -1
    outer loop
      vertex 10.1127 -7.34731 0
      vertex 10.9538 6.02192 0
      vertex 10.9538 -6.02192 0
    endloop
  endfacet
  facet normal 0 0 -1
    outer loop
      vertex 10.1127 -7.34731 0
      vertex 10.1127 7.34731 0
      vertex 10.9538 6.02192 0
    endloop
  endfacet
  facet normal 0 0 -1
    outer loop
      vertex 9.11211 -8.55684 0
      vertex 10.1127 7.34731 0
      vertex 10.1127 -7.34731 0
    endloop
  endfacet
  facet normal 0 0 -1
    outer loop
      vertex 9.11211 -8.55684 0
      vertex 9.11211 8.55684 0
      vertex 10.1127 7.34731 0
    endloop
  endfacet
  facet normal 0 0 -1
    outer loop
      vertex 7.9678 -9.63142 0
      vertex 9.11211 8.55684 0
      vertex 9.11211 -8.55684 0
    endloop
  endfacet
  facet normal 0 0 -1
    outer loop
      vertex 7.9678 -9.63142 0
      vertex 7.9678 9.63142 0
      vertex 9.11211 8.55684 0
    endloop
  endfacet
  facet normal 0 0 -1
    outer loop
      vertex 6.69783 -10.5541 0
      vertex 7.9678 9.63142 0
      vertex 7.9678 -9.63142 0
    endloop
  endfacet
  facet normal 0 0 -1
    outer loop
      vertex 6.69783 -10.5541 0
      vertex 6.69783 10.5541 0
      vertex 7.9678 9.63142 0
    endloop
  endfacet
  facet normal 0 0 -1
    outer loop
      vertex 5.32224 -11.3103 0
      vertex 6.69783 10.5541 0
      vertex 6.69783 -10.5541 0
    endloop
  endfacet
  facet normal 0 0 -1
    outer loop
      vertex 5.32224 -11.3103 0
      vertex 5.32224 11.3103 0
      vertex 6.69783 10.5541 0
    endloop
  endfacet
  facet normal 0 0 -1
    outer loop
      vertex 3.86271 -11.8882 0
      vertex 5.32224 11.3103 0
      vertex 5.32224 -11.3103 0
    endloop
  endfacet
  facet normal 0 0 -1
    outer loop
      vertex 3.86271 -11.8882 0
      vertex 3.86271 11.8882 0
      vertex 5.32224 11.3103 0
    endloop
  endfacet
  facet normal 0 0 -1
    outer loop
      vertex 2.34227 -12.2786 0
      vertex 3.86271 11.8882 0
      vertex 3.86271 -11.8882 0
    endloop
  endfacet
  facet normal 0 0 -1
    outer loop
      vertex 2.34227 -12.2786 0
      vertex 2.34227 12.2786 0
      vertex 3.86271 11.8882 0
    endloop
  endfacet
  facet normal 0 0 -1
    outer loop
      vertex 0.784881 -12.4753 0
      vertex 2.34227 12.2786 0
      vertex 2.34227 -12.2786 0
    endloop
  endfacet
  facet normal 0 0 -1
    outer loop
      vertex 0.784881 -12.4753 0
      vertex 0.784881 12.4753 0
      vertex 2.34227 12.2786 0
    endloop
  endfacet
  facet normal 0 0 -1
    outer loop
      vertex -0.784881 -12.4753 0
      vertex 0.784881 12.4753 0
      vertex 0.784881 -12.4753 0
    endloop
  endfacet
  facet normal 0 0 -1
    outer loop
      vertex -0.784881 -12.4753 0
      vertex -0.784881 12.4753 0
      vertex 0.784881 12.4753 0
    endloop
  endfacet
  facet normal 0 0 -1
    outer loop
      vertex -2.34227 -12.2786 0
      vertex -0.784881 12.4753 0
      vertex -0.784881 -12.4753 0
    endloop
  endfacet
  facet normal 0 0 -1
    outer loop
      vertex -2.34227 -12.2786 0
      vertex -2.34227 12.2786 0
      vertex -0.784881 12.4753 0
    endloop
  endfacet
  facet normal 0 0 -1
    outer loop
      vertex -3.86271 -11.8882 0
      vertex -2.34227 12.2786 0
      vertex -2.34227 -12.2786 0
    endloop
  endfacet
  facet normal 0 0 -1
    outer loop
      vertex -3.86271 -11.8882 0
      vertex -3.86271 11.8882 0
      vertex -2.34227 12.2786 0
    endloop
  endfacet
  facet normal 0 0 -1
    outer loop
      vertex -5.32224 -11.3103 0
      vertex -3.86271 11.8882 0
      vertex -3.86271 -11.8882 0
    endloop
  endfacet
  facet normal 0 0 -1
    outer loop
      vertex -5.32224 -11.3103 0
      vertex -5.32224 11.3103 0
      vertex -3.86271 11.8882 0
    endloop
  endfacet
  facet normal 0 0 -1
    outer loop
      vertex -6.69783 -10.5541 0
      vertex -5.32224 11.3103 0
      vertex -5.32224 -11.3103 0
    endloop
  endfacet
  facet normal 0 0 -1
    outer loop
      vertex -6.69783 -10.5541 0
      vertex -6.69783 10.5541 0
      vertex -5.32224 11.3103 0
    endloop
  endfacet
  facet normal 0 0 -1
    outer loop
      vertex -7.9678 -9.63142 0
      vertex -6.69783 10.5541 0
      vertex -6.69783 -10.5541 0
    endloop
  endfacet
  facet normal 0 0 -1
    outer loop
      vertex -7.9678 -9.63142 0
      vertex -7.9678 9.63142 0
      vertex -6.69783 10.5541 0
    endloop
  endfacet
  facet normal 0 0 -1
    outer loop
      vertex -9.11211 -8.55684 0
      vertex -7.9678 9.63142 0
      vertex -7.9678 -9.63142 0
    endloop
  endfacet
  facet normal 0 0 -1
    outer loop
      vertex -9.11211 -8.55684 0
      vertex -9.11211 8.55684 0
      vertex -7.9678 9.63142 0
    endloop
  endfacet
  facet normal 0 0 -1
    outer loop
      vertex -10.1127 -7.34731 0
      vertex -9.11211 8.55684 0
      vertex -9.11211 -8.55684 0
    endloop
  endfacet
  facet normal 0 0 -1
    outer loop
      vertex -10.1127 -7.34731 0
      vertex -10.1127 7.34731 0
      vertex -9.11211 8.55684 0
    endloop
  endfacet
  facet normal 0 0 -1
    outer loop
      vertex -10.9538 -6.02192 0
      vertex -10.1127 7.34731 0
      vertex -10.1127 -7.34731 0
    endloop
  endfacet
  facet normal 0 0 -1
    outer loop
      vertex -10.9538 -6.02192 0
      vertex -10.9538 6.02192 0
      vertex -10.1127 7.34731 0
    endloop
  endfacet
  facet normal 0 0 -1
    outer loop
      vertex -11.6222 -4.60156 0
      vertex -10.9538 6.02192 0
      vertex -10.9538 -6.02192 0
    endloop
  endfacet
  facet normal 0 0 -1
    outer loop
      vertex -11.6222 -4.60156 0
      vertex -11.6222 4.60156 0
      vertex -10.9538 6.02192 0
    endloop
  endfacet
  facet normal 0 0 -1
    outer loop
      vertex -12.1073 -3.10862 0
      vertex -11.6222 4.60156 0
      vertex -11.6222 -4.60156 0
    endloop
  endfacet
  facet normal 0 0 -1
    outer loop
      vertex -12.1073 -3.10862 0
      vertex -12.1073 3.10862 0
      vertex -11.6222 4.60156 0
    endloop
  endfacet
  facet normal 0 0 -1
    outer loop
      vertex -12.4014 -1.56666 0
      vertex -12.1073 3.10862 0
      vertex -12.1073 -3.10862 0
    endloop
  endfacet
  facet normal 0 0 -1
    outer loop
      vertex -12.4014 -1.56666 0
      vertex -12.4014 1.56666 0
      vertex -12.1073 3.10862 0
    endloop
  endfacet
  facet normal 0 -0 -1
    outer loop
      vertex -12.4014 1.56666 0
      vertex -12.4014 -1.56666 0
      vertex -12.5 0 0
    endloop
  endfacet
  facet normal 0.126276 0.491812 0.861496
    outer loop
      vertex 2.34227 12.2786 5
      vertex 1.23607 3.80423 10
      vertex 3.86271 11.8882 5
    endloop
  endfacet
  facet normal 0.904827 0.42578 0
    outer loop
      vertex 11.6222 4.60156 5
      vertex 10.9538 6.02192 0
      vertex 10.9538 6.02192 5
    endloop
  endfacet
  facet normal 0.904827 0.42578 0
    outer loop
      vertex 10.9538 6.02192 0
      vertex 11.6222 4.60156 5
      vertex 11.6222 4.60156 0
    endloop
  endfacet
  facet normal -0.391239 0.323661 0.861496
    outer loop
      vertex -2.91587 2.73819 10
      vertex -9.11211 8.55684 5
      vertex -3.23607 2.35114 10
    endloop
  endfacet
  facet normal 0.982287 -0.187381 0
    outer loop
      vertex 12.1073 -3.10862 5
      vertex 12.4014 -1.56666 0
      vertex 12.4014 -1.56666 5
    endloop
  endfacet
  facet normal 0.982287 -0.187381 0
    outer loop
      vertex 12.4014 -1.56666 0
      vertex 12.1073 -3.10862 5
      vertex 12.1073 -3.10862 0
    endloop
  endfacet
  facet normal 0.506762 -0.0318831 0.861496
    outer loop
      vertex 12.5 0 5
      vertex 4 0 10
      vertex 12.4014 -1.56666 5
    endloop
  endfacet
  facet normal 0.482913 -0.156908 0.861496
    outer loop
      vertex 12.1073 -3.10862 5
      vertex 3.71911 -1.4725 10
      vertex 11.6222 -4.60156 5
    endloop
  endfacet
  facet normal 0.347589 0.370144 0.861496
    outer loop
      vertex 7.9678 9.63142 5
      vertex 2.91587 2.73819 10
      vertex 9.11211 8.55684 5
    endloop
  endfacet
  facet normal -0.770513 0.637424 0
    outer loop
      vertex -10.1127 7.34731 0
      vertex -9.11211 8.55684 5
      vertex -9.11211 8.55684 0
    endloop
  endfacet
  facet normal -0.770513 0.637424 0
    outer loop
      vertex -9.11211 8.55684 5
      vertex -10.1127 7.34731 0
      vertex -10.1127 7.34731 5
    endloop
  endfacet
  facet normal 0.982287 0.187381 0
    outer loop
      vertex 12.4014 1.56666 5
      vertex 12.1073 3.10862 0
      vertex 12.1073 3.10862 5
    endloop
  endfacet
  facet normal 0.982287 0.187381 0
    outer loop
      vertex 12.1073 3.10862 0
      vertex 12.4014 1.56666 5
      vertex 12.4014 1.56666 0
    endloop
  endfacet
  facet normal -0.459439 -0.216196 0.861496
    outer loop
      vertex -3.71911 -1.4725 10
      vertex -10.9538 -6.02192 5
      vertex -3.50523 -1.92701 10
    endloop
  endfacet
  facet normal 0.998027 0.062791 0
    outer loop
      vertex 12.5 0 5
      vertex 12.4014 1.56666 0
      vertex 12.4014 1.56666 5
    endloop
  endfacet
  facet normal 0.998027 0.062791 0
    outer loop
      vertex 12.4014 1.56666 0
      vertex 12.5 0 5
      vertex 12.5 0 0
    endloop
  endfacet
  facet normal 0.951056 -0.309017 0
    outer loop
      vertex 11.6222 -4.60156 5
      vertex 12.1073 -3.10862 0
      vertex 12.1073 -3.10862 5
    endloop
  endfacet
  facet normal 0.951056 -0.309017 0
    outer loop
      vertex 12.1073 -3.10862 0
      vertex 11.6222 -4.60156 5
      vertex 11.6222 -4.60156 0
    endloop
  endfacet
  facet normal -0.126276 -0.491812 0.861496
    outer loop
      vertex -1.23607 -3.80423 10
      vertex -2.34227 -12.2786 5
      vertex -0.749525 -3.92915 10
    endloop
  endfacet
  facet normal 0.126276 -0.491812 0.861496
    outer loop
      vertex 1.23607 -3.80423 10
      vertex 0.749525 -3.92915 10
      vertex 2.34227 -12.2786 5
    endloop
  endfacet
  facet normal 0.481754 -0.876306 0
    outer loop
      vertex 5.32224 -11.3103 0
      vertex 6.69783 -10.5541 5
      vertex 5.32224 -11.3103 5
    endloop
  endfacet
  facet normal 0.481754 -0.876306 0
    outer loop
      vertex 6.69783 -10.5541 5
      vertex 5.32224 -11.3103 0
      vertex 6.69783 -10.5541 0
    endloop
  endfacet
  facet normal 0.368124 -0.929777 0
    outer loop
      vertex 3.86271 -11.8882 0
      vertex 5.32224 -11.3103 5
      vertex 3.86271 -11.8882 5
    endloop
  endfacet
  facet normal 0.368124 -0.929777 0
    outer loop
      vertex 5.32224 -11.3103 5
      vertex 3.86271 -11.8882 0
      vertex 5.32224 -11.3103 0
    endloop
  endfacet
  facet normal 0.770513 0.637424 0
    outer loop
      vertex 10.1127 7.34731 5
      vertex 9.11211 8.55684 0
      vertex 9.11211 8.55684 5
    endloop
  endfacet
  facet normal 0.770513 0.637424 0
    outer loop
      vertex 9.11211 8.55684 0
      vertex 10.1127 7.34731 5
      vertex 10.1127 7.34731 0
    endloop
  endfacet
  facet normal 0.18692 0.472107 0.861496
    outer loop
      vertex 3.86271 11.8882 5
      vertex 1.23607 3.80423 10
      vertex 5.32224 11.3103 5
    endloop
  endfacet
  facet normal 0.298456 0.41079 0.861496
    outer loop
      vertex 7.9678 9.63142 5
      vertex 2.14331 3.37731 10
      vertex 2.5497 3.08205 10
    endloop
  endfacet
  facet normal 0.0636396 0.50376 0.861496
    outer loop
      vertex 0.784881 12.4753 5
      vertex 0.251162 3.99211 10
      vertex 0.749525 3.92915 10
    endloop
  endfacet
  facet normal -0.506762 -0.0318831 0.861496
    outer loop
      vertex -4 0 10
      vertex -12.5 0 5
      vertex -12.4014 -1.56666 5
    endloop
  endfacet
  facet normal -0.244617 0.444957 0.861496
    outer loop
      vertex -1.70312 3.61931 10
      vertex -5.32224 11.3103 5
      vertex -2.14331 3.37731 10
    endloop
  endfacet
  facet normal 0.951056 0.309017 0
    outer loop
      vertex 12.1073 3.10862 5
      vertex 11.6222 4.60156 0
      vertex 11.6222 4.60156 5
    endloop
  endfacet
  facet normal 0.951056 0.309017 0
    outer loop
      vertex 11.6222 4.60156 0
      vertex 12.1073 3.10862 5
      vertex 12.1073 3.10862 0
    endloop
  endfacet
  facet normal -0.49877 -0.0951452 0.861496
    outer loop
      vertex -3.96846 -0.501332 10
      vertex -12.4014 -1.56666 5
      vertex -3.87433 -0.994759 10
    endloop
  endfacet
  facet normal -0.982287 -0.187381 0
    outer loop
      vertex -12.1073 -3.10862 0
      vertex -12.4014 -1.56666 5
      vertex -12.4014 -1.56666 0
    endloop
  endfacet
  facet normal -0.982287 -0.187381 0
    outer loop
      vertex -12.4014 -1.56666 5
      vertex -12.1073 -3.10862 0
      vertex -12.1073 -3.10862 5
    endloop
  endfacet
  facet normal -0.998027 -0.062791 0
    outer loop
      vertex -12.4014 -1.56666 0
      vertex -12.5 0 5
      vertex -12.5 0 0
    endloop
  endfacet
  facet normal -0.998027 -0.062791 0
    outer loop
      vertex -12.5 0 5
      vertex -12.4014 -1.56666 0
      vertex -12.4014 -1.56666 5
    endloop
  endfacet
  facet normal 0.347589 -0.370144 0.861496
    outer loop
      vertex 9.11211 -8.55684 5
      vertex 2.91587 -2.73819 10
      vertex 7.9678 -9.63142 5
    endloop
  endfacet
  facet normal 0.506762 -0.0318835 0.861496
    outer loop
      vertex 4 0 10
      vertex 3.96846 -0.501332 10
      vertex 12.4014 -1.56666 5
    endloop
  endfacet
  facet normal 0.459439 0.216196 0.861496
    outer loop
      vertex 10.9538 6.02192 5
      vertex 3.71911 1.4725 10
      vertex 11.6222 4.60156 5
    endloop
  endfacet
  facet normal -0.24869 0.968583 0
    outer loop
      vertex -2.34227 12.2786 0
      vertex -3.86271 11.8882 5
      vertex -2.34227 12.2786 5
    endloop
  endfacet
  facet normal -0.24869 0.968583 0
    outer loop
      vertex -3.86271 11.8882 5
      vertex -2.34227 12.2786 0
      vertex -3.86271 11.8882 0
    endloop
  endfacet
  facet normal 0.684547 0.728968 -0
    outer loop
      vertex 9.11211 8.55684 0
      vertex 7.9678 9.63142 5
      vertex 9.11211 8.55684 5
    endloop
  endfacet
  facet normal 0.684547 0.728968 0
    outer loop
      vertex 7.9678 9.63142 5
      vertex 9.11211 8.55684 0
      vertex 7.9678 9.63142 0
    endloop
  endfacet
  facet normal 0.126276 0.491812 0.861496
    outer loop
      vertex 2.34227 12.2786 5
      vertex 0.749525 3.92915 10
      vertex 1.23607 3.80423 10
    endloop
  endfacet
  facet normal 0.24869 0.968583 -0
    outer loop
      vertex 3.86271 11.8882 0
      vertex 2.34227 12.2786 5
      vertex 3.86271 11.8882 5
    endloop
  endfacet
  facet normal 0.24869 0.968583 0
    outer loop
      vertex 2.34227 12.2786 5
      vertex 3.86271 11.8882 0
      vertex 2.34227 12.2786 0
    endloop
  endfacet
  facet normal -0.42872 0.272074 0.861496
    outer loop
      vertex -10.1127 7.34731 5
      vertex -10.9538 6.02192 5
      vertex -3.23607 2.35114 10
    endloop
  endfacet
  facet normal 0 1 -0
    outer loop
      vertex 0.784881 12.4753 0
      vertex -0.784881 12.4753 5
      vertex 0.784881 12.4753 5
    endloop
  endfacet
  facet normal 0 1 0
    outer loop
      vertex -0.784881 12.4753 5
      vertex 0.784881 12.4753 0
      vertex -0.784881 12.4753 0
    endloop
  endfacet
  facet normal -0.481754 0.876306 0
    outer loop
      vertex -5.32224 11.3103 0
      vertex -6.69783 10.5541 5
      vertex -5.32224 11.3103 5
    endloop
  endfacet
  facet normal -0.481754 0.876306 0
    outer loop
      vertex -6.69783 10.5541 5
      vertex -5.32224 11.3103 0
      vertex -6.69783 10.5541 0
    endloop
  endfacet
  facet normal -0.368124 0.929777 0
    outer loop
      vertex -3.86271 11.8882 0
      vertex -5.32224 11.3103 5
      vertex -3.86271 11.8882 5
    endloop
  endfacet
  facet normal -0.368124 0.929777 0
    outer loop
      vertex -5.32224 11.3103 5
      vertex -3.86271 11.8882 0
      vertex -5.32224 11.3103 0
    endloop
  endfacet
  facet normal 0.0636396 -0.50376 0.861496
    outer loop
      vertex 2.34227 -12.2786 5
      vertex 0.749525 -3.92915 10
      vertex 0.784881 -12.4753 5
    endloop
  endfacet
  facet normal 0.125333 -0.992115 0
    outer loop
      vertex 0.784881 -12.4753 0
      vertex 2.34227 -12.2786 5
      vertex 0.784881 -12.4753 5
    endloop
  endfacet
  facet normal 0.125333 -0.992115 0
    outer loop
      vertex 2.34227 -12.2786 5
      vertex 0.784881 -12.4753 0
      vertex 2.34227 -12.2786 0
    endloop
  endfacet
  facet normal -0.482913 -0.156908 0.861496
    outer loop
      vertex -3.87433 -0.994759 10
      vertex -12.1073 -3.10862 5
      vertex -3.71911 -1.4725 10
    endloop
  endfacet
  facet normal -0.459439 0.216196 0.861496
    outer loop
      vertex -3.50523 1.92701 10
      vertex -10.9538 6.02192 5
      vertex -3.71911 1.4725 10
    endloop
  endfacet
  facet normal -0.49877 -0.0951453 0.861496
    outer loop
      vertex -3.87433 -0.994759 10
      vertex -12.4014 -1.56666 5
      vertex -12.1073 -3.10862 5
    endloop
  endfacet
  facet normal -0.951056 0.309017 0
    outer loop
      vertex -12.1073 3.10862 0
      vertex -11.6222 4.60156 5
      vertex -11.6222 4.60156 0
    endloop
  endfacet
  facet normal -0.951056 0.309017 0
    outer loop
      vertex -11.6222 4.60156 5
      vertex -12.1073 3.10862 0
      vertex -12.1073 3.10862 5
    endloop
  endfacet
  facet normal -0.49877 0.0951453 0.861496
    outer loop
      vertex -12.1073 3.10862 5
      vertex -12.4014 1.56666 5
      vertex -3.87433 0.994759 10
    endloop
  endfacet
  facet normal -0.391239 0.323661 0.861496
    outer loop
      vertex -9.11211 8.55684 5
      vertex -10.1127 7.34731 5
      vertex -3.23607 2.35114 10
    endloop
  endfacet
  facet normal 0.998027 -0.062791 0
    outer loop
      vertex 12.4014 -1.56666 5
      vertex 12.5 0 0
      vertex 12.5 0 5
    endloop
  endfacet
  facet normal 0.998027 -0.062791 0
    outer loop
      vertex 12.5 0 0
      vertex 12.4014 -1.56666 5
      vertex 12.4014 -1.56666 0
    endloop
  endfacet
  facet normal 0.49877 -0.0951453 0.861496
    outer loop
      vertex 12.4014 -1.56666 5
      vertex 3.87433 -0.994759 10
      vertex 12.1073 -3.10862 5
    endloop
  endfacet
  facet normal 0.126276 -0.491812 0.861496
    outer loop
      vertex 3.86271 -11.8882 5
      vertex 1.23607 -3.80423 10
      vertex 2.34227 -12.2786 5
    endloop
  endfacet
  facet normal 0.391239 -0.323661 0.861496
    outer loop
      vertex 3.23607 -2.35114 10
      vertex 2.91587 -2.73819 10
      vertex 9.11211 -8.55684 5
    endloop
  endfacet
  facet normal 0.904827 -0.42578 0
    outer loop
      vertex 10.9538 -6.02192 5
      vertex 11.6222 -4.60156 0
      vertex 11.6222 -4.60156 5
    endloop
  endfacet
  facet normal 0.904827 -0.42578 0
    outer loop
      vertex 11.6222 -4.60156 0
      vertex 10.9538 -6.02192 5
      vertex 10.9538 -6.02192 0
    endloop
  endfacet
  facet normal -0.844328 -0.535827 0
    outer loop
      vertex -10.1127 -7.34731 0
      vertex -10.9538 -6.02192 5
      vertex -10.9538 -6.02192 0
    endloop
  endfacet
  facet normal -0.844328 -0.535827 0
    outer loop
      vertex -10.9538 -6.02192 5
      vertex -10.1127 -7.34731 0
      vertex -10.1127 -7.34731 5
    endloop
  endfacet
  facet normal -0.244618 -0.444957 0.861496
    outer loop
      vertex -2.14331 -3.37731 10
      vertex -6.69783 -10.5541 5
      vertex -5.32224 -11.3103 5
    endloop
  endfacet
  facet normal -0.347588 -0.370145 0.861496
    outer loop
      vertex -2.91587 -2.73819 10
      vertex -7.9678 -9.63142 5
      vertex -2.5497 -3.08205 10
    endloop
  endfacet
  facet normal 0.844328 0.535827 0
    outer loop
      vertex 10.9538 6.02192 5
      vertex 10.1127 7.34731 0
      vertex 10.1127 7.34731 5
    endloop
  endfacet
  facet normal 0.844328 0.535827 0
    outer loop
      vertex 10.1127 7.34731 0
      vertex 10.9538 6.02192 5
      vertex 10.9538 6.02192 0
    endloop
  endfacet
  facet normal 0.506762 0.0318831 0.861496
    outer loop
      vertex 12.4014 1.56666 5
      vertex 4 0 10
      vertex 12.5 0 5
    endloop
  endfacet
  facet normal -0.125333 0.992115 0
    outer loop
      vertex -0.784881 12.4753 0
      vertex -2.34227 12.2786 5
      vertex -0.784881 12.4753 5
    endloop
  endfacet
  facet normal -0.125333 0.992115 0
    outer loop
      vertex -2.34227 12.2786 5
      vertex -0.784881 12.4753 0
      vertex -2.34227 12.2786 0
    endloop
  endfacet
  facet normal 0 0.507764 0.861496
    outer loop
      vertex 0.784881 12.4753 5
      vertex -0.251162 3.99211 10
      vertex 0.251162 3.99211 10
    endloop
  endfacet
  facet normal 0 0.507764 0.861496
    outer loop
      vertex -0.251162 3.99211 10
      vertex 0.784881 12.4753 5
      vertex -0.784881 12.4753 5
    endloop
  endfacet
  facet normal 0.481754 0.876306 -0
    outer loop
      vertex 6.69783 10.5541 0
      vertex 5.32224 11.3103 5
      vertex 6.69783 10.5541 5
    endloop
  endfacet
  facet normal 0.481754 0.876306 0
    outer loop
      vertex 5.32224 11.3103 5
      vertex 6.69783 10.5541 0
      vertex 5.32224 11.3103 0
    endloop
  endfacet
  facet normal 0.368124 0.929777 -0
    outer loop
      vertex 5.32224 11.3103 0
      vertex 3.86271 11.8882 5
      vertex 5.32224 11.3103 5
    endloop
  endfacet
  facet normal 0.368124 0.929777 0
    outer loop
      vertex 3.86271 11.8882 5
      vertex 5.32224 11.3103 0
      vertex 3.86271 11.8882 0
    endloop
  endfacet
  facet normal -0.347589 0.370144 0.861496
    outer loop
      vertex -7.9678 9.63142 5
      vertex -9.11211 8.55684 5
      vertex -2.91587 2.73819 10
    endloop
  endfacet
  facet normal 0.347588 0.370145 0.861496
    outer loop
      vertex 7.9678 9.63142 5
      vertex 2.5497 3.08205 10
      vertex 2.91587 2.73819 10
    endloop
  endfacet
  facet normal 0.0636396 0.50376 0.861496
    outer loop
      vertex 0.784881 12.4753 5
      vertex 0.749525 3.92915 10
      vertex 2.34227 12.2786 5
    endloop
  endfacet
  facet normal 0.125333 0.992115 -0
    outer loop
      vertex 2.34227 12.2786 0
      vertex 0.784881 12.4753 5
      vertex 2.34227 12.2786 5
    endloop
  endfacet
  facet normal 0.125333 0.992115 0
    outer loop
      vertex 0.784881 12.4753 5
      vertex 2.34227 12.2786 0
      vertex 0.784881 12.4753 0
    endloop
  endfacet
  facet normal -0.684547 0.728968 0
    outer loop
      vertex -7.9678 9.63142 0
      vertex -9.11211 8.55684 5
      vertex -7.9678 9.63142 5
    endloop
  endfacet
  facet normal -0.684547 0.728968 0
    outer loop
      vertex -9.11211 8.55684 5
      vertex -7.9678 9.63142 0
      vertex -9.11211 8.55684 0
    endloop
  endfacet
  facet normal -0.587785 0.809017 0
    outer loop
      vertex -6.69783 10.5541 0
      vertex -7.9678 9.63142 5
      vertex -6.69783 10.5541 5
    endloop
  endfacet
  facet normal -0.587785 0.809017 0
    outer loop
      vertex -7.9678 9.63142 5
      vertex -6.69783 10.5541 0
      vertex -7.9678 9.63142 0
    endloop
  endfacet
  facet normal -0.368124 -0.929777 0
    outer loop
      vertex -5.32224 -11.3103 0
      vertex -3.86271 -11.8882 5
      vertex -5.32224 -11.3103 5
    endloop
  endfacet
  facet normal -0.368124 -0.929777 -0
    outer loop
      vertex -3.86271 -11.8882 5
      vertex -5.32224 -11.3103 0
      vertex -3.86271 -11.8882 0
    endloop
  endfacet
  facet normal 0 -0.507764 0.861496
    outer loop
      vertex -0.251162 -3.99211 10
      vertex 0.784881 -12.4753 5
      vertex 0.251162 -3.99211 10
    endloop
  endfacet
  facet normal 0 -0.507764 0.861496
    outer loop
      vertex 0.784881 -12.4753 5
      vertex -0.251162 -3.99211 10
      vertex -0.784881 -12.4753 5
    endloop
  endfacet
  facet normal -0.0636396 -0.50376 0.861496
    outer loop
      vertex -0.749525 -3.92915 10
      vertex -2.34227 -12.2786 5
      vertex -0.784881 -12.4753 5
    endloop
  endfacet
  facet normal 0.24869 -0.968583 0
    outer loop
      vertex 2.34227 -12.2786 0
      vertex 3.86271 -11.8882 5
      vertex 2.34227 -12.2786 5
    endloop
  endfacet
  facet normal 0.24869 -0.968583 0
    outer loop
      vertex 3.86271 -11.8882 5
      vertex 2.34227 -12.2786 0
      vertex 3.86271 -11.8882 0
    endloop
  endfacet
  facet normal 0.18692 -0.472107 0.861496
    outer loop
      vertex 5.32224 -11.3103 5
      vertex 1.23607 -3.80423 10
      vertex 3.86271 -11.8882 5
    endloop
  endfacet
  facet normal -0.951056 -0.309017 0
    outer loop
      vertex -11.6222 -4.60156 0
      vertex -12.1073 -3.10862 5
      vertex -12.1073 -3.10862 0
    endloop
  endfacet
  facet normal -0.951056 -0.309017 0
    outer loop
      vertex -12.1073 -3.10862 5
      vertex -11.6222 -4.60156 0
      vertex -11.6222 -4.60156 5
    endloop
  endfacet
  facet normal -0.998027 0.062791 0
    outer loop
      vertex -12.5 0 0
      vertex -12.4014 1.56666 5
      vertex -12.4014 1.56666 0
    endloop
  endfacet
  facet normal -0.998027 0.062791 0
    outer loop
      vertex -12.4014 1.56666 5
      vertex -12.5 0 0
      vertex -12.5 0 5
    endloop
  endfacet
  facet normal -0.982287 0.187381 0
    outer loop
      vertex -12.4014 1.56666 0
      vertex -12.1073 3.10862 5
      vertex -12.1073 3.10862 0
    endloop
  endfacet
  facet normal -0.982287 0.187381 0
    outer loop
      vertex -12.1073 3.10862 5
      vertex -12.4014 1.56666 0
      vertex -12.4014 1.56666 5
    endloop
  endfacet
  facet normal -0.904827 0.42578 0
    outer loop
      vertex -11.6222 4.60156 0
      vertex -10.9538 6.02192 5
      vertex -10.9538 6.02192 0
    endloop
  endfacet
  facet normal -0.904827 0.42578 0
    outer loop
      vertex -10.9538 6.02192 5
      vertex -11.6222 4.60156 0
      vertex -11.6222 4.60156 5
    endloop
  endfacet
  facet normal -0.844328 0.535827 0
    outer loop
      vertex -10.9538 6.02192 0
      vertex -10.1127 7.34731 5
      vertex -10.1127 7.34731 0
    endloop
  endfacet
  facet normal -0.844328 0.535827 0
    outer loop
      vertex -10.1127 7.34731 5
      vertex -10.9538 6.02192 0
      vertex -10.9538 6.02192 5
    endloop
  endfacet
  facet normal 0.482913 -0.156908 0.861496
    outer loop
      vertex 3.87433 -0.994759 10
      vertex 3.71911 -1.4725 10
      vertex 12.1073 -3.10862 5
    endloop
  endfacet
  facet normal 0.244617 -0.444957 0.861496
    outer loop
      vertex 2.14331 -3.37731 10
      vertex 1.70312 -3.61931 10
      vertex 5.32224 -11.3103 5
    endloop
  endfacet
  facet normal 0.587785 -0.809017 0
    outer loop
      vertex 6.69783 -10.5541 0
      vertex 7.9678 -9.63142 5
      vertex 6.69783 -10.5541 5
    endloop
  endfacet
  facet normal 0.587785 -0.809017 0
    outer loop
      vertex 7.9678 -9.63142 5
      vertex 6.69783 -10.5541 0
      vertex 7.9678 -9.63142 0
    endloop
  endfacet
  facet normal 0.244618 -0.444957 0.861496
    outer loop
      vertex 6.69783 -10.5541 5
      vertex 2.14331 -3.37731 10
      vertex 5.32224 -11.3103 5
    endloop
  endfacet
  facet normal 0.844328 -0.535827 0
    outer loop
      vertex 10.1127 -7.34731 5
      vertex 10.9538 -6.02192 0
      vertex 10.9538 -6.02192 5
    endloop
  endfacet
  facet normal 0.844328 -0.535827 0
    outer loop
      vertex 10.9538 -6.02192 0
      vertex 10.1127 -7.34731 5
      vertex 10.1127 -7.34731 0
    endloop
  endfacet
  facet normal 0.42872 -0.272074 0.861496
    outer loop
      vertex 10.9538 -6.02192 5
      vertex 3.23607 -2.35114 10
      vertex 10.1127 -7.34731 5
    endloop
  endfacet
  facet normal 0.770513 -0.637424 0
    outer loop
      vertex 9.11211 -8.55684 5
      vertex 10.1127 -7.34731 0
      vertex 10.1127 -7.34731 5
    endloop
  endfacet
  facet normal 0.770513 -0.637424 0
    outer loop
      vertex 10.1127 -7.34731 0
      vertex 9.11211 -8.55684 5
      vertex 9.11211 -8.55684 0
    endloop
  endfacet
  facet normal 0.684547 -0.728968 0
    outer loop
      vertex 7.9678 -9.63142 0
      vertex 9.11211 -8.55684 5
      vertex 7.9678 -9.63142 5
    endloop
  endfacet
  facet normal 0.684547 -0.728968 0
    outer loop
      vertex 9.11211 -8.55684 5
      vertex 7.9678 -9.63142 0
      vertex 9.11211 -8.55684 0
    endloop
  endfacet
  facet normal -0.42872 -0.272073 0.861496
    outer loop
      vertex -3.50523 -1.92701 10
      vertex -10.9538 -6.02192 5
      vertex -3.23607 -2.35114 10
    endloop
  endfacet
  facet normal -0.0636396 -0.50376 0.861496
    outer loop
      vertex -0.749525 -3.92915 10
      vertex -0.784881 -12.4753 5
      vertex -0.251162 -3.99211 10
    endloop
  endfacet
  facet normal 0.0636396 -0.50376 0.861496
    outer loop
      vertex 0.749525 -3.92915 10
      vertex 0.251162 -3.99211 10
      vertex 0.784881 -12.4753 5
    endloop
  endfacet
  facet normal 0.459439 0.216196 0.861496
    outer loop
      vertex 10.9538 6.02192 5
      vertex 3.50523 1.92701 10
      vertex 3.71911 1.4725 10
    endloop
  endfacet
  facet normal 0.587785 0.809017 -0
    outer loop
      vertex 7.9678 9.63142 0
      vertex 6.69783 10.5541 5
      vertex 7.9678 9.63142 5
    endloop
  endfacet
  facet normal 0.587785 0.809017 0
    outer loop
      vertex 6.69783 10.5541 5
      vertex 7.9678 9.63142 0
      vertex 6.69783 10.5541 0
    endloop
  endfacet
  facet normal -0.0636396 0.50376 0.861496
    outer loop
      vertex -0.784881 12.4753 5
      vertex -2.34227 12.2786 5
      vertex -0.749525 3.92915 10
    endloop
  endfacet
  facet normal -0.459439 0.216196 0.861496
    outer loop
      vertex -10.9538 6.02192 5
      vertex -11.6222 4.60156 5
      vertex -3.71911 1.4725 10
    endloop
  endfacet
  facet normal -0.482913 0.156908 0.861496
    outer loop
      vertex -11.6222 4.60156 5
      vertex -12.1073 3.10862 5
      vertex -3.71911 1.4725 10
    endloop
  endfacet
  facet normal 0.391239 0.323661 0.861496
    outer loop
      vertex 9.11211 8.55684 5
      vertex 2.91587 2.73819 10
      vertex 3.23607 2.35114 10
    endloop
  endfacet
  facet normal 0.298456 0.41079 0.861496
    outer loop
      vertex 6.69783 10.5541 5
      vertex 2.14331 3.37731 10
      vertex 7.9678 9.63142 5
    endloop
  endfacet
  facet normal 0.244618 0.444957 0.861496
    outer loop
      vertex 5.32224 11.3103 5
      vertex 2.14331 3.37731 10
      vertex 6.69783 10.5541 5
    endloop
  endfacet
  facet normal 0 -1 0
    outer loop
      vertex -0.784881 -12.4753 0
      vertex 0.784881 -12.4753 5
      vertex -0.784881 -12.4753 5
    endloop
  endfacet
  facet normal 0 -1 -0
    outer loop
      vertex 0.784881 -12.4753 5
      vertex -0.784881 -12.4753 0
      vertex 0.784881 -12.4753 0
    endloop
  endfacet
  facet normal -0.125333 -0.992115 0
    outer loop
      vertex -2.34227 -12.2786 0
      vertex -0.784881 -12.4753 5
      vertex -2.34227 -12.2786 5
    endloop
  endfacet
  facet normal -0.125333 -0.992115 -0
    outer loop
      vertex -0.784881 -12.4753 5
      vertex -2.34227 -12.2786 0
      vertex -0.784881 -12.4753 0
    endloop
  endfacet
  facet normal 0.459439 -0.216196 0.861496
    outer loop
      vertex 11.6222 -4.60156 5
      vertex 3.71911 -1.4725 10
      vertex 10.9538 -6.02192 5
    endloop
  endfacet
  facet normal 0.506762 0.0318835 0.861496
    outer loop
      vertex 12.4014 1.56666 5
      vertex 3.96846 0.501332 10
      vertex 4 0 10
    endloop
  endfacet
  facet normal 0.186921 -0.472107 0.861496
    outer loop
      vertex 1.70312 -3.61931 10
      vertex 1.23607 -3.80423 10
      vertex 5.32224 -11.3103 5
    endloop
  endfacet
  facet normal 0.298456 -0.41079 0.861496
    outer loop
      vertex 7.9678 -9.63142 5
      vertex 2.14331 -3.37731 10
      vertex 6.69783 -10.5541 5
    endloop
  endfacet
  facet normal 0.298456 -0.41079 0.861496
    outer loop
      vertex 2.5497 -3.08205 10
      vertex 2.14331 -3.37731 10
      vertex 7.9678 -9.63142 5
    endloop
  endfacet
  facet normal -0.298456 -0.41079 0.861496
    outer loop
      vertex -2.14331 -3.37731 10
      vertex -7.9678 -9.63142 5
      vertex -6.69783 -10.5541 5
    endloop
  endfacet
  facet normal -0.298456 -0.41079 0.861496
    outer loop
      vertex -2.5497 -3.08205 10
      vertex -7.9678 -9.63142 5
      vertex -2.14331 -3.37731 10
    endloop
  endfacet
  facet normal -0.391239 -0.323661 0.861496
    outer loop
      vertex -3.23607 -2.35114 10
      vertex -9.11211 -8.55684 5
      vertex -2.91587 -2.73819 10
    endloop
  endfacet
  facet normal -0.391239 -0.323661 0.861496
    outer loop
      vertex -3.23607 -2.35114 10
      vertex -10.1127 -7.34731 5
      vertex -9.11211 -8.55684 5
    endloop
  endfacet
  facet normal -0.770513 -0.637424 0
    outer loop
      vertex -9.11211 -8.55684 0
      vertex -10.1127 -7.34731 5
      vertex -10.1127 -7.34731 0
    endloop
  endfacet
  facet normal -0.770513 -0.637424 0
    outer loop
      vertex -10.1127 -7.34731 5
      vertex -9.11211 -8.55684 0
      vertex -9.11211 -8.55684 5
    endloop
  endfacet
  facet normal -0.904827 -0.42578 0
    outer loop
      vertex -10.9538 -6.02192 0
      vertex -11.6222 -4.60156 5
      vertex -11.6222 -4.60156 0
    endloop
  endfacet
  facet normal -0.904827 -0.42578 0
    outer loop
      vertex -11.6222 -4.60156 5
      vertex -10.9538 -6.02192 0
      vertex -10.9538 -6.02192 5
    endloop
  endfacet
  facet normal -0.298456 0.41079 0.861496
    outer loop
      vertex -6.69783 10.5541 5
      vertex -7.9678 9.63142 5
      vertex -2.14331 3.37731 10
    endloop
  endfacet
  facet normal -0.244618 0.444957 0.861496
    outer loop
      vertex -5.32224 11.3103 5
      vertex -6.69783 10.5541 5
      vertex -2.14331 3.37731 10
    endloop
  endfacet
  facet normal -0.347588 0.370145 0.861496
    outer loop
      vertex -2.5497 3.08205 10
      vertex -7.9678 9.63142 5
      vertex -2.91587 2.73819 10
    endloop
  endfacet
  facet normal -0.126276 0.491812 0.861496
    outer loop
      vertex -0.749525 3.92915 10
      vertex -2.34227 12.2786 5
      vertex -1.23607 3.80423 10
    endloop
  endfacet
  facet normal -0.482913 0.156908 0.861496
    outer loop
      vertex -3.71911 1.4725 10
      vertex -12.1073 3.10862 5
      vertex -3.87433 0.994759 10
    endloop
  endfacet
  facet normal -0.42872 0.272073 0.861496
    outer loop
      vertex -3.23607 2.35114 10
      vertex -10.9538 6.02192 5
      vertex -3.50523 1.92701 10
    endloop
  endfacet
  facet normal 0.42872 0.272074 0.861496
    outer loop
      vertex 10.1127 7.34731 5
      vertex 3.23607 2.35114 10
      vertex 10.9538 6.02192 5
    endloop
  endfacet
  facet normal 0.391239 0.323661 0.861496
    outer loop
      vertex 9.11211 8.55684 5
      vertex 3.23607 2.35114 10
      vertex 10.1127 7.34731 5
    endloop
  endfacet
  facet normal 0.186921 0.472107 0.861496
    outer loop
      vertex 5.32224 11.3103 5
      vertex 1.23607 3.80423 10
      vertex 1.70312 3.61931 10
    endloop
  endfacet
  facet normal 0.391239 -0.323661 0.861496
    outer loop
      vertex 10.1127 -7.34731 5
      vertex 3.23607 -2.35114 10
      vertex 9.11211 -8.55684 5
    endloop
  endfacet
  facet normal 0.49877 -0.0951452 0.861496
    outer loop
      vertex 3.96846 -0.501332 10
      vertex 3.87433 -0.994759 10
      vertex 12.4014 -1.56666 5
    endloop
  endfacet
  facet normal 0.49877 0.0951453 0.861496
    outer loop
      vertex 12.1073 3.10862 5
      vertex 3.87433 0.994759 10
      vertex 12.4014 1.56666 5
    endloop
  endfacet
  facet normal 0.482913 0.156908 0.861496
    outer loop
      vertex 12.1073 3.10862 5
      vertex 3.71911 1.4725 10
      vertex 3.87433 0.994759 10
    endloop
  endfacet
  facet normal -0.481754 -0.876306 0
    outer loop
      vertex -6.69783 -10.5541 0
      vertex -5.32224 -11.3103 5
      vertex -6.69783 -10.5541 5
    endloop
  endfacet
  facet normal -0.481754 -0.876306 -0
    outer loop
      vertex -5.32224 -11.3103 5
      vertex -6.69783 -10.5541 0
      vertex -5.32224 -11.3103 0
    endloop
  endfacet
  facet normal -0.587785 -0.809017 0
    outer loop
      vertex -7.9678 -9.63142 0
      vertex -6.69783 -10.5541 5
      vertex -7.9678 -9.63142 5
    endloop
  endfacet
  facet normal -0.587785 -0.809017 -0
    outer loop
      vertex -6.69783 -10.5541 5
      vertex -7.9678 -9.63142 0
      vertex -6.69783 -10.5541 0
    endloop
  endfacet
  facet normal -0.18692 -0.472107 0.861496
    outer loop
      vertex -1.23607 -3.80423 10
      vertex -5.32224 -11.3103 5
      vertex -3.86271 -11.8882 5
    endloop
  endfacet
  facet normal -0.42872 -0.272074 0.861496
    outer loop
      vertex -3.23607 -2.35114 10
      vertex -10.9538 -6.02192 5
      vertex -10.1127 -7.34731 5
    endloop
  endfacet
  facet normal -0.684547 -0.728968 0
    outer loop
      vertex -9.11211 -8.55684 0
      vertex -7.9678 -9.63142 5
      vertex -9.11211 -8.55684 5
    endloop
  endfacet
  facet normal -0.684547 -0.728968 -0
    outer loop
      vertex -7.9678 -9.63142 5
      vertex -9.11211 -8.55684 0
      vertex -7.9678 -9.63142 0
    endloop
  endfacet
  facet normal -0.347589 -0.370144 0.861496
    outer loop
      vertex -2.91587 -2.73819 10
      vertex -9.11211 -8.55684 5
      vertex -7.9678 -9.63142 5
    endloop
  endfacet
  facet normal -0.482913 -0.156908 0.861496
    outer loop
      vertex -3.71911 -1.4725 10
      vertex -12.1073 -3.10862 5
      vertex -11.6222 -4.60156 5
    endloop
  endfacet
  facet normal -0.459439 -0.216196 0.861496
    outer loop
      vertex -3.71911 -1.4725 10
      vertex -11.6222 -4.60156 5
      vertex -10.9538 -6.02192 5
    endloop
  endfacet
  facet normal -0.298456 0.41079 0.861496
    outer loop
      vertex -2.14331 3.37731 10
      vertex -7.9678 9.63142 5
      vertex -2.5497 3.08205 10
    endloop
  endfacet
  facet normal -0.126276 0.491812 0.861496
    outer loop
      vertex -2.34227 12.2786 5
      vertex -3.86271 11.8882 5
      vertex -1.23607 3.80423 10
    endloop
  endfacet
  facet normal -0.18692 0.472107 0.861496
    outer loop
      vertex -3.86271 11.8882 5
      vertex -5.32224 11.3103 5
      vertex -1.23607 3.80423 10
    endloop
  endfacet
  facet normal -0.0636396 0.50376 0.861496
    outer loop
      vertex -0.251162 3.99211 10
      vertex -0.784881 12.4753 5
      vertex -0.749525 3.92915 10
    endloop
  endfacet
  facet normal -0.506762 0.0318835 0.861496
    outer loop
      vertex -3.96846 0.501332 10
      vertex -12.4014 1.56666 5
      vertex -4 0 10
    endloop
  endfacet
  facet normal -0.506762 0.0318831 0.861496
    outer loop
      vertex -12.4014 1.56666 5
      vertex -12.5 0 5
      vertex -4 0 10
    endloop
  endfacet
  facet normal 0.42872 0.272073 0.861496
    outer loop
      vertex 10.9538 6.02192 5
      vertex 3.23607 2.35114 10
      vertex 3.50523 1.92701 10
    endloop
  endfacet
  facet normal 0.244617 0.444957 0.861496
    outer loop
      vertex 5.32224 11.3103 5
      vertex 1.70312 3.61931 10
      vertex 2.14331 3.37731 10
    endloop
  endfacet
  facet normal 0.49877 0.0951452 0.861496
    outer loop
      vertex 12.4014 1.56666 5
      vertex 3.87433 0.994759 10
      vertex 3.96846 0.501332 10
    endloop
  endfacet
  facet normal -0.244617 -0.444957 0.861496
    outer loop
      vertex -2.14331 -3.37731 10
      vertex -5.32224 -11.3103 5
      vertex -1.70312 -3.61931 10
    endloop
  endfacet
  facet normal -0.186921 -0.472107 0.861496
    outer loop
      vertex -1.70312 -3.61931 10
      vertex -5.32224 -11.3103 5
      vertex -1.23607 -3.80423 10
    endloop
  endfacet
  facet normal -0.24869 -0.968583 0
    outer loop
      vertex -3.86271 -11.8882 0
      vertex -2.34227 -12.2786 5
      vertex -3.86271 -11.8882 5
    endloop
  endfacet
  facet normal -0.24869 -0.968583 -0
    outer loop
      vertex -2.34227 -12.2786 5
      vertex -3.86271 -11.8882 0
      vertex -2.34227 -12.2786 0
    endloop
  endfacet
  facet normal -0.126276 -0.491812 0.861496
    outer loop
      vertex -1.23607 -3.80423 10
      vertex -3.86271 -11.8882 5
      vertex -2.34227 -12.2786 5
    endloop
  endfacet
  facet normal -0.186921 0.472107 0.861496
    outer loop
      vertex -1.23607 3.80423 10
      vertex -5.32224 11.3103 5
      vertex -1.70312 3.61931 10
    endloop
  endfacet
  facet normal -0.506762 -0.0318835 0.861496
    outer loop
      vertex -4 0 10
      vertex -12.4014 -1.56666 5
      vertex -3.96846 -0.501332 10
    endloop
  endfacet
  facet normal 0 0 1
    outer loop
      vertex 2.5 0 10
      vertex 4 0 10
      vertex 3.96846 0.501332 10
    endloop
  endfacet
  facet normal 0 0 1
    outer loop
      vertex 2.48029 0.313333 10
      vertex 3.96846 0.501332 10
      vertex 3.87433 0.994759 10
    endloop
  endfacet
  facet normal 0 0 1
    outer loop
      vertex 4 0 10
      vertex 2.5 0 10
      vertex 3.96846 -0.501332 10
    endloop
  endfacet
  facet normal 0 0 1
    outer loop
      vertex 2.42146 0.621724 10
      vertex 3.87433 0.994759 10
      vertex 3.71911 1.4725 10
    endloop
  endfacet
  facet normal -0 0 1
    outer loop
      vertex 2.48029 -0.313333 10
      vertex 3.96846 -0.501332 10
      vertex 2.5 0 10
    endloop
  endfacet
  facet normal 0 0 1
    outer loop
      vertex 2.32444 0.920311 10
      vertex 3.71911 1.4725 10
      vertex 3.50523 1.92701 10
    endloop
  endfacet
  facet normal 0 0 1
    outer loop
      vertex 3.96846 -0.501332 10
      vertex 2.48029 -0.313333 10
      vertex 3.87433 -0.994759 10
    endloop
  endfacet
  facet normal 0 0 1
    outer loop
      vertex 2.19077 1.20438 10
      vertex 3.50523 1.92701 10
      vertex 3.23607 2.35114 10
    endloop
  endfacet
  facet normal -0 0 1
    outer loop
      vertex 2.42146 -0.621724 10
      vertex 3.87433 -0.994759 10
      vertex 2.48029 -0.313333 10
    endloop
  endfacet
  facet normal 0 0 1
    outer loop
      vertex 2.02254 1.46946 10
      vertex 3.23607 2.35114 10
      vertex 2.91587 2.73819 10
    endloop
  endfacet
  facet normal 0 0 1
    outer loop
      vertex 3.87433 -0.994759 10
      vertex 2.42146 -0.621724 10
      vertex 3.71911 -1.4725 10
    endloop
  endfacet
  facet normal 0 0 1
    outer loop
      vertex 1.82242 1.71137 10
      vertex 2.91587 2.73819 10
      vertex 2.5497 3.08205 10
    endloop
  endfacet
  facet normal -0 0 1
    outer loop
      vertex 2.32444 -0.920311 10
      vertex 3.71911 -1.4725 10
      vertex 2.42146 -0.621724 10
    endloop
  endfacet
  facet normal 0 0 1
    outer loop
      vertex 3.71911 -1.4725 10
      vertex 2.32444 -0.920311 10
      vertex 3.50523 -1.92701 10
    endloop
  endfacet
  facet normal 0 0 1
    outer loop
      vertex 3.96846 0.501332 10
      vertex 2.48029 0.313333 10
      vertex 2.5 0 10
    endloop
  endfacet
  facet normal 0 0 1
    outer loop
      vertex 3.87433 0.994759 10
      vertex 2.42146 0.621724 10
      vertex 2.48029 0.313333 10
    endloop
  endfacet
  facet normal 0 0 1
    outer loop
      vertex 3.71911 1.4725 10
      vertex 2.32444 0.920311 10
      vertex 2.42146 0.621724 10
    endloop
  endfacet
  facet normal 0 0 1
    outer loop
      vertex 3.50523 1.92701 10
      vertex 2.19077 1.20438 10
      vertex 2.32444 0.920311 10
    endloop
  endfacet
  facet normal 0 0 1
    outer loop
      vertex 1.59356 1.92628 10
      vertex 2.5497 3.08205 10
      vertex 2.14331 3.37731 10
    endloop
  endfacet
  facet normal 0 0 1
    outer loop
      vertex 3.23607 2.35114 10
      vertex 2.02254 1.46946 10
      vertex 2.19077 1.20438 10
    endloop
  endfacet
  facet normal 0 0 1
    outer loop
      vertex 2.91587 2.73819 10
      vertex 1.82242 1.71137 10
      vertex 2.02254 1.46946 10
    endloop
  endfacet
  facet normal 0 0 1
    outer loop
      vertex 1.33957 2.11082 10
      vertex 2.14331 3.37731 10
      vertex 1.70312 3.61931 10
    endloop
  endfacet
  facet normal 0 0 1
    outer loop
      vertex 2.5497 3.08205 10
      vertex 1.59356 1.92628 10
      vertex 1.82242 1.71137 10
    endloop
  endfacet
  facet normal 0 0 1
    outer loop
      vertex 2.14331 3.37731 10
      vertex 1.33957 2.11082 10
      vertex 1.59356 1.92628 10
    endloop
  endfacet
  facet normal 0 0 1
    outer loop
      vertex 1.06445 2.26207 10
      vertex 1.70312 3.61931 10
      vertex 1.23607 3.80423 10
    endloop
  endfacet
  facet normal 0 0 1
    outer loop
      vertex 1.70312 3.61931 10
      vertex 1.06445 2.26207 10
      vertex 1.33957 2.11082 10
    endloop
  endfacet
  facet normal 0 0 1
    outer loop
      vertex 1.23607 3.80423 10
      vertex 0.772542 2.37764 10
      vertex 1.06445 2.26207 10
    endloop
  endfacet
  facet normal 0 0 1
    outer loop
      vertex 0.749525 3.92915 10
      vertex 0.772542 2.37764 10
      vertex 1.23607 3.80423 10
    endloop
  endfacet
  facet normal 0 0 1
    outer loop
      vertex 0.749525 3.92915 10
      vertex 0.468452 2.45572 10
      vertex 0.772542 2.37764 10
    endloop
  endfacet
  facet normal 0 0 1
    outer loop
      vertex 0.251162 3.99211 10
      vertex 0.468452 2.45572 10
      vertex 0.749525 3.92915 10
    endloop
  endfacet
  facet normal 0 0 1
    outer loop
      vertex 0.251162 3.99211 10
      vertex 0.156976 2.49507 10
      vertex 0.468452 2.45572 10
    endloop
  endfacet
  facet normal 0 0 1
    outer loop
      vertex 0.251162 3.99211 10
      vertex -0.156976 2.49507 10
      vertex 0.156976 2.49507 10
    endloop
  endfacet
  facet normal -0 0 1
    outer loop
      vertex -0.251162 3.99211 10
      vertex -0.156976 2.49507 10
      vertex 0.251162 3.99211 10
    endloop
  endfacet
  facet normal 0 0 1
    outer loop
      vertex -0.251162 3.99211 10
      vertex -0.468452 2.45572 10
      vertex -0.156976 2.49507 10
    endloop
  endfacet
  facet normal -0 0 1
    outer loop
      vertex -0.749525 3.92915 10
      vertex -0.468452 2.45572 10
      vertex -0.251162 3.99211 10
    endloop
  endfacet
  facet normal 0 0 1
    outer loop
      vertex -0.749525 3.92915 10
      vertex -0.772542 2.37764 10
      vertex -0.468452 2.45572 10
    endloop
  endfacet
  facet normal -0 0 1
    outer loop
      vertex -1.23607 3.80423 10
      vertex -0.772542 2.37764 10
      vertex -0.749525 3.92915 10
    endloop
  endfacet
  facet normal 0 0 1
    outer loop
      vertex -0.772542 2.37764 10
      vertex -1.23607 3.80423 10
      vertex -1.06445 2.26207 10
    endloop
  endfacet
  facet normal -0 0 1
    outer loop
      vertex -1.70312 3.61931 10
      vertex -1.06445 2.26207 10
      vertex -1.23607 3.80423 10
    endloop
  endfacet
  facet normal 0 0 1
    outer loop
      vertex -1.06445 2.26207 10
      vertex -1.70312 3.61931 10
      vertex -1.33957 2.11082 10
    endloop
  endfacet
  facet normal -0 0 1
    outer loop
      vertex -2.14331 3.37731 10
      vertex -1.33957 2.11082 10
      vertex -1.70312 3.61931 10
    endloop
  endfacet
  facet normal 0 0 1
    outer loop
      vertex -1.33957 2.11082 10
      vertex -2.14331 3.37731 10
      vertex -1.59356 1.92628 10
    endloop
  endfacet
  facet normal -0 0 1
    outer loop
      vertex -2.5497 3.08205 10
      vertex -1.59356 1.92628 10
      vertex -2.14331 3.37731 10
    endloop
  endfacet
  facet normal 0 0 1
    outer loop
      vertex -1.59356 1.92628 10
      vertex -2.5497 3.08205 10
      vertex -1.82242 1.71137 10
    endloop
  endfacet
  facet normal -0 0 1
    outer loop
      vertex -2.91587 2.73819 10
      vertex -1.82242 1.71137 10
      vertex -2.5497 3.08205 10
    endloop
  endfacet
  facet normal 0 0 1
    outer loop
      vertex -1.82242 1.71137 10
      vertex -2.91587 2.73819 10
      vertex -2.02254 1.46946 10
    endloop
  endfacet
  facet normal -0 0 1
    outer loop
      vertex -3.23607 2.35114 10
      vertex -2.02254 1.46946 10
      vertex -2.91587 2.73819 10
    endloop
  endfacet
  facet normal 0 0 1
    outer loop
      vertex -2.02254 1.46946 10
      vertex -3.23607 2.35114 10
      vertex -2.19077 1.20438 10
    endloop
  endfacet
  facet normal 0 0 1
    outer loop
      vertex -2.19077 1.20438 10
      vertex -3.50523 1.92701 10
      vertex -2.32444 0.920311 10
    endloop
  endfacet
  facet normal -0 0 1
    outer loop
      vertex -3.50523 1.92701 10
      vertex -2.19077 1.20438 10
      vertex -3.23607 2.35114 10
    endloop
  endfacet
  facet normal -0 0 1
    outer loop
      vertex 2.19077 -1.20438 10
      vertex 3.50523 -1.92701 10
      vertex 2.32444 -0.920311 10
    endloop
  endfacet
  facet normal 0 0 1
    outer loop
      vertex 3.50523 -1.92701 10
      vertex 2.19077 -1.20438 10
      vertex 3.23607 -2.35114 10
    endloop
  endfacet
  facet normal -0 0 1
    outer loop
      vertex 2.02254 -1.46946 10
      vertex 3.23607 -2.35114 10
      vertex 2.19077 -1.20438 10
    endloop
  endfacet
  facet normal 0 0 1
    outer loop
      vertex 3.23607 -2.35114 10
      vertex 2.02254 -1.46946 10
      vertex 2.91587 -2.73819 10
    endloop
  endfacet
  facet normal -0 0 1
    outer loop
      vertex 1.82242 -1.71137 10
      vertex 2.91587 -2.73819 10
      vertex 2.02254 -1.46946 10
    endloop
  endfacet
  facet normal 0 0 1
    outer loop
      vertex 2.91587 -2.73819 10
      vertex 1.82242 -1.71137 10
      vertex 2.5497 -3.08205 10
    endloop
  endfacet
  facet normal -0 0 1
    outer loop
      vertex 1.59356 -1.92628 10
      vertex 2.5497 -3.08205 10
      vertex 1.82242 -1.71137 10
    endloop
  endfacet
  facet normal 0 0 1
    outer loop
      vertex 2.5497 -3.08205 10
      vertex 1.59356 -1.92628 10
      vertex 2.14331 -3.37731 10
    endloop
  endfacet
  facet normal -0 0 1
    outer loop
      vertex 1.33957 -2.11082 10
      vertex 2.14331 -3.37731 10
      vertex 1.59356 -1.92628 10
    endloop
  endfacet
  facet normal 0 0 1
    outer loop
      vertex 2.14331 -3.37731 10
      vertex 1.33957 -2.11082 10
      vertex 1.70312 -3.61931 10
    endloop
  endfacet
  facet normal -0 0 1
    outer loop
      vertex 1.06445 -2.26207 10
      vertex 1.70312 -3.61931 10
      vertex 1.33957 -2.11082 10
    endloop
  endfacet
  facet normal 0 0 1
    outer loop
      vertex 1.70312 -3.61931 10
      vertex 1.06445 -2.26207 10
      vertex 1.23607 -3.80423 10
    endloop
  endfacet
  facet normal -0 0 1
    outer loop
      vertex 0.772542 -2.37764 10
      vertex 1.23607 -3.80423 10
      vertex 1.06445 -2.26207 10
    endloop
  endfacet
  facet normal 0 0 1
    outer loop
      vertex 0.772542 -2.37764 10
      vertex 0.749525 -3.92915 10
      vertex 1.23607 -3.80423 10
    endloop
  endfacet
  facet normal -0 0 1
    outer loop
      vertex 0.468452 -2.45572 10
      vertex 0.749525 -3.92915 10
      vertex 0.772542 -2.37764 10
    endloop
  endfacet
  facet normal 0 0 1
    outer loop
      vertex 0.468452 -2.45572 10
      vertex 0.251162 -3.99211 10
      vertex 0.749525 -3.92915 10
    endloop
  endfacet
  facet normal -0 0 1
    outer loop
      vertex 0.156976 -2.49507 10
      vertex 0.251162 -3.99211 10
      vertex 0.468452 -2.45572 10
    endloop
  endfacet
  facet normal -0 0 1
    outer loop
      vertex -0.156976 -2.49507 10
      vertex 0.251162 -3.99211 10
      vertex 0.156976 -2.49507 10
    endloop
  endfacet
  facet normal 0 0 1
    outer loop
      vertex -0.156976 -2.49507 10
      vertex -0.251162 -3.99211 10
      vertex 0.251162 -3.99211 10
    endloop
  endfacet
  facet normal 0 0 1
    outer loop
      vertex -0.468452 -2.45572 10
      vertex -0.251162 -3.99211 10
      vertex -0.156976 -2.49507 10
    endloop
  endfacet
  facet normal 0 0 1
    outer loop
      vertex -0.468452 -2.45572 10
      vertex -0.749525 -3.92915 10
      vertex -0.251162 -3.99211 10
    endloop
  endfacet
  facet normal 0 0 1
    outer loop
      vertex -0.772542 -2.37764 10
      vertex -0.749525 -3.92915 10
      vertex -0.468452 -2.45572 10
    endloop
  endfacet
  facet normal 0 0 1
    outer loop
      vertex -1.23607 -3.80423 10
      vertex -0.772542 -2.37764 10
      vertex -1.06445 -2.26207 10
    endloop
  endfacet
  facet normal 0 0 1
    outer loop
      vertex -0.772542 -2.37764 10
      vertex -1.23607 -3.80423 10
      vertex -0.749525 -3.92915 10
    endloop
  endfacet
  facet normal 0 0 1
    outer loop
      vertex -1.70312 -3.61931 10
      vertex -1.06445 -2.26207 10
      vertex -1.33957 -2.11082 10
    endloop
  endfacet
  facet normal 0 0 1
    outer loop
      vertex -2.14331 -3.37731 10
      vertex -1.33957 -2.11082 10
      vertex -1.59356 -1.92628 10
    endloop
  endfacet
  facet normal 0 0 1
    outer loop
      vertex -1.06445 -2.26207 10
      vertex -1.70312 -3.61931 10
      vertex -1.23607 -3.80423 10
    endloop
  endfacet
  facet normal 0 0 1
    outer loop
      vertex -2.5497 -3.08205 10
      vertex -1.59356 -1.92628 10
      vertex -1.82242 -1.71137 10
    endloop
  endfacet
  facet normal 0 0 1
    outer loop
      vertex -2.91587 -2.73819 10
      vertex -1.82242 -1.71137 10
      vertex -2.02254 -1.46946 10
    endloop
  endfacet
  facet normal 0 0 1
    outer loop
      vertex -1.33957 -2.11082 10
      vertex -2.14331 -3.37731 10
      vertex -1.70312 -3.61931 10
    endloop
  endfacet
  facet normal 0 0 1
    outer loop
      vertex -3.23607 -2.35114 10
      vertex -2.02254 -1.46946 10
      vertex -2.19077 -1.20438 10
    endloop
  endfacet
  facet normal 0 0 1
    outer loop
      vertex -3.50523 -1.92701 10
      vertex -2.19077 -1.20438 10
      vertex -2.32444 -0.920311 10
    endloop
  endfacet
  facet normal 0 0 1
    outer loop
      vertex -3.71911 -1.4725 10
      vertex -2.32444 -0.920311 10
      vertex -2.42146 -0.621724 10
    endloop
  endfacet
  facet normal 0 0 1
    outer loop
      vertex -3.87433 -0.994759 10
      vertex -2.42146 -0.621724 10
      vertex -2.48029 -0.313333 10
    endloop
  endfacet
  facet normal 0 0 1
    outer loop
      vertex -1.59356 -1.92628 10
      vertex -2.5497 -3.08205 10
      vertex -2.14331 -3.37731 10
    endloop
  endfacet
  facet normal 0 0 1
    outer loop
      vertex -3.96846 -0.501332 10
      vertex -2.48029 -0.313333 10
      vertex -2.5 0 10
    endloop
  endfacet
  facet normal -0 0 1
    outer loop
      vertex -3.71911 1.4725 10
      vertex -2.32444 0.920311 10
      vertex -3.50523 1.92701 10
    endloop
  endfacet
  facet normal 0 0 1
    outer loop
      vertex -2.32444 0.920311 10
      vertex -3.71911 1.4725 10
      vertex -2.42146 0.621724 10
    endloop
  endfacet
  facet normal 0 0 1
    outer loop
      vertex -1.82242 -1.71137 10
      vertex -2.91587 -2.73819 10
      vertex -2.5497 -3.08205 10
    endloop
  endfacet
  facet normal -0 0 1
    outer loop
      vertex -3.87433 0.994759 10
      vertex -2.42146 0.621724 10
      vertex -3.71911 1.4725 10
    endloop
  endfacet
  facet normal 0 0 1
    outer loop
      vertex -2.02254 -1.46946 10
      vertex -3.23607 -2.35114 10
      vertex -2.91587 -2.73819 10
    endloop
  endfacet
  facet normal 0 0 1
    outer loop
      vertex -2.42146 0.621724 10
      vertex -3.87433 0.994759 10
      vertex -2.48029 0.313333 10
    endloop
  endfacet
  facet normal 0 0 1
    outer loop
      vertex -2.19077 -1.20438 10
      vertex -3.50523 -1.92701 10
      vertex -3.23607 -2.35114 10
    endloop
  endfacet
  facet normal -0 0 1
    outer loop
      vertex -3.96846 0.501332 10
      vertex -2.48029 0.313333 10
      vertex -3.87433 0.994759 10
    endloop
  endfacet
  facet normal 0 0 1
    outer loop
      vertex -2.32444 -0.920311 10
      vertex -3.71911 -1.4725 10
      vertex -3.50523 -1.92701 10
    endloop
  endfacet
  facet normal 0 0 1
    outer loop
      vertex -2.48029 0.313333 10
      vertex -3.96846 0.501332 10
      vertex -2.5 0 10
    endloop
  endfacet
  facet normal 0 0 1
    outer loop
      vertex -2.42146 -0.621724 10
      vertex -3.87433 -0.994759 10
      vertex -3.71911 -1.4725 10
    endloop
  endfacet
  facet normal 0 0 1
    outer loop
      vertex -4 0 10
      vertex -2.5 0 10
      vertex -3.96846 0.501332 10
    endloop
  endfacet
  facet normal 0 0 1
    outer loop
      vertex -2.48029 -0.313333 10
      vertex -3.96846 -0.501332 10
      vertex -3.87433 -0.994759 10
    endloop
  endfacet
  facet normal 0 0 1
    outer loop
      vertex -2.5 0 10
      vertex -4 0 10
      vertex -3.96846 -0.501332 10
    endloop
  endfacet
  facet normal -0.49877 0.0951452 0.861496
    outer loop
      vertex -3.87433 0.994759 10
      vertex -12.4014 1.56666 5
      vertex -3.96846 0.501332 10
    endloop
  endfacet
  facet normal 0.42872 -0.272073 0.861496
    outer loop
      vertex 3.50523 -1.92701 10
      vertex 3.23607 -2.35114 10
      vertex 10.9538 -6.02192 5
    endloop
  endfacet
  facet normal 0.459439 -0.216196 0.861496
    outer loop
      vertex 3.71911 -1.4725 10
      vertex 3.50523 -1.92701 10
      vertex 10.9538 -6.02192 5
    endloop
  endfacet
  facet normal -0.998027 -0.0627911 0
    outer loop
      vertex 2.5 0 2
      vertex 2.48029 0.313333 10
      vertex 2.48029 0.313333 2
    endloop
  endfacet
  facet normal -0.998027 -0.0627911 0
    outer loop
      vertex 2.48029 0.313333 10
      vertex 2.5 0 2
      vertex 2.5 0 10
    endloop
  endfacet
  facet normal 0.998027 -0.0627911 0
    outer loop
      vertex -2.5 0 10
      vertex -2.48029 0.313333 2
      vertex -2.48029 0.313333 10
    endloop
  endfacet
  facet normal 0.998027 -0.0627911 0
    outer loop
      vertex -2.48029 0.313333 2
      vertex -2.5 0 10
      vertex -2.5 0 2
    endloop
  endfacet
  facet normal 0 -1 0
    outer loop
      vertex -0.156976 2.49507 2
      vertex 0.156976 2.49507 10
      vertex -0.156976 2.49507 10
    endloop
  endfacet
  facet normal 0 -1 -0
    outer loop
      vertex 0.156976 2.49507 10
      vertex -0.156976 2.49507 2
      vertex 0.156976 2.49507 2
    endloop
  endfacet
  facet normal 0 1 -0
    outer loop
      vertex 0.156976 -2.49507 2
      vertex -0.156976 -2.49507 10
      vertex 0.156976 -2.49507 10
    endloop
  endfacet
  facet normal 0 1 0
    outer loop
      vertex -0.156976 -2.49507 10
      vertex 0.156976 -2.49507 2
      vertex -0.156976 -2.49507 2
    endloop
  endfacet
  facet normal -0.684547 0.728969 0
    outer loop
      vertex 1.82242 -1.71137 2
      vertex 1.59356 -1.92628 10
      vertex 1.82242 -1.71137 10
    endloop
  endfacet
  facet normal -0.684547 0.728969 0
    outer loop
      vertex 1.59356 -1.92628 10
      vertex 1.82242 -1.71137 2
      vertex 1.59356 -1.92628 2
    endloop
  endfacet
  facet normal -0.684547 -0.728969 0
    outer loop
      vertex 1.59356 1.92628 2
      vertex 1.82242 1.71137 10
      vertex 1.59356 1.92628 10
    endloop
  endfacet
  facet normal -0.684547 -0.728969 -0
    outer loop
      vertex 1.82242 1.71137 10
      vertex 1.59356 1.92628 2
      vertex 1.82242 1.71137 2
    endloop
  endfacet
  facet normal 0.684547 -0.728969 0
    outer loop
      vertex -1.82242 1.71137 2
      vertex -1.59356 1.92628 10
      vertex -1.82242 1.71137 10
    endloop
  endfacet
  facet normal 0.684547 -0.728969 0
    outer loop
      vertex -1.59356 1.92628 10
      vertex -1.82242 1.71137 2
      vertex -1.59356 1.92628 2
    endloop
  endfacet
  facet normal 0.368126 -0.929776 0
    outer loop
      vertex -1.06445 2.26207 2
      vertex -0.772542 2.37764 10
      vertex -1.06445 2.26207 10
    endloop
  endfacet
  facet normal 0.368126 -0.929776 0
    outer loop
      vertex -0.772542 2.37764 10
      vertex -1.06445 2.26207 2
      vertex -0.772542 2.37764 2
    endloop
  endfacet
  facet normal -0.904827 -0.425779 0
    outer loop
      vertex 2.32444 0.920311 2
      vertex 2.19077 1.20438 10
      vertex 2.19077 1.20438 2
    endloop
  endfacet
  facet normal -0.904827 -0.425779 0
    outer loop
      vertex 2.19077 1.20438 10
      vertex 2.32444 0.920311 2
      vertex 2.32444 0.920311 10
    endloop
  endfacet
  facet normal -0.368126 -0.929776 0
    outer loop
      vertex 0.772542 2.37764 2
      vertex 1.06445 2.26207 10
      vertex 0.772542 2.37764 10
    endloop
  endfacet
  facet normal -0.368126 -0.929776 -0
    outer loop
      vertex 1.06445 2.26207 10
      vertex 0.772542 2.37764 2
      vertex 1.06445 2.26207 2
    endloop
  endfacet
  facet normal -0.248691 -0.968583 0
    outer loop
      vertex 0.468452 2.45572 2
      vertex 0.772542 2.37764 10
      vertex 0.468452 2.45572 10
    endloop
  endfacet
  facet normal -0.248691 -0.968583 -0
    outer loop
      vertex 0.772542 2.37764 10
      vertex 0.468452 2.45572 2
      vertex 0.772542 2.37764 2
    endloop
  endfacet
  facet normal -0.481754 -0.876307 0
    outer loop
      vertex 1.06445 2.26207 2
      vertex 1.33957 2.11082 10
      vertex 1.06445 2.26207 10
    endloop
  endfacet
  facet normal -0.481754 -0.876307 -0
    outer loop
      vertex 1.33957 2.11082 10
      vertex 1.06445 2.26207 2
      vertex 1.33957 2.11082 2
    endloop
  endfacet
  facet normal 0.904827 -0.425779 0
    outer loop
      vertex -2.32444 0.920311 10
      vertex -2.19077 1.20438 2
      vertex -2.19077 1.20438 10
    endloop
  endfacet
  facet normal 0.904827 -0.425779 0
    outer loop
      vertex -2.19077 1.20438 2
      vertex -2.32444 0.920311 10
      vertex -2.32444 0.920311 2
    endloop
  endfacet
  facet normal 0.844327 -0.535828 0
    outer loop
      vertex -2.19077 1.20438 10
      vertex -2.02254 1.46946 2
      vertex -2.02254 1.46946 10
    endloop
  endfacet
  facet normal 0.844327 -0.535828 0
    outer loop
      vertex -2.02254 1.46946 2
      vertex -2.19077 1.20438 10
      vertex -2.19077 1.20438 2
    endloop
  endfacet
  facet normal 0.587784 -0.809018 0
    outer loop
      vertex -1.59356 1.92628 2
      vertex -1.33957 2.11082 10
      vertex -1.59356 1.92628 10
    endloop
  endfacet
  facet normal 0.587784 -0.809018 0
    outer loop
      vertex -1.33957 2.11082 10
      vertex -1.59356 1.92628 2
      vertex -1.33957 2.11082 2
    endloop
  endfacet
  facet normal 0.125333 -0.992115 0
    outer loop
      vertex -0.468452 2.45572 2
      vertex -0.156976 2.49507 10
      vertex -0.468452 2.45572 10
    endloop
  endfacet
  facet normal 0.125333 -0.992115 0
    outer loop
      vertex -0.156976 2.49507 10
      vertex -0.468452 2.45572 2
      vertex -0.156976 2.49507 2
    endloop
  endfacet
  facet normal 0 0 1
    outer loop
      vertex 2.48029 0.313333 2
      vertex 2.48029 -0.313333 2
      vertex 2.5 0 2
    endloop
  endfacet
  facet normal 0 0 1
    outer loop
      vertex 2.42146 0.621724 2
      vertex 2.48029 -0.313333 2
      vertex 2.48029 0.313333 2
    endloop
  endfacet
  facet normal 0 0 1
    outer loop
      vertex 2.42146 0.621724 2
      vertex 2.42146 -0.621724 2
      vertex 2.48029 -0.313333 2
    endloop
  endfacet
  facet normal 0 0 1
    outer loop
      vertex 2.32444 0.920311 2
      vertex 2.42146 -0.621724 2
      vertex 2.42146 0.621724 2
    endloop
  endfacet
  facet normal 0 0 1
    outer loop
      vertex 2.32444 0.920311 2
      vertex 2.32444 -0.920311 2
      vertex 2.42146 -0.621724 2
    endloop
  endfacet
  facet normal 0 0 1
    outer loop
      vertex 2.19077 1.20438 2
      vertex 2.32444 -0.920311 2
      vertex 2.32444 0.920311 2
    endloop
  endfacet
  facet normal 0 0 1
    outer loop
      vertex 2.19077 1.20438 2
      vertex 2.19077 -1.20438 2
      vertex 2.32444 -0.920311 2
    endloop
  endfacet
  facet normal 0 0 1
    outer loop
      vertex 2.02254 1.46946 2
      vertex 2.19077 -1.20438 2
      vertex 2.19077 1.20438 2
    endloop
  endfacet
  facet normal 0 0 1
    outer loop
      vertex 2.02254 1.46946 2
      vertex 2.02254 -1.46946 2
      vertex 2.19077 -1.20438 2
    endloop
  endfacet
  facet normal 0 0 1
    outer loop
      vertex 1.82242 1.71137 2
      vertex 2.02254 -1.46946 2
      vertex 2.02254 1.46946 2
    endloop
  endfacet
  facet normal 0 0 1
    outer loop
      vertex 1.82242 1.71137 2
      vertex 1.82242 -1.71137 2
      vertex 2.02254 -1.46946 2
    endloop
  endfacet
  facet normal 0 0 1
    outer loop
      vertex 1.59356 1.92628 2
      vertex 1.82242 -1.71137 2
      vertex 1.82242 1.71137 2
    endloop
  endfacet
  facet normal 0 0 1
    outer loop
      vertex 1.59356 1.92628 2
      vertex 1.59356 -1.92628 2
      vertex 1.82242 -1.71137 2
    endloop
  endfacet
  facet normal 0 0 1
    outer loop
      vertex 1.33957 2.11082 2
      vertex 1.59356 -1.92628 2
      vertex 1.59356 1.92628 2
    endloop
  endfacet
  facet normal 0 0 1
    outer loop
      vertex 1.33957 2.11082 2
      vertex 1.33957 -2.11082 2
      vertex 1.59356 -1.92628 2
    endloop
  endfacet
  facet normal 0 0 1
    outer loop
      vertex 1.06445 2.26207 2
      vertex 1.33957 -2.11082 2
      vertex 1.33957 2.11082 2
    endloop
  endfacet
  facet normal 0 0 1
    outer loop
      vertex 1.06445 2.26207 2
      vertex 1.06445 -2.26207 2
      vertex 1.33957 -2.11082 2
    endloop
  endfacet
  facet normal 0 0 1
    outer loop
      vertex 0.772542 2.37764 2
      vertex 1.06445 -2.26207 2
      vertex 1.06445 2.26207 2
    endloop
  endfacet
  facet normal 0 0 1
    outer loop
      vertex 0.772542 2.37764 2
      vertex 0.772542 -2.37764 2
      vertex 1.06445 -2.26207 2
    endloop
  endfacet
  facet normal 0 0 1
    outer loop
      vertex 0.468452 2.45572 2
      vertex 0.772542 -2.37764 2
      vertex 0.772542 2.37764 2
    endloop
  endfacet
  facet normal 0 0 1
    outer loop
      vertex 0.468452 2.45572 2
      vertex 0.468452 -2.45572 2
      vertex 0.772542 -2.37764 2
    endloop
  endfacet
  facet normal 0 0 1
    outer loop
      vertex 0.156976 2.49507 2
      vertex 0.468452 -2.45572 2
      vertex 0.468452 2.45572 2
    endloop
  endfacet
  facet normal 0 0 1
    outer loop
      vertex 0.156976 2.49507 2
      vertex 0.156976 -2.49507 2
      vertex 0.468452 -2.45572 2
    endloop
  endfacet
  facet normal -0 0 1
    outer loop
      vertex -0.156976 2.49507 2
      vertex 0.156976 -2.49507 2
      vertex 0.156976 2.49507 2
    endloop
  endfacet
  facet normal 0 0 1
    outer loop
      vertex -0.156976 2.49507 2
      vertex -0.156976 -2.49507 2
      vertex 0.156976 -2.49507 2
    endloop
  endfacet
  facet normal -0 0 1
    outer loop
      vertex -0.468452 2.45572 2
      vertex -0.156976 -2.49507 2
      vertex -0.156976 2.49507 2
    endloop
  endfacet
  facet normal 0 0 1
    outer loop
      vertex -0.468452 2.45572 2
      vertex -0.468452 -2.45572 2
      vertex -0.156976 -2.49507 2
    endloop
  endfacet
  facet normal -0 0 1
    outer loop
      vertex -0.772542 2.37764 2
      vertex -0.468452 -2.45572 2
      vertex -0.468452 2.45572 2
    endloop
  endfacet
  facet normal 0 0 1
    outer loop
      vertex -0.772542 2.37764 2
      vertex -0.772542 -2.37764 2
      vertex -0.468452 -2.45572 2
    endloop
  endfacet
  facet normal -0 0 1
    outer loop
      vertex -1.06445 2.26207 2
      vertex -0.772542 -2.37764 2
      vertex -0.772542 2.37764 2
    endloop
  endfacet
  facet normal 0 0 1
    outer loop
      vertex -1.06445 2.26207 2
      vertex -1.06445 -2.26207 2
      vertex -0.772542 -2.37764 2
    endloop
  endfacet
  facet normal -0 0 1
    outer loop
      vertex -1.33957 2.11082 2
      vertex -1.06445 -2.26207 2
      vertex -1.06445 2.26207 2
    endloop
  endfacet
  facet normal 0 0 1
    outer loop
      vertex -1.33957 2.11082 2
      vertex -1.33957 -2.11082 2
      vertex -1.06445 -2.26207 2
    endloop
  endfacet
  facet normal -0 0 1
    outer loop
      vertex -1.59356 1.92628 2
      vertex -1.33957 -2.11082 2
      vertex -1.33957 2.11082 2
    endloop
  endfacet
  facet normal 0 0 1
    outer loop
      vertex -1.59356 1.92628 2
      vertex -1.59356 -1.92628 2
      vertex -1.33957 -2.11082 2
    endloop
  endfacet
  facet normal -0 0 1
    outer loop
      vertex -1.82242 1.71137 2
      vertex -1.59356 -1.92628 2
      vertex -1.59356 1.92628 2
    endloop
  endfacet
  facet normal 0 0 1
    outer loop
      vertex -1.82242 1.71137 2
      vertex -1.82242 -1.71137 2
      vertex -1.59356 -1.92628 2
    endloop
  endfacet
  facet normal -0 0 1
    outer loop
      vertex -2.02254 1.46946 2
      vertex -1.82242 -1.71137 2
      vertex -1.82242 1.71137 2
    endloop
  endfacet
  facet normal 0 0 1
    outer loop
      vertex -2.02254 1.46946 2
      vertex -2.02254 -1.46946 2
      vertex -1.82242 -1.71137 2
    endloop
  endfacet
  facet normal -0 0 1
    outer loop
      vertex -2.19077 1.20438 2
      vertex -2.02254 -1.46946 2
      vertex -2.02254 1.46946 2
    endloop
  endfacet
  facet normal 0 0 1
    outer loop
      vertex -2.19077 1.20438 2
      vertex -2.19077 -1.20438 2
      vertex -2.02254 -1.46946 2
    endloop
  endfacet
  facet normal -0 0 1
    outer loop
      vertex -2.32444 0.920311 2
      vertex -2.19077 -1.20438 2
      vertex -2.19077 1.20438 2
    endloop
  endfacet
  facet normal 0 0 1
    outer loop
      vertex -2.32444 0.920311 2
      vertex -2.32444 -0.920311 2
      vertex -2.19077 -1.20438 2
    endloop
  endfacet
  facet normal -0 0 1
    outer loop
      vertex -2.42146 0.621724 2
      vertex -2.32444 -0.920311 2
      vertex -2.32444 0.920311 2
    endloop
  endfacet
  facet normal 0 0 1
    outer loop
      vertex -2.42146 0.621724 2
      vertex -2.42146 -0.621724 2
      vertex -2.32444 -0.920311 2
    endloop
  endfacet
  facet normal -0 0 1
    outer loop
      vertex -2.48029 0.313333 2
      vertex -2.42146 -0.621724 2
      vertex -2.42146 0.621724 2
    endloop
  endfacet
  facet normal 0 0 1
    outer loop
      vertex -2.48029 0.313333 2
      vertex -2.48029 -0.313333 2
      vertex -2.42146 -0.621724 2
    endloop
  endfacet
  facet normal 0 -0 1
    outer loop
      vertex -2.48029 -0.313333 2
      vertex -2.48029 0.313333 2
      vertex -2.5 0 2
    endloop
  endfacet
  facet normal -0.125333 0.992115 0
    outer loop
      vertex 0.468452 -2.45572 2
      vertex 0.156976 -2.49507 10
      vertex 0.468452 -2.45572 10
    endloop
  endfacet
  facet normal -0.125333 0.992115 0
    outer loop
      vertex 0.156976 -2.49507 10
      vertex 0.468452 -2.45572 2
      vertex 0.156976 -2.49507 2
    endloop
  endfacet
  facet normal -0.951057 -0.309016 0
    outer loop
      vertex 2.42146 0.621724 2
      vertex 2.32444 0.920311 10
      vertex 2.32444 0.920311 2
    endloop
  endfacet
  facet normal -0.951057 -0.309016 0
    outer loop
      vertex 2.32444 0.920311 10
      vertex 2.42146 0.621724 2
      vertex 2.42146 0.621724 10
    endloop
  endfacet
  facet normal -0.982287 -0.187383 0
    outer loop
      vertex 2.48029 0.313333 2
      vertex 2.42146 0.621724 10
      vertex 2.42146 0.621724 2
    endloop
  endfacet
  facet normal -0.982287 -0.187383 0
    outer loop
      vertex 2.42146 0.621724 10
      vertex 2.48029 0.313333 2
      vertex 2.48029 0.313333 10
    endloop
  endfacet
  facet normal -0.770514 -0.637423 0
    outer loop
      vertex 2.02254 1.46946 2
      vertex 1.82242 1.71137 10
      vertex 1.82242 1.71137 2
    endloop
  endfacet
  facet normal -0.770514 -0.637423 0
    outer loop
      vertex 1.82242 1.71137 10
      vertex 2.02254 1.46946 2
      vertex 2.02254 1.46946 10
    endloop
  endfacet
  facet normal -0.844327 -0.535828 0
    outer loop
      vertex 2.19077 1.20438 2
      vertex 2.02254 1.46946 10
      vertex 2.02254 1.46946 2
    endloop
  endfacet
  facet normal -0.844327 -0.535828 0
    outer loop
      vertex 2.02254 1.46946 10
      vertex 2.19077 1.20438 2
      vertex 2.19077 1.20438 10
    endloop
  endfacet
  facet normal -0.125333 -0.992115 0
    outer loop
      vertex 0.156976 2.49507 2
      vertex 0.468452 2.45572 10
      vertex 0.156976 2.49507 10
    endloop
  endfacet
  facet normal -0.125333 -0.992115 -0
    outer loop
      vertex 0.468452 2.45572 10
      vertex 0.156976 2.49507 2
      vertex 0.468452 2.45572 2
    endloop
  endfacet
  facet normal -0.587784 -0.809018 0
    outer loop
      vertex 1.33957 2.11082 2
      vertex 1.59356 1.92628 10
      vertex 1.33957 2.11082 10
    endloop
  endfacet
  facet normal -0.587784 -0.809018 -0
    outer loop
      vertex 1.59356 1.92628 10
      vertex 1.33957 2.11082 2
      vertex 1.59356 1.92628 2
    endloop
  endfacet
  facet normal 0.770514 -0.637423 0
    outer loop
      vertex -2.02254 1.46946 10
      vertex -1.82242 1.71137 2
      vertex -1.82242 1.71137 10
    endloop
  endfacet
  facet normal 0.770514 -0.637423 0
    outer loop
      vertex -1.82242 1.71137 2
      vertex -2.02254 1.46946 10
      vertex -2.02254 1.46946 2
    endloop
  endfacet
  facet normal 0.951057 -0.309016 0
    outer loop
      vertex -2.42146 0.621724 10
      vertex -2.32444 0.920311 2
      vertex -2.32444 0.920311 10
    endloop
  endfacet
  facet normal 0.951057 -0.309016 0
    outer loop
      vertex -2.32444 0.920311 2
      vertex -2.42146 0.621724 10
      vertex -2.42146 0.621724 2
    endloop
  endfacet
  facet normal 0.982287 -0.187383 0
    outer loop
      vertex -2.48029 0.313333 10
      vertex -2.42146 0.621724 2
      vertex -2.42146 0.621724 10
    endloop
  endfacet
  facet normal 0.982287 -0.187383 0
    outer loop
      vertex -2.42146 0.621724 2
      vertex -2.48029 0.313333 10
      vertex -2.48029 0.313333 2
    endloop
  endfacet
  facet normal 0.248691 -0.968583 0
    outer loop
      vertex -0.772542 2.37764 2
      vertex -0.468452 2.45572 10
      vertex -0.772542 2.37764 10
    endloop
  endfacet
  facet normal 0.248691 -0.968583 0
    outer loop
      vertex -0.468452 2.45572 10
      vertex -0.772542 2.37764 2
      vertex -0.468452 2.45572 2
    endloop
  endfacet
  facet normal -0.998027 0.0627911 0
    outer loop
      vertex 2.48029 -0.313333 2
      vertex 2.5 0 10
      vertex 2.5 0 2
    endloop
  endfacet
  facet normal -0.998027 0.0627911 0
    outer loop
      vertex 2.5 0 10
      vertex 2.48029 -0.313333 2
      vertex 2.48029 -0.313333 10
    endloop
  endfacet
  facet normal -0.904827 0.425779 0
    outer loop
      vertex 2.19077 -1.20438 2
      vertex 2.32444 -0.920311 10
      vertex 2.32444 -0.920311 2
    endloop
  endfacet
  facet normal -0.904827 0.425779 0
    outer loop
      vertex 2.32444 -0.920311 10
      vertex 2.19077 -1.20438 2
      vertex 2.19077 -1.20438 10
    endloop
  endfacet
  facet normal 0.904827 0.425779 0
    outer loop
      vertex -2.19077 -1.20438 10
      vertex -2.32444 -0.920311 2
      vertex -2.32444 -0.920311 10
    endloop
  endfacet
  facet normal 0.904827 0.425779 0
    outer loop
      vertex -2.32444 -0.920311 2
      vertex -2.19077 -1.20438 10
      vertex -2.19077 -1.20438 2
    endloop
  endfacet
  facet normal 0.998027 0.0627911 0
    outer loop
      vertex -2.48029 -0.313333 10
      vertex -2.5 0 2
      vertex -2.5 0 10
    endloop
  endfacet
  facet normal 0.998027 0.0627911 0
    outer loop
      vertex -2.5 0 2
      vertex -2.48029 -0.313333 10
      vertex -2.48029 -0.313333 2
    endloop
  endfacet
  facet normal -0.587784 0.809018 0
    outer loop
      vertex 1.59356 -1.92628 2
      vertex 1.33957 -2.11082 10
      vertex 1.59356 -1.92628 10
    endloop
  endfacet
  facet normal -0.587784 0.809018 0
    outer loop
      vertex 1.33957 -2.11082 10
      vertex 1.59356 -1.92628 2
      vertex 1.33957 -2.11082 2
    endloop
  endfacet
  facet normal -0.368126 0.929776 0
    outer loop
      vertex 1.06445 -2.26207 2
      vertex 0.772542 -2.37764 10
      vertex 1.06445 -2.26207 10
    endloop
  endfacet
  facet normal -0.368126 0.929776 0
    outer loop
      vertex 0.772542 -2.37764 10
      vertex 1.06445 -2.26207 2
      vertex 0.772542 -2.37764 2
    endloop
  endfacet
  facet normal 0.481754 -0.876307 0
    outer loop
      vertex -1.33957 2.11082 2
      vertex -1.06445 2.26207 10
      vertex -1.33957 2.11082 10
    endloop
  endfacet
  facet normal 0.481754 -0.876307 0
    outer loop
      vertex -1.06445 2.26207 10
      vertex -1.33957 2.11082 2
      vertex -1.06445 2.26207 2
    endloop
  endfacet
  facet normal -0.951057 0.309016 0
    outer loop
      vertex 2.32444 -0.920311 2
      vertex 2.42146 -0.621724 10
      vertex 2.42146 -0.621724 2
    endloop
  endfacet
  facet normal -0.951057 0.309016 0
    outer loop
      vertex 2.42146 -0.621724 10
      vertex 2.32444 -0.920311 2
      vertex 2.32444 -0.920311 10
    endloop
  endfacet
  facet normal -0.982287 0.187383 0
    outer loop
      vertex 2.42146 -0.621724 2
      vertex 2.48029 -0.313333 10
      vertex 2.48029 -0.313333 2
    endloop
  endfacet
  facet normal -0.982287 0.187383 0
    outer loop
      vertex 2.48029 -0.313333 10
      vertex 2.42146 -0.621724 2
      vertex 2.42146 -0.621724 10
    endloop
  endfacet
  facet normal 0.982287 0.187383 0
    outer loop
      vertex -2.42146 -0.621724 10
      vertex -2.48029 -0.313333 2
      vertex -2.48029 -0.313333 10
    endloop
  endfacet
  facet normal 0.982287 0.187383 0
    outer loop
      vertex -2.48029 -0.313333 2
      vertex -2.42146 -0.621724 10
      vertex -2.42146 -0.621724 2
    endloop
  endfacet
  facet normal 0.951057 0.309016 0
    outer loop
      vertex -2.32444 -0.920311 10
      vertex -2.42146 -0.621724 2
      vertex -2.42146 -0.621724 10
    endloop
  endfacet
  facet normal 0.951057 0.309016 0
    outer loop
      vertex -2.42146 -0.621724 2
      vertex -2.32444 -0.920311 10
      vertex -2.32444 -0.920311 2
    endloop
  endfacet
  facet normal -0.481754 0.876307 0
    outer loop
      vertex 1.33957 -2.11082 2
      vertex 1.06445 -2.26207 10
      vertex 1.33957 -2.11082 10
    endloop
  endfacet
  facet normal -0.481754 0.876307 0
    outer loop
      vertex 1.06445 -2.26207 10
      vertex 1.33957 -2.11082 2
      vertex 1.06445 -2.26207 2
    endloop
  endfacet
  facet normal -0.248691 0.968583 0
    outer loop
      vertex 0.772542 -2.37764 2
      vertex 0.468452 -2.45572 10
      vertex 0.772542 -2.37764 10
    endloop
  endfacet
  facet normal -0.248691 0.968583 0
    outer loop
      vertex 0.468452 -2.45572 10
      vertex 0.772542 -2.37764 2
      vertex 0.468452 -2.45572 2
    endloop
  endfacet
  facet normal -0.844327 0.535828 0
    outer loop
      vertex 2.02254 -1.46946 2
      vertex 2.19077 -1.20438 10
      vertex 2.19077 -1.20438 2
    endloop
  endfacet
  facet normal -0.844327 0.535828 0
    outer loop
      vertex 2.19077 -1.20438 10
      vertex 2.02254 -1.46946 2
      vertex 2.02254 -1.46946 10
    endloop
  endfacet
  facet normal -0.770514 0.637423 0
    outer loop
      vertex 1.82242 -1.71137 2
      vertex 2.02254 -1.46946 10
      vertex 2.02254 -1.46946 2
    endloop
  endfacet
  facet normal -0.770514 0.637423 0
    outer loop
      vertex 2.02254 -1.46946 10
      vertex 1.82242 -1.71137 2
      vertex 1.82242 -1.71137 10
    endloop
  endfacet
  facet normal 0.125333 0.992115 -0
    outer loop
      vertex -0.156976 -2.49507 2
      vertex -0.468452 -2.45572 10
      vertex -0.156976 -2.49507 10
    endloop
  endfacet
  facet normal 0.125333 0.992115 0
    outer loop
      vertex -0.468452 -2.45572 10
      vertex -0.156976 -2.49507 2
      vertex -0.468452 -2.45572 2
    endloop
  endfacet
  facet normal 0.684547 0.728969 -0
    outer loop
      vertex -1.59356 -1.92628 2
      vertex -1.82242 -1.71137 10
      vertex -1.59356 -1.92628 10
    endloop
  endfacet
  facet normal 0.684547 0.728969 0
    outer loop
      vertex -1.82242 -1.71137 10
      vertex -1.59356 -1.92628 2
      vertex -1.82242 -1.71137 2
    endloop
  endfacet
  facet normal 0.248691 0.968583 -0
    outer loop
      vertex -0.468452 -2.45572 2
      vertex -0.772542 -2.37764 10
      vertex -0.468452 -2.45572 10
    endloop
  endfacet
  facet normal 0.248691 0.968583 0
    outer loop
      vertex -0.772542 -2.37764 10
      vertex -0.468452 -2.45572 2
      vertex -0.772542 -2.37764 2
    endloop
  endfacet
  facet normal 0.770514 0.637423 0
    outer loop
      vertex -1.82242 -1.71137 10
      vertex -2.02254 -1.46946 2
      vertex -2.02254 -1.46946 10
    endloop
  endfacet
  facet normal 0.770514 0.637423 0
    outer loop
      vertex -2.02254 -1.46946 2
      vertex -1.82242 -1.71137 10
      vertex -1.82242 -1.71137 2
    endloop
  endfacet
  facet normal 0.844327 0.535828 0
    outer loop
      vertex -2.02254 -1.46946 10
      vertex -2.19077 -1.20438 2
      vertex -2.19077 -1.20438 10
    endloop
  endfacet
  facet normal 0.844327 0.535828 0
    outer loop
      vertex -2.19077 -1.20438 2
      vertex -2.02254 -1.46946 10
      vertex -2.02254 -1.46946 2
    endloop
  endfacet
  facet normal 0.587784 0.809018 -0
    outer loop
      vertex -1.33957 -2.11082 2
      vertex -1.59356 -1.92628 10
      vertex -1.33957 -2.11082 10
    endloop
  endfacet
  facet normal 0.587784 0.809018 0
    outer loop
      vertex -1.59356 -1.92628 10
      vertex -1.33957 -2.11082 2
      vertex -1.59356 -1.92628 2
    endloop
  endfacet
  facet normal 0.368126 0.929776 -0
    outer loop
      vertex -0.772542 -2.37764 2
      vertex -1.06445 -2.26207 10
      vertex -0.772542 -2.37764 10
    endloop
  endfacet
  facet normal 0.368126 0.929776 0
    outer loop
      vertex -1.06445 -2.26207 10
      vertex -0.772542 -2.37764 2
      vertex -1.06445 -2.26207 2
    endloop
  endfacet
  facet normal 0.481754 0.876307 -0
    outer loop
      vertex -1.06445 -2.26207 2
      vertex -1.33957 -2.11082 10
      vertex -1.06445 -2.26207 10
    endloop
  endfacet
  facet normal 0.481754 0.876307 0
    outer loop
      vertex -1.33957 -2.11082 10
      vertex -1.06445 -2.26207 2
      vertex -1.33957 -2.11082 2
    endloop
  endfacet
endsolid OpenSCAD_Model
