solid OpenSCAD_Model
  facet normal -0.316228 -0.948683 0
    outer loop
      vertex -16.681 -7.703 0
      vertex -16.243 -7.849 0
      vertex -16.243 -7.849 10
    endloop
  endfacet
  facet normal -0.316228 -0.948683 0
    outer loop
      vertex -16.681 -7.703 10
      vertex -16.681 -7.703 0
      vertex -16.243 -7.849 10
    endloop
  endfacet
  facet normal 0.478843 -0.877901 0
    outer loop
      vertex -16.243 -7.849 0
      vertex -9.817 -4.344 0
      vertex -9.817 -4.344 10
    endloop
  endfacet
  facet normal 0.478843 -0.877901 0
    outer loop
      vertex -16.243 -7.849 10
      vertex -16.243 -7.849 0
      vertex -9.817 -4.344 10
    endloop
  endfacet
  facet normal 0 0 -1
    outer loop
      vertex -50.124 -4.636 0
      vertex -48.809 -2.738 0
      vertex -47.203 -0.839 0
    endloop
  endfacet
  facet normal 0 0 -1
    outer loop
      vertex -50.124 -4.636 0
      vertex -47.203 -0.839 0
      vertex -51 -5.804 0
    endloop
  endfacet
  facet normal 0 0 -1
    outer loop
      vertex -47.203 -0.839 0
      vertex -45.743 0.621 0
      vertex -51 -5.804 0
    endloop
  endfacet
  facet normal 0 0 -1
    outer loop
      vertex -45.743 0.621 0
      vertex -43.114 2.666 0
      vertex -51 -5.804 0
    endloop
  endfacet
  facet normal 0 0 -1
    outer loop
      vertex -43.114 2.666 0
      vertex -40.923 4.564 0
      vertex -51 -5.804 0
    endloop
  endfacet
  facet normal 0 0 -1
    outer loop
      vertex -40.923 4.564 0
      vertex -37.856 6.901 0
      vertex -51 -5.804 0
    endloop
  endfacet
  facet normal 0 0 -1
    outer loop
      vertex -37.856 6.901 0
      vertex -35.52 8.361 0
      vertex -51 -5.804 0
    endloop
  endfacet
  facet normal 0 0 -1
    outer loop
      vertex -35.52 8.361 0
      vertex -33.183 9.822 0
      vertex -51 -5.804 0
    endloop
  endfacet
  facet normal 0 0 -1
    outer loop
      vertex -33.183 9.822 0
      vertex -29.97 11.428 0
      vertex -51 -5.804 0
    endloop
  endfacet
  facet normal 0 0 -1
    outer loop
      vertex -29.97 11.428 0
      vertex -26.611 13.035 0
      vertex -51 -5.804 0
    endloop
  endfacet
  facet normal 0 0 -1
    outer loop
      vertex -26.611 13.035 0
      vertex -23.837 14.203 0
      vertex -51 -5.804 0
    endloop
  endfacet
  facet normal 0 0 -1
    outer loop
      vertex -23.837 14.203 0
      vertex -21.208 15.079 0
      vertex -51 -5.804 0
    endloop
  endfacet
  facet normal 0 0 -1
    outer loop
      vertex -21.208 15.079 0
      vertex -16.827 16.54 0
      vertex -51 -5.804 0
    endloop
  endfacet
  facet normal 0 0 -1
    outer loop
      vertex -16.827 16.54 0
      vertex -13.03 17.416 0
      vertex -51 -5.804 0
    endloop
  endfacet
  facet normal 0 0 -1
    outer loop
      vertex -13.03 17.416 0
      vertex -8.795 18.146 0
      vertex -51 -5.804 0
    endloop
  endfacet
  facet normal 0 0 -1
    outer loop
      vertex -8.795 18.146 0
      vertex -5.144 18.438 0
      vertex -51 -5.804 0
    endloop
  endfacet
  facet normal 0 0 -1
    outer loop
      vertex -5.144 18.438 0
      vertex -1.201 18.876 0
      vertex -51 -5.804 0
    endloop
  endfacet
  facet normal 0 0 -1
    outer loop
      vertex -45.45 -3.468 0
      vertex -0.908 10.99 0
      vertex -42.092 -2.884 0
    endloop
  endfacet
  facet normal 0 0 -1
    outer loop
      vertex -9.817 -4.344 0
      vertex -16.243 -7.849 0
      vertex -16.681 -7.703 0
    endloop
  endfacet
  facet normal 0 0 -1
    outer loop
      vertex -9.817 -4.344 0
      vertex -16.681 -7.703 0
      vertex -17.849 -6.973 0
    endloop
  endfacet
  facet normal 0 0 -1
    outer loop
      vertex -9.817 -4.344 0
      vertex -17.849 -6.973 0
      vertex -19.455 -5.658 0
    endloop
  endfacet
  facet normal 0 0 -1
    outer loop
      vertex -0.908 10.99 0
      vertex -9.817 -4.344 0
      vertex -21.5 -4.636 0
    endloop
  endfacet
  facet normal 0 0 -1
    outer loop
      vertex -0.908 10.99 0
      vertex -21.5 -4.636 0
      vertex -23.399 -3.76 0
    endloop
  endfacet
  facet normal 0 0 -1
    outer loop
      vertex -0.908 10.99 0
      vertex -23.399 -3.76 0
      vertex -26.027 -2.884 0
    endloop
  endfacet
  facet normal 0 0 -1
    outer loop
      vertex -0.908 10.99 0
      vertex -26.027 -2.884 0
      vertex -29.24 -2.3 0
    endloop
  endfacet
  facet normal 0 0 -1
    outer loop
      vertex -0.908 10.99 0
      vertex -29.24 -2.3 0
      vertex -32.015 -2.153 0
    endloop
  endfacet
  facet normal 0 0 -1
    outer loop
      vertex -0.908 10.99 0
      vertex -32.015 -2.153 0
      vertex -34.205 -2.007 0
    endloop
  endfacet
  facet normal 0 0 -1
    outer loop
      vertex -0.908 10.99 0
      vertex -34.205 -2.007 0
      vertex -36.834 -2.007 0
    endloop
  endfacet
  facet normal 0 0 -1
    outer loop
      vertex -0.908 10.99 0
      vertex -36.834 -2.007 0
      vertex -39.755 -2.446 0
    endloop
  endfacet
  facet normal 0 0 -1
    outer loop
      vertex -0.908 10.99 0
      vertex -39.755 -2.446 0
      vertex -42.092 -2.884 0
    endloop
  endfacet
  facet normal 0 0 -1
    outer loop
      vertex -1.201 18.876 0
      vertex -0.908 10.99 0
      vertex -45.45 -3.468 0
    endloop
  endfacet
  facet normal 0 0 -1
    outer loop
      vertex -1.201 18.876 0
      vertex -45.45 -3.468 0
      vertex -47.641 -4.344 0
    endloop
  endfacet
  facet normal 0 0 -1
    outer loop
      vertex -1.201 18.876 0
      vertex -47.641 -4.344 0
      vertex -51 -5.804 0
    endloop
  endfacet
  facet normal 0 0 -1
    outer loop
      vertex -49.54 -5.22 0
      vertex -51 -5.804 0
      vertex -47.641 -4.344 0
    endloop
  endfacet
  facet normal 0 0 -1
    outer loop
      vertex -21.5 -4.636 0
      vertex -9.817 -4.344 0
      vertex -19.455 -5.658 0
    endloop
  endfacet
  facet normal -0.529999 -0.847998 0
    outer loop
      vertex -17.849 -6.973 0
      vertex -16.681 -7.703 0
      vertex -16.681 -7.703 10
    endloop
  endfacet
  facet normal -0.529999 -0.847998 0
    outer loop
      vertex -17.849 -6.973 10
      vertex -17.849 -6.973 0
      vertex -16.681 -7.703 10
    endloop
  endfacet
  facet normal 0 0 1
    outer loop
      vertex -45.45 -3.468 10
      vertex -1.201 18.876 10
      vertex -47.641 -4.344 10
    endloop
  endfacet
  facet normal 0 0 1
    outer loop
      vertex -51 -5.804 10
      vertex -49.54 -5.22 10
      vertex -47.641 -4.344 10
    endloop
  endfacet
  facet normal 0 0 1
    outer loop
      vertex -42.092 -2.884 10
      vertex -39.755 -2.446 10
      vertex -45.45 -3.468 10
    endloop
  endfacet
  facet normal 0 0 1
    outer loop
      vertex -1.201 18.876 10
      vertex -51 -5.804 10
      vertex -47.641 -4.344 10
    endloop
  endfacet
  facet normal 0 0 1
    outer loop
      vertex -45.45 -3.468 10
      vertex -39.755 -2.446 10
      vertex -0.908 10.99 10
    endloop
  endfacet
  facet normal 0 0 1
    outer loop
      vertex -39.755 -2.446 10
      vertex -36.834 -2.007 10
      vertex -0.908 10.99 10
    endloop
  endfacet
  facet normal 0 0 1
    outer loop
      vertex -36.834 -2.007 10
      vertex -34.205 -2.007 10
      vertex -0.908 10.99 10
    endloop
  endfacet
  facet normal 0 0 1
    outer loop
      vertex -34.205 -2.007 10
      vertex -32.015 -2.153 10
      vertex -29.24 -2.3 10
    endloop
  endfacet
  facet normal 0 0 1
    outer loop
      vertex -34.205 -2.007 10
      vertex -29.24 -2.3 10
      vertex -0.908 10.99 10
    endloop
  endfacet
  facet normal 0 0 1
    outer loop
      vertex -29.24 -2.3 10
      vertex -26.027 -2.884 10
      vertex -9.817 -4.344 10
    endloop
  endfacet
  facet normal 0 0 1
    outer loop
      vertex -26.027 -2.884 10
      vertex -23.399 -3.76 10
      vertex -9.817 -4.344 10
    endloop
  endfacet
  facet normal 0 0 1
    outer loop
      vertex -23.399 -3.76 10
      vertex -21.5 -4.636 10
      vertex -9.817 -4.344 10
    endloop
  endfacet
  facet normal 0 0 1
    outer loop
      vertex -9.817 -4.344 10
      vertex -19.455 -5.658 10
      vertex -16.243 -7.849 10
    endloop
  endfacet
  facet normal 0 0 1
    outer loop
      vertex -19.455 -5.658 10
      vertex -17.849 -6.973 10
      vertex -16.681 -7.703 10
    endloop
  endfacet
  facet normal 0 0 1
    outer loop
      vertex -19.455 -5.658 10
      vertex -16.681 -7.703 10
      vertex -16.243 -7.849 10
    endloop
  endfacet
  facet normal 0 0 1
    outer loop
      vertex -21.5 -4.636 10
      vertex -19.455 -5.658 10
      vertex -9.817 -4.344 10
    endloop
  endfacet
  facet normal 0 0 1
    outer loop
      vertex -29.24 -2.3 10
      vertex -9.817 -4.344 10
      vertex -0.908 10.99 10
    endloop
  endfacet
  facet normal 0 0 1
    outer loop
      vertex -45.45 -3.468 10
      vertex -0.908 10.99 10
      vertex -1.201 18.876 10
    endloop
  endfacet
  facet normal 0 0 1
    outer loop
      vertex -51 -5.804 10
      vertex -5.144 18.438 10
      vertex -8.795 18.146 10
    endloop
  endfacet
  facet normal 0 0 1
    outer loop
      vertex -51 -5.804 10
      vertex -1.201 18.876 10
      vertex -5.144 18.438 10
    endloop
  endfacet
  facet normal 0 0 1
    outer loop
      vertex -51 -5.804 10
      vertex -8.795 18.146 10
      vertex -13.03 17.416 10
    endloop
  endfacet
  facet normal 0 0 1
    outer loop
      vertex -51 -5.804 10
      vertex -13.03 17.416 10
      vertex -16.827 16.54 10
    endloop
  endfacet
  facet normal 0 0 1
    outer loop
      vertex -51 -5.804 10
      vertex -21.208 15.079 10
      vertex -23.837 14.203 10
    endloop
  endfacet
  facet normal 0 0 1
    outer loop
      vertex -51 -5.804 10
      vertex -16.827 16.54 10
      vertex -21.208 15.079 10
    endloop
  endfacet
  facet normal 0 0 1
    outer loop
      vertex -51 -5.804 10
      vertex -23.837 14.203 10
      vertex -26.611 13.035 10
    endloop
  endfacet
  facet normal 0 0 1
    outer loop
      vertex -51 -5.804 10
      vertex -26.611 13.035 10
      vertex -29.97 11.428 10
    endloop
  endfacet
  facet normal 0 0 1
    outer loop
      vertex -51 -5.804 10
      vertex -29.97 11.428 10
      vertex -33.183 9.822 10
    endloop
  endfacet
  facet normal 0 0 1
    outer loop
      vertex -51 -5.804 10
      vertex -35.52 8.361 10
      vertex -37.856 6.901 10
    endloop
  endfacet
  facet normal 0 0 1
    outer loop
      vertex -51 -5.804 10
      vertex -33.183 9.822 10
      vertex -35.52 8.361 10
    endloop
  endfacet
  facet normal 0 0 1
    outer loop
      vertex -51 -5.804 10
      vertex -37.856 6.901 10
      vertex -40.923 4.564 10
    endloop
  endfacet
  facet normal 0 0 1
    outer loop
      vertex -51 -5.804 10
      vertex -43.114 2.666 10
      vertex -45.743 0.621 10
    endloop
  endfacet
  facet normal 0 0 1
    outer loop
      vertex -51 -5.804 10
      vertex -40.923 4.564 10
      vertex -43.114 2.666 10
    endloop
  endfacet
  facet normal 0 0 1
    outer loop
      vertex -51 -5.804 10
      vertex -45.743 0.621 10
      vertex -47.203 -0.839 10
    endloop
  endfacet
  facet normal 0 0 1
    outer loop
      vertex -50.124 -4.636 10
      vertex -47.203 -0.839 10
      vertex -48.809 -2.738 10
    endloop
  endfacet
  facet normal 0 0 1
    outer loop
      vertex -51 -5.804 10
      vertex -47.203 -0.839 10
      vertex -50.124 -4.636 10
    endloop
  endfacet
  facet normal 0.864657 -0.502363 0
    outer loop
      vertex -9.817 -4.344 0
      vertex -0.908 10.99 0
      vertex -0.908 10.99 10
    endloop
  endfacet
  facet normal 0.864657 -0.502363 0
    outer loop
      vertex -9.817 -4.344 10
      vertex -9.817 -4.344 0
      vertex -0.908 10.99 10
    endloop
  endfacet
  facet normal 0.371391 -0.928477 0
    outer loop
      vertex -51 -5.804 0
      vertex -49.54 -5.22 0
      vertex -49.54 -5.22 10
    endloop
  endfacet
  facet normal 0.371391 -0.928477 0
    outer loop
      vertex -51 -5.804 10
      vertex -51 -5.804 0
      vertex -49.54 -5.22 10
    endloop
  endfacet
  facet normal -0.8 0.6 0
    outer loop
      vertex -51 -5.804 10
      vertex -50.124 -4.636 10
      vertex -51 -5.804 0
    endloop
  endfacet
  facet normal -0.8 0.6 0
    outer loop
      vertex -51 -5.804 0
      vertex -50.124 -4.636 10
      vertex -50.124 -4.636 0
    endloop
  endfacet
  facet normal 0.418876 -0.908043 0
    outer loop
      vertex -49.54 -5.22 0
      vertex -47.641 -4.344 0
      vertex -47.641 -4.344 10
    endloop
  endfacet
  facet normal 0.418876 -0.908043 0
    outer loop
      vertex -49.54 -5.22 10
      vertex -49.54 -5.22 0
      vertex -47.641 -4.344 10
    endloop
  endfacet
  facet normal 0.371245 -0.928535 0
    outer loop
      vertex -47.641 -4.344 0
      vertex -45.45 -3.468 0
      vertex -45.45 -3.468 10
    endloop
  endfacet
  facet normal 0.371245 -0.928535 0
    outer loop
      vertex -47.641 -4.344 10
      vertex -47.641 -4.344 0
      vertex -45.45 -3.468 10
    endloop
  endfacet
  facet normal 0.171341 -0.985212 0
    outer loop
      vertex -45.45 -3.468 0
      vertex -42.092 -2.884 0
      vertex -42.092 -2.884 10
    endloop
  endfacet
  facet normal 0.171341 -0.985212 0
    outer loop
      vertex -45.45 -3.468 10
      vertex -45.45 -3.468 0
      vertex -42.092 -2.884 10
    endloop
  endfacet
  facet normal 0.184212 -0.982886 0
    outer loop
      vertex -42.092 -2.884 0
      vertex -39.755 -2.446 0
      vertex -39.755 -2.446 10
    endloop
  endfacet
  facet normal 0.184212 -0.982886 0
    outer loop
      vertex -42.092 -2.884 10
      vertex -42.092 -2.884 0
      vertex -39.755 -2.446 10
    endloop
  endfacet
  facet normal 0.148622 -0.988894 0
    outer loop
      vertex -39.755 -2.446 0
      vertex -36.834 -2.007 0
      vertex -36.834 -2.007 10
    endloop
  endfacet
  facet normal 0.148622 -0.988894 0
    outer loop
      vertex -39.755 -2.446 10
      vertex -39.755 -2.446 0
      vertex -36.834 -2.007 10
    endloop
  endfacet
  facet normal 0 -1 0
    outer loop
      vertex -36.834 -2.007 0
      vertex -34.205 -2.007 0
      vertex -34.205 -2.007 10
    endloop
  endfacet
  facet normal 0 -1 0
    outer loop
      vertex -36.834 -2.007 10
      vertex -36.834 -2.007 0
      vertex -34.205 -2.007 10
    endloop
  endfacet
  facet normal -0.066519 -0.997785 0
    outer loop
      vertex -34.205 -2.007 0
      vertex -32.015 -2.153 0
      vertex -32.015 -2.153 10
    endloop
  endfacet
  facet normal -0.066519 -0.997785 0
    outer loop
      vertex -34.205 -2.007 10
      vertex -34.205 -2.007 0
      vertex -32.015 -2.153 10
    endloop
  endfacet
  facet normal -0.0528988 -0.9986 0
    outer loop
      vertex -32.015 -2.153 0
      vertex -29.24 -2.3 0
      vertex -29.24 -2.3 10
    endloop
  endfacet
  facet normal -0.0528988 -0.9986 0
    outer loop
      vertex -32.015 -2.153 10
      vertex -32.015 -2.153 0
      vertex -29.24 -2.3 10
    endloop
  endfacet
  facet normal -0.178832 -0.98388 0
    outer loop
      vertex -29.24 -2.3 0
      vertex -26.027 -2.884 0
      vertex -26.027 -2.884 10
    endloop
  endfacet
  facet normal -0.178832 -0.98388 0
    outer loop
      vertex -29.24 -2.3 10
      vertex -29.24 -2.3 0
      vertex -26.027 -2.884 10
    endloop
  endfacet
  facet normal -0.316228 -0.948683 0
    outer loop
      vertex -26.027 -2.884 0
      vertex -23.399 -3.76 0
      vertex -23.399 -3.76 10
    endloop
  endfacet
  facet normal -0.316228 -0.948683 0
    outer loop
      vertex -26.027 -2.884 10
      vertex -26.027 -2.884 0
      vertex -23.399 -3.76 10
    endloop
  endfacet
  facet normal -0.418876 -0.908043 0
    outer loop
      vertex -23.399 -3.76 0
      vertex -21.5 -4.636 0
      vertex -21.5 -4.636 10
    endloop
  endfacet
  facet normal -0.418876 -0.908043 0
    outer loop
      vertex -23.399 -3.76 10
      vertex -23.399 -3.76 0
      vertex -21.5 -4.636 10
    endloop
  endfacet
  facet normal -0.447039 -0.894515 0
    outer loop
      vertex -21.5 -4.636 0
      vertex -19.455 -5.658 0
      vertex -19.455 -5.658 10
    endloop
  endfacet
  facet normal -0.447039 -0.894515 0
    outer loop
      vertex -21.5 -4.636 10
      vertex -21.5 -4.636 0
      vertex -19.455 -5.658 10
    endloop
  endfacet
  facet normal -0.633526 -0.773721 0
    outer loop
      vertex -19.455 -5.658 0
      vertex -17.849 -6.973 0
      vertex -17.849 -6.973 10
    endloop
  endfacet
  facet normal -0.633526 -0.773721 0
    outer loop
      vertex -19.455 -5.658 10
      vertex -19.455 -5.658 0
      vertex -17.849 -6.973 10
    endloop
  endfacet
  facet normal 0.99931 0.0371288 0
    outer loop
      vertex -1.201 18.876 0
      vertex -1.201 18.876 10
      vertex -0.908 10.99 10
    endloop
  endfacet
  facet normal 0.99931 0.0371288 0
    outer loop
      vertex -0.908 10.99 0
      vertex -1.201 18.876 0
      vertex -0.908 10.99 10
    endloop
  endfacet
  facet normal -0.110404 0.993887 0
    outer loop
      vertex -5.144 18.438 10
      vertex -1.201 18.876 10
      vertex -5.144 18.438 0
    endloop
  endfacet
  facet normal -0.110404 0.993887 0
    outer loop
      vertex -5.144 18.438 0
      vertex -1.201 18.876 10
      vertex -1.201 18.876 0
    endloop
  endfacet
  facet normal -0.0797235 0.996817 0
    outer loop
      vertex -8.795 18.146 10
      vertex -5.144 18.438 10
      vertex -8.795 18.146 0
    endloop
  endfacet
  facet normal -0.0797235 0.996817 0
    outer loop
      vertex -8.795 18.146 0
      vertex -5.144 18.438 10
      vertex -5.144 18.438 0
    endloop
  endfacet
  facet normal -0.169868 0.985467 0
    outer loop
      vertex -13.03 17.416 10
      vertex -8.795 18.146 10
      vertex -13.03 17.416 0
    endloop
  endfacet
  facet normal -0.169868 0.985467 0
    outer loop
      vertex -13.03 17.416 0
      vertex -8.795 18.146 10
      vertex -8.795 18.146 0
    endloop
  endfacet
  facet normal -0.224803 0.974404 0
    outer loop
      vertex -16.827 16.54 10
      vertex -13.03 17.416 10
      vertex -16.827 16.54 0
    endloop
  endfacet
  facet normal -0.224803 0.974404 0
    outer loop
      vertex -16.827 16.54 0
      vertex -13.03 17.416 10
      vertex -13.03 17.416 0
    endloop
  endfacet
  facet normal -0.316358 0.94864 0
    outer loop
      vertex -21.208 15.079 10
      vertex -16.827 16.54 10
      vertex -21.208 15.079 0
    endloop
  endfacet
  facet normal -0.316358 0.94864 0
    outer loop
      vertex -21.208 15.079 0
      vertex -16.827 16.54 10
      vertex -16.827 16.54 0
    endloop
  endfacet
  facet normal -0.31612 0.948719 0
    outer loop
      vertex -23.837 14.203 10
      vertex -21.208 15.079 10
      vertex -23.837 14.203 0
    endloop
  endfacet
  facet normal -0.31612 0.948719 0
    outer loop
      vertex -23.837 14.203 0
      vertex -21.208 15.079 10
      vertex -21.208 15.079 0
    endloop
  endfacet
  facet normal -0.388057 0.921635 0
    outer loop
      vertex -26.611 13.035 10
      vertex -23.837 14.203 10
      vertex -26.611 13.035 0
    endloop
  endfacet
  facet normal -0.388057 0.921635 0
    outer loop
      vertex -26.611 13.035 0
      vertex -23.837 14.203 10
      vertex -23.837 14.203 0
    endloop
  endfacet
  facet normal -0.43157 0.90208 0
    outer loop
      vertex -29.97 11.428 10
      vertex -26.611 13.035 10
      vertex -29.97 11.428 0
    endloop
  endfacet
  facet normal -0.43157 0.90208 0
    outer loop
      vertex -29.97 11.428 0
      vertex -26.611 13.035 10
      vertex -26.611 13.035 0
    endloop
  endfacet
  facet normal -0.447102 0.894483 0
    outer loop
      vertex -33.183 9.822 10
      vertex -29.97 11.428 10
      vertex -33.183 9.822 0
    endloop
  endfacet
  facet normal -0.447102 0.894483 0
    outer loop
      vertex -33.183 9.822 0
      vertex -29.97 11.428 10
      vertex -29.97 11.428 0
    endloop
  endfacet
  facet normal -0.530097 0.847937 0
    outer loop
      vertex -35.52 8.361 10
      vertex -33.183 9.822 10
      vertex -35.52 8.361 0
    endloop
  endfacet
  facet normal -0.530097 0.847937 0
    outer loop
      vertex -35.52 8.361 0
      vertex -33.183 9.822 10
      vertex -33.183 9.822 0
    endloop
  endfacet
  facet normal -0.529999 0.847998 0
    outer loop
      vertex -37.856 6.901 10
      vertex -35.52 8.361 10
      vertex -37.856 6.901 0
    endloop
  endfacet
  facet normal -0.529999 0.847998 0
    outer loop
      vertex -37.856 6.901 0
      vertex -35.52 8.361 10
      vertex -35.52 8.361 0
    endloop
  endfacet
  facet normal -0.606082 0.795402 0
    outer loop
      vertex -40.923 4.564 10
      vertex -37.856 6.901 10
      vertex -40.923 4.564 0
    endloop
  endfacet
  facet normal -0.606082 0.795402 0
    outer loop
      vertex -40.923 4.564 0
      vertex -37.856 6.901 10
      vertex -37.856 6.901 0
    endloop
  endfacet
  facet normal -0.65476 0.755837 0
    outer loop
      vertex -43.114 2.666 10
      vertex -40.923 4.564 10
      vertex -43.114 2.666 0
    endloop
  endfacet
  facet normal -0.65476 0.755837 0
    outer loop
      vertex -43.114 2.666 0
      vertex -40.923 4.564 10
      vertex -40.923 4.564 0
    endloop
  endfacet
  facet normal -0.613982 0.78932 0
    outer loop
      vertex -45.743 0.621 10
      vertex -43.114 2.666 10
      vertex -45.743 0.621 0
    endloop
  endfacet
  facet normal -0.613982 0.78932 0
    outer loop
      vertex -45.743 0.621 0
      vertex -43.114 2.666 10
      vertex -43.114 2.666 0
    endloop
  endfacet
  facet normal -0.707107 0.707107 0
    outer loop
      vertex -47.203 -0.839 10
      vertex -45.743 0.621 10
      vertex -47.203 -0.839 0
    endloop
  endfacet
  facet normal -0.707107 0.707107 0
    outer loop
      vertex -47.203 -0.839 0
      vertex -45.743 0.621 10
      vertex -45.743 0.621 0
    endloop
  endfacet
  facet normal -0.763554 0.645744 0
    outer loop
      vertex -48.809 -2.738 10
      vertex -47.203 -0.839 10
      vertex -48.809 -2.738 0
    endloop
  endfacet
  facet normal -0.763554 0.645744 0
    outer loop
      vertex -48.809 -2.738 0
      vertex -47.203 -0.839 10
      vertex -47.203 -0.839 0
    endloop
  endfacet
  facet normal -0.821989 0.569503 0
    outer loop
      vertex -50.124 -4.636 10
      vertex -48.809 -2.738 10
      vertex -50.124 -4.636 0
    endloop
  endfacet
  facet normal -0.821989 0.569503 0
    outer loop
      vertex -50.124 -4.636 0
      vertex -48.809 -2.738 10
      vertex -48.809 -2.738 0
    endloop
  endfacet
  facet normal 0.21237 0.977189 0
    outer loop
      vertex 0.77 4.38 10
      vertex 1.451 4.232 10
      vertex 0.77 4.38 0
    endloop
  endfacet
  facet normal 0.21237 0.977189 0
    outer loop
      vertex 0.77 4.38 0
      vertex 1.451 4.232 10
      vertex 1.451 4.232 0
    endloop
  endfacet
  facet normal 0.0362081 0.999344 0
    outer loop
      vertex -0.058 4.41 10
      vertex 0.77 4.38 10
      vertex -0.058 4.41 0
    endloop
  endfacet
  facet normal 0.0362081 0.999344 0
    outer loop
      vertex -0.058 4.41 0
      vertex 0.77 4.38 10
      vertex 0.77 4.38 0
    endloop
  endfacet
  facet normal 0 0 -1
    outer loop
      vertex -3.963 0.357 0
      vertex -3.874 1.185 0
      vertex -3.963 -0.382 0
    endloop
  endfacet
  facet normal 0 0 -1
    outer loop
      vertex -3.963 -0.382 0
      vertex -3.874 1.185 0
      vertex -3.638 1.955 0
    endloop
  endfacet
  facet normal 0 0 -1
    outer loop
      vertex -3.963 -0.382 0
      vertex -3.638 1.955 0
      vertex -3.223 2.576 0
    endloop
  endfacet
  facet normal 0 0 -1
    outer loop
      vertex -3.963 -0.382 0
      vertex -3.223 2.576 0
      vertex -2.987 2.931 0
    endloop
  endfacet
  facet normal 0 0 -1
    outer loop
      vertex -3.963 -0.382 0
      vertex -2.987 2.931 0
      vertex -2.661 3.256 0
    endloop
  endfacet
  facet normal 0 0 -1
    outer loop
      vertex -3.963 -0.382 0
      vertex -2.661 3.256 0
      vertex -2.247 3.641 0
    endloop
  endfacet
  facet normal 0 0 -1
    outer loop
      vertex -3.963 -0.382 0
      vertex -2.247 3.641 0
      vertex -1.981 3.818 0
    endloop
  endfacet
  facet normal 0 0 -1
    outer loop
      vertex -3.963 -0.382 0
      vertex -1.981 3.818 0
      vertex -1.596 4.055 0
    endloop
  endfacet
  facet normal 0 0 -1
    outer loop
      vertex -3.963 -0.382 0
      vertex -1.596 4.055 0
      vertex -0.768 4.321 0
    endloop
  endfacet
  facet normal 0 0 -1
    outer loop
      vertex -3.963 -0.382 0
      vertex -0.768 4.321 0
      vertex -0.058 4.41 0
    endloop
  endfacet
  facet normal 0 0 -1
    outer loop
      vertex -3.963 -0.382 0
      vertex -0.058 4.41 0
      vertex 0.77 4.38 0
    endloop
  endfacet
  facet normal 0 0 -1
    outer loop
      vertex -3.963 -0.382 0
      vertex 0.77 4.38 0
      vertex 1.451 4.232 0
    endloop
  endfacet
  facet normal 0 0 -1
    outer loop
      vertex -3.963 -0.382 0
      vertex 1.451 4.232 0
      vertex 2.102 3.937 0
    endloop
  endfacet
  facet normal 0 0 -1
    outer loop
      vertex -3.963 -0.382 0
      vertex 2.102 3.937 0
      vertex 2.427 3.789 0
    endloop
  endfacet
  facet normal 0 0 -1
    outer loop
      vertex -3.963 -0.382 0
      vertex 2.427 3.789 0
      vertex 2.9 3.404 0
    endloop
  endfacet
  facet normal 0 0 -1
    outer loop
      vertex -3.963 -0.382 0
      vertex 2.9 3.404 0
      vertex 3.374 2.872 0
    endloop
  endfacet
  facet normal 0 0 -1
    outer loop
      vertex -3.963 -0.382 0
      vertex 3.374 2.872 0
      vertex 3.788 2.28 0
    endloop
  endfacet
  facet normal 0 0 -1
    outer loop
      vertex -3.963 -0.382 0
      vertex 3.788 2.28 0
      vertex 4.054 1.688 0
    endloop
  endfacet
  facet normal 0 0 -1
    outer loop
      vertex -3.963 -0.382 0
      vertex 4.054 1.688 0
      vertex 4.232 1.038 0
    endloop
  endfacet
  facet normal 0 0 -1
    outer loop
      vertex -3.963 -0.382 0
      vertex 4.232 1.038 0
      vertex 4.32 0.387 0
    endloop
  endfacet
  facet normal 0 0 -1
    outer loop
      vertex -3.963 -0.382 0
      vertex 4.32 0.387 0
      vertex 4.291 -0.323 0
    endloop
  endfacet
  facet normal 0 0 -1
    outer loop
      vertex -3.963 -0.382 0
      vertex 4.291 -0.323 0
      vertex 4.172 -0.885 0
    endloop
  endfacet
  facet normal 0 0 -1
    outer loop
      vertex -3.963 -0.382 0
      vertex 4.172 -0.885 0
      vertex 3.936 -1.536 0
    endloop
  endfacet
  facet normal 0 0 -1
    outer loop
      vertex -3.963 -0.382 0
      vertex 3.936 -1.536 0
      vertex 3.669 -2.01 0
    endloop
  endfacet
  facet normal 0 0 -1
    outer loop
      vertex -3.963 -0.382 0
      vertex 3.669 -2.01 0
      vertex 3.285 -2.512 0
    endloop
  endfacet
  facet normal 0 0 -1
    outer loop
      vertex -3.963 -0.382 0
      vertex 3.285 -2.512 0
      vertex 2.871 -2.927 0
    endloop
  endfacet
  facet normal 0 0 -1
    outer loop
      vertex -3.963 -0.382 0
      vertex 2.871 -2.927 0
      vertex 2.309 -3.341 0
    endloop
  endfacet
  facet normal 0 0 -1
    outer loop
      vertex -3.963 -0.382 0
      vertex 2.309 -3.341 0
      vertex 1.747 -3.637 0
    endloop
  endfacet
  facet normal 0 0 -1
    outer loop
      vertex -3.963 -0.382 0
      vertex 1.747 -3.637 0
      vertex 1.125 -3.814 0
    endloop
  endfacet
  facet normal 0 0 -1
    outer loop
      vertex -3.963 -0.382 0
      vertex 1.125 -3.814 0
      vertex 0.179 -3.873 0
    endloop
  endfacet
  facet normal 0 0 -1
    outer loop
      vertex -3.963 -0.382 0
      vertex 0.179 -3.873 0
      vertex -0.768 -3.785 0
    endloop
  endfacet
  facet normal 0 0 -1
    outer loop
      vertex -3.963 -0.382 0
      vertex -0.768 -3.785 0
      vertex -1.537 -3.548 0
    endloop
  endfacet
  facet normal 0 0 -1
    outer loop
      vertex -3.963 -0.382 0
      vertex -1.537 -3.548 0
      vertex -2.218 -3.163 0
    endloop
  endfacet
  facet normal 0 0 -1
    outer loop
      vertex -3.963 -0.382 0
      vertex -2.218 -3.163 0
      vertex -2.72 -2.749 0
    endloop
  endfacet
  facet normal 0 0 -1
    outer loop
      vertex -3.963 -0.382 0
      vertex -2.72 -2.749 0
      vertex -3.135 -2.305 0
    endloop
  endfacet
  facet normal 0 0 -1
    outer loop
      vertex -3.963 -0.382 0
      vertex -3.135 -2.305 0
      vertex -3.49 -1.832 0
    endloop
  endfacet
  facet normal 0 0 -1
    outer loop
      vertex -3.963 -0.382 0
      vertex -3.49 -1.832 0
      vertex -3.785 -1.152 0
    endloop
  endfacet
  facet normal 0.412749 0.910845 0
    outer loop
      vertex 1.451 4.232 10
      vertex 2.102 3.937 10
      vertex 1.451 4.232 0
    endloop
  endfacet
  facet normal 0.412749 0.910845 0
    outer loop
      vertex 1.451 4.232 0
      vertex 2.102 3.937 10
      vertex 2.102 3.937 0
    endloop
  endfacet
  facet normal 0 0 1
    outer loop
      vertex -3.963 -0.382 10
      vertex -3.785 -1.152 10
      vertex -3.49 -1.832 10
    endloop
  endfacet
  facet normal 0 0 1
    outer loop
      vertex -2.72 -2.749 10
      vertex -3.963 -0.382 10
      vertex -3.135 -2.305 10
    endloop
  endfacet
  facet normal 0 0 1
    outer loop
      vertex -3.135 -2.305 10
      vertex -3.963 -0.382 10
      vertex -3.49 -1.832 10
    endloop
  endfacet
  facet normal 0 0 1
    outer loop
      vertex -2.218 -3.163 10
      vertex -3.963 -0.382 10
      vertex -2.72 -2.749 10
    endloop
  endfacet
  facet normal 0 0 1
    outer loop
      vertex -1.537 -3.548 10
      vertex -3.963 -0.382 10
      vertex -2.218 -3.163 10
    endloop
  endfacet
  facet normal 0 0 1
    outer loop
      vertex -0.768 -3.785 10
      vertex -3.963 -0.382 10
      vertex -1.537 -3.548 10
    endloop
  endfacet
  facet normal 0 0 1
    outer loop
      vertex 0.179 -3.873 10
      vertex -3.963 -0.382 10
      vertex -0.768 -3.785 10
    endloop
  endfacet
  facet normal 0 0 1
    outer loop
      vertex 1.125 -3.814 10
      vertex -3.963 -0.382 10
      vertex 0.179 -3.873 10
    endloop
  endfacet
  facet normal 0 0 1
    outer loop
      vertex 1.747 -3.637 10
      vertex -3.963 -0.382 10
      vertex 1.125 -3.814 10
    endloop
  endfacet
  facet normal 0 0 1
    outer loop
      vertex 2.309 -3.341 10
      vertex -3.963 -0.382 10
      vertex 1.747 -3.637 10
    endloop
  endfacet
  facet normal 0 0 1
    outer loop
      vertex 2.871 -2.927 10
      vertex -3.963 -0.382 10
      vertex 2.309 -3.341 10
    endloop
  endfacet
  facet normal 0 0 1
    outer loop
      vertex 3.285 -2.512 10
      vertex -3.963 -0.382 10
      vertex 2.871 -2.927 10
    endloop
  endfacet
  facet normal 0 0 1
    outer loop
      vertex 3.669 -2.01 10
      vertex -3.963 -0.382 10
      vertex 3.285 -2.512 10
    endloop
  endfacet
  facet normal 0 0 1
    outer loop
      vertex 3.936 -1.536 10
      vertex -3.963 -0.382 10
      vertex 3.669 -2.01 10
    endloop
  endfacet
  facet normal 0 0 1
    outer loop
      vertex 4.172 -0.885 10
      vertex -3.963 -0.382 10
      vertex 3.936 -1.536 10
    endloop
  endfacet
  facet normal 0 0 1
    outer loop
      vertex 4.291 -0.323 10
      vertex -3.963 -0.382 10
      vertex 4.172 -0.885 10
    endloop
  endfacet
  facet normal 0 0 1
    outer loop
      vertex 4.32 0.387 10
      vertex -3.963 -0.382 10
      vertex 4.291 -0.323 10
    endloop
  endfacet
  facet normal 0 0 1
    outer loop
      vertex 4.232 1.038 10
      vertex -3.963 -0.382 10
      vertex 4.32 0.387 10
    endloop
  endfacet
  facet normal 0 0 1
    outer loop
      vertex 4.054 1.688 10
      vertex -3.963 -0.382 10
      vertex 4.232 1.038 10
    endloop
  endfacet
  facet normal 0 0 1
    outer loop
      vertex 3.788 2.28 10
      vertex -3.963 -0.382 10
      vertex 4.054 1.688 10
    endloop
  endfacet
  facet normal 0 0 1
    outer loop
      vertex 3.374 2.872 10
      vertex -3.963 -0.382 10
      vertex 3.788 2.28 10
    endloop
  endfacet
  facet normal 0 0 1
    outer loop
      vertex 2.9 3.404 10
      vertex -3.963 -0.382 10
      vertex 3.374 2.872 10
    endloop
  endfacet
  facet normal 0 0 1
    outer loop
      vertex 2.427 3.789 10
      vertex -3.963 -0.382 10
      vertex 2.9 3.404 10
    endloop
  endfacet
  facet normal 0 0 1
    outer loop
      vertex 2.102 3.937 10
      vertex -3.963 -0.382 10
      vertex 2.427 3.789 10
    endloop
  endfacet
  facet normal 0 0 1
    outer loop
      vertex 1.451 4.232 10
      vertex -3.963 -0.382 10
      vertex 2.102 3.937 10
    endloop
  endfacet
  facet normal 0 0 1
    outer loop
      vertex 0.77 4.38 10
      vertex -3.963 -0.382 10
      vertex 1.451 4.232 10
    endloop
  endfacet
  facet normal 0 0 1
    outer loop
      vertex -0.058 4.41 10
      vertex -3.963 -0.382 10
      vertex 0.77 4.38 10
    endloop
  endfacet
  facet normal 0 0 1
    outer loop
      vertex -0.768 4.321 10
      vertex -3.963 -0.382 10
      vertex -0.058 4.41 10
    endloop
  endfacet
  facet normal 0 0 1
    outer loop
      vertex -1.596 4.055 10
      vertex -3.963 -0.382 10
      vertex -0.768 4.321 10
    endloop
  endfacet
  facet normal 0 0 1
    outer loop
      vertex -1.981 3.818 10
      vertex -3.963 -0.382 10
      vertex -1.596 4.055 10
    endloop
  endfacet
  facet normal 0 0 1
    outer loop
      vertex -2.247 3.641 10
      vertex -3.963 -0.382 10
      vertex -1.981 3.818 10
    endloop
  endfacet
  facet normal 0 0 1
    outer loop
      vertex -2.661 3.256 10
      vertex -3.963 -0.382 10
      vertex -2.247 3.641 10
    endloop
  endfacet
  facet normal 0 0 1
    outer loop
      vertex -2.987 2.931 10
      vertex -3.963 -0.382 10
      vertex -2.661 3.256 10
    endloop
  endfacet
  facet normal 0 0 1
    outer loop
      vertex -3.223 2.576 10
      vertex -3.963 -0.382 10
      vertex -2.987 2.931 10
    endloop
  endfacet
  facet normal 0 0 1
    outer loop
      vertex -3.638 1.955 10
      vertex -3.963 -0.382 10
      vertex -3.223 2.576 10
    endloop
  endfacet
  facet normal 0 0 1
    outer loop
      vertex -3.874 1.185 10
      vertex -3.963 -0.382 10
      vertex -3.638 1.955 10
    endloop
  endfacet
  facet normal 0 0 1
    outer loop
      vertex -3.963 0.357 10
      vertex -3.963 -0.382 10
      vertex -3.874 1.185 10
    endloop
  endfacet
  facet normal -0.124379 0.992235 0
    outer loop
      vertex -0.768 4.321 10
      vertex -0.058 4.41 10
      vertex -0.768 4.321 0
    endloop
  endfacet
  facet normal -0.124379 0.992235 0
    outer loop
      vertex -0.768 4.321 0
      vertex -0.058 4.41 10
      vertex -0.058 4.41 0
    endloop
  endfacet
  facet normal -0.974306 -0.225229 0
    outer loop
      vertex -3.785 -1.152 0
      vertex -3.785 -1.152 10
      vertex -3.963 -0.382 0
    endloop
  endfacet
  facet normal -0.974306 -0.225229 0
    outer loop
      vertex -3.963 -0.382 0
      vertex -3.785 -1.152 10
      vertex -3.963 -0.382 10
    endloop
  endfacet
  facet normal -1 0 0
    outer loop
      vertex -3.963 -0.382 10
      vertex -3.963 0.357 10
      vertex -3.963 -0.382 0
    endloop
  endfacet
  facet normal -1 0 0
    outer loop
      vertex -3.963 -0.382 0
      vertex -3.963 0.357 10
      vertex -3.963 0.357 0
    endloop
  endfacet
  facet normal -0.917391 -0.397986 0
    outer loop
      vertex -3.49 -1.832 0
      vertex -3.49 -1.832 10
      vertex -3.785 -1.152 0
    endloop
  endfacet
  facet normal -0.917391 -0.397986 0
    outer loop
      vertex -3.785 -1.152 0
      vertex -3.49 -1.832 10
      vertex -3.785 -1.152 10
    endloop
  endfacet
  facet normal -0.799797 -0.600271 0
    outer loop
      vertex -3.135 -2.305 0
      vertex -3.135 -2.305 10
      vertex -3.49 -1.832 0
    endloop
  endfacet
  facet normal -0.799797 -0.600271 0
    outer loop
      vertex -3.49 -1.832 0
      vertex -3.135 -2.305 10
      vertex -3.49 -1.832 10
    endloop
  endfacet
  facet normal -0.730563 -0.682846 0
    outer loop
      vertex -2.72 -2.749 0
      vertex -2.72 -2.749 10
      vertex -3.135 -2.305 0
    endloop
  endfacet
  facet normal -0.730563 -0.682846 0
    outer loop
      vertex -3.135 -2.305 0
      vertex -2.72 -2.749 10
      vertex -3.135 -2.305 10
    endloop
  endfacet
  facet normal -0.636246 -0.771486 0
    outer loop
      vertex -2.72 -2.749 0
      vertex -2.218 -3.163 0
      vertex -2.218 -3.163 10
    endloop
  endfacet
  facet normal -0.636246 -0.771486 0
    outer loop
      vertex -2.72 -2.749 10
      vertex -2.72 -2.749 0
      vertex -2.218 -3.163 10
    endloop
  endfacet
  facet normal -0.492141 -0.870515 0
    outer loop
      vertex -2.218 -3.163 0
      vertex -1.537 -3.548 0
      vertex -1.537 -3.548 10
    endloop
  endfacet
  facet normal -0.492141 -0.870515 0
    outer loop
      vertex -2.218 -3.163 10
      vertex -2.218 -3.163 0
      vertex -1.537 -3.548 10
    endloop
  endfacet
  facet normal -0.294522 -0.955645 0
    outer loop
      vertex -1.537 -3.548 0
      vertex -0.768 -3.785 0
      vertex -0.768 -3.785 10
    endloop
  endfacet
  facet normal -0.294522 -0.955645 0
    outer loop
      vertex -1.537 -3.548 10
      vertex -1.537 -3.548 0
      vertex -0.768 -3.785 10
    endloop
  endfacet
  facet normal -0.0925264 -0.99571 0
    outer loop
      vertex -0.768 -3.785 0
      vertex 0.179 -3.873 0
      vertex 0.179 -3.873 10
    endloop
  endfacet
  facet normal -0.0925264 -0.99571 0
    outer loop
      vertex -0.768 -3.785 10
      vertex -0.768 -3.785 0
      vertex 0.179 -3.873 10
    endloop
  endfacet
  facet normal 0.0622469 -0.998061 0
    outer loop
      vertex 0.179 -3.873 0
      vertex 1.125 -3.814 0
      vertex 1.125 -3.814 10
    endloop
  endfacet
  facet normal 0.0622469 -0.998061 0
    outer loop
      vertex 0.179 -3.873 10
      vertex 0.179 -3.873 0
      vertex 1.125 -3.814 10
    endloop
  endfacet
  facet normal 0.2737 -0.961815 0
    outer loop
      vertex 1.125 -3.814 0
      vertex 1.747 -3.637 0
      vertex 1.747 -3.637 10
    endloop
  endfacet
  facet normal 0.2737 -0.961815 0
    outer loop
      vertex 1.125 -3.814 10
      vertex 1.125 -3.814 0
      vertex 1.747 -3.637 10
    endloop
  endfacet
  facet normal 0.466006 -0.884782 0
    outer loop
      vertex 1.747 -3.637 0
      vertex 2.309 -3.341 0
      vertex 2.309 -3.341 10
    endloop
  endfacet
  facet normal 0.466006 -0.884782 0
    outer loop
      vertex 1.747 -3.637 10
      vertex 1.747 -3.637 0
      vertex 2.309 -3.341 10
    endloop
  endfacet
  facet normal 0.593101 -0.805128 0
    outer loop
      vertex 2.309 -3.341 0
      vertex 2.871 -2.927 0
      vertex 2.871 -2.927 10
    endloop
  endfacet
  facet normal 0.593101 -0.805128 0
    outer loop
      vertex 2.309 -3.341 10
      vertex 2.309 -3.341 0
      vertex 2.871 -2.927 10
    endloop
  endfacet
  facet normal 0.707959 -0.706253 0
    outer loop
      vertex 2.871 -2.927 0
      vertex 3.285 -2.512 0
      vertex 3.285 -2.512 10
    endloop
  endfacet
  facet normal 0.707959 -0.706253 0
    outer loop
      vertex 2.871 -2.927 10
      vertex 2.871 -2.927 0
      vertex 3.285 -2.512 10
    endloop
  endfacet
  facet normal 0.794268 -0.607568 0
    outer loop
      vertex 3.285 -2.512 0
      vertex 3.669 -2.01 0
      vertex 3.669 -2.01 10
    endloop
  endfacet
  facet normal 0.794268 -0.607568 0
    outer loop
      vertex 3.285 -2.512 10
      vertex 3.285 -2.512 0
      vertex 3.669 -2.01 10
    endloop
  endfacet
  facet normal 0.871281 -0.490785 0
    outer loop
      vertex 3.669 -2.01 0
      vertex 3.936 -1.536 0
      vertex 3.936 -1.536 10
    endloop
  endfacet
  facet normal 0.871281 -0.490785 0
    outer loop
      vertex 3.669 -2.01 10
      vertex 3.669 -2.01 0
      vertex 3.936 -1.536 10
    endloop
  endfacet
  facet normal 0.94013 -0.340815 0
    outer loop
      vertex 3.936 -1.536 0
      vertex 4.172 -0.885 0
      vertex 4.172 -0.885 10
    endloop
  endfacet
  facet normal 0.94013 -0.340815 0
    outer loop
      vertex 3.936 -1.536 10
      vertex 3.936 -1.536 0
      vertex 4.172 -0.885 10
    endloop
  endfacet
  facet normal 0.978309 -0.207151 0
    outer loop
      vertex 4.172 -0.885 0
      vertex 4.291 -0.323 0
      vertex 4.291 -0.323 10
    endloop
  endfacet
  facet normal 0.978309 -0.207151 0
    outer loop
      vertex 4.172 -0.885 10
      vertex 4.172 -0.885 0
      vertex 4.291 -0.323 10
    endloop
  endfacet
  facet normal 0.999167 -0.040811 0
    outer loop
      vertex 4.291 -0.323 0
      vertex 4.32 0.387 0
      vertex 4.32 0.387 10
    endloop
  endfacet
  facet normal 0.999167 -0.040811 0
    outer loop
      vertex 4.291 -0.323 10
      vertex 4.291 -0.323 0
      vertex 4.32 0.387 10
    endloop
  endfacet
  facet normal 0.990987 0.133958 0
    outer loop
      vertex 4.232 1.038 0
      vertex 4.232 1.038 10
      vertex 4.32 0.387 10
    endloop
  endfacet
  facet normal 0.990987 0.133958 0
    outer loop
      vertex 4.32 0.387 0
      vertex 4.232 1.038 0
      vertex 4.32 0.387 10
    endloop
  endfacet
  facet normal 0.964489 0.264122 0
    outer loop
      vertex 4.054 1.688 0
      vertex 4.054 1.688 10
      vertex 4.232 1.038 10
    endloop
  endfacet
  facet normal 0.964489 0.264122 0
    outer loop
      vertex 4.232 1.038 0
      vertex 4.054 1.688 0
      vertex 4.232 1.038 10
    endloop
  endfacet
  facet normal 0.912152 0.409852 0
    outer loop
      vertex 3.788 2.28 0
      vertex 3.788 2.28 10
      vertex 4.054 1.688 10
    endloop
  endfacet
  facet normal 0.912152 0.409852 0
    outer loop
      vertex 4.054 1.688 0
      vertex 3.788 2.28 0
      vertex 4.054 1.688 10
    endloop
  endfacet
  facet normal 0.819492 0.573091 0
    outer loop
      vertex 3.374 2.872 0
      vertex 3.374 2.872 10
      vertex 3.788 2.28 10
    endloop
  endfacet
  facet normal 0.819492 0.573091 0
    outer loop
      vertex 3.788 2.28 0
      vertex 3.374 2.872 0
      vertex 3.788 2.28 10
    endloop
  endfacet
  facet normal 0.746634 0.665234 0
    outer loop
      vertex 2.9 3.404 0
      vertex 2.9 3.404 10
      vertex 3.374 2.872 10
    endloop
  endfacet
  facet normal 0.746634 0.665234 0
    outer loop
      vertex 3.374 2.872 0
      vertex 2.9 3.404 0
      vertex 3.374 2.872 10
    endloop
  endfacet
  facet normal 0.631271 0.775562 0
    outer loop
      vertex 2.427 3.789 10
      vertex 2.9 3.404 10
      vertex 2.427 3.789 0
    endloop
  endfacet
  facet normal 0.631271 0.775562 0
    outer loop
      vertex 2.427 3.789 0
      vertex 2.9 3.404 10
      vertex 2.9 3.404 0
    endloop
  endfacet
  facet normal 0.414436 0.910079 0
    outer loop
      vertex 2.102 3.937 10
      vertex 2.427 3.789 10
      vertex 2.102 3.937 0
    endloop
  endfacet
  facet normal 0.414436 0.910079 0
    outer loop
      vertex 2.102 3.937 0
      vertex 2.427 3.789 10
      vertex 2.427 3.789 0
    endloop
  endfacet
  facet normal -0.30586 0.952076 0
    outer loop
      vertex -1.596 4.055 10
      vertex -0.768 4.321 10
      vertex -1.596 4.055 0
    endloop
  endfacet
  facet normal -0.30586 0.952076 0
    outer loop
      vertex -1.596 4.055 0
      vertex -0.768 4.321 10
      vertex -0.768 4.321 0
    endloop
  endfacet
  facet normal -0.524221 0.851582 0
    outer loop
      vertex -1.981 3.818 10
      vertex -1.596 4.055 10
      vertex -1.981 3.818 0
    endloop
  endfacet
  facet normal -0.524221 0.851582 0
    outer loop
      vertex -1.981 3.818 0
      vertex -1.596 4.055 10
      vertex -1.596 4.055 0
    endloop
  endfacet
  facet normal -0.553978 0.832531 0
    outer loop
      vertex -2.247 3.641 10
      vertex -1.981 3.818 10
      vertex -2.247 3.641 0
    endloop
  endfacet
  facet normal -0.553978 0.832531 0
    outer loop
      vertex -2.247 3.641 0
      vertex -1.981 3.818 10
      vertex -1.981 3.818 0
    endloop
  endfacet
  facet normal -0.680994 0.732289 0
    outer loop
      vertex -2.661 3.256 10
      vertex -2.247 3.641 10
      vertex -2.661 3.256 0
    endloop
  endfacet
  facet normal -0.680994 0.732289 0
    outer loop
      vertex -2.661 3.256 0
      vertex -2.247 3.641 10
      vertex -2.247 3.641 0
    endloop
  endfacet
  facet normal -0.70602 0.708192 0
    outer loop
      vertex -2.987 2.931 10
      vertex -2.661 3.256 10
      vertex -2.987 2.931 0
    endloop
  endfacet
  facet normal -0.70602 0.708192 0
    outer loop
      vertex -2.987 2.931 0
      vertex -2.661 3.256 10
      vertex -2.661 3.256 0
    endloop
  endfacet
  facet normal -0.832771 0.553617 0
    outer loop
      vertex -3.223 2.576 10
      vertex -2.987 2.931 10
      vertex -3.223 2.576 0
    endloop
  endfacet
  facet normal -0.832771 0.553617 0
    outer loop
      vertex -3.223 2.576 0
      vertex -2.987 2.931 10
      vertex -2.987 2.931 0
    endloop
  endfacet
  facet normal -0.831432 0.555627 0
    outer loop
      vertex -3.638 1.955 10
      vertex -3.223 2.576 10
      vertex -3.638 1.955 0
    endloop
  endfacet
  facet normal -0.831432 0.555627 0
    outer loop
      vertex -3.638 1.955 0
      vertex -3.223 2.576 10
      vertex -3.223 2.576 0
    endloop
  endfacet
  facet normal -0.956101 0.293039 0
    outer loop
      vertex -3.874 1.185 10
      vertex -3.638 1.955 10
      vertex -3.874 1.185 0
    endloop
  endfacet
  facet normal -0.956101 0.293039 0
    outer loop
      vertex -3.874 1.185 0
      vertex -3.638 1.955 10
      vertex -3.638 1.955 0
    endloop
  endfacet
  facet normal -0.994273 0.106872 0
    outer loop
      vertex -3.963 0.357 10
      vertex -3.874 1.185 10
      vertex -3.963 0.357 0
    endloop
  endfacet
  facet normal -0.994273 0.106872 0
    outer loop
      vertex -3.963 0.357 0
      vertex -3.874 1.185 10
      vertex -3.874 1.185 0
    endloop
  endfacet
  facet normal 0.500308 0.865848 0
    outer loop
      vertex 9.083 -5.94 10
      vertex 15.27 -9.515 10
      vertex 9.083 -5.94 0
    endloop
  endfacet
  facet normal 0.500308 0.865848 0
    outer loop
      vertex 9.083 -5.94 0
      vertex 15.27 -9.515 10
      vertex 15.27 -9.515 0
    endloop
  endfacet
  facet normal 0 1 0
    outer loop
      vertex -8.791 -5.94 10
      vertex 9.083 -5.94 10
      vertex -8.791 -5.94 0
    endloop
  endfacet
  facet normal 0 1 0
    outer loop
      vertex -8.791 -5.94 0
      vertex 9.083 -5.94 10
      vertex 9.083 -5.94 0
    endloop
  endfacet
  facet normal 0 0 -1
    outer loop
      vertex -9.478 -6.421 0
      vertex -8.791 -5.94 0
      vertex 9.083 -5.94 0
    endloop
  endfacet
  facet normal 0 0 -1
    outer loop
      vertex -9.478 -6.421 0
      vertex 9.083 -5.94 0
      vertex -15.321 -9.927 0
    endloop
  endfacet
  facet normal 0 0 -1
    outer loop
      vertex 9.083 -5.94 0
      vertex 15.27 -9.515 0
      vertex -15.321 -9.927 0
    endloop
  endfacet
  facet normal 0 0 -1
    outer loop
      vertex 15.27 -9.515 0
      vertex 15.614 -9.79 0
      vertex -15.321 -9.927 0
    endloop
  endfacet
  facet normal 0 0 -1
    outer loop
      vertex 15.614 -9.79 0
      vertex 15.408 -11.096 0
      vertex -15.321 -9.927 0
    endloop
  endfacet
  facet normal 0 0 -1
    outer loop
      vertex 15.408 -11.096 0
      vertex 15.201 -12.333 0
      vertex -15.321 -9.927 0
    endloop
  endfacet
  facet normal 0 0 -1
    outer loop
      vertex 15.201 -12.333 0
      vertex 15.064 -13.708 0
      vertex -15.321 -9.927 0
    endloop
  endfacet
  facet normal 0 0 -1
    outer loop
      vertex 15.064 -13.708 0
      vertex 15.133 -15.702 0
      vertex -15.321 -9.927 0
    endloop
  endfacet
  facet normal 0 0 -1
    outer loop
      vertex 15.133 -15.702 0
      vertex 15.339 -17.695 0
      vertex -15.321 -9.927 0
    endloop
  endfacet
  facet normal 0 0 -1
    outer loop
      vertex 15.339 -17.695 0
      vertex 15.751 -19.758 0
      vertex -15.321 -9.927 0
    endloop
  endfacet
  facet normal 0 0 -1
    outer loop
      vertex 15.751 -19.758 0
      vertex 16.233 -21.476 0
      vertex -15.321 -9.927 0
    endloop
  endfacet
  facet normal 0 0 -1
    outer loop
      vertex 16.233 -21.476 0
      vertex 16.783 -23.058 0
      vertex -15.321 -9.927 0
    endloop
  endfacet
  facet normal 0 0 -1
    outer loop
      vertex 16.783 -23.058 0
      vertex 17.47 -24.776 0
      vertex -15.321 -9.927 0
    endloop
  endfacet
  facet normal 0 0 -1
    outer loop
      vertex 17.47 -24.776 0
      vertex 18.089 -25.876 0
      vertex -15.321 -9.927 0
    endloop
  endfacet
  facet normal 0 0 -1
    outer loop
      vertex 18.089 -25.876 0
      vertex 19.12 -27.938 0
      vertex -15.321 -9.927 0
    endloop
  endfacet
  facet normal 0 0 -1
    outer loop
      vertex 19.12 -27.938 0
      vertex 20.151 -29.588 0
      vertex -15.321 -9.927 0
    endloop
  endfacet
  facet normal 0 0 -1
    outer loop
      vertex 20.151 -29.588 0
      vertex 21.457 -31.444 0
      vertex -15.321 -9.927 0
    endloop
  endfacet
  facet normal 0 0 -1
    outer loop
      vertex 21.457 -31.444 0
      vertex 22.488 -32.819 0
      vertex -15.321 -9.927 0
    endloop
  endfacet
  facet normal 0 0 -1
    outer loop
      vertex 22.488 -32.819 0
      vertex 23.795 -34.4 0
      vertex -15.321 -9.927 0
    endloop
  endfacet
  facet normal 0 0 -1
    outer loop
      vertex 23.795 -34.4 0
      vertex 24.757 -35.5 0
      vertex -15.321 -9.927 0
    endloop
  endfacet
  facet normal 0 0 -1
    outer loop
      vertex 24.757 -35.5 0
      vertex 26.544 -37.357 0
      vertex -15.321 -9.927 0
    endloop
  endfacet
  facet normal 0 0 -1
    outer loop
      vertex 26.544 -37.357 0
      vertex 27.644 -38.25 0
      vertex -15.321 -9.927 0
    endloop
  endfacet
  facet normal 0 0 -1
    outer loop
      vertex 27.644 -38.25 0
      vertex 28.538 -39.006 0
      vertex -15.321 -9.927 0
    endloop
  endfacet
  facet normal 0 0 -1
    outer loop
      vertex 29.5 -40.794 0
      vertex -15.321 -9.927 0
      vertex 29.5 -39.831 0
    endloop
  endfacet
  facet normal 0 0 -1
    outer loop
      vertex 28.538 -39.006 0
      vertex 29.5 -39.831 0
      vertex -15.321 -9.927 0
    endloop
  endfacet
  facet normal 0 0 -1
    outer loop
      vertex 30.257 -40.313 0
      vertex 31.082 -40.863 0
      vertex 29.5 -39.831 0
    endloop
  endfacet
  facet normal 0 0 -1
    outer loop
      vertex 31.082 -40.863 0
      vertex 29.5 -40.794 0
      vertex 29.5 -39.831 0
    endloop
  endfacet
  facet normal 0 0 -1
    outer loop
      vertex 29.5 -40.794 0
      vertex 28.194 -40.656 0
      vertex -15.321 -9.927 0
    endloop
  endfacet
  facet normal 0 0 -1
    outer loop
      vertex 28.194 -40.656 0
      vertex 27.094 -40.45 0
      vertex -15.321 -9.927 0
    endloop
  endfacet
  facet normal 0 0 -1
    outer loop
      vertex 27.094 -40.45 0
      vertex 25.17 -40.106 0
      vertex -15.321 -9.927 0
    endloop
  endfacet
  facet normal 0 0 -1
    outer loop
      vertex 25.17 -40.106 0
      vertex 23.382 -39.625 0
      vertex -15.321 -9.927 0
    endloop
  endfacet
  facet normal 0 0 -1
    outer loop
      vertex 23.382 -39.625 0
      vertex 21.32 -39.075 0
      vertex -15.321 -9.927 0
    endloop
  endfacet
  facet normal 0 0 -1
    outer loop
      vertex 21.32 -39.075 0
      vertex 19.326 -38.388 0
      vertex -15.321 -9.927 0
    endloop
  endfacet
  facet normal 0 0 -1
    outer loop
      vertex 19.326 -38.388 0
      vertex 17.333 -37.631 0
      vertex -15.321 -9.927 0
    endloop
  endfacet
  facet normal 0 0 -1
    outer loop
      vertex 17.333 -37.631 0
      vertex 15.133 -36.738 0
      vertex -15.321 -9.927 0
    endloop
  endfacet
  facet normal 0 0 -1
    outer loop
      vertex 15.133 -36.738 0
      vertex 13.208 -35.707 0
      vertex -15.321 -9.927 0
    endloop
  endfacet
  facet normal 0 0 -1
    outer loop
      vertex 13.208 -35.707 0
      vertex 11.214 -34.744 0
      vertex -15.321 -9.927 0
    endloop
  endfacet
  facet normal 0 0 -1
    outer loop
      vertex 11.214 -34.744 0
      vertex 9.152 -33.507 0
      vertex -15.321 -9.927 0
    endloop
  endfacet
  facet normal 0 0 -1
    outer loop
      vertex 9.152 -33.507 0
      vertex 6.815 -32.132 0
      vertex -15.321 -9.927 0
    endloop
  endfacet
  facet normal 0 0 -1
    outer loop
      vertex 6.815 -32.132 0
      vertex 4.615 -30.619 0
      vertex -15.321 -9.927 0
    endloop
  endfacet
  facet normal 0 0 -1
    outer loop
      vertex 4.615 -30.619 0
      vertex 2.759 -29.313 0
      vertex -15.321 -9.927 0
    endloop
  endfacet
  facet normal 0 0 -1
    outer loop
      vertex 2.759 -29.313 0
      vertex 0.765 -27.801 0
      vertex -15.321 -9.927 0
    endloop
  endfacet
  facet normal 0 0 -1
    outer loop
      vertex 0.765 -27.801 0
      vertex -0.816 -26.495 0
      vertex -15.321 -9.927 0
    endloop
  endfacet
  facet normal 0 0 -1
    outer loop
      vertex -0.816 -26.495 0
      vertex -2.191 -25.326 0
      vertex -15.321 -9.927 0
    endloop
  endfacet
  facet normal 0 0 -1
    outer loop
      vertex -2.191 -25.326 0
      vertex -3.841 -23.814 0
      vertex -15.321 -9.927 0
    endloop
  endfacet
  facet normal 0 0 -1
    outer loop
      vertex -3.841 -23.814 0
      vertex -5.491 -22.301 0
      vertex -15.321 -9.927 0
    endloop
  endfacet
  facet normal 0 0 -1
    outer loop
      vertex -5.491 -22.301 0
      vertex -7.072 -20.651 0
      vertex -15.321 -9.927 0
    endloop
  endfacet
  facet normal 0 0 -1
    outer loop
      vertex -7.072 -20.651 0
      vertex -8.378 -19.208 0
      vertex -15.321 -9.927 0
    endloop
  endfacet
  facet normal 0 0 -1
    outer loop
      vertex -8.378 -19.208 0
      vertex -9.547 -17.97 0
      vertex -15.321 -9.927 0
    endloop
  endfacet
  facet normal 0 0 -1
    outer loop
      vertex -9.547 -17.97 0
      vertex -10.647 -16.595 0
      vertex -15.321 -9.927 0
    endloop
  endfacet
  facet normal 0 0 -1
    outer loop
      vertex -10.647 -16.595 0
      vertex -11.678 -15.358 0
      vertex -15.321 -9.927 0
    endloop
  endfacet
  facet normal 0 0 -1
    outer loop
      vertex -11.678 -15.358 0
      vertex -12.709 -14.052 0
      vertex -15.321 -9.927 0
    endloop
  endfacet
  facet normal 0 0 -1
    outer loop
      vertex -12.709 -14.052 0
      vertex -13.671 -12.54 0
      vertex -15.321 -9.927 0
    endloop
  endfacet
  facet normal 0 0 -1
    outer loop
      vertex -13.671 -12.54 0
      vertex -14.565 -11.302 0
      vertex -15.321 -9.927 0
    endloop
  endfacet
  facet normal 0.624418 0.78109 0
    outer loop
      vertex 15.27 -9.515 10
      vertex 15.614 -9.79 10
      vertex 15.27 -9.515 0
    endloop
  endfacet
  facet normal 0.624418 0.78109 0
    outer loop
      vertex 15.27 -9.515 0
      vertex 15.614 -9.79 10
      vertex 15.614 -9.79 0
    endloop
  endfacet
  facet normal 0 0 1
    outer loop
      vertex -10.647 -16.595 10
      vertex -9.547 -17.97 10
      vertex -15.321 -9.927 10
    endloop
  endfacet
  facet normal 0 0 1
    outer loop
      vertex -15.321 -9.927 10
      vertex -14.565 -11.302 10
      vertex -13.671 -12.54 10
    endloop
  endfacet
  facet normal 0 0 1
    outer loop
      vertex -12.709 -14.052 10
      vertex -15.321 -9.927 10
      vertex -13.671 -12.54 10
    endloop
  endfacet
  facet normal 0 0 1
    outer loop
      vertex -12.709 -14.052 10
      vertex -11.678 -15.358 10
      vertex -15.321 -9.927 10
    endloop
  endfacet
  facet normal 0 0 1
    outer loop
      vertex -11.678 -15.358 10
      vertex -10.647 -16.595 10
      vertex -15.321 -9.927 10
    endloop
  endfacet
  facet normal 0 0 1
    outer loop
      vertex -8.378 -19.208 10
      vertex -7.072 -20.651 10
      vertex -15.321 -9.927 10
    endloop
  endfacet
  facet normal 0 0 1
    outer loop
      vertex -9.547 -17.97 10
      vertex -8.378 -19.208 10
      vertex -15.321 -9.927 10
    endloop
  endfacet
  facet normal 0 0 1
    outer loop
      vertex 9.152 -33.507 10
      vertex 11.214 -34.744 10
      vertex -15.321 -9.927 10
    endloop
  endfacet
  facet normal 0 0 1
    outer loop
      vertex -7.072 -20.651 10
      vertex -5.491 -22.301 10
      vertex -15.321 -9.927 10
    endloop
  endfacet
  facet normal 0 0 1
    outer loop
      vertex -5.491 -22.301 10
      vertex -3.841 -23.814 10
      vertex -15.321 -9.927 10
    endloop
  endfacet
  facet normal 0 0 1
    outer loop
      vertex -3.841 -23.814 10
      vertex -2.191 -25.326 10
      vertex -15.321 -9.927 10
    endloop
  endfacet
  facet normal 0 0 1
    outer loop
      vertex -2.191 -25.326 10
      vertex -0.816 -26.495 10
      vertex -15.321 -9.927 10
    endloop
  endfacet
  facet normal 0 0 1
    outer loop
      vertex -0.816 -26.495 10
      vertex 0.765 -27.801 10
      vertex -15.321 -9.927 10
    endloop
  endfacet
  facet normal 0 0 1
    outer loop
      vertex 0.765 -27.801 10
      vertex 2.759 -29.313 10
      vertex -15.321 -9.927 10
    endloop
  endfacet
  facet normal 0 0 1
    outer loop
      vertex 2.759 -29.313 10
      vertex 4.615 -30.619 10
      vertex -15.321 -9.927 10
    endloop
  endfacet
  facet normal 0 0 1
    outer loop
      vertex 4.615 -30.619 10
      vertex 6.815 -32.132 10
      vertex -15.321 -9.927 10
    endloop
  endfacet
  facet normal 0 0 1
    outer loop
      vertex 6.815 -32.132 10
      vertex 9.152 -33.507 10
      vertex -15.321 -9.927 10
    endloop
  endfacet
  facet normal 0 0 1
    outer loop
      vertex 13.208 -35.707 10
      vertex 15.133 -36.738 10
      vertex -15.321 -9.927 10
    endloop
  endfacet
  facet normal 0 0 1
    outer loop
      vertex 11.214 -34.744 10
      vertex 13.208 -35.707 10
      vertex -15.321 -9.927 10
    endloop
  endfacet
  facet normal 0 0 1
    outer loop
      vertex 23.382 -39.625 10
      vertex 25.17 -40.106 10
      vertex -15.321 -9.927 10
    endloop
  endfacet
  facet normal 0 0 1
    outer loop
      vertex 15.133 -36.738 10
      vertex 17.333 -37.631 10
      vertex -15.321 -9.927 10
    endloop
  endfacet
  facet normal 0 0 1
    outer loop
      vertex 17.333 -37.631 10
      vertex 19.326 -38.388 10
      vertex -15.321 -9.927 10
    endloop
  endfacet
  facet normal 0 0 1
    outer loop
      vertex 19.326 -38.388 10
      vertex 21.32 -39.075 10
      vertex -15.321 -9.927 10
    endloop
  endfacet
  facet normal 0 0 1
    outer loop
      vertex 21.32 -39.075 10
      vertex 23.382 -39.625 10
      vertex -15.321 -9.927 10
    endloop
  endfacet
  facet normal 0 0 1
    outer loop
      vertex 27.094 -40.45 10
      vertex 28.194 -40.656 10
      vertex -15.321 -9.927 10
    endloop
  endfacet
  facet normal 0 0 1
    outer loop
      vertex 25.17 -40.106 10
      vertex 27.094 -40.45 10
      vertex -15.321 -9.927 10
    endloop
  endfacet
  facet normal 0 0 1
    outer loop
      vertex 28.538 -39.006 10
      vertex 27.644 -38.25 10
      vertex -15.321 -9.927 10
    endloop
  endfacet
  facet normal 0 0 1
    outer loop
      vertex 28.194 -40.656 10
      vertex 29.5 -40.794 10
      vertex -15.321 -9.927 10
    endloop
  endfacet
  facet normal 0 0 1
    outer loop
      vertex 29.5 -40.794 10
      vertex 31.082 -40.863 10
      vertex 30.257 -40.313 10
    endloop
  endfacet
  facet normal 0 0 1
    outer loop
      vertex 29.5 -40.794 10
      vertex 29.5 -39.831 10
      vertex -15.321 -9.927 10
    endloop
  endfacet
  facet normal 0 0 1
    outer loop
      vertex 29.5 -40.794 10
      vertex 30.257 -40.313 10
      vertex 29.5 -39.831 10
    endloop
  endfacet
  facet normal 0 0 1
    outer loop
      vertex 26.544 -37.357 10
      vertex 24.757 -35.5 10
      vertex -15.321 -9.927 10
    endloop
  endfacet
  facet normal 0 0 1
    outer loop
      vertex 24.757 -35.5 10
      vertex 23.795 -34.4 10
      vertex -15.321 -9.927 10
    endloop
  endfacet
  facet normal 0 0 1
    outer loop
      vertex 27.644 -38.25 10
      vertex 26.544 -37.357 10
      vertex -15.321 -9.927 10
    endloop
  endfacet
  facet normal 0 0 1
    outer loop
      vertex 23.795 -34.4 10
      vertex 22.488 -32.819 10
      vertex -15.321 -9.927 10
    endloop
  endfacet
  facet normal 0 0 1
    outer loop
      vertex 22.488 -32.819 10
      vertex 21.457 -31.444 10
      vertex -15.321 -9.927 10
    endloop
  endfacet
  facet normal 0 0 1
    outer loop
      vertex 21.457 -31.444 10
      vertex 20.151 -29.588 10
      vertex -15.321 -9.927 10
    endloop
  endfacet
  facet normal 0 0 1
    outer loop
      vertex 20.151 -29.588 10
      vertex 19.12 -27.938 10
      vertex -15.321 -9.927 10
    endloop
  endfacet
  facet normal 0 0 1
    outer loop
      vertex 19.12 -27.938 10
      vertex 18.089 -25.876 10
      vertex -15.321 -9.927 10
    endloop
  endfacet
  facet normal 0 0 1
    outer loop
      vertex 17.47 -24.776 10
      vertex 16.783 -23.058 10
      vertex -15.321 -9.927 10
    endloop
  endfacet
  facet normal 0 0 1
    outer loop
      vertex 16.783 -23.058 10
      vertex 16.233 -21.476 10
      vertex -15.321 -9.927 10
    endloop
  endfacet
  facet normal 0 0 1
    outer loop
      vertex 18.089 -25.876 10
      vertex 17.47 -24.776 10
      vertex -15.321 -9.927 10
    endloop
  endfacet
  facet normal 0 0 1
    outer loop
      vertex 16.233 -21.476 10
      vertex 15.751 -19.758 10
      vertex -15.321 -9.927 10
    endloop
  endfacet
  facet normal 0 0 1
    outer loop
      vertex 15.751 -19.758 10
      vertex 15.339 -17.695 10
      vertex -15.321 -9.927 10
    endloop
  endfacet
  facet normal 0 0 1
    outer loop
      vertex 15.339 -17.695 10
      vertex 15.133 -15.702 10
      vertex -15.321 -9.927 10
    endloop
  endfacet
  facet normal 0 0 1
    outer loop
      vertex 15.133 -15.702 10
      vertex 15.064 -13.708 10
      vertex -15.321 -9.927 10
    endloop
  endfacet
  facet normal 0 0 1
    outer loop
      vertex 15.064 -13.708 10
      vertex 15.201 -12.333 10
      vertex -15.321 -9.927 10
    endloop
  endfacet
  facet normal 0 0 1
    outer loop
      vertex 15.201 -12.333 10
      vertex 15.408 -11.096 10
      vertex -15.321 -9.927 10
    endloop
  endfacet
  facet normal 0 0 1
    outer loop
      vertex 15.408 -11.096 10
      vertex 15.614 -9.79 10
      vertex -15.321 -9.927 10
    endloop
  endfacet
  facet normal 0 0 1
    outer loop
      vertex 15.614 -9.79 10
      vertex 15.27 -9.515 10
      vertex -15.321 -9.927 10
    endloop
  endfacet
  facet normal 0 0 1
    outer loop
      vertex 15.27 -9.515 10
      vertex 9.083 -5.94 10
      vertex -15.321 -9.927 10
    endloop
  endfacet
  facet normal 0 0 1
    outer loop
      vertex 9.083 -5.94 10
      vertex -9.478 -6.421 10
      vertex -15.321 -9.927 10
    endloop
  endfacet
  facet normal 0 0 1
    outer loop
      vertex 9.083 -5.94 10
      vertex -8.791 -5.94 10
      vertex -9.478 -6.421 10
    endloop
  endfacet
  facet normal 0 0 1
    outer loop
      vertex 29.5 -39.831 10
      vertex 28.538 -39.006 10
      vertex -15.321 -9.927 10
    endloop
  endfacet
  facet normal -0.573542 0.819176 0
    outer loop
      vertex -9.478 -6.421 10
      vertex -8.791 -5.94 10
      vertex -9.478 -6.421 0
    endloop
  endfacet
  facet normal -0.573542 0.819176 0
    outer loop
      vertex -9.478 -6.421 0
      vertex -8.791 -5.94 10
      vertex -8.791 -5.94 0
    endloop
  endfacet
  facet normal -0.876283 -0.481796 0
    outer loop
      vertex -14.565 -11.302 0
      vertex -14.565 -11.302 10
      vertex -15.321 -9.927 0
    endloop
  endfacet
  facet normal -0.876283 -0.481796 0
    outer loop
      vertex -15.321 -9.927 0
      vertex -14.565 -11.302 10
      vertex -15.321 -9.927 10
    endloop
  endfacet
  facet normal -0.514517 0.85748 0
    outer loop
      vertex -15.321 -9.927 10
      vertex -9.478 -6.421 10
      vertex -15.321 -9.927 0
    endloop
  endfacet
  facet normal -0.514517 0.85748 0
    outer loop
      vertex -15.321 -9.927 0
      vertex -9.478 -6.421 10
      vertex -9.478 -6.421 0
    endloop
  endfacet
  facet normal -0.810714 -0.585443 0
    outer loop
      vertex -13.671 -12.54 0
      vertex -13.671 -12.54 10
      vertex -14.565 -11.302 0
    endloop
  endfacet
  facet normal -0.810714 -0.585443 0
    outer loop
      vertex -14.565 -11.302 0
      vertex -13.671 -12.54 10
      vertex -14.565 -11.302 10
    endloop
  endfacet
  facet normal -0.843707 -0.536803 0
    outer loop
      vertex -12.709 -14.052 0
      vertex -12.709 -14.052 10
      vertex -13.671 -12.54 0
    endloop
  endfacet
  facet normal -0.843707 -0.536803 0
    outer loop
      vertex -13.671 -12.54 0
      vertex -12.709 -14.052 10
      vertex -13.671 -12.54 10
    endloop
  endfacet
  facet normal -0.784898 -0.619625 0
    outer loop
      vertex -11.678 -15.358 0
      vertex -11.678 -15.358 10
      vertex -12.709 -14.052 0
    endloop
  endfacet
  facet normal -0.784898 -0.619625 0
    outer loop
      vertex -12.709 -14.052 0
      vertex -11.678 -15.358 10
      vertex -12.709 -14.052 10
    endloop
  endfacet
  facet normal -0.76817 -0.640245 0
    outer loop
      vertex -10.647 -16.595 0
      vertex -10.647 -16.595 10
      vertex -11.678 -15.358 0
    endloop
  endfacet
  facet normal -0.76817 -0.640245 0
    outer loop
      vertex -11.678 -15.358 0
      vertex -10.647 -16.595 10
      vertex -11.678 -15.358 10
    endloop
  endfacet
  facet normal -0.780869 -0.624695 0
    outer loop
      vertex -9.547 -17.97 0
      vertex -9.547 -17.97 10
      vertex -10.647 -16.595 0
    endloop
  endfacet
  facet normal -0.780869 -0.624695 0
    outer loop
      vertex -10.647 -16.595 0
      vertex -9.547 -17.97 10
      vertex -10.647 -16.595 10
    endloop
  endfacet
  facet normal -0.727078 -0.686555 0
    outer loop
      vertex -8.378 -19.208 0
      vertex -8.378 -19.208 10
      vertex -9.547 -17.97 0
    endloop
  endfacet
  facet normal -0.727078 -0.686555 0
    outer loop
      vertex -9.547 -17.97 0
      vertex -8.378 -19.208 10
      vertex -9.547 -17.97 10
    endloop
  endfacet
  facet normal -0.741426 -0.671034 0
    outer loop
      vertex -7.072 -20.651 0
      vertex -7.072 -20.651 10
      vertex -8.378 -19.208 0
    endloop
  endfacet
  facet normal -0.741426 -0.671034 0
    outer loop
      vertex -8.378 -19.208 0
      vertex -7.072 -20.651 10
      vertex -8.378 -19.208 10
    endloop
  endfacet
  facet normal -0.722043 -0.691848 0
    outer loop
      vertex -5.491 -22.301 0
      vertex -5.491 -22.301 10
      vertex -7.072 -20.651 0
    endloop
  endfacet
  facet normal -0.722043 -0.691848 0
    outer loop
      vertex -7.072 -20.651 0
      vertex -5.491 -22.301 10
      vertex -7.072 -20.651 10
    endloop
  endfacet
  facet normal -0.675846 -0.737043 0
    outer loop
      vertex -5.491 -22.301 0
      vertex -3.841 -23.814 0
      vertex -3.841 -23.814 10
    endloop
  endfacet
  facet normal -0.675846 -0.737043 0
    outer loop
      vertex -5.491 -22.301 10
      vertex -5.491 -22.301 0
      vertex -3.841 -23.814 10
    endloop
  endfacet
  facet normal -0.675603 -0.737265 0
    outer loop
      vertex -3.841 -23.814 0
      vertex -2.191 -25.326 0
      vertex -2.191 -25.326 10
    endloop
  endfacet
  facet normal -0.675603 -0.737265 0
    outer loop
      vertex -3.841 -23.814 10
      vertex -3.841 -23.814 0
      vertex -2.191 -25.326 10
    endloop
  endfacet
  facet normal -0.647729 -0.761871 0
    outer loop
      vertex -2.191 -25.326 0
      vertex -0.816 -26.495 0
      vertex -0.816 -26.495 10
    endloop
  endfacet
  facet normal -0.647729 -0.761871 0
    outer loop
      vertex -2.191 -25.326 10
      vertex -2.191 -25.326 0
      vertex -0.816 -26.495 10
    endloop
  endfacet
  facet normal -0.636869 -0.770972 0
    outer loop
      vertex -0.816 -26.495 0
      vertex 0.765 -27.801 0
      vertex 0.765 -27.801 10
    endloop
  endfacet
  facet normal -0.636869 -0.770972 0
    outer loop
      vertex -0.816 -26.495 10
      vertex -0.816 -26.495 0
      vertex 0.765 -27.801 10
    endloop
  endfacet
  facet normal -0.604212 -0.796824 0
    outer loop
      vertex 0.765 -27.801 0
      vertex 2.759 -29.313 0
      vertex 2.759 -29.313 10
    endloop
  endfacet
  facet normal -0.604212 -0.796824 0
    outer loop
      vertex 0.765 -27.801 10
      vertex 0.765 -27.801 0
      vertex 2.759 -29.313 10
    endloop
  endfacet
  facet normal -0.575472 -0.817822 0
    outer loop
      vertex 2.759 -29.313 0
      vertex 4.615 -30.619 0
      vertex 4.615 -30.619 10
    endloop
  endfacet
  facet normal -0.575472 -0.817822 0
    outer loop
      vertex 2.759 -29.313 10
      vertex 2.759 -29.313 0
      vertex 4.615 -30.619 10
    endloop
  endfacet
  facet normal -0.566656 -0.823954 0
    outer loop
      vertex 4.615 -30.619 0
      vertex 6.815 -32.132 0
      vertex 6.815 -32.132 10
    endloop
  endfacet
  facet normal -0.566656 -0.823954 0
    outer loop
      vertex 4.615 -30.619 10
      vertex 4.615 -30.619 0
      vertex 6.815 -32.132 10
    endloop
  endfacet
  facet normal -0.507101 -0.861887 0
    outer loop
      vertex 6.815 -32.132 0
      vertex 9.152 -33.507 0
      vertex 9.152 -33.507 10
    endloop
  endfacet
  facet normal -0.507101 -0.861887 0
    outer loop
      vertex 6.815 -32.132 10
      vertex 6.815 -32.132 0
      vertex 9.152 -33.507 10
    endloop
  endfacet
  facet normal -0.514435 -0.85753 0
    outer loop
      vertex 9.152 -33.507 0
      vertex 11.214 -34.744 0
      vertex 11.214 -34.744 10
    endloop
  endfacet
  facet normal -0.514435 -0.85753 0
    outer loop
      vertex 9.152 -33.507 10
      vertex 9.152 -33.507 0
      vertex 11.214 -34.744 10
    endloop
  endfacet
  facet normal -0.434888 -0.900485 0
    outer loop
      vertex 11.214 -34.744 0
      vertex 13.208 -35.707 0
      vertex 13.208 -35.707 10
    endloop
  endfacet
  facet normal -0.434888 -0.900485 0
    outer loop
      vertex 11.214 -34.744 10
      vertex 11.214 -34.744 0
      vertex 13.208 -35.707 10
    endloop
  endfacet
  facet normal -0.472132 -0.881528 0
    outer loop
      vertex 13.208 -35.707 0
      vertex 15.133 -36.738 0
      vertex 15.133 -36.738 10
    endloop
  endfacet
  facet normal -0.472132 -0.881528 0
    outer loop
      vertex 13.208 -35.707 10
      vertex 13.208 -35.707 0
      vertex 15.133 -36.738 10
    endloop
  endfacet
  facet normal -0.376106 -0.926577 0
    outer loop
      vertex 15.133 -36.738 0
      vertex 17.333 -37.631 0
      vertex 17.333 -37.631 10
    endloop
  endfacet
  facet normal -0.376106 -0.926577 0
    outer loop
      vertex 15.133 -36.738 10
      vertex 15.133 -36.738 0
      vertex 17.333 -37.631 10
    endloop
  endfacet
  facet normal -0.355078 -0.934837 0
    outer loop
      vertex 17.333 -37.631 0
      vertex 19.326 -38.388 0
      vertex 19.326 -38.388 10
    endloop
  endfacet
  facet normal -0.355078 -0.934837 0
    outer loop
      vertex 17.333 -37.631 10
      vertex 17.333 -37.631 0
      vertex 19.326 -38.388 10
    endloop
  endfacet
  facet normal -0.325742 -0.945459 0
    outer loop
      vertex 19.326 -38.388 0
      vertex 21.32 -39.075 0
      vertex 21.32 -39.075 10
    endloop
  endfacet
  facet normal -0.325742 -0.945459 0
    outer loop
      vertex 19.326 -38.388 10
      vertex 19.326 -38.388 0
      vertex 21.32 -39.075 10
    endloop
  endfacet
  facet normal -0.257721 -0.966219 0
    outer loop
      vertex 21.32 -39.075 0
      vertex 23.382 -39.625 0
      vertex 23.382 -39.625 10
    endloop
  endfacet
  facet normal -0.257721 -0.966219 0
    outer loop
      vertex 21.32 -39.075 10
      vertex 21.32 -39.075 0
      vertex 23.382 -39.625 10
    endloop
  endfacet
  facet normal -0.25978 -0.965668 0
    outer loop
      vertex 23.382 -39.625 0
      vertex 25.17 -40.106 0
      vertex 25.17 -40.106 10
    endloop
  endfacet
  facet normal -0.25978 -0.965668 0
    outer loop
      vertex 23.382 -39.625 10
      vertex 23.382 -39.625 0
      vertex 25.17 -40.106 10
    endloop
  endfacet
  facet normal -0.176003 -0.98439 0
    outer loop
      vertex 25.17 -40.106 0
      vertex 27.094 -40.45 0
      vertex 27.094 -40.45 10
    endloop
  endfacet
  facet normal -0.176003 -0.98439 0
    outer loop
      vertex 25.17 -40.106 10
      vertex 25.17 -40.106 0
      vertex 27.094 -40.45 10
    endloop
  endfacet
  facet normal -0.184073 -0.982913 0
    outer loop
      vertex 27.094 -40.45 0
      vertex 28.194 -40.656 0
      vertex 28.194 -40.656 10
    endloop
  endfacet
  facet normal -0.184073 -0.982913 0
    outer loop
      vertex 27.094 -40.45 10
      vertex 27.094 -40.45 0
      vertex 28.194 -40.656 10
    endloop
  endfacet
  facet normal -0.105081 -0.994464 0
    outer loop
      vertex 28.194 -40.656 0
      vertex 29.5 -40.794 0
      vertex 29.5 -40.794 10
    endloop
  endfacet
  facet normal -0.105081 -0.994464 0
    outer loop
      vertex 28.194 -40.656 10
      vertex 28.194 -40.656 0
      vertex 29.5 -40.794 10
    endloop
  endfacet
  facet normal -0.0435742 -0.99905 0
    outer loop
      vertex 29.5 -40.794 0
      vertex 31.082 -40.863 0
      vertex 31.082 -40.863 10
    endloop
  endfacet
  facet normal -0.0435742 -0.99905 0
    outer loop
      vertex 29.5 -40.794 10
      vertex 29.5 -40.794 0
      vertex 31.082 -40.863 10
    endloop
  endfacet
  facet normal 0.5547 0.83205 0
    outer loop
      vertex 30.257 -40.313 10
      vertex 31.082 -40.863 10
      vertex 30.257 -40.313 0
    endloop
  endfacet
  facet normal 0.5547 0.83205 0
    outer loop
      vertex 30.257 -40.313 0
      vertex 31.082 -40.863 10
      vertex 31.082 -40.863 0
    endloop
  endfacet
  facet normal 0.537092 0.843524 0
    outer loop
      vertex 29.5 -39.831 10
      vertex 30.257 -40.313 10
      vertex 29.5 -39.831 0
    endloop
  endfacet
  facet normal 0.537092 0.843524 0
    outer loop
      vertex 29.5 -39.831 0
      vertex 30.257 -40.313 10
      vertex 30.257 -40.313 0
    endloop
  endfacet
  facet normal 0.650986 0.759089 0
    outer loop
      vertex 28.538 -39.006 10
      vertex 29.5 -39.831 10
      vertex 28.538 -39.006 0
    endloop
  endfacet
  facet normal 0.650986 0.759089 0
    outer loop
      vertex 28.538 -39.006 0
      vertex 29.5 -39.831 10
      vertex 29.5 -39.831 0
    endloop
  endfacet
  facet normal 0.645712 0.763581 0
    outer loop
      vertex 27.644 -38.25 10
      vertex 28.538 -39.006 10
      vertex 27.644 -38.25 0
    endloop
  endfacet
  facet normal 0.645712 0.763581 0
    outer loop
      vertex 27.644 -38.25 0
      vertex 28.538 -39.006 10
      vertex 28.538 -39.006 0
    endloop
  endfacet
  facet normal 0.630274 0.776373 0
    outer loop
      vertex 26.544 -37.357 10
      vertex 27.644 -38.25 10
      vertex 26.544 -37.357 0
    endloop
  endfacet
  facet normal 0.630274 0.776373 0
    outer loop
      vertex 26.544 -37.357 0
      vertex 27.644 -38.25 10
      vertex 27.644 -38.25 0
    endloop
  endfacet
  facet normal 0.720557 0.693396 0
    outer loop
      vertex 24.757 -35.5 0
      vertex 24.757 -35.5 10
      vertex 26.544 -37.357 10
    endloop
  endfacet
  facet normal 0.720557 0.693396 0
    outer loop
      vertex 26.544 -37.357 0
      vertex 24.757 -35.5 0
      vertex 26.544 -37.357 10
    endloop
  endfacet
  facet normal 0.752746 0.658311 0
    outer loop
      vertex 23.795 -34.4 0
      vertex 23.795 -34.4 10
      vertex 24.757 -35.5 10
    endloop
  endfacet
  facet normal 0.752746 0.658311 0
    outer loop
      vertex 24.757 -35.5 0
      vertex 23.795 -34.4 0
      vertex 24.757 -35.5 10
    endloop
  endfacet
  facet normal 0.770733 0.637159 0
    outer loop
      vertex 22.488 -32.819 0
      vertex 22.488 -32.819 10
      vertex 23.795 -34.4 10
    endloop
  endfacet
  facet normal 0.770733 0.637159 0
    outer loop
      vertex 23.795 -34.4 0
      vertex 22.488 -32.819 0
      vertex 23.795 -34.4 10
    endloop
  endfacet
  facet normal 0.80007 0.599907 0
    outer loop
      vertex 21.457 -31.444 0
      vertex 21.457 -31.444 10
      vertex 22.488 -32.819 10
    endloop
  endfacet
  facet normal 0.80007 0.599907 0
    outer loop
      vertex 22.488 -32.819 0
      vertex 21.457 -31.444 0
      vertex 22.488 -32.819 10
    endloop
  endfacet
  facet normal 0.817822 0.575472 0
    outer loop
      vertex 20.151 -29.588 0
      vertex 20.151 -29.588 10
      vertex 21.457 -31.444 10
    endloop
  endfacet
  facet normal 0.817822 0.575472 0
    outer loop
      vertex 21.457 -31.444 0
      vertex 20.151 -29.588 0
      vertex 21.457 -31.444 10
    endloop
  endfacet
  facet normal 0.848056 0.529907 0
    outer loop
      vertex 19.12 -27.938 0
      vertex 19.12 -27.938 10
      vertex 20.151 -29.588 10
    endloop
  endfacet
  facet normal 0.848056 0.529907 0
    outer loop
      vertex 20.151 -29.588 0
      vertex 19.12 -27.938 0
      vertex 20.151 -29.588 10
    endloop
  endfacet
  facet normal 0.894427 0.447214 0
    outer loop
      vertex 18.089 -25.876 0
      vertex 18.089 -25.876 10
      vertex 19.12 -27.938 10
    endloop
  endfacet
  facet normal 0.894427 0.447214 0
    outer loop
      vertex 19.12 -27.938 0
      vertex 18.089 -25.876 0
      vertex 19.12 -27.938 10
    endloop
  endfacet
  facet normal 0.871491 0.490412 0
    outer loop
      vertex 17.47 -24.776 0
      vertex 17.47 -24.776 10
      vertex 18.089 -25.876 10
    endloop
  endfacet
  facet normal 0.871491 0.490412 0
    outer loop
      vertex 18.089 -25.876 0
      vertex 17.47 -24.776 0
      vertex 18.089 -25.876 10
    endloop
  endfacet
  facet normal 0.928514 0.371297 0
    outer loop
      vertex 16.783 -23.058 0
      vertex 16.783 -23.058 10
      vertex 17.47 -24.776 10
    endloop
  endfacet
  facet normal 0.928514 0.371297 0
    outer loop
      vertex 17.47 -24.776 0
      vertex 16.783 -23.058 0
      vertex 17.47 -24.776 10
    endloop
  endfacet
  facet normal 0.944545 0.328382 0
    outer loop
      vertex 16.233 -21.476 0
      vertex 16.233 -21.476 10
      vertex 16.783 -23.058 10
    endloop
  endfacet
  facet normal 0.944545 0.328382 0
    outer loop
      vertex 16.783 -23.058 0
      vertex 16.233 -21.476 0
      vertex 16.783 -23.058 10
    endloop
  endfacet
  facet normal 0.962824 0.270129 0
    outer loop
      vertex 15.751 -19.758 0
      vertex 15.751 -19.758 10
      vertex 16.233 -21.476 10
    endloop
  endfacet
  facet normal 0.962824 0.270129 0
    outer loop
      vertex 16.233 -21.476 0
      vertex 15.751 -19.758 0
      vertex 16.233 -21.476 10
    endloop
  endfacet
  facet normal 0.980635 0.195842 0
    outer loop
      vertex 15.339 -17.695 0
      vertex 15.339 -17.695 10
      vertex 15.751 -19.758 10
    endloop
  endfacet
  facet normal 0.980635 0.195842 0
    outer loop
      vertex 15.751 -19.758 0
      vertex 15.339 -17.695 0
      vertex 15.751 -19.758 10
    endloop
  endfacet
  facet normal 0.994701 0.102814 0
    outer loop
      vertex 15.133 -15.702 0
      vertex 15.133 -15.702 10
      vertex 15.339 -17.695 10
    endloop
  endfacet
  facet normal 0.994701 0.102814 0
    outer loop
      vertex 15.339 -17.695 0
      vertex 15.133 -15.702 0
      vertex 15.339 -17.695 10
    endloop
  endfacet
  facet normal 0.999402 0.0345831 0
    outer loop
      vertex 15.064 -13.708 0
      vertex 15.064 -13.708 10
      vertex 15.133 -15.702 10
    endloop
  endfacet
  facet normal 0.999402 0.0345831 0
    outer loop
      vertex 15.133 -15.702 0
      vertex 15.064 -13.708 0
      vertex 15.133 -15.702 10
    endloop
  endfacet
  facet normal 0.995073 -0.0991455 0
    outer loop
      vertex 15.064 -13.708 0
      vertex 15.201 -12.333 0
      vertex 15.201 -12.333 10
    endloop
  endfacet
  facet normal 0.995073 -0.0991455 0
    outer loop
      vertex 15.064 -13.708 10
      vertex 15.064 -13.708 0
      vertex 15.201 -12.333 10
    endloop
  endfacet
  facet normal 0.986286 -0.165045 0
    outer loop
      vertex 15.201 -12.333 0
      vertex 15.408 -11.096 0
      vertex 15.408 -11.096 10
    endloop
  endfacet
  facet normal 0.986286 -0.165045 0
    outer loop
      vertex 15.201 -12.333 10
      vertex 15.201 -12.333 0
      vertex 15.408 -11.096 10
    endloop
  endfacet
  facet normal 0.987787 -0.155807 0
    outer loop
      vertex 15.408 -11.096 0
      vertex 15.614 -9.79 0
      vertex 15.614 -9.79 10
    endloop
  endfacet
  facet normal 0.987787 -0.155807 0
    outer loop
      vertex 15.408 -11.096 10
      vertex 15.408 -11.096 0
      vertex 15.614 -9.79 10
    endloop
  endfacet
  facet normal -0.350992 0.936379 0
    outer loop
      vertex 1.866 19.022 10
      vertex 4.203 19.898 10
      vertex 1.866 19.022 0
    endloop
  endfacet
  facet normal -0.350992 0.936379 0
    outer loop
      vertex 1.866 19.022 0
      vertex 4.203 19.898 10
      vertex 4.203 19.898 0
    endloop
  endfacet
  facet normal 0 1 0
    outer loop
      vertex 1.282 19.022 10
      vertex 1.866 19.022 10
      vertex 1.282 19.022 0
    endloop
  endfacet
  facet normal 0 1 0
    outer loop
      vertex 1.282 19.022 0
      vertex 1.866 19.022 10
      vertex 1.866 19.022 0
    endloop
  endfacet
  facet normal 0 0 -1
    outer loop
      vertex 1.282 19.022 0
      vertex 1.866 19.022 0
      vertex 1.282 10.844 0
    endloop
  endfacet
  facet normal 0 0 -1
    outer loop
      vertex 1.282 10.844 0
      vertex 1.866 19.022 0
      vertex 4.203 19.898 0
    endloop
  endfacet
  facet normal 0 0 -1
    outer loop
      vertex 4.203 19.898 0
      vertex 6.54 21.213 0
      vertex 1.282 10.844 0
    endloop
  endfacet
  facet normal 0 0 -1
    outer loop
      vertex 6.54 21.213 0
      vertex 9.022 22.819 0
      vertex 1.282 10.844 0
    endloop
  endfacet
  facet normal 0 0 -1
    outer loop
      vertex 9.022 22.819 0
      vertex 11.505 25.594 0
      vertex 1.282 10.844 0
    endloop
  endfacet
  facet normal 0 0 -1
    outer loop
      vertex 11.505 25.594 0
      vertex 13.842 28.661 0
      vertex 1.282 10.844 0
    endloop
  endfacet
  facet normal 0 0 -1
    outer loop
      vertex 13.842 28.661 0
      vertex 23.334 40.198 0
      vertex 1.282 10.844 0
    endloop
  endfacet
  facet normal 0 0 -1
    outer loop
      vertex 17.347 34.941 0
      vertex 22.312 43.265 0
      vertex 15.156 30.851 0
    endloop
  endfacet
  facet normal 0 0 -1
    outer loop
      vertex 19.683 42.681 0
      vertex 21.436 45.894 0
      vertex 18.953 39.176 0
    endloop
  endfacet
  facet normal 0 0 -1
    outer loop
      vertex 19.975 44.579 0
      vertex 20.413 47.646 0
      vertex 21.436 45.894 0
    endloop
  endfacet
  facet normal 0 0 -1
    outer loop
      vertex 19.975 44.579 0
      vertex 21.436 45.894 0
      vertex 19.683 42.681 0
    endloop
  endfacet
  facet normal 0 0 -1
    outer loop
      vertex 18.953 39.176 0
      vertex 21.436 45.894 0
      vertex 22.312 43.265 0
    endloop
  endfacet
  facet normal 0 0 -1
    outer loop
      vertex 18.953 39.176 0
      vertex 22.312 43.265 0
      vertex 17.347 34.941 0
    endloop
  endfacet
  facet normal 0 0 -1
    outer loop
      vertex 15.156 30.851 0
      vertex 22.312 43.265 0
      vertex 23.334 40.198 0
    endloop
  endfacet
  facet normal 0 0 -1
    outer loop
      vertex 15.156 30.851 0
      vertex 23.334 40.198 0
      vertex 13.842 28.661 0
    endloop
  endfacet
  facet normal 0 0 -1
    outer loop
      vertex 1.282 10.844 0
      vertex 23.334 40.198 0
      vertex 24.064 36.839 0
    endloop
  endfacet
  facet normal 0 0 -1
    outer loop
      vertex 1.282 10.844 0
      vertex 24.064 36.839 0
      vertex 24.502 33.918 0
    endloop
  endfacet
  facet normal 0 0 -1
    outer loop
      vertex 1.282 10.844 0
      vertex 24.502 33.918 0
      vertex 24.941 30.559 0
    endloop
  endfacet
  facet normal 0 0 -1
    outer loop
      vertex 1.282 10.844 0
      vertex 24.941 30.559 0
      vertex 25.087 27.2 0
    endloop
  endfacet
  facet normal 0 0 -1
    outer loop
      vertex 1.282 10.844 0
      vertex 25.087 27.2 0
      vertex 25.087 21.943 0
    endloop
  endfacet
  facet normal 0 0 -1
    outer loop
      vertex 1.282 10.844 0
      vertex 25.087 21.943 0
      vertex 24.795 19.168 0
    endloop
  endfacet
  facet normal 0 0 -1
    outer loop
      vertex 1.282 10.844 0
      vertex 24.795 19.168 0
      vertex 24.356 15.809 0
    endloop
  endfacet
  facet normal 0 0 -1
    outer loop
      vertex 1.282 10.844 0
      vertex 24.356 15.809 0
      vertex 23.918 13.181 0
    endloop
  endfacet
  facet normal 0 0 -1
    outer loop
      vertex 1.282 10.844 0
      vertex 23.918 13.181 0
      vertex 23.334 9.968 0
    endloop
  endfacet
  facet normal 0 0 -1
    outer loop
      vertex 1.282 10.844 0
      vertex 23.334 9.968 0
      vertex 22.604 7.193 0
    endloop
  endfacet
  facet normal 0 0 -1
    outer loop
      vertex 1.282 10.844 0
      vertex 22.604 7.193 0
      vertex 22.02 4.564 0
    endloop
  endfacet
  facet normal 0 0 -1
    outer loop
      vertex 1.282 10.844 0
      vertex 22.02 4.564 0
      vertex 20.997 1.205 0
    endloop
  endfacet
  facet normal 0 0 -1
    outer loop
      vertex 1.282 10.844 0
      vertex 20.997 1.205 0
      vertex 19.829 -1.861 0
    endloop
  endfacet
  facet normal 0 0 -1
    outer loop
      vertex 1.282 10.844 0
      vertex 19.829 -1.861 0
      vertex 18.369 -5.074 0
    endloop
  endfacet
  facet normal 0 0 -1
    outer loop
      vertex 1.282 10.844 0
      vertex 18.369 -5.074 0
      vertex 16.908 -7.995 0
    endloop
  endfacet
  facet normal 0 0 -1
    outer loop
      vertex 1.282 10.844 0
      vertex 16.908 -7.995 0
      vertex 10.045 -4.344 0
    endloop
  endfacet
  facet normal -0.490385 0.871506 0
    outer loop
      vertex 4.203 19.898 10
      vertex 6.54 21.213 10
      vertex 4.203 19.898 0
    endloop
  endfacet
  facet normal -0.490385 0.871506 0
    outer loop
      vertex 4.203 19.898 0
      vertex 6.54 21.213 10
      vertex 6.54 21.213 0
    endloop
  endfacet
  facet normal 0 0 1
    outer loop
      vertex 1.282 10.844 10
      vertex 10.045 -4.344 10
      vertex 16.908 -7.995 10
    endloop
  endfacet
  facet normal 0 0 1
    outer loop
      vertex 19.829 -1.861 10
      vertex 1.282 10.844 10
      vertex 18.369 -5.074 10
    endloop
  endfacet
  facet normal 0 0 1
    outer loop
      vertex 18.369 -5.074 10
      vertex 1.282 10.844 10
      vertex 16.908 -7.995 10
    endloop
  endfacet
  facet normal 0 0 1
    outer loop
      vertex 20.997 1.205 10
      vertex 1.282 10.844 10
      vertex 19.829 -1.861 10
    endloop
  endfacet
  facet normal 0 0 1
    outer loop
      vertex 22.02 4.564 10
      vertex 1.282 10.844 10
      vertex 20.997 1.205 10
    endloop
  endfacet
  facet normal 0 0 1
    outer loop
      vertex 22.604 7.193 10
      vertex 1.282 10.844 10
      vertex 22.02 4.564 10
    endloop
  endfacet
  facet normal 0 0 1
    outer loop
      vertex 23.334 9.968 10
      vertex 1.282 10.844 10
      vertex 22.604 7.193 10
    endloop
  endfacet
  facet normal 0 0 1
    outer loop
      vertex 23.918 13.181 10
      vertex 1.282 10.844 10
      vertex 23.334 9.968 10
    endloop
  endfacet
  facet normal 0 0 1
    outer loop
      vertex 24.356 15.809 10
      vertex 1.282 10.844 10
      vertex 23.918 13.181 10
    endloop
  endfacet
  facet normal 0 0 1
    outer loop
      vertex 24.795 19.168 10
      vertex 1.282 10.844 10
      vertex 24.356 15.809 10
    endloop
  endfacet
  facet normal 0 0 1
    outer loop
      vertex 25.087 21.943 10
      vertex 1.282 10.844 10
      vertex 24.795 19.168 10
    endloop
  endfacet
  facet normal 0 0 1
    outer loop
      vertex 25.087 27.2 10
      vertex 1.282 10.844 10
      vertex 25.087 21.943 10
    endloop
  endfacet
  facet normal 0 0 1
    outer loop
      vertex 24.941 30.559 10
      vertex 1.282 10.844 10
      vertex 25.087 27.2 10
    endloop
  endfacet
  facet normal 0 0 1
    outer loop
      vertex 24.502 33.918 10
      vertex 1.282 10.844 10
      vertex 24.941 30.559 10
    endloop
  endfacet
  facet normal 0 0 1
    outer loop
      vertex 24.064 36.839 10
      vertex 1.282 10.844 10
      vertex 24.502 33.918 10
    endloop
  endfacet
  facet normal 0 0 1
    outer loop
      vertex 23.334 40.198 10
      vertex 1.282 10.844 10
      vertex 24.064 36.839 10
    endloop
  endfacet
  facet normal 0 0 1
    outer loop
      vertex 13.842 28.661 10
      vertex 1.282 10.844 10
      vertex 23.334 40.198 10
    endloop
  endfacet
  facet normal 0 0 1
    outer loop
      vertex 13.842 28.661 10
      vertex 11.505 25.594 10
      vertex 1.282 10.844 10
    endloop
  endfacet
  facet normal 0 0 1
    outer loop
      vertex 20.413 47.646 10
      vertex 19.975 44.579 10
      vertex 21.436 45.894 10
    endloop
  endfacet
  facet normal 0 0 1
    outer loop
      vertex 21.436 45.894 10
      vertex 19.683 42.681 10
      vertex 22.312 43.265 10
    endloop
  endfacet
  facet normal 0 0 1
    outer loop
      vertex 19.683 42.681 10
      vertex 18.953 39.176 10
      vertex 22.312 43.265 10
    endloop
  endfacet
  facet normal 0 0 1
    outer loop
      vertex 22.312 43.265 10
      vertex 17.347 34.941 10
      vertex 23.334 40.198 10
    endloop
  endfacet
  facet normal 0 0 1
    outer loop
      vertex 17.347 34.941 10
      vertex 15.156 30.851 10
      vertex 23.334 40.198 10
    endloop
  endfacet
  facet normal 0 0 1
    outer loop
      vertex 15.156 30.851 10
      vertex 13.842 28.661 10
      vertex 23.334 40.198 10
    endloop
  endfacet
  facet normal 0 0 1
    outer loop
      vertex 11.505 25.594 10
      vertex 9.022 22.819 10
      vertex 1.282 10.844 10
    endloop
  endfacet
  facet normal 0 0 1
    outer loop
      vertex 4.203 19.898 10
      vertex 1.282 10.844 10
      vertex 6.54 21.213 10
    endloop
  endfacet
  facet normal 0 0 1
    outer loop
      vertex 1.866 19.022 10
      vertex 1.282 10.844 10
      vertex 4.203 19.898 10
    endloop
  endfacet
  facet normal 0 0 1
    outer loop
      vertex 1.282 19.022 10
      vertex 1.282 10.844 10
      vertex 1.866 19.022 10
    endloop
  endfacet
  facet normal 0 0 1
    outer loop
      vertex 19.975 44.579 10
      vertex 19.683 42.681 10
      vertex 21.436 45.894 10
    endloop
  endfacet
  facet normal 0 0 1
    outer loop
      vertex 18.953 39.176 10
      vertex 17.347 34.941 10
      vertex 22.312 43.265 10
    endloop
  endfacet
  facet normal 0 0 1
    outer loop
      vertex 9.022 22.819 10
      vertex 6.54 21.213 10
      vertex 1.282 10.844 10
    endloop
  endfacet
  facet normal -1 0 0
    outer loop
      vertex 1.282 10.844 10
      vertex 1.282 19.022 10
      vertex 1.282 10.844 0
    endloop
  endfacet
  facet normal -1 0 0
    outer loop
      vertex 1.282 10.844 0
      vertex 1.282 19.022 10
      vertex 1.282 19.022 0
    endloop
  endfacet
  facet normal -0.866168 -0.499752 0
    outer loop
      vertex 10.045 -4.344 0
      vertex 10.045 -4.344 10
      vertex 1.282 10.844 0
    endloop
  endfacet
  facet normal -0.866168 -0.499752 0
    outer loop
      vertex 1.282 10.844 0
      vertex 10.045 -4.344 10
      vertex 1.282 10.844 10
    endloop
  endfacet
  facet normal -0.46966 -0.882847 0
    outer loop
      vertex 10.045 -4.344 0
      vertex 16.908 -7.995 0
      vertex 16.908 -7.995 10
    endloop
  endfacet
  facet normal -0.46966 -0.882847 0
    outer loop
      vertex 10.045 -4.344 10
      vertex 10.045 -4.344 0
      vertex 16.908 -7.995 10
    endloop
  endfacet
  facet normal 0.894366 -0.447336 0
    outer loop
      vertex 16.908 -7.995 0
      vertex 18.369 -5.074 0
      vertex 18.369 -5.074 10
    endloop
  endfacet
  facet normal 0.894366 -0.447336 0
    outer loop
      vertex 16.908 -7.995 10
      vertex 16.908 -7.995 0
      vertex 18.369 -5.074 10
    endloop
  endfacet
  facet normal 0.910415 -0.413696 0
    outer loop
      vertex 18.369 -5.074 0
      vertex 19.829 -1.861 0
      vertex 19.829 -1.861 10
    endloop
  endfacet
  facet normal 0.910415 -0.413696 0
    outer loop
      vertex 18.369 -5.074 10
      vertex 18.369 -5.074 0
      vertex 19.829 -1.861 10
    endloop
  endfacet
  facet normal 0.934488 -0.355995 0
    outer loop
      vertex 19.829 -1.861 0
      vertex 20.997 1.205 0
      vertex 20.997 1.205 10
    endloop
  endfacet
  facet normal 0.934488 -0.355995 0
    outer loop
      vertex 19.829 -1.861 10
      vertex 19.829 -1.861 0
      vertex 20.997 1.205 10
    endloop
  endfacet
  facet normal 0.956619 -0.291343 0
    outer loop
      vertex 20.997 1.205 0
      vertex 22.02 4.564 0
      vertex 22.02 4.564 10
    endloop
  endfacet
  facet normal 0.956619 -0.291343 0
    outer loop
      vertex 20.997 1.205 10
      vertex 20.997 1.205 0
      vertex 22.02 4.564 10
    endloop
  endfacet
  facet normal 0.976205 -0.216852 0
    outer loop
      vertex 22.02 4.564 0
      vertex 22.604 7.193 0
      vertex 22.604 7.193 10
    endloop
  endfacet
  facet normal 0.976205 -0.216852 0
    outer loop
      vertex 22.02 4.564 10
      vertex 22.02 4.564 0
      vertex 22.604 7.193 10
    endloop
  endfacet
  facet normal 0.967097 -0.254408 0
    outer loop
      vertex 22.604 7.193 0
      vertex 23.334 9.968 0
      vertex 23.334 9.968 10
    endloop
  endfacet
  facet normal 0.967097 -0.254408 0
    outer loop
      vertex 22.604 7.193 10
      vertex 22.604 7.193 0
      vertex 23.334 9.968 10
    endloop
  endfacet
  facet normal 0.98388 -0.178832 0
    outer loop
      vertex 23.334 9.968 0
      vertex 23.918 13.181 0
      vertex 23.918 13.181 10
    endloop
  endfacet
  facet normal 0.98388 -0.178832 0
    outer loop
      vertex 23.334 9.968 10
      vertex 23.334 9.968 0
      vertex 23.918 13.181 10
    endloop
  endfacet
  facet normal 0.986394 -0.164399 0
    outer loop
      vertex 23.918 13.181 0
      vertex 24.356 15.809 0
      vertex 24.356 15.809 10
    endloop
  endfacet
  facet normal 0.986394 -0.164399 0
    outer loop
      vertex 23.918 13.181 10
      vertex 23.918 13.181 0
      vertex 24.356 15.809 10
    endloop
  endfacet
  facet normal 0.991567 -0.129592 0
    outer loop
      vertex 24.356 15.809 0
      vertex 24.795 19.168 0
      vertex 24.795 19.168 10
    endloop
  endfacet
  facet normal 0.991567 -0.129592 0
    outer loop
      vertex 24.356 15.809 10
      vertex 24.356 15.809 0
      vertex 24.795 19.168 10
    endloop
  endfacet
  facet normal 0.994509 -0.104647 0
    outer loop
      vertex 24.795 19.168 0
      vertex 25.087 21.943 0
      vertex 25.087 21.943 10
    endloop
  endfacet
  facet normal 0.994509 -0.104647 0
    outer loop
      vertex 24.795 19.168 10
      vertex 24.795 19.168 0
      vertex 25.087 21.943 10
    endloop
  endfacet
  facet normal 1 0 0
    outer loop
      vertex 25.087 21.943 0
      vertex 25.087 27.2 0
      vertex 25.087 27.2 10
    endloop
  endfacet
  facet normal 1 0 0
    outer loop
      vertex 25.087 21.943 10
      vertex 25.087 21.943 0
      vertex 25.087 27.2 10
    endloop
  endfacet
  facet normal 0.999057 0.0434243 0
    outer loop
      vertex 24.941 30.559 0
      vertex 24.941 30.559 10
      vertex 25.087 27.2 10
    endloop
  endfacet
  facet normal 0.999057 0.0434243 0
    outer loop
      vertex 25.087 27.2 0
      vertex 24.941 30.559 0
      vertex 25.087 27.2 10
    endloop
  endfacet
  facet normal 0.991567 0.129592 0
    outer loop
      vertex 24.502 33.918 0
      vertex 24.502 33.918 10
      vertex 24.941 30.559 10
    endloop
  endfacet
  facet normal 0.991567 0.129592 0
    outer loop
      vertex 24.941 30.559 0
      vertex 24.502 33.918 0
      vertex 24.941 30.559 10
    endloop
  endfacet
  facet normal 0.988944 0.148291 0
    outer loop
      vertex 24.064 36.839 0
      vertex 24.064 36.839 10
      vertex 24.502 33.918 10
    endloop
  endfacet
  facet normal 0.988944 0.148291 0
    outer loop
      vertex 24.502 33.918 0
      vertex 24.064 36.839 0
      vertex 24.502 33.918 10
    endloop
  endfacet
  facet normal 0.977189 0.212369 0
    outer loop
      vertex 23.334 40.198 0
      vertex 23.334 40.198 10
      vertex 24.064 36.839 10
    endloop
  endfacet
  facet normal 0.977189 0.212369 0
    outer loop
      vertex 24.064 36.839 0
      vertex 23.334 40.198 0
      vertex 24.064 36.839 10
    endloop
  endfacet
  facet normal 0.948714 0.316135 0
    outer loop
      vertex 22.312 43.265 0
      vertex 22.312 43.265 10
      vertex 23.334 40.198 10
    endloop
  endfacet
  facet normal 0.948714 0.316135 0
    outer loop
      vertex 23.334 40.198 0
      vertex 22.312 43.265 0
      vertex 23.334 40.198 10
    endloop
  endfacet
  facet normal 0.948719 0.31612 0
    outer loop
      vertex 21.436 45.894 0
      vertex 21.436 45.894 10
      vertex 22.312 43.265 10
    endloop
  endfacet
  facet normal 0.948719 0.31612 0
    outer loop
      vertex 22.312 43.265 0
      vertex 21.436 45.894 0
      vertex 22.312 43.265 10
    endloop
  endfacet
  facet normal 0.863564 0.504239 0
    outer loop
      vertex 20.413 47.646 0
      vertex 20.413 47.646 10
      vertex 21.436 45.894 10
    endloop
  endfacet
  facet normal 0.863564 0.504239 0
    outer loop
      vertex 21.436 45.894 0
      vertex 20.413 47.646 0
      vertex 21.436 45.894 10
    endloop
  endfacet
  facet normal -0.989956 0.141376 0
    outer loop
      vertex 19.975 44.579 10
      vertex 20.413 47.646 10
      vertex 19.975 44.579 0
    endloop
  endfacet
  facet normal -0.989956 0.141376 0
    outer loop
      vertex 19.975 44.579 0
      vertex 20.413 47.646 10
      vertex 20.413 47.646 0
    endloop
  endfacet
  facet normal -0.988372 0.152057 0
    outer loop
      vertex 19.683 42.681 10
      vertex 19.975 44.579 10
      vertex 19.683 42.681 0
    endloop
  endfacet
  facet normal -0.988372 0.152057 0
    outer loop
      vertex 19.683 42.681 0
      vertex 19.975 44.579 10
      vertex 19.975 44.579 0
    endloop
  endfacet
  facet normal -0.978992 0.203898 0
    outer loop
      vertex 18.953 39.176 10
      vertex 19.683 42.681 10
      vertex 18.953 39.176 0
    endloop
  endfacet
  facet normal -0.978992 0.203898 0
    outer loop
      vertex 18.953 39.176 0
      vertex 19.683 42.681 10
      vertex 19.683 42.681 0
    endloop
  endfacet
  facet normal -0.935025 0.354581 0
    outer loop
      vertex 17.347 34.941 10
      vertex 18.953 39.176 10
      vertex 17.347 34.941 0
    endloop
  endfacet
  facet normal -0.935025 0.354581 0
    outer loop
      vertex 17.347 34.941 0
      vertex 18.953 39.176 10
      vertex 18.953 39.176 0
    endloop
  endfacet
  facet normal -0.881486 0.472209 0
    outer loop
      vertex 15.156 30.851 10
      vertex 17.347 34.941 10
      vertex 15.156 30.851 0
    endloop
  endfacet
  facet normal -0.881486 0.472209 0
    outer loop
      vertex 15.156 30.851 0
      vertex 17.347 34.941 10
      vertex 17.347 34.941 0
    endloop
  endfacet
  facet normal -0.857493 0.514496 0
    outer loop
      vertex 13.842 28.661 10
      vertex 15.156 30.851 10
      vertex 13.842 28.661 0
    endloop
  endfacet
  facet normal -0.857493 0.514496 0
    outer loop
      vertex 13.842 28.661 0
      vertex 15.156 30.851 10
      vertex 15.156 30.851 0
    endloop
  endfacet
  facet normal -0.795402 0.606082 0
    outer loop
      vertex 11.505 25.594 10
      vertex 13.842 28.661 10
      vertex 11.505 25.594 0
    endloop
  endfacet
  facet normal -0.795402 0.606082 0
    outer loop
      vertex 11.505 25.594 0
      vertex 13.842 28.661 10
      vertex 13.842 28.661 0
    endloop
  endfacet
  facet normal -0.745227 0.666811 0
    outer loop
      vertex 9.022 22.819 10
      vertex 11.505 25.594 10
      vertex 9.022 22.819 0
    endloop
  endfacet
  facet normal -0.745227 0.666811 0
    outer loop
      vertex 9.022 22.819 0
      vertex 11.505 25.594 10
      vertex 11.505 25.594 0
    endloop
  endfacet
  facet normal -0.543251 0.83957 0
    outer loop
      vertex 6.54 21.213 10
      vertex 9.022 22.819 10
      vertex 6.54 21.213 0
    endloop
  endfacet
  facet normal -0.543251 0.83957 0
    outer loop
      vertex 6.54 21.213 0
      vertex 9.022 22.819 10
      vertex 9.022 22.819 0
    endloop
  endfacet
endsolid OpenSCAD_Model
