solid OpenSCAD_Model
  facet normal -0.707107 -0.707107 -0
    outer loop
      vertex -33.234 -21.2132 0
      vertex -21.2132 -33.234 0
      vertex -33.234 -21.2132 2
    endloop
  endfacet
  facet normal -0.707107 -0.707107 0
    outer loop
      vertex -33.234 -21.2132 2
      vertex -21.2132 -33.234 0
      vertex -21.2132 -33.234 2
    endloop
  endfacet
  facet normal 0 0 -1
    outer loop
      vertex -21.2132 28.2843 0
      vertex -8.5 20.5208 0
      vertex -5 12.0711 0
    endloop
  endfacet
  facet normal 0 0 -1
    outer loop
      vertex -12.0711 -5 0
      vertex -20.5208 -8.5 0
      vertex -29 -5 0
    endloop
  endfacet
  facet normal 0 0 -1
    outer loop
      vertex -29 -5 0
      vertex -32.5 -8.5 0
      vertex -32.5 8.5 0
    endloop
  endfacet
  facet normal 0 0 -1
    outer loop
      vertex -28.2843 21.2132 0
      vertex -20.5208 8.5 0
      vertex -33.234 21.2132 0
    endloop
  endfacet
  facet normal 0 -0 -1
    outer loop
      vertex -5 29 0
      vertex -8.5 32.5 0
      vertex 8.5 32.5 0
    endloop
  endfacet
  facet normal 0 0 -1
    outer loop
      vertex 5 12.0711 0
      vertex 8.5 20.5208 0
      vertex 21.2132 33.234 0
    endloop
  endfacet
  facet normal -0 -0 -1
    outer loop
      vertex 28.2843 21.2132 0
      vertex 21.2132 33.234 0
      vertex 33.234 21.2132 0
    endloop
  endfacet
  facet normal 0 0 -1
    outer loop
      vertex 21.2132 -28.2843 0
      vertex 8.5 -20.5208 0
      vertex 5 -12.0711 0
    endloop
  endfacet
  facet normal -0 0 -1
    outer loop
      vertex 29 -5 0
      vertex 32.5 8.5 0
      vertex 32.5 -8.5 0
    endloop
  endfacet
  facet normal -0 0 -1
    outer loop
      vertex 12.0711 5 0
      vertex 32.5 8.5 0
      vertex 29 5 0
    endloop
  endfacet
  facet normal 0 0 -1
    outer loop
      vertex 8.5 -20.5208 0
      vertex 21.2132 -28.2843 0
      vertex 21.2132 -33.234 0
    endloop
  endfacet
  facet normal -0 0 -1
    outer loop
      vertex 29 5 0
      vertex 32.5 8.5 0
      vertex 29 -5 0
    endloop
  endfacet
  facet normal -0 0 -1
    outer loop
      vertex 21.2132 -28.2843 0
      vertex 33.234 -21.2132 0
      vertex 21.2132 -33.234 0
    endloop
  endfacet
  facet normal 0 0 -1
    outer loop
      vertex 28.2843 -21.2132 0
      vertex 33.234 -21.2132 0
      vertex 21.2132 -28.2843 0
    endloop
  endfacet
  facet normal 0 -0 -1
    outer loop
      vertex -29 -5 0
      vertex -32.5 8.5 0
      vertex -29 5 0
    endloop
  endfacet
  facet normal 0 0 -1
    outer loop
      vertex -20.5208 8.5 0
      vertex -29 5 0
      vertex -32.5 8.5 0
    endloop
  endfacet
  facet normal 0 0 -1
    outer loop
      vertex -20.5208 -8.5 0
      vertex -32.5 -8.5 0
      vertex -29 -5 0
    endloop
  endfacet
  facet normal -0 0 -1
    outer loop
      vertex -33.234 -21.2132 0
      vertex -20.5208 -8.5 0
      vertex -28.2843 -21.2132 0
    endloop
  endfacet
  facet normal 0 0 -1
    outer loop
      vertex -33.234 -21.2132 0
      vertex -28.2843 -21.2132 0
      vertex -21.2132 -33.234 0
    endloop
  endfacet
  facet normal 0 0 -1
    outer loop
      vertex -5 -12.0711 0
      vertex -21.2132 -33.234 0
      vertex -21.2132 -28.2843 0
    endloop
  endfacet
  facet normal 0 0 -1
    outer loop
      vertex -28.2843 -21.2132 0
      vertex -21.2132 -28.2843 0
      vertex -21.2132 -33.234 0
    endloop
  endfacet
  facet normal 0 -0 -1
    outer loop
      vertex -5 -29 0
      vertex -8.5 -20.5208 0
      vertex -5 -12.0711 0
    endloop
  endfacet
  facet normal 0 0 -1
    outer loop
      vertex -21.2132 -33.234 0
      vertex -5 -12.0711 0
      vertex -8.5 -20.5208 0
    endloop
  endfacet
  facet normal -0 0 -1
    outer loop
      vertex -8.5 -32.5 0
      vertex 5 -29 0
      vertex 8.5 -32.5 0
    endloop
  endfacet
  facet normal 0 0 -1
    outer loop
      vertex 5 -12.0711 0
      vertex 8.5 -20.5208 0
      vertex 5 -29 0
    endloop
  endfacet
  facet normal 0 0 -1
    outer loop
      vertex -5 -29 0
      vertex 5 -29 0
      vertex -8.5 -32.5 0
    endloop
  endfacet
  facet normal 0 -0 -1
    outer loop
      vertex 8.5 -32.5 0
      vertex 5 -29 0
      vertex 8.5 -20.5208 0
    endloop
  endfacet
  facet normal 0 0 -1
    outer loop
      vertex 12.0711 -5 0
      vertex 20.5208 -8.5 0
      vertex 33.234 -21.2132 0
    endloop
  endfacet
  facet normal 0 0 -1
    outer loop
      vertex 29 -5 0
      vertex 20.5208 -8.5 0
      vertex 12.0711 -5 0
    endloop
  endfacet
  facet normal 0 0 -1
    outer loop
      vertex 12.0711 5 0
      vertex 20.5208 8.5 0
      vertex 32.5 8.5 0
    endloop
  endfacet
  facet normal -0 0 -1
    outer loop
      vertex 20.5208 -8.5 0
      vertex 29 -5 0
      vertex 32.5 -8.5 0
    endloop
  endfacet
  facet normal -0 0 -1
    outer loop
      vertex 5 29 0
      vertex 8.5 32.5 0
      vertex 8.5 20.5208 0
    endloop
  endfacet
  facet normal 0 0 -1
    outer loop
      vertex 5 29 0
      vertex 8.5 20.5208 0
      vertex 5 12.0711 0
    endloop
  endfacet
  facet normal -0 -0 -1
    outer loop
      vertex 21.2132 28.2843 0
      vertex 21.2132 33.234 0
      vertex 28.2843 21.2132 0
    endloop
  endfacet
  facet normal 0 0 -1
    outer loop
      vertex 20.5208 8.5 0
      vertex 28.2843 21.2132 0
      vertex 33.234 21.2132 0
    endloop
  endfacet
  facet normal 0 0 -1
    outer loop
      vertex 5 12.0711 0
      vertex 21.2132 33.234 0
      vertex 21.2132 28.2843 0
    endloop
  endfacet
  facet normal 0 0 -1
    outer loop
      vertex 28.2843 21.2132 0
      vertex 20.5208 8.5 0
      vertex 12.0711 5 0
    endloop
  endfacet
  facet normal -0 0 -1
    outer loop
      vertex -21.2132 28.2843 0
      vertex -21.2132 33.234 0
      vertex -8.5 20.5208 0
    endloop
  endfacet
  facet normal -0 0 -1
    outer loop
      vertex -5 29 0
      vertex 8.5 32.5 0
      vertex 5 29 0
    endloop
  endfacet
  facet normal 0 -0 -1
    outer loop
      vertex -8.5 20.5208 0
      vertex -8.5 32.5 0
      vertex -5 29 0
    endloop
  endfacet
  facet normal 0 0 -1
    outer loop
      vertex -5 12.0711 0
      vertex -8.5 20.5208 0
      vertex -5 29 0
    endloop
  endfacet
  facet normal 0 0 -1
    outer loop
      vertex -12.0711 5 0
      vertex -20.5208 8.5 0
      vertex -28.2843 21.2132 0
    endloop
  endfacet
  facet normal 0 0 -1
    outer loop
      vertex -21.2132 33.234 0
      vertex -21.2132 28.2843 0
      vertex -33.234 21.2132 0
    endloop
  endfacet
  facet normal 0 0 -1
    outer loop
      vertex -21.2132 28.2843 0
      vertex -28.2843 21.2132 0
      vertex -33.234 21.2132 0
    endloop
  endfacet
  facet normal 0 0 -1
    outer loop
      vertex -28.2843 -21.2132 0
      vertex -20.5208 -8.5 0
      vertex -12.0711 -5 0
    endloop
  endfacet
  facet normal 0 0 -1
    outer loop
      vertex 12.0711 -5 0
      vertex 33.234 -21.2132 0
      vertex 28.2843 -21.2132 0
    endloop
  endfacet
  facet normal -0 0 -1
    outer loop
      vertex -29 5 0
      vertex -20.5208 8.5 0
      vertex -12.0711 5 0
    endloop
  endfacet
  facet normal 0 0 -1
    outer loop
      vertex -8.5 -20.5208 0
      vertex -5 -29 0
      vertex -8.5 -32.5 0
    endloop
  endfacet
  facet normal -0.707107 0.707107 0
    outer loop
      vertex -33.234 -21.2132 0
      vertex -33.234 -21.2132 2
      vertex -20.5208 -8.5 0
    endloop
  endfacet
  facet normal -0.707107 0.707107 0
    outer loop
      vertex -20.5208 -8.5 0
      vertex -33.234 -21.2132 2
      vertex -20.5208 -8.5 2
    endloop
  endfacet
  facet normal -0 0 1
    outer loop
      vertex -21.2132 -28.9914 2
      vertex -33.234 -21.2132 2
      vertex -21.2132 -33.234 2
    endloop
  endfacet
  facet normal 0 0 1
    outer loop
      vertex -13.2782 5.5 2
      vertex -28.9914 21.2132 2
      vertex -20.5208 8.5 2
    endloop
  endfacet
  facet normal -0 0 1
    outer loop
      vertex -5.5 -29.5 2
      vertex -8.5 -20.5208 2
      vertex -8.5 -32.5 2
    endloop
  endfacet
  facet normal 0 0 1
    outer loop
      vertex -5.5 -29.5 2
      vertex -5.5 -13.2782 2
      vertex -8.5 -20.5208 2
    endloop
  endfacet
  facet normal 0 0 1
    outer loop
      vertex -5.5 -13.2782 2
      vertex -21.2132 -28.9914 2
      vertex -21.2132 -33.234 2
    endloop
  endfacet
  facet normal -0 0 1
    outer loop
      vertex 21.2132 -28.9914 2
      vertex 8.5 -20.5208 2
      vertex 21.2132 -33.234 2
    endloop
  endfacet
  facet normal 0 0 1
    outer loop
      vertex 21.2132 -28.9914 2
      vertex 5.5 -13.2782 2
      vertex 8.5 -20.5208 2
    endloop
  endfacet
  facet normal 0 0 1
    outer loop
      vertex -28.9914 -21.2132 2
      vertex -13.2782 -5.5 2
      vertex -20.5208 -8.5 2
    endloop
  endfacet
  facet normal 0 -0 1
    outer loop
      vertex 29.5 -5.5 2
      vertex 20.5208 -8.5 2
      vertex 32.5 -8.5 2
    endloop
  endfacet
  facet normal 0 -0 1
    outer loop
      vertex 29.5 5.5 2
      vertex 29.5 -5.5 2
      vertex 32.5 8.5 2
    endloop
  endfacet
  facet normal 0 0 1
    outer loop
      vertex 13.2782 -5.5 2
      vertex 33.234 -21.2132 2
      vertex 20.5208 -8.5 2
    endloop
  endfacet
  facet normal 0 0 1
    outer loop
      vertex -21.2132 28.9914 2
      vertex -5.5 13.2782 2
      vertex -8.5 20.5208 2
    endloop
  endfacet
  facet normal -0 0 1
    outer loop
      vertex -20.5208 8.5 2
      vertex -32.5 8.5 2
      vertex -29.5 5.5 2
    endloop
  endfacet
  facet normal 0 0 1
    outer loop
      vertex -28.9914 21.2132 2
      vertex -21.2132 28.9914 2
      vertex -21.2132 33.234 2
    endloop
  endfacet
  facet normal -0 0 1
    outer loop
      vertex -13.2782 -5.5 2
      vertex -29.5 -5.5 2
      vertex -32.5 -8.5 2
    endloop
  endfacet
  facet normal 0 0 1
    outer loop
      vertex 5.5 29.5 2
      vertex 8.5 20.5208 2
      vertex 8.5 32.5 2
    endloop
  endfacet
  facet normal 0 0 1
    outer loop
      vertex -33.234 21.2132 2
      vertex -20.5208 8.5 2
      vertex -28.9914 21.2132 2
    endloop
  endfacet
  facet normal 0 0 1
    outer loop
      vertex 13.2782 5.5 2
      vertex 29.5 5.5 2
      vertex 32.5 8.5 2
    endloop
  endfacet
  facet normal 0 0 1
    outer loop
      vertex -13.2782 -5.5 2
      vertex -32.5 -8.5 2
      vertex -20.5208 -8.5 2
    endloop
  endfacet
  facet normal 0 -0 1
    outer loop
      vertex -32.5 8.5 2
      vertex -32.5 -8.5 2
      vertex -29.5 5.5 2
    endloop
  endfacet
  facet normal 0 0 1
    outer loop
      vertex -33.234 21.2132 2
      vertex -28.9914 21.2132 2
      vertex -21.2132 33.234 2
    endloop
  endfacet
  facet normal 0 0 1
    outer loop
      vertex 13.2782 5.5 2
      vertex 32.5 8.5 2
      vertex 20.5208 8.5 2
    endloop
  endfacet
  facet normal 0 -0 1
    outer loop
      vertex 28.9914 21.2132 2
      vertex 13.2782 5.5 2
      vertex 33.234 21.2132 2
    endloop
  endfacet
  facet normal 0 0 1
    outer loop
      vertex -8.5 32.5 2
      vertex -5.5 29.5 2
      vertex 8.5 32.5 2
    endloop
  endfacet
  facet normal 0 -0 1
    outer loop
      vertex -8.5 32.5 2
      vertex -8.5 20.5208 2
      vertex -5.5 29.5 2
    endloop
  endfacet
  facet normal 0 0 1
    outer loop
      vertex -5.5 13.2782 2
      vertex -5.5 29.5 2
      vertex -8.5 20.5208 2
    endloop
  endfacet
  facet normal 0 0 1
    outer loop
      vertex 13.2782 -5.5 2
      vertex 28.9914 -21.2132 2
      vertex 33.234 -21.2132 2
    endloop
  endfacet
  facet normal 0 -0 1
    outer loop
      vertex 21.2132 33.234 2
      vertex 21.2132 28.9914 2
      vertex 33.234 21.2132 2
    endloop
  endfacet
  facet normal 0 0 1
    outer loop
      vertex 21.2132 33.234 2
      vertex 5.5 13.2782 2
      vertex 21.2132 28.9914 2
    endloop
  endfacet
  facet normal 0 0 1
    outer loop
      vertex 21.2132 28.9914 2
      vertex 28.9914 21.2132 2
      vertex 33.234 21.2132 2
    endloop
  endfacet
  facet normal 0 0 1
    outer loop
      vertex 33.234 21.2132 2
      vertex 13.2782 5.5 2
      vertex 20.5208 8.5 2
    endloop
  endfacet
  facet normal -0 0 1
    outer loop
      vertex 29.5 -5.5 2
      vertex 13.2782 -5.5 2
      vertex 20.5208 -8.5 2
    endloop
  endfacet
  facet normal 0 0 1
    outer loop
      vertex 32.5 8.5 2
      vertex 29.5 -5.5 2
      vertex 32.5 -8.5 2
    endloop
  endfacet
  facet normal 0 -0 1
    outer loop
      vertex 5.5 -13.2782 2
      vertex 5.5 -29.5 2
      vertex 8.5 -20.5208 2
    endloop
  endfacet
  facet normal 0 0 1
    outer loop
      vertex 33.234 -21.2132 2
      vertex 28.9914 -21.2132 2
      vertex 21.2132 -33.234 2
    endloop
  endfacet
  facet normal 0 0 1
    outer loop
      vertex 28.9914 -21.2132 2
      vertex 21.2132 -28.9914 2
      vertex 21.2132 -33.234 2
    endloop
  endfacet
  facet normal 0 0 1
    outer loop
      vertex 8.5 -20.5208 2
      vertex 5.5 -29.5 2
      vertex 8.5 -32.5 2
    endloop
  endfacet
  facet normal 0 0 1
    outer loop
      vertex -5.5 -13.2782 2
      vertex -21.2132 -33.234 2
      vertex -8.5 -20.5208 2
    endloop
  endfacet
  facet normal 0 0 1
    outer loop
      vertex 8.5 -32.5 2
      vertex -5.5 -29.5 2
      vertex -8.5 -32.5 2
    endloop
  endfacet
  facet normal -0 -0 1
    outer loop
      vertex 5.5 -29.5 2
      vertex -5.5 -29.5 2
      vertex 8.5 -32.5 2
    endloop
  endfacet
  facet normal -0 -0 1
    outer loop
      vertex -28.9914 -21.2132 2
      vertex -33.234 -21.2132 2
      vertex -21.2132 -28.9914 2
    endloop
  endfacet
  facet normal 0 0 1
    outer loop
      vertex -20.5208 -8.5 2
      vertex -33.234 -21.2132 2
      vertex -28.9914 -21.2132 2
    endloop
  endfacet
  facet normal 0 -0 1
    outer loop
      vertex 8.5 20.5208 2
      vertex 5.5 13.2782 2
      vertex 21.2132 33.234 2
    endloop
  endfacet
  facet normal 0 0 1
    outer loop
      vertex -21.2132 28.9914 2
      vertex -8.5 20.5208 2
      vertex -21.2132 33.234 2
    endloop
  endfacet
  facet normal 0 -0 1
    outer loop
      vertex 5.5 29.5 2
      vertex 5.5 13.2782 2
      vertex 8.5 20.5208 2
    endloop
  endfacet
  facet normal 0 0 1
    outer loop
      vertex -5.5 29.5 2
      vertex 5.5 29.5 2
      vertex 8.5 32.5 2
    endloop
  endfacet
  facet normal 0 0 1
    outer loop
      vertex -29.5 5.5 2
      vertex -13.2782 5.5 2
      vertex -20.5208 8.5 2
    endloop
  endfacet
  facet normal -0 0 1
    outer loop
      vertex -29.5 -5.5 2
      vertex -29.5 5.5 2
      vertex -32.5 -8.5 2
    endloop
  endfacet
  facet normal 0.707107 -0.707107 0
    outer loop
      vertex -21.2132 -33.234 2
      vertex -21.2132 -33.234 0
      vertex -8.5 -20.5208 0
    endloop
  endfacet
  facet normal 0.707107 -0.707107 0
    outer loop
      vertex -8.5 -20.5208 2
      vertex -21.2132 -33.234 2
      vertex -8.5 -20.5208 0
    endloop
  endfacet
  facet normal -1 1.48287e-16 0
    outer loop
      vertex -8.5 -32.5 0
      vertex -8.5 -32.5 2
      vertex -8.5 -20.5208 0
    endloop
  endfacet
  facet normal -1 1.48287e-16 0
    outer loop
      vertex -8.5 -20.5208 0
      vertex -8.5 -32.5 2
      vertex -8.5 -20.5208 2
    endloop
  endfacet
  facet normal -4.17966e-16 -1 -0
    outer loop
      vertex 8.5 -32.5 0
      vertex 8.5 -32.5 2
      vertex -8.5 -32.5 2
    endloop
  endfacet
  facet normal -4.17966e-16 -1 -0
    outer loop
      vertex -8.5 -32.5 0
      vertex 8.5 -32.5 0
      vertex -8.5 -32.5 2
    endloop
  endfacet
  facet normal 1 -1.48287e-16 0
    outer loop
      vertex 8.5 -32.5 2
      vertex 8.5 -32.5 0
      vertex 8.5 -20.5208 0
    endloop
  endfacet
  facet normal 1 -1.48287e-16 0
    outer loop
      vertex 8.5 -20.5208 2
      vertex 8.5 -32.5 2
      vertex 8.5 -20.5208 0
    endloop
  endfacet
  facet normal -0.707107 -0.707107 -0
    outer loop
      vertex 8.5 -20.5208 0
      vertex 21.2132 -33.234 0
      vertex 8.5 -20.5208 2
    endloop
  endfacet
  facet normal -0.707107 -0.707107 0
    outer loop
      vertex 8.5 -20.5208 2
      vertex 21.2132 -33.234 0
      vertex 21.2132 -33.234 2
    endloop
  endfacet
  facet normal 0.707107 -0.707107 0
    outer loop
      vertex 21.2132 -33.234 2
      vertex 21.2132 -33.234 0
      vertex 33.234 -21.2132 0
    endloop
  endfacet
  facet normal 0.707107 -0.707107 0
    outer loop
      vertex 33.234 -21.2132 2
      vertex 21.2132 -33.234 2
      vertex 33.234 -21.2132 0
    endloop
  endfacet
  facet normal 0.707107 0.707107 0
    outer loop
      vertex 33.234 -21.2132 0
      vertex 20.5208 -8.5 0
      vertex 20.5208 -8.5 2
    endloop
  endfacet
  facet normal 0.707107 0.707107 -0
    outer loop
      vertex 33.234 -21.2132 2
      vertex 33.234 -21.2132 0
      vertex 20.5208 -8.5 2
    endloop
  endfacet
  facet normal -1.48287e-16 -1 0
    outer loop
      vertex 20.5208 -8.5 2
      vertex 20.5208 -8.5 0
      vertex 32.5 -8.5 0
    endloop
  endfacet
  facet normal -1.48287e-16 -1 0
    outer loop
      vertex 32.5 -8.5 2
      vertex 20.5208 -8.5 2
      vertex 32.5 -8.5 0
    endloop
  endfacet
  facet normal 1 -4.17966e-16 0
    outer loop
      vertex 32.5 8.5 0
      vertex 32.5 8.5 2
      vertex 32.5 -8.5 2
    endloop
  endfacet
  facet normal 1 -4.17966e-16 0
    outer loop
      vertex 32.5 -8.5 0
      vertex 32.5 8.5 0
      vertex 32.5 -8.5 2
    endloop
  endfacet
  facet normal 1.48287e-16 1 0
    outer loop
      vertex 20.5208 8.5 0
      vertex 20.5208 8.5 2
      vertex 32.5 8.5 0
    endloop
  endfacet
  facet normal 1.48287e-16 1 0
    outer loop
      vertex 32.5 8.5 0
      vertex 20.5208 8.5 2
      vertex 32.5 8.5 2
    endloop
  endfacet
  facet normal 0.707107 -0.707107 0
    outer loop
      vertex 20.5208 8.5 2
      vertex 20.5208 8.5 0
      vertex 33.234 21.2132 0
    endloop
  endfacet
  facet normal 0.707107 -0.707107 0
    outer loop
      vertex 33.234 21.2132 2
      vertex 20.5208 8.5 2
      vertex 33.234 21.2132 0
    endloop
  endfacet
  facet normal 0.707107 0.707107 0
    outer loop
      vertex 33.234 21.2132 0
      vertex 21.2132 33.234 0
      vertex 21.2132 33.234 2
    endloop
  endfacet
  facet normal 0.707107 0.707107 -0
    outer loop
      vertex 33.234 21.2132 2
      vertex 33.234 21.2132 0
      vertex 21.2132 33.234 2
    endloop
  endfacet
  facet normal -0.707107 0.707107 0
    outer loop
      vertex 8.5 20.5208 0
      vertex 8.5 20.5208 2
      vertex 21.2132 33.234 0
    endloop
  endfacet
  facet normal -0.707107 0.707107 0
    outer loop
      vertex 21.2132 33.234 0
      vertex 8.5 20.5208 2
      vertex 21.2132 33.234 2
    endloop
  endfacet
  facet normal 1 0 -0
    outer loop
      vertex 8.5 20.5208 2
      vertex 8.5 20.5208 0
      vertex 8.5 32.5 0
    endloop
  endfacet
  facet normal 1 0 0
    outer loop
      vertex 8.5 32.5 2
      vertex 8.5 20.5208 2
      vertex 8.5 32.5 0
    endloop
  endfacet
  facet normal 0 1 0
    outer loop
      vertex 8.5 32.5 2
      vertex 8.5 32.5 0
      vertex -8.5 32.5 2
    endloop
  endfacet
  facet normal 0 1 -0
    outer loop
      vertex -8.5 32.5 2
      vertex 8.5 32.5 0
      vertex -8.5 32.5 0
    endloop
  endfacet
  facet normal -1 -0 -0
    outer loop
      vertex -8.5 20.5208 0
      vertex -8.5 20.5208 2
      vertex -8.5 32.5 0
    endloop
  endfacet
  facet normal -1 0 0
    outer loop
      vertex -8.5 32.5 0
      vertex -8.5 20.5208 2
      vertex -8.5 32.5 2
    endloop
  endfacet
  facet normal 0.707107 0.707107 0
    outer loop
      vertex -8.5 20.5208 0
      vertex -21.2132 33.234 0
      vertex -21.2132 33.234 2
    endloop
  endfacet
  facet normal 0.707107 0.707107 -0
    outer loop
      vertex -8.5 20.5208 2
      vertex -8.5 20.5208 0
      vertex -21.2132 33.234 2
    endloop
  endfacet
  facet normal -0.707107 0.707107 0
    outer loop
      vertex -33.234 21.2132 0
      vertex -33.234 21.2132 2
      vertex -21.2132 33.234 0
    endloop
  endfacet
  facet normal -0.707107 0.707107 0
    outer loop
      vertex -21.2132 33.234 0
      vertex -33.234 21.2132 2
      vertex -21.2132 33.234 2
    endloop
  endfacet
  facet normal -0.707107 -0.707107 -0
    outer loop
      vertex -33.234 21.2132 0
      vertex -20.5208 8.5 0
      vertex -33.234 21.2132 2
    endloop
  endfacet
  facet normal -0.707107 -0.707107 0
    outer loop
      vertex -33.234 21.2132 2
      vertex -20.5208 8.5 0
      vertex -20.5208 8.5 2
    endloop
  endfacet
  facet normal 1.48287e-16 1 0
    outer loop
      vertex -32.5 8.5 0
      vertex -32.5 8.5 2
      vertex -20.5208 8.5 0
    endloop
  endfacet
  facet normal 1.48287e-16 1 0
    outer loop
      vertex -20.5208 8.5 0
      vertex -32.5 8.5 2
      vertex -20.5208 8.5 2
    endloop
  endfacet
  facet normal -1 4.17966e-16 0
    outer loop
      vertex -32.5 8.5 2
      vertex -32.5 8.5 0
      vertex -32.5 -8.5 2
    endloop
  endfacet
  facet normal -1 4.17966e-16 0
    outer loop
      vertex -32.5 -8.5 2
      vertex -32.5 8.5 0
      vertex -32.5 -8.5 0
    endloop
  endfacet
  facet normal -1.48287e-16 -1 0
    outer loop
      vertex -32.5 -8.5 2
      vertex -32.5 -8.5 0
      vertex -20.5208 -8.5 0
    endloop
  endfacet
  facet normal -1.48287e-16 -1 0
    outer loop
      vertex -20.5208 -8.5 2
      vertex -32.5 -8.5 2
      vertex -20.5208 -8.5 0
    endloop
  endfacet
  facet normal 1 -3.55271e-16 0
    outer loop
      vertex -29 -5 10
      vertex -29 -5 0
      vertex -29 5 0
    endloop
  endfacet
  facet normal 1 -3.55271e-16 0
    outer loop
      vertex -29 5 10
      vertex -29 -5 10
      vertex -29 5 0
    endloop
  endfacet
  facet normal -5.24651e-17 -1 -0
    outer loop
      vertex -12.0711 5 0
      vertex -12.0711 5 10
      vertex -29 5 10
    endloop
  endfacet
  facet normal -5.24651e-17 -1 -0
    outer loop
      vertex -29 5 0
      vertex -12.0711 5 0
      vertex -29 5 10
    endloop
  endfacet
  facet normal 0.707107 0.707107 0
    outer loop
      vertex -28.2843 21.2132 10
      vertex -12.0711 5 10
      vertex -12.0711 5 0
    endloop
  endfacet
  facet normal 0.707107 0.707107 0
    outer loop
      vertex -28.2843 21.2132 0
      vertex -28.2843 21.2132 10
      vertex -12.0711 5 0
    endloop
  endfacet
  facet normal 0.707107 -0.707107 0
    outer loop
      vertex -21.2132 28.2843 0
      vertex -21.2132 28.2843 10
      vertex -28.2843 21.2132 10
    endloop
  endfacet
  facet normal 0.707107 -0.707107 0
    outer loop
      vertex -28.2843 21.2132 0
      vertex -21.2132 28.2843 0
      vertex -28.2843 21.2132 10
    endloop
  endfacet
  facet normal -0.707107 -0.707107 0
    outer loop
      vertex -5 12.0711 10
      vertex -21.2132 28.2843 10
      vertex -5 12.0711 0
    endloop
  endfacet
  facet normal -0.707107 -0.707107 0
    outer loop
      vertex -5 12.0711 0
      vertex -21.2132 28.2843 10
      vertex -21.2132 28.2843 0
    endloop
  endfacet
  facet normal 1 0 0
    outer loop
      vertex -5 29 0
      vertex -5 29 10
      vertex -5 12.0711 10
    endloop
  endfacet
  facet normal 1 0 0
    outer loop
      vertex -5 12.0711 0
      vertex -5 29 0
      vertex -5 12.0711 10
    endloop
  endfacet
  facet normal 0 -1 0
    outer loop
      vertex -5 29 10
      vertex -5 29 0
      vertex 5 29 0
    endloop
  endfacet
  facet normal 0 -1 0
    outer loop
      vertex 5 29 10
      vertex -5 29 10
      vertex 5 29 0
    endloop
  endfacet
  facet normal -1 0 0
    outer loop
      vertex 5 29 10
      vertex 5 29 0
      vertex 5 12.0711 10
    endloop
  endfacet
  facet normal -1 0 0
    outer loop
      vertex 5 12.0711 10
      vertex 5 29 0
      vertex 5 12.0711 0
    endloop
  endfacet
  facet normal 0.707107 -0.707107 0
    outer loop
      vertex 21.2132 28.2843 0
      vertex 21.2132 28.2843 10
      vertex 5 12.0711 10
    endloop
  endfacet
  facet normal 0.707107 -0.707107 0
    outer loop
      vertex 5 12.0711 0
      vertex 21.2132 28.2843 0
      vertex 5 12.0711 10
    endloop
  endfacet
  facet normal -0.707107 -0.707107 0
    outer loop
      vertex 28.2843 21.2132 10
      vertex 21.2132 28.2843 10
      vertex 28.2843 21.2132 0
    endloop
  endfacet
  facet normal -0.707107 -0.707107 0
    outer loop
      vertex 28.2843 21.2132 0
      vertex 21.2132 28.2843 10
      vertex 21.2132 28.2843 0
    endloop
  endfacet
  facet normal -0.707107 0.707107 0
    outer loop
      vertex 28.2843 21.2132 10
      vertex 28.2843 21.2132 0
      vertex 12.0711 5 10
    endloop
  endfacet
  facet normal -0.707107 0.707107 0
    outer loop
      vertex 12.0711 5 10
      vertex 28.2843 21.2132 0
      vertex 12.0711 5 0
    endloop
  endfacet
  facet normal -1.57395e-16 -1 -0
    outer loop
      vertex 29 5 0
      vertex 29 5 10
      vertex 12.0711 5 10
    endloop
  endfacet
  facet normal -1.57395e-16 -1 -0
    outer loop
      vertex 12.0711 5 0
      vertex 29 5 0
      vertex 12.0711 5 10
    endloop
  endfacet
  facet normal -1 3.55271e-16 0
    outer loop
      vertex 29 -5 0
      vertex 29 -5 10
      vertex 29 5 0
    endloop
  endfacet
  facet normal -1 3.55271e-16 0
    outer loop
      vertex 29 5 0
      vertex 29 -5 10
      vertex 29 5 10
    endloop
  endfacet
  facet normal 1.57395e-16 1 -0
    outer loop
      vertex 29 -5 10
      vertex 29 -5 0
      vertex 12.0711 -5 10
    endloop
  endfacet
  facet normal 1.57395e-16 1 -0
    outer loop
      vertex 12.0711 -5 10
      vertex 29 -5 0
      vertex 12.0711 -5 0
    endloop
  endfacet
  facet normal -0.707107 -0.707107 0
    outer loop
      vertex 28.2843 -21.2132 10
      vertex 12.0711 -5 10
      vertex 28.2843 -21.2132 0
    endloop
  endfacet
  facet normal -0.707107 -0.707107 0
    outer loop
      vertex 28.2843 -21.2132 0
      vertex 12.0711 -5 10
      vertex 12.0711 -5 0
    endloop
  endfacet
  facet normal -0.707107 0.707107 0
    outer loop
      vertex 28.2843 -21.2132 10
      vertex 28.2843 -21.2132 0
      vertex 21.2132 -28.2843 10
    endloop
  endfacet
  facet normal -0.707107 0.707107 0
    outer loop
      vertex 21.2132 -28.2843 10
      vertex 28.2843 -21.2132 0
      vertex 21.2132 -28.2843 0
    endloop
  endfacet
  facet normal 0.707107 0.707107 0
    outer loop
      vertex 5 -12.0711 10
      vertex 21.2132 -28.2843 10
      vertex 21.2132 -28.2843 0
    endloop
  endfacet
  facet normal 0.707107 0.707107 0
    outer loop
      vertex 5 -12.0711 0
      vertex 5 -12.0711 10
      vertex 21.2132 -28.2843 0
    endloop
  endfacet
  facet normal -1 1.0493e-16 0
    outer loop
      vertex 5 -12.0711 10
      vertex 5 -12.0711 0
      vertex 5 -29 10
    endloop
  endfacet
  facet normal -1 1.0493e-16 0
    outer loop
      vertex 5 -29 10
      vertex 5 -12.0711 0
      vertex 5 -29 0
    endloop
  endfacet
  facet normal 3.55271e-16 1 0
    outer loop
      vertex -5 -29 0
      vertex -5 -29 10
      vertex 5 -29 0
    endloop
  endfacet
  facet normal 3.55271e-16 1 0
    outer loop
      vertex 5 -29 0
      vertex -5 -29 10
      vertex 5 -29 10
    endloop
  endfacet
  facet normal 1 -1.0493e-16 0
    outer loop
      vertex -5 -12.0711 0
      vertex -5 -12.0711 10
      vertex -5 -29 10
    endloop
  endfacet
  facet normal 1 -1.0493e-16 0
    outer loop
      vertex -5 -29 0
      vertex -5 -12.0711 0
      vertex -5 -29 10
    endloop
  endfacet
  facet normal -0.707107 0.707107 0
    outer loop
      vertex -5 -12.0711 10
      vertex -5 -12.0711 0
      vertex -21.2132 -28.2843 10
    endloop
  endfacet
  facet normal -0.707107 0.707107 0
    outer loop
      vertex -21.2132 -28.2843 10
      vertex -5 -12.0711 0
      vertex -21.2132 -28.2843 0
    endloop
  endfacet
  facet normal 0.707107 0.707107 0
    outer loop
      vertex -28.2843 -21.2132 10
      vertex -21.2132 -28.2843 10
      vertex -21.2132 -28.2843 0
    endloop
  endfacet
  facet normal 0.707107 0.707107 0
    outer loop
      vertex -28.2843 -21.2132 0
      vertex -28.2843 -21.2132 10
      vertex -21.2132 -28.2843 0
    endloop
  endfacet
  facet normal 0.707107 -0.707107 0
    outer loop
      vertex -12.0711 -5 0
      vertex -12.0711 -5 10
      vertex -28.2843 -21.2132 10
    endloop
  endfacet
  facet normal 0.707107 -0.707107 0
    outer loop
      vertex -28.2843 -21.2132 0
      vertex -12.0711 -5 0
      vertex -28.2843 -21.2132 10
    endloop
  endfacet
  facet normal 5.24651e-17 1 -0
    outer loop
      vertex -12.0711 -5 10
      vertex -12.0711 -5 0
      vertex -29 -5 10
    endloop
  endfacet
  facet normal 5.24651e-17 1 -0
    outer loop
      vertex -29 -5 10
      vertex -12.0711 -5 0
      vertex -29 -5 0
    endloop
  endfacet
  facet normal -1.09504e-16 -1 0
    outer loop
      vertex -29.5 -5.5 10
      vertex -29.5 -5.5 2
      vertex -13.2782 -5.5 2
    endloop
  endfacet
  facet normal -1.09504e-16 -1 0
    outer loop
      vertex -13.2782 -5.5 10
      vertex -29.5 -5.5 10
      vertex -13.2782 -5.5 2
    endloop
  endfacet
  facet normal -1 3.22974e-16 0
    outer loop
      vertex -29.5 5.5 10
      vertex -29.5 5.5 2
      vertex -29.5 -5.5 10
    endloop
  endfacet
  facet normal -1 3.22974e-16 0
    outer loop
      vertex -29.5 -5.5 10
      vertex -29.5 5.5 2
      vertex -29.5 -5.5 2
    endloop
  endfacet
  facet normal -0.707107 0.707107 0
    outer loop
      vertex -28.9914 -21.2132 2
      vertex -28.9914 -21.2132 10
      vertex -13.2782 -5.5 2
    endloop
  endfacet
  facet normal -0.707107 0.707107 0
    outer loop
      vertex -13.2782 -5.5 2
      vertex -28.9914 -21.2132 10
      vertex -13.2782 -5.5 10
    endloop
  endfacet
  facet normal -0.707107 -0.707107 -0
    outer loop
      vertex -28.9914 -21.2132 2
      vertex -21.2132 -28.9914 2
      vertex -28.9914 -21.2132 10
    endloop
  endfacet
  facet normal -0.707107 -0.707107 0
    outer loop
      vertex -28.9914 -21.2132 10
      vertex -21.2132 -28.9914 2
      vertex -21.2132 -28.9914 10
    endloop
  endfacet
  facet normal 0.707107 -0.707107 0
    outer loop
      vertex -21.2132 -28.9914 10
      vertex -21.2132 -28.9914 2
      vertex -5.5 -13.2782 2
    endloop
  endfacet
  facet normal 0.707107 -0.707107 0
    outer loop
      vertex -5.5 -13.2782 10
      vertex -21.2132 -28.9914 10
      vertex -5.5 -13.2782 2
    endloop
  endfacet
  facet normal -1 1.64256e-16 0
    outer loop
      vertex -5.5 -29.5 2
      vertex -5.5 -29.5 10
      vertex -5.5 -13.2782 2
    endloop
  endfacet
  facet normal -1 1.64256e-16 0
    outer loop
      vertex -5.5 -13.2782 2
      vertex -5.5 -29.5 10
      vertex -5.5 -13.2782 10
    endloop
  endfacet
  facet normal -3.22974e-16 -1 -0
    outer loop
      vertex 5.5 -29.5 2
      vertex 5.5 -29.5 10
      vertex -5.5 -29.5 10
    endloop
  endfacet
  facet normal -3.22974e-16 -1 -0
    outer loop
      vertex -5.5 -29.5 2
      vertex 5.5 -29.5 2
      vertex -5.5 -29.5 10
    endloop
  endfacet
  facet normal 1 -1.64256e-16 0
    outer loop
      vertex 5.5 -29.5 10
      vertex 5.5 -29.5 2
      vertex 5.5 -13.2782 2
    endloop
  endfacet
  facet normal 1 -1.64256e-16 0
    outer loop
      vertex 5.5 -13.2782 10
      vertex 5.5 -29.5 10
      vertex 5.5 -13.2782 2
    endloop
  endfacet
  facet normal -0.707107 -0.707107 -0
    outer loop
      vertex 5.5 -13.2782 2
      vertex 21.2132 -28.9914 2
      vertex 5.5 -13.2782 10
    endloop
  endfacet
  facet normal -0.707107 -0.707107 0
    outer loop
      vertex 5.5 -13.2782 10
      vertex 21.2132 -28.9914 2
      vertex 21.2132 -28.9914 10
    endloop
  endfacet
  facet normal 0.707107 -0.707107 0
    outer loop
      vertex 21.2132 -28.9914 10
      vertex 21.2132 -28.9914 2
      vertex 28.9914 -21.2132 2
    endloop
  endfacet
  facet normal 0.707107 -0.707107 0
    outer loop
      vertex 28.9914 -21.2132 10
      vertex 21.2132 -28.9914 10
      vertex 28.9914 -21.2132 2
    endloop
  endfacet
  facet normal 0.707107 0.707107 0
    outer loop
      vertex 28.9914 -21.2132 2
      vertex 13.2782 -5.5 2
      vertex 13.2782 -5.5 10
    endloop
  endfacet
  facet normal 0.707107 0.707107 -0
    outer loop
      vertex 28.9914 -21.2132 10
      vertex 28.9914 -21.2132 2
      vertex 13.2782 -5.5 10
    endloop
  endfacet
  facet normal -2.19008e-16 -1 0
    outer loop
      vertex 13.2782 -5.5 10
      vertex 13.2782 -5.5 2
      vertex 29.5 -5.5 2
    endloop
  endfacet
  facet normal -2.19008e-16 -1 0
    outer loop
      vertex 29.5 -5.5 10
      vertex 13.2782 -5.5 10
      vertex 29.5 -5.5 2
    endloop
  endfacet
  facet normal 1 -3.22974e-16 0
    outer loop
      vertex 29.5 5.5 2
      vertex 29.5 5.5 10
      vertex 29.5 -5.5 10
    endloop
  endfacet
  facet normal 1 -3.22974e-16 0
    outer loop
      vertex 29.5 -5.5 2
      vertex 29.5 5.5 2
      vertex 29.5 -5.5 10
    endloop
  endfacet
  facet normal 2.19008e-16 1 0
    outer loop
      vertex 13.2782 5.5 2
      vertex 13.2782 5.5 10
      vertex 29.5 5.5 2
    endloop
  endfacet
  facet normal 2.19008e-16 1 0
    outer loop
      vertex 29.5 5.5 2
      vertex 13.2782 5.5 10
      vertex 29.5 5.5 10
    endloop
  endfacet
  facet normal 0.707107 -0.707107 0
    outer loop
      vertex 13.2782 5.5 10
      vertex 13.2782 5.5 2
      vertex 28.9914 21.2132 2
    endloop
  endfacet
  facet normal 0.707107 -0.707107 0
    outer loop
      vertex 28.9914 21.2132 10
      vertex 13.2782 5.5 10
      vertex 28.9914 21.2132 2
    endloop
  endfacet
  facet normal 0.707107 0.707107 0
    outer loop
      vertex 28.9914 21.2132 2
      vertex 21.2132 28.9914 2
      vertex 21.2132 28.9914 10
    endloop
  endfacet
  facet normal 0.707107 0.707107 -0
    outer loop
      vertex 28.9914 21.2132 10
      vertex 28.9914 21.2132 2
      vertex 21.2132 28.9914 10
    endloop
  endfacet
  facet normal -0.707107 0.707107 0
    outer loop
      vertex 5.5 13.2782 2
      vertex 5.5 13.2782 10
      vertex 21.2132 28.9914 2
    endloop
  endfacet
  facet normal -0.707107 0.707107 0
    outer loop
      vertex 21.2132 28.9914 2
      vertex 5.5 13.2782 10
      vertex 21.2132 28.9914 10
    endloop
  endfacet
  facet normal 1 0 -0
    outer loop
      vertex 5.5 13.2782 10
      vertex 5.5 13.2782 2
      vertex 5.5 29.5 2
    endloop
  endfacet
  facet normal 1 0 0
    outer loop
      vertex 5.5 29.5 10
      vertex 5.5 13.2782 10
      vertex 5.5 29.5 2
    endloop
  endfacet
  facet normal 0 1 0
    outer loop
      vertex 5.5 29.5 10
      vertex 5.5 29.5 2
      vertex -5.5 29.5 10
    endloop
  endfacet
  facet normal 0 1 -0
    outer loop
      vertex -5.5 29.5 10
      vertex 5.5 29.5 2
      vertex -5.5 29.5 2
    endloop
  endfacet
  facet normal -1 -0 -0
    outer loop
      vertex -5.5 13.2782 2
      vertex -5.5 13.2782 10
      vertex -5.5 29.5 2
    endloop
  endfacet
  facet normal -1 0 0
    outer loop
      vertex -5.5 29.5 2
      vertex -5.5 13.2782 10
      vertex -5.5 29.5 10
    endloop
  endfacet
  facet normal 0.707107 0.707107 0
    outer loop
      vertex -5.5 13.2782 2
      vertex -21.2132 28.9914 2
      vertex -21.2132 28.9914 10
    endloop
  endfacet
  facet normal 0.707107 0.707107 -0
    outer loop
      vertex -5.5 13.2782 10
      vertex -5.5 13.2782 2
      vertex -21.2132 28.9914 10
    endloop
  endfacet
  facet normal -0.707107 0.707107 0
    outer loop
      vertex -28.9914 21.2132 2
      vertex -28.9914 21.2132 10
      vertex -21.2132 28.9914 2
    endloop
  endfacet
  facet normal -0.707107 0.707107 0
    outer loop
      vertex -21.2132 28.9914 2
      vertex -28.9914 21.2132 10
      vertex -21.2132 28.9914 10
    endloop
  endfacet
  facet normal -0.707107 -0.707107 -0
    outer loop
      vertex -28.9914 21.2132 2
      vertex -13.2782 5.5 2
      vertex -28.9914 21.2132 10
    endloop
  endfacet
  facet normal -0.707107 -0.707107 0
    outer loop
      vertex -28.9914 21.2132 10
      vertex -13.2782 5.5 2
      vertex -13.2782 5.5 10
    endloop
  endfacet
  facet normal 1.09504e-16 1 0
    outer loop
      vertex -29.5 5.5 2
      vertex -29.5 5.5 10
      vertex -13.2782 5.5 2
    endloop
  endfacet
  facet normal 1.09504e-16 1 0
    outer loop
      vertex -13.2782 5.5 2
      vertex -29.5 5.5 10
      vertex -13.2782 5.5 10
    endloop
  endfacet
  facet normal 0 -0 1
    outer loop
      vertex -29 -5 10
      vertex -29.5 -5.5 10
      vertex -13.2782 -5.5 10
    endloop
  endfacet
  facet normal -0 -0 1
    outer loop
      vertex 29 -5 10
      vertex 12.0711 -5 10
      vertex 29.5 -5.5 10
    endloop
  endfacet
  facet normal 0 0 1
    outer loop
      vertex -5 -29 10
      vertex -5 -12.0711 10
      vertex -5.5 -13.2782 10
    endloop
  endfacet
  facet normal 0 -0 1
    outer loop
      vertex 28.2843 21.2132 10
      vertex 13.2782 5.5 10
      vertex 28.9914 21.2132 10
    endloop
  endfacet
  facet normal 0 0 1
    outer loop
      vertex -12.0711 5 10
      vertex -28.9914 21.2132 10
      vertex -13.2782 5.5 10
    endloop
  endfacet
  facet normal 0 0 1
    outer loop
      vertex 5 12.0711 10
      vertex 21.2132 28.2843 10
      vertex 5.5 13.2782 10
    endloop
  endfacet
  facet normal 0 -0 1
    outer loop
      vertex 5 -12.0711 10
      vertex 5 -29 10
      vertex 5.5 -29.5 10
    endloop
  endfacet
  facet normal 0 -0 1
    outer loop
      vertex 13.2782 5.5 10
      vertex 12.0711 5 10
      vertex 29.5 5.5 10
    endloop
  endfacet
  facet normal 0 -0 1
    outer loop
      vertex -29.5 5.5 10
      vertex -29.5 -5.5 10
      vertex -29 -5 10
    endloop
  endfacet
  facet normal 0 0 1
    outer loop
      vertex -29.5 5.5 10
      vertex -29 -5 10
      vertex -29 5 10
    endloop
  endfacet
  facet normal 0 0 1
    outer loop
      vertex 12.0711 -5 10
      vertex 28.2843 -21.2132 10
      vertex 28.9914 -21.2132 10
    endloop
  endfacet
  facet normal 0 0 1
    outer loop
      vertex -21.2132 28.9914 10
      vertex -28.9914 21.2132 10
      vertex -28.2843 21.2132 10
    endloop
  endfacet
  facet normal 0 0 1
    outer loop
      vertex -28.2843 21.2132 10
      vertex -21.2132 28.2843 10
      vertex -21.2132 28.9914 10
    endloop
  endfacet
  facet normal 0 0 1
    outer loop
      vertex -5.5 13.2782 10
      vertex -21.2132 28.9914 10
      vertex -21.2132 28.2843 10
    endloop
  endfacet
  facet normal 0 0 1
    outer loop
      vertex 5.5 29.5 10
      vertex -5.5 29.5 10
      vertex -5 29 10
    endloop
  endfacet
  facet normal 0 0 1
    outer loop
      vertex -5 29 10
      vertex 5 29 10
      vertex 5.5 29.5 10
    endloop
  endfacet
  facet normal 0 0 1
    outer loop
      vertex 5 -12.0711 10
      vertex 5.5 -29.5 10
      vertex 5.5 -13.2782 10
    endloop
  endfacet
  facet normal 0 0 1
    outer loop
      vertex 28.2843 21.2132 10
      vertex 12.0711 5 10
      vertex 13.2782 5.5 10
    endloop
  endfacet
  facet normal 0 0 1
    outer loop
      vertex -21.2132 28.2843 10
      vertex -5 12.0711 10
      vertex -5.5 13.2782 10
    endloop
  endfacet
  facet normal 0 0 1
    outer loop
      vertex 28.9914 21.2132 10
      vertex 21.2132 28.9914 10
      vertex 21.2132 28.2843 10
    endloop
  endfacet
  facet normal 0 0 1
    outer loop
      vertex 5.5 13.2782 10
      vertex 5.5 29.5 10
      vertex 5 29 10
    endloop
  endfacet
  facet normal -0 0 1
    outer loop
      vertex 28.9914 21.2132 10
      vertex 21.2132 28.2843 10
      vertex 28.2843 21.2132 10
    endloop
  endfacet
  facet normal 0 0 1
    outer loop
      vertex 29 5 10
      vertex 29.5 5.5 10
      vertex 12.0711 5 10
    endloop
  endfacet
  facet normal 0 0 1
    outer loop
      vertex 29.5 -5.5 10
      vertex 29.5 5.5 10
      vertex 29 5 10
    endloop
  endfacet
  facet normal 0 0 1
    outer loop
      vertex 29.5 -5.5 10
      vertex 29 5 10
      vertex 29 -5 10
    endloop
  endfacet
  facet normal 0 0 1
    outer loop
      vertex 12.0711 -5 10
      vertex 28.9914 -21.2132 10
      vertex 13.2782 -5.5 10
    endloop
  endfacet
  facet normal 0 0 1
    outer loop
      vertex 13.2782 -5.5 10
      vertex 29.5 -5.5 10
      vertex 12.0711 -5 10
    endloop
  endfacet
  facet normal 0 0 1
    outer loop
      vertex 21.2132 -28.9914 10
      vertex 28.9914 -21.2132 10
      vertex 28.2843 -21.2132 10
    endloop
  endfacet
  facet normal 0 0 1
    outer loop
      vertex 21.2132 -28.9914 10
      vertex 21.2132 -28.2843 10
      vertex 5.5 -13.2782 10
    endloop
  endfacet
  facet normal 0 0 1
    outer loop
      vertex 21.2132 -28.9914 10
      vertex 28.2843 -21.2132 10
      vertex 21.2132 -28.2843 10
    endloop
  endfacet
  facet normal 0 0 1
    outer loop
      vertex 21.2132 -28.2843 10
      vertex 5 -12.0711 10
      vertex 5.5 -13.2782 10
    endloop
  endfacet
  facet normal 0 0 1
    outer loop
      vertex -5 -12.0711 10
      vertex -21.2132 -28.9914 10
      vertex -5.5 -13.2782 10
    endloop
  endfacet
  facet normal 0 0 1
    outer loop
      vertex -5.5 -29.5 10
      vertex 5.5 -29.5 10
      vertex 5 -29 10
    endloop
  endfacet
  facet normal 0 0 1
    outer loop
      vertex -5.5 -29.5 10
      vertex -5 -29 10
      vertex -5.5 -13.2782 10
    endloop
  endfacet
  facet normal 0 0 1
    outer loop
      vertex -5.5 -29.5 10
      vertex 5 -29 10
      vertex -5 -29 10
    endloop
  endfacet
  facet normal 0 0 1
    outer loop
      vertex -28.2843 -21.2132 10
      vertex -12.0711 -5 10
      vertex -13.2782 -5.5 10
    endloop
  endfacet
  facet normal 0 0 1
    outer loop
      vertex -5 -12.0711 10
      vertex -21.2132 -28.2843 10
      vertex -21.2132 -28.9914 10
    endloop
  endfacet
  facet normal 0 0 1
    outer loop
      vertex -28.9914 -21.2132 10
      vertex -21.2132 -28.9914 10
      vertex -21.2132 -28.2843 10
    endloop
  endfacet
  facet normal 0 0 1
    outer loop
      vertex -28.9914 -21.2132 10
      vertex -28.2843 -21.2132 10
      vertex -13.2782 -5.5 10
    endloop
  endfacet
  facet normal 0 0 1
    outer loop
      vertex -28.9914 -21.2132 10
      vertex -21.2132 -28.2843 10
      vertex -28.2843 -21.2132 10
    endloop
  endfacet
  facet normal 0 0 1
    outer loop
      vertex -12.0711 5 10
      vertex -13.2782 5.5 10
      vertex -29.5 5.5 10
    endloop
  endfacet
  facet normal -0 0 1
    outer loop
      vertex -12.0711 -5 10
      vertex -29 -5 10
      vertex -13.2782 -5.5 10
    endloop
  endfacet
  facet normal 0 -0 1
    outer loop
      vertex 5 29 10
      vertex 5 12.0711 10
      vertex 5.5 13.2782 10
    endloop
  endfacet
  facet normal 0 -0 1
    outer loop
      vertex -5.5 29.5 10
      vertex -5.5 13.2782 10
      vertex -5 29 10
    endloop
  endfacet
  facet normal 0 0 1
    outer loop
      vertex 21.2132 28.9914 10
      vertex 5.5 13.2782 10
      vertex 21.2132 28.2843 10
    endloop
  endfacet
  facet normal 0 0 1
    outer loop
      vertex -5 12.0711 10
      vertex -5 29 10
      vertex -5.5 13.2782 10
    endloop
  endfacet
  facet normal 0 0 1
    outer loop
      vertex -29 5 10
      vertex -12.0711 5 10
      vertex -29.5 5.5 10
    endloop
  endfacet
  facet normal 0 0 1
    outer loop
      vertex -12.0711 5 10
      vertex -28.2843 21.2132 10
      vertex -28.9914 21.2132 10
    endloop
  endfacet
endsolid OpenSCAD_Model
