solid OpenSCAD_Model
  facet normal -1 -0 -0
    outer loop
      vertex -32.5 -32.5 -75
      vertex -32.5 -32.5 75
      vertex -32.5 32.5 -75
    endloop
  endfacet
  facet normal -1 0 0
    outer loop
      vertex -32.5 32.5 -75
      vertex -32.5 -32.5 75
      vertex -32.5 32.5 75
    endloop
  endfacet
  facet normal 0 -1 0
    outer loop
      vertex -32.5 -32.5 75
      vertex -32.5 -32.5 -75
      vertex 32.5 -32.5 -75
    endloop
  endfacet
  facet normal 0 -1 0
    outer loop
      vertex 32.5 -32.5 75
      vertex -32.5 -32.5 75
      vertex 32.5 -32.5 -75
    endloop
  endfacet
  facet normal -0 -0 -1
    outer loop
      vertex -32.5 -32.5 -75
      vertex -32.5 32.5 -75
      vertex 32.5 -32.5 -75
    endloop
  endfacet
  facet normal 0 0 -1
    outer loop
      vertex 32.5 -32.5 -75
      vertex -32.5 32.5 -75
      vertex 32.5 32.5 -75
    endloop
  endfacet
  facet normal 0 1 0
    outer loop
      vertex -32.5 32.5 -75
      vertex -32.5 32.5 75
      vertex 32.5 32.5 -75
    endloop
  endfacet
  facet normal 0 1 0
    outer loop
      vertex 32.5 32.5 -75
      vertex -32.5 32.5 75
      vertex 32.5 32.5 75
    endloop
  endfacet
  facet normal 0 -0 1
    outer loop
      vertex 21.2132 -28.2843 75
      vertex -32.5 -32.5 75
      vertex 32.5 -32.5 75
    endloop
  endfacet
  facet normal 0 -0 1
    outer loop
      vertex -32.5 32.5 75
      vertex -32.5 -32.5 75
      vertex -29 -5 75
    endloop
  endfacet
  facet normal 0 0 1
    outer loop
      vertex -28.2843 21.2132 75
      vertex -21.2132 28.2843 75
      vertex -32.5 32.5 75
    endloop
  endfacet
  facet normal 0 0 1
    outer loop
      vertex -32.5 32.5 75
      vertex -29 -5 75
      vertex -29 5 75
    endloop
  endfacet
  facet normal 0 -0 1
    outer loop
      vertex -28.2843 21.2132 75
      vertex -29 5 75
      vertex -12.0711 5 75
    endloop
  endfacet
  facet normal 0 -0 1
    outer loop
      vertex 5 29 75
      vertex 5 12.0711 75
      vertex 21.2132 28.2843 75
    endloop
  endfacet
  facet normal 0 0 1
    outer loop
      vertex -32.5 32.5 75
      vertex -29 5 75
      vertex -28.2843 21.2132 75
    endloop
  endfacet
  facet normal 0 0 1
    outer loop
      vertex 32.5 32.5 75
      vertex -32.5 32.5 75
      vertex -21.2132 28.2843 75
    endloop
  endfacet
  facet normal 0 0 1
    outer loop
      vertex -5 29 75
      vertex -21.2132 28.2843 75
      vertex -5 12.0711 75
    endloop
  endfacet
  facet normal 0 0 1
    outer loop
      vertex 32.5 32.5 75
      vertex -21.2132 28.2843 75
      vertex -5 29 75
    endloop
  endfacet
  facet normal 0 0 1
    outer loop
      vertex 32.5 32.5 75
      vertex -5 29 75
      vertex 5 29 75
    endloop
  endfacet
  facet normal 0 0 1
    outer loop
      vertex -28.2843 -21.2132 75
      vertex -12.0711 -5 75
      vertex -29 -5 75
    endloop
  endfacet
  facet normal 0 0 1
    outer loop
      vertex 21.2132 28.2843 75
      vertex 28.2843 21.2132 75
      vertex 32.5 32.5 75
    endloop
  endfacet
  facet normal 0 0 1
    outer loop
      vertex 32.5 32.5 75
      vertex 5 29 75
      vertex 21.2132 28.2843 75
    endloop
  endfacet
  facet normal 0 0 1
    outer loop
      vertex 32.5 32.5 75
      vertex 28.2843 21.2132 75
      vertex 32.5 -32.5 75
    endloop
  endfacet
  facet normal 0 0 1
    outer loop
      vertex 28.2843 21.2132 75
      vertex 29 5 75
      vertex 32.5 -32.5 75
    endloop
  endfacet
  facet normal 0 -0 1
    outer loop
      vertex 28.2843 21.2132 75
      vertex 12.0711 5 75
      vertex 29 5 75
    endloop
  endfacet
  facet normal 0 -0 1
    outer loop
      vertex 29 5 75
      vertex 29 -5 75
      vertex 32.5 -32.5 75
    endloop
  endfacet
  facet normal 0 -0 1
    outer loop
      vertex 29 -5 75
      vertex 28.2843 -21.2132 75
      vertex 32.5 -32.5 75
    endloop
  endfacet
  facet normal 0 -0 1
    outer loop
      vertex 5 -29 75
      vertex -32.5 -32.5 75
      vertex 21.2132 -28.2843 75
    endloop
  endfacet
  facet normal 0 -0 1
    outer loop
      vertex -5 -29 75
      vertex -32.5 -32.5 75
      vertex 5 -29 75
    endloop
  endfacet
  facet normal 0 0 1
    outer loop
      vertex -5 -12.0711 75
      vertex -21.2132 -28.2843 75
      vertex -5 -29 75
    endloop
  endfacet
  facet normal 0 -0 1
    outer loop
      vertex -21.2132 -28.2843 75
      vertex -32.5 -32.5 75
      vertex -5 -29 75
    endloop
  endfacet
  facet normal 0 -0 1
    outer loop
      vertex -28.2843 -21.2132 75
      vertex -32.5 -32.5 75
      vertex -21.2132 -28.2843 75
    endloop
  endfacet
  facet normal 0 -0 1
    outer loop
      vertex -29 -5 75
      vertex -32.5 -32.5 75
      vertex -28.2843 -21.2132 75
    endloop
  endfacet
  facet normal 0 -0 1
    outer loop
      vertex 5 -12.0711 75
      vertex 5 -29 75
      vertex 21.2132 -28.2843 75
    endloop
  endfacet
  facet normal -0 0 1
    outer loop
      vertex 29 -5 75
      vertex 12.0711 -5 75
      vertex 28.2843 -21.2132 75
    endloop
  endfacet
  facet normal 0 -0 1
    outer loop
      vertex 28.2843 -21.2132 75
      vertex 21.2132 -28.2843 75
      vertex 32.5 -32.5 75
    endloop
  endfacet
  facet normal 1 0 -0
    outer loop
      vertex 32.5 -32.5 75
      vertex 32.5 -32.5 -75
      vertex 32.5 32.5 -75
    endloop
  endfacet
  facet normal 1 0 0
    outer loop
      vertex 32.5 32.5 75
      vertex 32.5 -32.5 75
      vertex 32.5 32.5 -75
    endloop
  endfacet
  facet normal 5.24651e-17 1 -0
    outer loop
      vertex -12.0711 -5 75
      vertex -12.0711 -5 -65
      vertex -29 -5 75
    endloop
  endfacet
  facet normal 5.24651e-17 1 -0
    outer loop
      vertex -29 -5 75
      vertex -12.0711 -5 -65
      vertex -29 -5 -65
    endloop
  endfacet
  facet normal 1 -3.55271e-16 0
    outer loop
      vertex -29 -5 75
      vertex -29 -5 -65
      vertex -29 5 -65
    endloop
  endfacet
  facet normal 1 -3.55271e-16 0
    outer loop
      vertex -29 5 75
      vertex -29 -5 75
      vertex -29 5 -65
    endloop
  endfacet
  facet normal 0.707107 -0.707107 0
    outer loop
      vertex -12.0711 -5 -65
      vertex -12.0711 -5 75
      vertex -28.2843 -21.2132 75
    endloop
  endfacet
  facet normal 0.707107 -0.707107 0
    outer loop
      vertex -28.2843 -21.2132 -65
      vertex -12.0711 -5 -65
      vertex -28.2843 -21.2132 75
    endloop
  endfacet
  facet normal 0.707107 0.707107 0
    outer loop
      vertex -28.2843 -21.2132 75
      vertex -21.2132 -28.2843 75
      vertex -21.2132 -28.2843 -65
    endloop
  endfacet
  facet normal 0.707107 0.707107 0
    outer loop
      vertex -28.2843 -21.2132 -65
      vertex -28.2843 -21.2132 75
      vertex -21.2132 -28.2843 -65
    endloop
  endfacet
  facet normal -0.707107 0.707107 0
    outer loop
      vertex -5 -12.0711 75
      vertex -5 -12.0711 -65
      vertex -21.2132 -28.2843 75
    endloop
  endfacet
  facet normal -0.707107 0.707107 0
    outer loop
      vertex -21.2132 -28.2843 75
      vertex -5 -12.0711 -65
      vertex -21.2132 -28.2843 -65
    endloop
  endfacet
  facet normal 1 -1.0493e-16 0
    outer loop
      vertex -5 -12.0711 -65
      vertex -5 -12.0711 75
      vertex -5 -29 75
    endloop
  endfacet
  facet normal 1 -1.0493e-16 0
    outer loop
      vertex -5 -29 -65
      vertex -5 -12.0711 -65
      vertex -5 -29 75
    endloop
  endfacet
  facet normal 3.55271e-16 1 0
    outer loop
      vertex -5 -29 -65
      vertex -5 -29 75
      vertex 5 -29 -65
    endloop
  endfacet
  facet normal 3.55271e-16 1 0
    outer loop
      vertex 5 -29 -65
      vertex -5 -29 75
      vertex 5 -29 75
    endloop
  endfacet
  facet normal -1 1.0493e-16 0
    outer loop
      vertex 5 -12.0711 75
      vertex 5 -12.0711 -65
      vertex 5 -29 75
    endloop
  endfacet
  facet normal -1 1.0493e-16 0
    outer loop
      vertex 5 -29 75
      vertex 5 -12.0711 -65
      vertex 5 -29 -65
    endloop
  endfacet
  facet normal 0.707107 0.707107 0
    outer loop
      vertex 5 -12.0711 75
      vertex 21.2132 -28.2843 75
      vertex 21.2132 -28.2843 -65
    endloop
  endfacet
  facet normal 0.707107 0.707107 0
    outer loop
      vertex 5 -12.0711 -65
      vertex 5 -12.0711 75
      vertex 21.2132 -28.2843 -65
    endloop
  endfacet
  facet normal -0.707107 0.707107 0
    outer loop
      vertex 28.2843 -21.2132 75
      vertex 28.2843 -21.2132 -65
      vertex 21.2132 -28.2843 75
    endloop
  endfacet
  facet normal -0.707107 0.707107 0
    outer loop
      vertex 21.2132 -28.2843 75
      vertex 28.2843 -21.2132 -65
      vertex 21.2132 -28.2843 -65
    endloop
  endfacet
  facet normal -0.707107 -0.707107 0
    outer loop
      vertex 28.2843 -21.2132 75
      vertex 12.0711 -5 75
      vertex 28.2843 -21.2132 -65
    endloop
  endfacet
  facet normal -0.707107 -0.707107 0
    outer loop
      vertex 28.2843 -21.2132 -65
      vertex 12.0711 -5 75
      vertex 12.0711 -5 -65
    endloop
  endfacet
  facet normal 1.57395e-16 1 -0
    outer loop
      vertex 29 -5 75
      vertex 29 -5 -65
      vertex 12.0711 -5 75
    endloop
  endfacet
  facet normal 1.57395e-16 1 -0
    outer loop
      vertex 12.0711 -5 75
      vertex 29 -5 -65
      vertex 12.0711 -5 -65
    endloop
  endfacet
  facet normal -1 3.55271e-16 0
    outer loop
      vertex 29 -5 -65
      vertex 29 -5 75
      vertex 29 5 -65
    endloop
  endfacet
  facet normal -1 3.55271e-16 0
    outer loop
      vertex 29 5 -65
      vertex 29 -5 75
      vertex 29 5 75
    endloop
  endfacet
  facet normal -1.57395e-16 -1 -0
    outer loop
      vertex 29 5 -65
      vertex 29 5 75
      vertex 12.0711 5 75
    endloop
  endfacet
  facet normal -1.57395e-16 -1 -0
    outer loop
      vertex 12.0711 5 -65
      vertex 29 5 -65
      vertex 12.0711 5 75
    endloop
  endfacet
  facet normal -0.707107 0.707107 0
    outer loop
      vertex 28.2843 21.2132 75
      vertex 28.2843 21.2132 -65
      vertex 12.0711 5 75
    endloop
  endfacet
  facet normal -0.707107 0.707107 0
    outer loop
      vertex 12.0711 5 75
      vertex 28.2843 21.2132 -65
      vertex 12.0711 5 -65
    endloop
  endfacet
  facet normal -0.707107 -0.707107 0
    outer loop
      vertex 28.2843 21.2132 75
      vertex 21.2132 28.2843 75
      vertex 28.2843 21.2132 -65
    endloop
  endfacet
  facet normal -0.707107 -0.707107 0
    outer loop
      vertex 28.2843 21.2132 -65
      vertex 21.2132 28.2843 75
      vertex 21.2132 28.2843 -65
    endloop
  endfacet
  facet normal 0.707107 -0.707107 0
    outer loop
      vertex 21.2132 28.2843 -65
      vertex 21.2132 28.2843 75
      vertex 5 12.0711 75
    endloop
  endfacet
  facet normal 0.707107 -0.707107 0
    outer loop
      vertex 5 12.0711 -65
      vertex 21.2132 28.2843 -65
      vertex 5 12.0711 75
    endloop
  endfacet
  facet normal -1 0 0
    outer loop
      vertex 5 29 75
      vertex 5 29 -65
      vertex 5 12.0711 75
    endloop
  endfacet
  facet normal -1 0 0
    outer loop
      vertex 5 12.0711 75
      vertex 5 29 -65
      vertex 5 12.0711 -65
    endloop
  endfacet
  facet normal 0 -1 0
    outer loop
      vertex -5 29 75
      vertex -5 29 -65
      vertex 5 29 -65
    endloop
  endfacet
  facet normal 0 -1 0
    outer loop
      vertex 5 29 75
      vertex -5 29 75
      vertex 5 29 -65
    endloop
  endfacet
  facet normal 1 0 0
    outer loop
      vertex -5 29 -65
      vertex -5 29 75
      vertex -5 12.0711 75
    endloop
  endfacet
  facet normal 1 0 0
    outer loop
      vertex -5 12.0711 -65
      vertex -5 29 -65
      vertex -5 12.0711 75
    endloop
  endfacet
  facet normal -0.707107 -0.707107 0
    outer loop
      vertex -5 12.0711 75
      vertex -21.2132 28.2843 75
      vertex -5 12.0711 -65
    endloop
  endfacet
  facet normal -0.707107 -0.707107 0
    outer loop
      vertex -5 12.0711 -65
      vertex -21.2132 28.2843 75
      vertex -21.2132 28.2843 -65
    endloop
  endfacet
  facet normal 0.707107 -0.707107 0
    outer loop
      vertex -21.2132 28.2843 -65
      vertex -21.2132 28.2843 75
      vertex -28.2843 21.2132 75
    endloop
  endfacet
  facet normal 0.707107 -0.707107 0
    outer loop
      vertex -28.2843 21.2132 -65
      vertex -21.2132 28.2843 -65
      vertex -28.2843 21.2132 75
    endloop
  endfacet
  facet normal 0.707107 0.707107 0
    outer loop
      vertex -28.2843 21.2132 75
      vertex -12.0711 5 75
      vertex -12.0711 5 -65
    endloop
  endfacet
  facet normal 0.707107 0.707107 0
    outer loop
      vertex -28.2843 21.2132 -65
      vertex -28.2843 21.2132 75
      vertex -12.0711 5 -65
    endloop
  endfacet
  facet normal -5.24651e-17 -1 -0
    outer loop
      vertex -12.0711 5 -65
      vertex -12.0711 5 75
      vertex -29 5 75
    endloop
  endfacet
  facet normal -5.24651e-17 -1 -0
    outer loop
      vertex -29 5 -65
      vertex -12.0711 5 -65
      vertex -29 5 75
    endloop
  endfacet
  facet normal 0 0 1
    outer loop
      vertex -12.0711 -5 -65
      vertex -28.2843 -21.2132 -65
      vertex -21.2132 -28.2843 -65
    endloop
  endfacet
  facet normal 0 0 1
    outer loop
      vertex 5 -12.0711 -65
      vertex -12.0711 -5 -65
      vertex -5 -12.0711 -65
    endloop
  endfacet
  facet normal -0 0 1
    outer loop
      vertex -5 -12.0711 -65
      vertex -12.0711 -5 -65
      vertex -21.2132 -28.2843 -65
    endloop
  endfacet
  facet normal 0 -0 1
    outer loop
      vertex -5 12.0711 -65
      vertex -12.0711 -5 -65
      vertex 5 29 -65
    endloop
  endfacet
  facet normal 0 0 1
    outer loop
      vertex 5 -29 -65
      vertex -5 -12.0711 -65
      vertex -5 -29 -65
    endloop
  endfacet
  facet normal -0 0 1
    outer loop
      vertex 5 -12.0711 -65
      vertex -5 -12.0711 -65
      vertex 5 -29 -65
    endloop
  endfacet
  facet normal 0 0 1
    outer loop
      vertex 28.2843 -21.2132 -65
      vertex -12.0711 -5 -65
      vertex 5 -12.0711 -65
    endloop
  endfacet
  facet normal -0 0 1
    outer loop
      vertex 28.2843 -21.2132 -65
      vertex 5 -12.0711 -65
      vertex 21.2132 -28.2843 -65
    endloop
  endfacet
  facet normal -0 -0 1
    outer loop
      vertex 12.0711 -5 -65
      vertex -12.0711 -5 -65
      vertex 28.2843 -21.2132 -65
    endloop
  endfacet
  facet normal -0 -0 8.11985e-17
    outer loop
      vertex 2.07107 -5 -65
      vertex -12.0711 -5 -65
      vertex 12.0711 -5 -65
    endloop
  endfacet
  facet normal 0 0 1
    outer loop
      vertex 29 5 -65
      vertex 12.0711 -5 -65
      vertex 29 -5 -65
    endloop
  endfacet
  facet normal -0 0 1
    outer loop
      vertex -2.07107 -5 -65
      vertex -5 -2.07107 -65
      vertex -12.0711 -5 -65
    endloop
  endfacet
  facet normal 0 -0 1
    outer loop
      vertex 5 12.0711 -65
      vertex 2.07107 5 -65
      vertex 21.2132 28.2843 -65
    endloop
  endfacet
  facet normal -0 0 1
    outer loop
      vertex -12.0711 5 -65
      vertex -29 5 -65
      vertex -29 -5 -65
    endloop
  endfacet
  facet normal -0 0 1
    outer loop
      vertex -5 -2.07107 -65
      vertex -5 2.07107 -65
      vertex -12.0711 -5 -65
    endloop
  endfacet
  facet normal 0 -0 1
    outer loop
      vertex -5 29 -65
      vertex -5 12.0711 -65
      vertex 5 29 -65
    endloop
  endfacet
  facet normal 0 0 1
    outer loop
      vertex -28.2843 21.2132 -65
      vertex -12.0711 5 -65
      vertex -5 12.0711 -65
    endloop
  endfacet
  facet normal 0 -0 1
    outer loop
      vertex 5 2.07107 -65
      vertex 5 -2.07107 -65
      vertex 29 5 -65
    endloop
  endfacet
  facet normal 0 0 1
    outer loop
      vertex 5 29 -65
      vertex -12.0711 -5 -65
      vertex -5 2.07107 -65
    endloop
  endfacet
  facet normal 0 0 1
    outer loop
      vertex 5 29 -65
      vertex -2.07107 5 -65
      vertex 5 12.0711 -65
    endloop
  endfacet
  facet normal 0 0 1
    outer loop
      vertex 5 29 -65
      vertex -5 2.07107 -65
      vertex -2.07107 5 -65
    endloop
  endfacet
  facet normal 0 -0 1
    outer loop
      vertex 21.2132 28.2843 -65
      vertex 2.07107 5 -65
      vertex 28.2843 21.2132 -65
    endloop
  endfacet
  facet normal 0 0 1
    outer loop
      vertex -2.07107 5 -65
      vertex 2.07107 5 -65
      vertex 5 12.0711 -65
    endloop
  endfacet
  facet normal 0 0 1
    outer loop
      vertex 28.2843 21.2132 -65
      vertex 5 2.07107 -65
      vertex 12.0711 5 -65
    endloop
  endfacet
  facet normal 0 0 1
    outer loop
      vertex 29 5 -65
      vertex 5 -2.07107 -65
      vertex 12.0711 -5 -65
    endloop
  endfacet
  facet normal 0 -0 1
    outer loop
      vertex 5 -2.07107 -65
      vertex 2.07107 -5 -65
      vertex 12.0711 -5 -65
    endloop
  endfacet
  facet normal 0 -0 8.88178e-17
    outer loop
      vertex -2.07107 -5 -65
      vertex -12.0711 -5 -65
      vertex 2.07107 -5 -65
    endloop
  endfacet
  facet normal 0 0 1
    outer loop
      vertex 2.07107 5 -65
      vertex 5 2.07107 -65
      vertex 28.2843 21.2132 -65
    endloop
  endfacet
  facet normal 0 0 1
    outer loop
      vertex 5 2.07107 -65
      vertex 29 5 -65
      vertex 12.0711 5 -65
    endloop
  endfacet
  facet normal 0 0 1
    outer loop
      vertex -28.2843 21.2132 -65
      vertex -5 12.0711 -65
      vertex -21.2132 28.2843 -65
    endloop
  endfacet
  facet normal 0 -0 1
    outer loop
      vertex -12.0711 5 -65
      vertex -12.0711 -5 -65
      vertex -5 12.0711 -65
    endloop
  endfacet
  facet normal 0 0 1
    outer loop
      vertex -29 -5 -65
      vertex -12.0711 -5 -65
      vertex -12.0711 5 -65
    endloop
  endfacet
  facet normal -1 2.14425e-16 0
    outer loop
      vertex -5 2.07107 75
      vertex -5 2.07107 -65
      vertex -5 -2.07107 75
    endloop
  endfacet
  facet normal -1 2.14425e-16 0
    outer loop
      vertex -5 -2.07107 75
      vertex -5 2.07107 -65
      vertex -5 -2.07107 -65
    endloop
  endfacet
  facet normal -0.707107 0.707107 0
    outer loop
      vertex -2.07107 5 75
      vertex -2.07107 5 -65
      vertex -5 2.07107 75
    endloop
  endfacet
  facet normal -0.707107 0.707107 0
    outer loop
      vertex -5 2.07107 75
      vertex -2.07107 5 -65
      vertex -5 2.07107 -65
    endloop
  endfacet
  facet normal -0.707107 -0.707107 0
    outer loop
      vertex -2.07107 -5 75
      vertex -5 -2.07107 75
      vertex -2.07107 -5 -65
    endloop
  endfacet
  facet normal -0.707107 -0.707107 0
    outer loop
      vertex -2.07107 -5 -65
      vertex -5 -2.07107 75
      vertex -5 -2.07107 -65
    endloop
  endfacet
  facet normal -2.14425e-16 -1 -0
    outer loop
      vertex 2.07107 -5 -65
      vertex 2.07107 -5 75
      vertex -2.07107 -5 75
    endloop
  endfacet
  facet normal -2.14425e-16 -1 -0
    outer loop
      vertex -2.07107 -5 -65
      vertex 2.07107 -5 -65
      vertex -2.07107 -5 75
    endloop
  endfacet
  facet normal 0.707107 -0.707107 0
    outer loop
      vertex 5 -2.07107 -65
      vertex 5 -2.07107 75
      vertex 2.07107 -5 75
    endloop
  endfacet
  facet normal 0.707107 -0.707107 0
    outer loop
      vertex 2.07107 -5 -65
      vertex 5 -2.07107 -65
      vertex 2.07107 -5 75
    endloop
  endfacet
  facet normal 1 -2.14425e-16 0
    outer loop
      vertex 5 2.07107 -65
      vertex 5 2.07107 75
      vertex 5 -2.07107 75
    endloop
  endfacet
  facet normal 1 -2.14425e-16 0
    outer loop
      vertex 5 -2.07107 -65
      vertex 5 2.07107 -65
      vertex 5 -2.07107 75
    endloop
  endfacet
  facet normal 0.707107 0.707107 0
    outer loop
      vertex 2.07107 5 75
      vertex 5 2.07107 75
      vertex 5 2.07107 -65
    endloop
  endfacet
  facet normal 0.707107 0.707107 0
    outer loop
      vertex 2.07107 5 -65
      vertex 2.07107 5 75
      vertex 5 2.07107 -65
    endloop
  endfacet
  facet normal 0 1 0
    outer loop
      vertex 2.07107 5 75
      vertex 2.07107 5 -65
      vertex -2.07107 5 75
    endloop
  endfacet
  facet normal 0 1 -0
    outer loop
      vertex -2.07107 5 75
      vertex 2.07107 5 -65
      vertex -2.07107 5 -65
    endloop
  endfacet
  facet normal 0 -0 1
    outer loop
      vertex -5 2.07107 75
      vertex -5 -2.07107 75
      vertex -2.07107 -5 75
    endloop
  endfacet
  facet normal -0 0 1
    outer loop
      vertex 5 -2.07107 75
      vertex -5 2.07107 75
      vertex 2.07107 -5 75
    endloop
  endfacet
  facet normal 0 0 1
    outer loop
      vertex 2.07107 -5 75
      vertex -5 2.07107 75
      vertex -2.07107 -5 75
    endloop
  endfacet
  facet normal -0 0 1
    outer loop
      vertex 5 2.07107 75
      vertex -5 2.07107 75
      vertex 5 -2.07107 75
    endloop
  endfacet
  facet normal 0 -0 1
    outer loop
      vertex 2.07107 5 75
      vertex -5 2.07107 75
      vertex 5 2.07107 75
    endloop
  endfacet
  facet normal 0 -0 1
    outer loop
      vertex -2.07107 5 75
      vertex -5 2.07107 75
      vertex 2.07107 5 75
    endloop
  endfacet
endsolid OpenSCAD_Model
