solid OpenSCAD_Model
  facet normal -0 0 -1
    outer loop
      vertex -40 0 -50
      vertex -39.9211 2.51162 -50
      vertex -39.9211 -2.51162 -50
    endloop
  endfacet
  facet normal 0 -0 -1
    outer loop
      vertex -39.9211 -2.51162 -50
      vertex -39.9211 2.51162 -50
      vertex -39.6846 5.01333 -50
    endloop
  endfacet
  facet normal 0 0 -1
    outer loop
      vertex -39.9211 -2.51162 -50
      vertex -39.6846 5.01333 -50
      vertex -39.2915 7.49525 -50
    endloop
  endfacet
  facet normal 0 0 -1
    outer loop
      vertex -39.9211 -2.51162 -50
      vertex -39.2915 7.49525 -50
      vertex -38.7433 9.94759 -50
    endloop
  endfacet
  facet normal 0 0 -1
    outer loop
      vertex -39.9211 -2.51162 -50
      vertex -38.7433 9.94759 -50
      vertex -38.0423 12.3607 -50
    endloop
  endfacet
  facet normal 0 0 -1
    outer loop
      vertex -39.9211 -2.51162 -50
      vertex -38.0423 12.3607 -50
      vertex -37.1911 14.725 -50
    endloop
  endfacet
  facet normal 0 0 -1
    outer loop
      vertex -39.9211 -2.51162 -50
      vertex -37.1911 14.725 -50
      vertex -36.1931 17.0312 -50
    endloop
  endfacet
  facet normal 0 0 -1
    outer loop
      vertex -39.9211 -2.51162 -50
      vertex -36.1931 17.0312 -50
      vertex -35.0523 19.2701 -50
    endloop
  endfacet
  facet normal 0 0 -1
    outer loop
      vertex -39.9211 -2.51162 -50
      vertex -35.0523 19.2701 -50
      vertex -33.7731 21.4331 -50
    endloop
  endfacet
  facet normal 0 0 -1
    outer loop
      vertex -39.9211 -2.51162 -50
      vertex -33.7731 21.4331 -50
      vertex -32.3607 23.5114 -50
    endloop
  endfacet
  facet normal 0 0 -1
    outer loop
      vertex -39.9211 -2.51162 -50
      vertex -32.3607 23.5114 -50
      vertex -30.8205 25.497 -50
    endloop
  endfacet
  facet normal 0 0 -1
    outer loop
      vertex -39.9211 -2.51162 -50
      vertex -30.8205 25.497 -50
      vertex -29.1587 27.3819 -50
    endloop
  endfacet
  facet normal 0 0 -1
    outer loop
      vertex -39.9211 -2.51162 -50
      vertex -29.1587 27.3819 -50
      vertex -27.3819 29.1587 -50
    endloop
  endfacet
  facet normal 0 0 -1
    outer loop
      vertex -39.9211 -2.51162 -50
      vertex -27.3819 29.1587 -50
      vertex -25.497 30.8205 -50
    endloop
  endfacet
  facet normal 0 0 -1
    outer loop
      vertex -39.9211 -2.51162 -50
      vertex -25.497 30.8205 -50
      vertex -23.5114 32.3607 -50
    endloop
  endfacet
  facet normal 0 0 -1
    outer loop
      vertex -39.9211 -2.51162 -50
      vertex -23.5114 32.3607 -50
      vertex -21.4331 33.7731 -50
    endloop
  endfacet
  facet normal 0 0 -1
    outer loop
      vertex -39.9211 -2.51162 -50
      vertex -21.4331 33.7731 -50
      vertex -19.2701 35.0523 -50
    endloop
  endfacet
  facet normal 0 0 -1
    outer loop
      vertex -39.9211 -2.51162 -50
      vertex -19.2701 35.0523 -50
      vertex -17.0312 36.1931 -50
    endloop
  endfacet
  facet normal 0 0 -1
    outer loop
      vertex -39.9211 -2.51162 -50
      vertex -17.0312 36.1931 -50
      vertex -14.725 37.1911 -50
    endloop
  endfacet
  facet normal 0 0 -1
    outer loop
      vertex -39.9211 -2.51162 -50
      vertex -14.725 37.1911 -50
      vertex -12.3607 38.0423 -50
    endloop
  endfacet
  facet normal 0 0 -1
    outer loop
      vertex -39.9211 -2.51162 -50
      vertex -12.3607 38.0423 -50
      vertex -9.94759 38.7433 -50
    endloop
  endfacet
  facet normal 0 0 -1
    outer loop
      vertex -39.9211 -2.51162 -50
      vertex -9.94759 38.7433 -50
      vertex -7.49525 39.2915 -50
    endloop
  endfacet
  facet normal 0 0 -1
    outer loop
      vertex -39.9211 -2.51162 -50
      vertex -7.49525 39.2915 -50
      vertex -5.01333 39.6846 -50
    endloop
  endfacet
  facet normal 0 0 -1
    outer loop
      vertex -39.9211 -2.51162 -50
      vertex -5.01333 39.6846 -50
      vertex -2.51162 39.9211 -50
    endloop
  endfacet
  facet normal 0 0 -1
    outer loop
      vertex -39.9211 -2.51162 -50
      vertex -2.51162 39.9211 -50
      vertex 0 40 -50
    endloop
  endfacet
  facet normal 0 0 -1
    outer loop
      vertex -39.9211 -2.51162 -50
      vertex 0 40 -50
      vertex 2.51162 39.9211 -50
    endloop
  endfacet
  facet normal 0 0 -1
    outer loop
      vertex -39.9211 -2.51162 -50
      vertex 2.51162 39.9211 -50
      vertex 5.01333 39.6846 -50
    endloop
  endfacet
  facet normal 0 0 -1
    outer loop
      vertex -39.9211 -2.51162 -50
      vertex 5.01333 39.6846 -50
      vertex 7.49525 39.2915 -50
    endloop
  endfacet
  facet normal 0 0 -1
    outer loop
      vertex -39.9211 -2.51162 -50
      vertex 7.49525 39.2915 -50
      vertex 9.94759 38.7433 -50
    endloop
  endfacet
  facet normal 0 0 -1
    outer loop
      vertex -39.9211 -2.51162 -50
      vertex 9.94759 38.7433 -50
      vertex 12.3607 38.0423 -50
    endloop
  endfacet
  facet normal 0 0 -1
    outer loop
      vertex -39.9211 -2.51162 -50
      vertex 12.3607 38.0423 -50
      vertex 14.725 37.1911 -50
    endloop
  endfacet
  facet normal 0 0 -1
    outer loop
      vertex -39.9211 -2.51162 -50
      vertex 14.725 37.1911 -50
      vertex 17.0312 36.1931 -50
    endloop
  endfacet
  facet normal 0 0 -1
    outer loop
      vertex -39.9211 -2.51162 -50
      vertex 17.0312 36.1931 -50
      vertex 19.2701 35.0523 -50
    endloop
  endfacet
  facet normal 0 0 -1
    outer loop
      vertex -39.9211 -2.51162 -50
      vertex 19.2701 35.0523 -50
      vertex 21.4331 33.7731 -50
    endloop
  endfacet
  facet normal 0 0 -1
    outer loop
      vertex -39.9211 -2.51162 -50
      vertex 21.4331 33.7731 -50
      vertex 23.5114 32.3607 -50
    endloop
  endfacet
  facet normal 0 0 -1
    outer loop
      vertex -39.9211 -2.51162 -50
      vertex 23.5114 32.3607 -50
      vertex 25.497 30.8205 -50
    endloop
  endfacet
  facet normal 0 0 -1
    outer loop
      vertex -39.9211 -2.51162 -50
      vertex 25.497 30.8205 -50
      vertex 27.3819 29.1587 -50
    endloop
  endfacet
  facet normal 0 0 -1
    outer loop
      vertex -39.9211 -2.51162 -50
      vertex 27.3819 29.1587 -50
      vertex 29.1587 27.3819 -50
    endloop
  endfacet
  facet normal 0 0 -1
    outer loop
      vertex -39.9211 -2.51162 -50
      vertex 29.1587 27.3819 -50
      vertex 30.8205 25.497 -50
    endloop
  endfacet
  facet normal 0 0 -1
    outer loop
      vertex -39.9211 -2.51162 -50
      vertex 30.8205 25.497 -50
      vertex 32.3607 23.5114 -50
    endloop
  endfacet
  facet normal 0 0 -1
    outer loop
      vertex -39.9211 -2.51162 -50
      vertex 32.3607 23.5114 -50
      vertex 33.7731 21.4331 -50
    endloop
  endfacet
  facet normal 0 0 -1
    outer loop
      vertex -39.9211 -2.51162 -50
      vertex 33.7731 21.4331 -50
      vertex 35.0523 19.2701 -50
    endloop
  endfacet
  facet normal 0 0 -1
    outer loop
      vertex -39.9211 -2.51162 -50
      vertex 35.0523 19.2701 -50
      vertex 36.1931 17.0312 -50
    endloop
  endfacet
  facet normal 0 0 -1
    outer loop
      vertex -39.9211 -2.51162 -50
      vertex 36.1931 17.0312 -50
      vertex 37.1911 14.725 -50
    endloop
  endfacet
  facet normal 0 0 -1
    outer loop
      vertex -39.9211 -2.51162 -50
      vertex 37.1911 14.725 -50
      vertex 38.0423 12.3607 -50
    endloop
  endfacet
  facet normal 0 0 -1
    outer loop
      vertex -39.9211 -2.51162 -50
      vertex 38.0423 12.3607 -50
      vertex 38.7433 9.94759 -50
    endloop
  endfacet
  facet normal 0 0 -1
    outer loop
      vertex -39.9211 -2.51162 -50
      vertex 38.7433 9.94759 -50
      vertex 39.2915 7.49525 -50
    endloop
  endfacet
  facet normal 0 0 -1
    outer loop
      vertex -39.9211 -2.51162 -50
      vertex 39.2915 7.49525 -50
      vertex 39.6846 5.01333 -50
    endloop
  endfacet
  facet normal 0 0 -1
    outer loop
      vertex -39.9211 -2.51162 -50
      vertex 39.6846 5.01333 -50
      vertex 39.9211 2.51162 -50
    endloop
  endfacet
  facet normal 0 0 -1
    outer loop
      vertex -39.9211 -2.51162 -50
      vertex 39.9211 2.51162 -50
      vertex 40 0 -50
    endloop
  endfacet
  facet normal -0 0 -1
    outer loop
      vertex -39.9211 -2.51162 -50
      vertex 40 0 -50
      vertex 39.9211 -2.51162 -50
    endloop
  endfacet
  facet normal 0 0 -1
    outer loop
      vertex -39.9211 -2.51162 -50
      vertex 39.9211 -2.51162 -50
      vertex 39.6846 -5.01333 -50
    endloop
  endfacet
  facet normal 0 0 -1
    outer loop
      vertex -39.9211 -2.51162 -50
      vertex 39.6846 -5.01333 -50
      vertex 39.2915 -7.49525 -50
    endloop
  endfacet
  facet normal 0 0 -1
    outer loop
      vertex -39.9211 -2.51162 -50
      vertex 39.2915 -7.49525 -50
      vertex 38.7433 -9.94759 -50
    endloop
  endfacet
  facet normal 0 0 -1
    outer loop
      vertex -39.9211 -2.51162 -50
      vertex 38.7433 -9.94759 -50
      vertex 38.0423 -12.3607 -50
    endloop
  endfacet
  facet normal 0 0 -1
    outer loop
      vertex -39.9211 -2.51162 -50
      vertex 38.0423 -12.3607 -50
      vertex 37.1911 -14.725 -50
    endloop
  endfacet
  facet normal 0 0 -1
    outer loop
      vertex -39.9211 -2.51162 -50
      vertex 37.1911 -14.725 -50
      vertex 36.1931 -17.0312 -50
    endloop
  endfacet
  facet normal 0 0 -1
    outer loop
      vertex -39.9211 -2.51162 -50
      vertex 36.1931 -17.0312 -50
      vertex 35.0523 -19.2701 -50
    endloop
  endfacet
  facet normal 0 0 -1
    outer loop
      vertex -39.9211 -2.51162 -50
      vertex 35.0523 -19.2701 -50
      vertex 33.7731 -21.4331 -50
    endloop
  endfacet
  facet normal 0 0 -1
    outer loop
      vertex -39.9211 -2.51162 -50
      vertex 33.7731 -21.4331 -50
      vertex 32.3607 -23.5114 -50
    endloop
  endfacet
  facet normal 0 0 -1
    outer loop
      vertex -39.9211 -2.51162 -50
      vertex 32.3607 -23.5114 -50
      vertex 30.8205 -25.497 -50
    endloop
  endfacet
  facet normal 0 0 -1
    outer loop
      vertex -39.9211 -2.51162 -50
      vertex 30.8205 -25.497 -50
      vertex 29.1587 -27.3819 -50
    endloop
  endfacet
  facet normal 0 0 -1
    outer loop
      vertex -39.9211 -2.51162 -50
      vertex 29.1587 -27.3819 -50
      vertex 27.3819 -29.1587 -50
    endloop
  endfacet
  facet normal 0 0 -1
    outer loop
      vertex -39.9211 -2.51162 -50
      vertex 27.3819 -29.1587 -50
      vertex 25.497 -30.8205 -50
    endloop
  endfacet
  facet normal 0 0 -1
    outer loop
      vertex -39.9211 -2.51162 -50
      vertex 25.497 -30.8205 -50
      vertex 23.5114 -32.3607 -50
    endloop
  endfacet
  facet normal 0 0 -1
    outer loop
      vertex -39.9211 -2.51162 -50
      vertex 23.5114 -32.3607 -50
      vertex 21.4331 -33.7731 -50
    endloop
  endfacet
  facet normal 0 0 -1
    outer loop
      vertex -39.9211 -2.51162 -50
      vertex 21.4331 -33.7731 -50
      vertex 19.2701 -35.0523 -50
    endloop
  endfacet
  facet normal 0 0 -1
    outer loop
      vertex -39.9211 -2.51162 -50
      vertex 19.2701 -35.0523 -50
      vertex 17.0312 -36.1931 -50
    endloop
  endfacet
  facet normal 0 0 -1
    outer loop
      vertex -39.9211 -2.51162 -50
      vertex 17.0312 -36.1931 -50
      vertex 14.725 -37.1911 -50
    endloop
  endfacet
  facet normal 0 0 -1
    outer loop
      vertex -39.9211 -2.51162 -50
      vertex 14.725 -37.1911 -50
      vertex 12.3607 -38.0423 -50
    endloop
  endfacet
  facet normal 0 0 -1
    outer loop
      vertex -39.9211 -2.51162 -50
      vertex 12.3607 -38.0423 -50
      vertex 9.94759 -38.7433 -50
    endloop
  endfacet
  facet normal 0 0 -1
    outer loop
      vertex -39.9211 -2.51162 -50
      vertex 9.94759 -38.7433 -50
      vertex 7.49525 -39.2915 -50
    endloop
  endfacet
  facet normal 0 0 -1
    outer loop
      vertex -39.9211 -2.51162 -50
      vertex 7.49525 -39.2915 -50
      vertex 5.01333 -39.6846 -50
    endloop
  endfacet
  facet normal 0 0 -1
    outer loop
      vertex -39.9211 -2.51162 -50
      vertex 5.01333 -39.6846 -50
      vertex 2.51162 -39.9211 -50
    endloop
  endfacet
  facet normal 0 0 -1
    outer loop
      vertex -39.9211 -2.51162 -50
      vertex 2.51162 -39.9211 -50
      vertex 0 -40 -50
    endloop
  endfacet
  facet normal 0 0 -1
    outer loop
      vertex -39.9211 -2.51162 -50
      vertex 0 -40 -50
      vertex -2.51162 -39.9211 -50
    endloop
  endfacet
  facet normal 0 0 -1
    outer loop
      vertex -39.9211 -2.51162 -50
      vertex -2.51162 -39.9211 -50
      vertex -5.01333 -39.6846 -50
    endloop
  endfacet
  facet normal 0 0 -1
    outer loop
      vertex -39.9211 -2.51162 -50
      vertex -5.01333 -39.6846 -50
      vertex -7.49525 -39.2915 -50
    endloop
  endfacet
  facet normal 0 0 -1
    outer loop
      vertex -39.9211 -2.51162 -50
      vertex -7.49525 -39.2915 -50
      vertex -9.94759 -38.7433 -50
    endloop
  endfacet
  facet normal 0 0 -1
    outer loop
      vertex -39.9211 -2.51162 -50
      vertex -9.94759 -38.7433 -50
      vertex -12.3607 -38.0423 -50
    endloop
  endfacet
  facet normal 0 0 -1
    outer loop
      vertex -39.9211 -2.51162 -50
      vertex -12.3607 -38.0423 -50
      vertex -14.725 -37.1911 -50
    endloop
  endfacet
  facet normal 0 0 -1
    outer loop
      vertex -39.9211 -2.51162 -50
      vertex -14.725 -37.1911 -50
      vertex -17.0312 -36.1931 -50
    endloop
  endfacet
  facet normal 0 0 -1
    outer loop
      vertex -39.9211 -2.51162 -50
      vertex -17.0312 -36.1931 -50
      vertex -19.2701 -35.0523 -50
    endloop
  endfacet
  facet normal 0 0 -1
    outer loop
      vertex -39.9211 -2.51162 -50
      vertex -19.2701 -35.0523 -50
      vertex -21.4331 -33.7731 -50
    endloop
  endfacet
  facet normal 0 0 -1
    outer loop
      vertex -39.9211 -2.51162 -50
      vertex -21.4331 -33.7731 -50
      vertex -23.5114 -32.3607 -50
    endloop
  endfacet
  facet normal 0 0 -1
    outer loop
      vertex -39.9211 -2.51162 -50
      vertex -23.5114 -32.3607 -50
      vertex -25.497 -30.8205 -50
    endloop
  endfacet
  facet normal 0 0 -1
    outer loop
      vertex -39.9211 -2.51162 -50
      vertex -25.497 -30.8205 -50
      vertex -27.3819 -29.1587 -50
    endloop
  endfacet
  facet normal 0 0 -1
    outer loop
      vertex -39.9211 -2.51162 -50
      vertex -27.3819 -29.1587 -50
      vertex -29.1587 -27.3819 -50
    endloop
  endfacet
  facet normal 0 0 -1
    outer loop
      vertex -39.9211 -2.51162 -50
      vertex -29.1587 -27.3819 -50
      vertex -30.8205 -25.497 -50
    endloop
  endfacet
  facet normal 0 0 -1
    outer loop
      vertex -39.9211 -2.51162 -50
      vertex -30.8205 -25.497 -50
      vertex -32.3607 -23.5114 -50
    endloop
  endfacet
  facet normal 0 0 -1
    outer loop
      vertex -39.9211 -2.51162 -50
      vertex -32.3607 -23.5114 -50
      vertex -33.7731 -21.4331 -50
    endloop
  endfacet
  facet normal 0 0 -1
    outer loop
      vertex -39.9211 -2.51162 -50
      vertex -33.7731 -21.4331 -50
      vertex -35.0523 -19.2701 -50
    endloop
  endfacet
  facet normal 0 0 -1
    outer loop
      vertex -39.9211 -2.51162 -50
      vertex -35.0523 -19.2701 -50
      vertex -36.1931 -17.0312 -50
    endloop
  endfacet
  facet normal 0 0 -1
    outer loop
      vertex -39.9211 -2.51162 -50
      vertex -36.1931 -17.0312 -50
      vertex -37.1911 -14.725 -50
    endloop
  endfacet
  facet normal 0 0 -1
    outer loop
      vertex -39.9211 -2.51162 -50
      vertex -37.1911 -14.725 -50
      vertex -38.0423 -12.3607 -50
    endloop
  endfacet
  facet normal 0 0 -1
    outer loop
      vertex -39.9211 -2.51162 -50
      vertex -38.0423 -12.3607 -50
      vertex -38.7433 -9.94759 -50
    endloop
  endfacet
  facet normal 0 0 -1
    outer loop
      vertex -39.9211 -2.51162 -50
      vertex -38.7433 -9.94759 -50
      vertex -39.2915 -7.49525 -50
    endloop
  endfacet
  facet normal 0 0 -1
    outer loop
      vertex -39.9211 -2.51162 -50
      vertex -39.2915 -7.49525 -50
      vertex -39.6846 -5.01333 -50
    endloop
  endfacet
  facet normal -0.999507 0.0314108 0
    outer loop
      vertex -40 0 -50
      vertex -40 0 50
      vertex -39.9211 2.51162 -50
    endloop
  endfacet
  facet normal -0.999507 0.0314108 0
    outer loop
      vertex -39.9211 2.51162 -50
      vertex -40 0 50
      vertex -39.9211 2.51162 50
    endloop
  endfacet
  facet normal -0.999507 -0.0314108 -0
    outer loop
      vertex -40 0 -50
      vertex -39.9211 -2.51162 -50
      vertex -40 0 50
    endloop
  endfacet
  facet normal -0.999507 -0.0314108 0
    outer loop
      vertex -40 0 50
      vertex -39.9211 -2.51162 -50
      vertex -39.9211 -2.51162 50
    endloop
  endfacet
  facet normal -0.995562 -0.0941083 -0
    outer loop
      vertex -39.9211 -2.51162 -50
      vertex -39.6846 -5.01333 -50
      vertex -39.9211 -2.51162 50
    endloop
  endfacet
  facet normal -0.995562 -0.0941083 0
    outer loop
      vertex -39.9211 -2.51162 50
      vertex -39.6846 -5.01333 -50
      vertex -39.6846 -5.01333 50
    endloop
  endfacet
  facet normal -0.987688 -0.156434 -0
    outer loop
      vertex -39.6846 -5.01333 -50
      vertex -39.2915 -7.49525 -50
      vertex -39.6846 -5.01333 50
    endloop
  endfacet
  facet normal -0.987688 -0.156434 0
    outer loop
      vertex -39.6846 -5.01333 50
      vertex -39.2915 -7.49525 -50
      vertex -39.2915 -7.49525 50
    endloop
  endfacet
  facet normal -0.975917 -0.218143 -0
    outer loop
      vertex -39.2915 -7.49525 -50
      vertex -38.7433 -9.94759 -50
      vertex -39.2915 -7.49525 50
    endloop
  endfacet
  facet normal -0.975917 -0.218143 0
    outer loop
      vertex -39.2915 -7.49525 50
      vertex -38.7433 -9.94759 -50
      vertex -38.7433 -9.94759 50
    endloop
  endfacet
  facet normal -0.960294 -0.278991 -0
    outer loop
      vertex -38.7433 -9.94759 -50
      vertex -38.0423 -12.3607 -50
      vertex -38.7433 -9.94759 50
    endloop
  endfacet
  facet normal -0.960294 -0.278991 0
    outer loop
      vertex -38.7433 -9.94759 50
      vertex -38.0423 -12.3607 -50
      vertex -38.0423 -12.3607 50
    endloop
  endfacet
  facet normal -0.940881 -0.338738 -0
    outer loop
      vertex -38.0423 -12.3607 -50
      vertex -37.1911 -14.725 -50
      vertex -38.0423 -12.3607 50
    endloop
  endfacet
  facet normal -0.940881 -0.338738 0
    outer loop
      vertex -38.0423 -12.3607 50
      vertex -37.1911 -14.725 -50
      vertex -37.1911 -14.725 50
    endloop
  endfacet
  facet normal -0.917755 -0.397148 -0
    outer loop
      vertex -37.1911 -14.725 -50
      vertex -36.1931 -17.0312 -50
      vertex -37.1911 -14.725 50
    endloop
  endfacet
  facet normal -0.917755 -0.397148 0
    outer loop
      vertex -37.1911 -14.725 50
      vertex -36.1931 -17.0312 -50
      vertex -36.1931 -17.0312 50
    endloop
  endfacet
  facet normal -0.891006 -0.453991 -0
    outer loop
      vertex -36.1931 -17.0312 -50
      vertex -35.0523 -19.2701 -50
      vertex -36.1931 -17.0312 50
    endloop
  endfacet
  facet normal -0.891006 -0.453991 0
    outer loop
      vertex -36.1931 -17.0312 50
      vertex -35.0523 -19.2701 -50
      vertex -35.0523 -19.2701 50
    endloop
  endfacet
  facet normal -0.860742 -0.509041 -0
    outer loop
      vertex -35.0523 -19.2701 -50
      vertex -33.7731 -21.4331 -50
      vertex -35.0523 -19.2701 50
    endloop
  endfacet
  facet normal -0.860742 -0.509041 0
    outer loop
      vertex -35.0523 -19.2701 50
      vertex -33.7731 -21.4331 -50
      vertex -33.7731 -21.4331 50
    endloop
  endfacet
  facet normal -0.827081 -0.562083 -0
    outer loop
      vertex -33.7731 -21.4331 -50
      vertex -32.3607 -23.5114 -50
      vertex -33.7731 -21.4331 50
    endloop
  endfacet
  facet normal -0.827081 -0.562083 0
    outer loop
      vertex -33.7731 -21.4331 50
      vertex -32.3607 -23.5114 -50
      vertex -32.3607 -23.5114 50
    endloop
  endfacet
  facet normal -0.790155 -0.612907 -0
    outer loop
      vertex -32.3607 -23.5114 -50
      vertex -30.8205 -25.497 -50
      vertex -32.3607 -23.5114 50
    endloop
  endfacet
  facet normal -0.790155 -0.612907 0
    outer loop
      vertex -32.3607 -23.5114 50
      vertex -30.8205 -25.497 -50
      vertex -30.8205 -25.497 50
    endloop
  endfacet
  facet normal -0.750111 -0.661312 -0
    outer loop
      vertex -30.8205 -25.497 -50
      vertex -29.1587 -27.3819 -50
      vertex -30.8205 -25.497 50
    endloop
  endfacet
  facet normal -0.750111 -0.661312 0
    outer loop
      vertex -30.8205 -25.497 50
      vertex -29.1587 -27.3819 -50
      vertex -29.1587 -27.3819 50
    endloop
  endfacet
  facet normal -0.707107 -0.707107 0
    outer loop
      vertex -29.1587 -27.3819 50
      vertex -29.1587 -27.3819 -50
      vertex -27.3819 -29.1587 -50
    endloop
  endfacet
  facet normal -0.707107 -0.707107 0
    outer loop
      vertex -27.3819 -29.1587 50
      vertex -29.1587 -27.3819 50
      vertex -27.3819 -29.1587 -50
    endloop
  endfacet
  facet normal -0.661312 -0.750111 0
    outer loop
      vertex -27.3819 -29.1587 50
      vertex -27.3819 -29.1587 -50
      vertex -25.497 -30.8205 -50
    endloop
  endfacet
  facet normal -0.661312 -0.750111 0
    outer loop
      vertex -25.497 -30.8205 50
      vertex -27.3819 -29.1587 50
      vertex -25.497 -30.8205 -50
    endloop
  endfacet
  facet normal -0.612907 -0.790155 0
    outer loop
      vertex -25.497 -30.8205 50
      vertex -25.497 -30.8205 -50
      vertex -23.5114 -32.3607 -50
    endloop
  endfacet
  facet normal -0.612907 -0.790155 0
    outer loop
      vertex -23.5114 -32.3607 50
      vertex -25.497 -30.8205 50
      vertex -23.5114 -32.3607 -50
    endloop
  endfacet
  facet normal -0.562083 -0.827081 0
    outer loop
      vertex -23.5114 -32.3607 50
      vertex -23.5114 -32.3607 -50
      vertex -21.4331 -33.7731 -50
    endloop
  endfacet
  facet normal -0.562083 -0.827081 0
    outer loop
      vertex -21.4331 -33.7731 50
      vertex -23.5114 -32.3607 50
      vertex -21.4331 -33.7731 -50
    endloop
  endfacet
  facet normal -0.509041 -0.860742 0
    outer loop
      vertex -21.4331 -33.7731 50
      vertex -21.4331 -33.7731 -50
      vertex -19.2701 -35.0523 -50
    endloop
  endfacet
  facet normal -0.509041 -0.860742 0
    outer loop
      vertex -19.2701 -35.0523 50
      vertex -21.4331 -33.7731 50
      vertex -19.2701 -35.0523 -50
    endloop
  endfacet
  facet normal -0.453991 -0.891006 0
    outer loop
      vertex -19.2701 -35.0523 50
      vertex -19.2701 -35.0523 -50
      vertex -17.0312 -36.1931 -50
    endloop
  endfacet
  facet normal -0.453991 -0.891006 0
    outer loop
      vertex -17.0312 -36.1931 50
      vertex -19.2701 -35.0523 50
      vertex -17.0312 -36.1931 -50
    endloop
  endfacet
  facet normal -0.397148 -0.917755 0
    outer loop
      vertex -17.0312 -36.1931 50
      vertex -17.0312 -36.1931 -50
      vertex -14.725 -37.1911 -50
    endloop
  endfacet
  facet normal -0.397148 -0.917755 0
    outer loop
      vertex -14.725 -37.1911 50
      vertex -17.0312 -36.1931 50
      vertex -14.725 -37.1911 -50
    endloop
  endfacet
  facet normal -0.338738 -0.940881 0
    outer loop
      vertex -14.725 -37.1911 50
      vertex -14.725 -37.1911 -50
      vertex -12.3607 -38.0423 -50
    endloop
  endfacet
  facet normal -0.338738 -0.940881 0
    outer loop
      vertex -12.3607 -38.0423 50
      vertex -14.725 -37.1911 50
      vertex -12.3607 -38.0423 -50
    endloop
  endfacet
  facet normal -0.278991 -0.960294 0
    outer loop
      vertex -12.3607 -38.0423 50
      vertex -12.3607 -38.0423 -50
      vertex -9.94759 -38.7433 -50
    endloop
  endfacet
  facet normal -0.278991 -0.960294 0
    outer loop
      vertex -9.94759 -38.7433 50
      vertex -12.3607 -38.0423 50
      vertex -9.94759 -38.7433 -50
    endloop
  endfacet
  facet normal -0.218143 -0.975917 0
    outer loop
      vertex -9.94759 -38.7433 50
      vertex -9.94759 -38.7433 -50
      vertex -7.49525 -39.2915 -50
    endloop
  endfacet
  facet normal -0.218143 -0.975917 0
    outer loop
      vertex -7.49525 -39.2915 50
      vertex -9.94759 -38.7433 50
      vertex -7.49525 -39.2915 -50
    endloop
  endfacet
  facet normal -0.156434 -0.987688 0
    outer loop
      vertex -7.49525 -39.2915 50
      vertex -7.49525 -39.2915 -50
      vertex -5.01333 -39.6846 -50
    endloop
  endfacet
  facet normal -0.156434 -0.987688 0
    outer loop
      vertex -5.01333 -39.6846 50
      vertex -7.49525 -39.2915 50
      vertex -5.01333 -39.6846 -50
    endloop
  endfacet
  facet normal -0.0941083 -0.995562 0
    outer loop
      vertex -5.01333 -39.6846 50
      vertex -5.01333 -39.6846 -50
      vertex -2.51162 -39.9211 -50
    endloop
  endfacet
  facet normal -0.0941083 -0.995562 0
    outer loop
      vertex -2.51162 -39.9211 50
      vertex -5.01333 -39.6846 50
      vertex -2.51162 -39.9211 -50
    endloop
  endfacet
  facet normal -0.0314108 -0.999507 0
    outer loop
      vertex -2.51162 -39.9211 50
      vertex -2.51162 -39.9211 -50
      vertex 0 -40 -50
    endloop
  endfacet
  facet normal -0.0314108 -0.999507 0
    outer loop
      vertex 0 -40 50
      vertex -2.51162 -39.9211 50
      vertex 0 -40 -50
    endloop
  endfacet
  facet normal 0.0314108 -0.999507 0
    outer loop
      vertex 0 -40 50
      vertex 0 -40 -50
      vertex 2.51162 -39.9211 -50
    endloop
  endfacet
  facet normal 0.0314108 -0.999507 0
    outer loop
      vertex 2.51162 -39.9211 50
      vertex 0 -40 50
      vertex 2.51162 -39.9211 -50
    endloop
  endfacet
  facet normal 0.0941083 -0.995562 0
    outer loop
      vertex 2.51162 -39.9211 50
      vertex 2.51162 -39.9211 -50
      vertex 5.01333 -39.6846 -50
    endloop
  endfacet
  facet normal 0.0941083 -0.995562 0
    outer loop
      vertex 5.01333 -39.6846 50
      vertex 2.51162 -39.9211 50
      vertex 5.01333 -39.6846 -50
    endloop
  endfacet
  facet normal 0.156434 -0.987688 0
    outer loop
      vertex 5.01333 -39.6846 50
      vertex 5.01333 -39.6846 -50
      vertex 7.49525 -39.2915 -50
    endloop
  endfacet
  facet normal 0.156434 -0.987688 0
    outer loop
      vertex 7.49525 -39.2915 50
      vertex 5.01333 -39.6846 50
      vertex 7.49525 -39.2915 -50
    endloop
  endfacet
  facet normal 0.218143 -0.975917 0
    outer loop
      vertex 7.49525 -39.2915 50
      vertex 7.49525 -39.2915 -50
      vertex 9.94759 -38.7433 -50
    endloop
  endfacet
  facet normal 0.218143 -0.975917 0
    outer loop
      vertex 9.94759 -38.7433 50
      vertex 7.49525 -39.2915 50
      vertex 9.94759 -38.7433 -50
    endloop
  endfacet
  facet normal 0.278991 -0.960294 0
    outer loop
      vertex 9.94759 -38.7433 50
      vertex 9.94759 -38.7433 -50
      vertex 12.3607 -38.0423 -50
    endloop
  endfacet
  facet normal 0.278991 -0.960294 0
    outer loop
      vertex 12.3607 -38.0423 50
      vertex 9.94759 -38.7433 50
      vertex 12.3607 -38.0423 -50
    endloop
  endfacet
  facet normal 0.338738 -0.940881 0
    outer loop
      vertex 12.3607 -38.0423 50
      vertex 12.3607 -38.0423 -50
      vertex 14.725 -37.1911 -50
    endloop
  endfacet
  facet normal 0.338738 -0.940881 0
    outer loop
      vertex 14.725 -37.1911 50
      vertex 12.3607 -38.0423 50
      vertex 14.725 -37.1911 -50
    endloop
  endfacet
  facet normal 0.397148 -0.917755 0
    outer loop
      vertex 14.725 -37.1911 50
      vertex 14.725 -37.1911 -50
      vertex 17.0312 -36.1931 -50
    endloop
  endfacet
  facet normal 0.397148 -0.917755 0
    outer loop
      vertex 17.0312 -36.1931 50
      vertex 14.725 -37.1911 50
      vertex 17.0312 -36.1931 -50
    endloop
  endfacet
  facet normal 0.453991 -0.891006 0
    outer loop
      vertex 17.0312 -36.1931 50
      vertex 17.0312 -36.1931 -50
      vertex 19.2701 -35.0523 -50
    endloop
  endfacet
  facet normal 0.453991 -0.891006 0
    outer loop
      vertex 19.2701 -35.0523 50
      vertex 17.0312 -36.1931 50
      vertex 19.2701 -35.0523 -50
    endloop
  endfacet
  facet normal 0.509041 -0.860742 0
    outer loop
      vertex 19.2701 -35.0523 50
      vertex 19.2701 -35.0523 -50
      vertex 21.4331 -33.7731 -50
    endloop
  endfacet
  facet normal 0.509041 -0.860742 0
    outer loop
      vertex 21.4331 -33.7731 50
      vertex 19.2701 -35.0523 50
      vertex 21.4331 -33.7731 -50
    endloop
  endfacet
  facet normal 0.562083 -0.827081 0
    outer loop
      vertex 21.4331 -33.7731 50
      vertex 21.4331 -33.7731 -50
      vertex 23.5114 -32.3607 -50
    endloop
  endfacet
  facet normal 0.562083 -0.827081 0
    outer loop
      vertex 23.5114 -32.3607 50
      vertex 21.4331 -33.7731 50
      vertex 23.5114 -32.3607 -50
    endloop
  endfacet
  facet normal 0.612907 -0.790155 0
    outer loop
      vertex 23.5114 -32.3607 50
      vertex 23.5114 -32.3607 -50
      vertex 25.497 -30.8205 -50
    endloop
  endfacet
  facet normal 0.612907 -0.790155 0
    outer loop
      vertex 25.497 -30.8205 50
      vertex 23.5114 -32.3607 50
      vertex 25.497 -30.8205 -50
    endloop
  endfacet
  facet normal 0.661312 -0.750111 0
    outer loop
      vertex 25.497 -30.8205 50
      vertex 25.497 -30.8205 -50
      vertex 27.3819 -29.1587 -50
    endloop
  endfacet
  facet normal 0.661312 -0.750111 0
    outer loop
      vertex 27.3819 -29.1587 50
      vertex 25.497 -30.8205 50
      vertex 27.3819 -29.1587 -50
    endloop
  endfacet
  facet normal 0.707107 -0.707107 0
    outer loop
      vertex 27.3819 -29.1587 50
      vertex 27.3819 -29.1587 -50
      vertex 29.1587 -27.3819 -50
    endloop
  endfacet
  facet normal 0.707107 -0.707107 0
    outer loop
      vertex 29.1587 -27.3819 50
      vertex 27.3819 -29.1587 50
      vertex 29.1587 -27.3819 -50
    endloop
  endfacet
  facet normal 0.750111 -0.661312 0
    outer loop
      vertex 29.1587 -27.3819 50
      vertex 29.1587 -27.3819 -50
      vertex 30.8205 -25.497 -50
    endloop
  endfacet
  facet normal 0.750111 -0.661312 0
    outer loop
      vertex 30.8205 -25.497 50
      vertex 29.1587 -27.3819 50
      vertex 30.8205 -25.497 -50
    endloop
  endfacet
  facet normal 0.790155 -0.612907 0
    outer loop
      vertex 30.8205 -25.497 50
      vertex 30.8205 -25.497 -50
      vertex 32.3607 -23.5114 -50
    endloop
  endfacet
  facet normal 0.790155 -0.612907 0
    outer loop
      vertex 32.3607 -23.5114 50
      vertex 30.8205 -25.497 50
      vertex 32.3607 -23.5114 -50
    endloop
  endfacet
  facet normal 0.827081 -0.562083 0
    outer loop
      vertex 32.3607 -23.5114 50
      vertex 32.3607 -23.5114 -50
      vertex 33.7731 -21.4331 -50
    endloop
  endfacet
  facet normal 0.827081 -0.562083 0
    outer loop
      vertex 33.7731 -21.4331 50
      vertex 32.3607 -23.5114 50
      vertex 33.7731 -21.4331 -50
    endloop
  endfacet
  facet normal 0.860742 -0.509041 0
    outer loop
      vertex 33.7731 -21.4331 50
      vertex 33.7731 -21.4331 -50
      vertex 35.0523 -19.2701 -50
    endloop
  endfacet
  facet normal 0.860742 -0.509041 0
    outer loop
      vertex 35.0523 -19.2701 50
      vertex 33.7731 -21.4331 50
      vertex 35.0523 -19.2701 -50
    endloop
  endfacet
  facet normal 0.891006 -0.453991 0
    outer loop
      vertex 35.0523 -19.2701 50
      vertex 35.0523 -19.2701 -50
      vertex 36.1931 -17.0312 -50
    endloop
  endfacet
  facet normal 0.891006 -0.453991 0
    outer loop
      vertex 36.1931 -17.0312 50
      vertex 35.0523 -19.2701 50
      vertex 36.1931 -17.0312 -50
    endloop
  endfacet
  facet normal 0.917755 -0.397148 0
    outer loop
      vertex 36.1931 -17.0312 50
      vertex 36.1931 -17.0312 -50
      vertex 37.1911 -14.725 -50
    endloop
  endfacet
  facet normal 0.917755 -0.397148 0
    outer loop
      vertex 37.1911 -14.725 50
      vertex 36.1931 -17.0312 50
      vertex 37.1911 -14.725 -50
    endloop
  endfacet
  facet normal 0.940881 -0.338738 0
    outer loop
      vertex 37.1911 -14.725 50
      vertex 37.1911 -14.725 -50
      vertex 38.0423 -12.3607 -50
    endloop
  endfacet
  facet normal 0.940881 -0.338738 0
    outer loop
      vertex 38.0423 -12.3607 50
      vertex 37.1911 -14.725 50
      vertex 38.0423 -12.3607 -50
    endloop
  endfacet
  facet normal 0.960294 -0.278991 0
    outer loop
      vertex 38.0423 -12.3607 50
      vertex 38.0423 -12.3607 -50
      vertex 38.7433 -9.94759 -50
    endloop
  endfacet
  facet normal 0.960294 -0.278991 0
    outer loop
      vertex 38.7433 -9.94759 50
      vertex 38.0423 -12.3607 50
      vertex 38.7433 -9.94759 -50
    endloop
  endfacet
  facet normal 0.975917 -0.218143 0
    outer loop
      vertex 38.7433 -9.94759 50
      vertex 38.7433 -9.94759 -50
      vertex 39.2915 -7.49525 -50
    endloop
  endfacet
  facet normal 0.975917 -0.218143 0
    outer loop
      vertex 39.2915 -7.49525 50
      vertex 38.7433 -9.94759 50
      vertex 39.2915 -7.49525 -50
    endloop
  endfacet
  facet normal 0.987688 -0.156434 0
    outer loop
      vertex 39.2915 -7.49525 50
      vertex 39.2915 -7.49525 -50
      vertex 39.6846 -5.01333 -50
    endloop
  endfacet
  facet normal 0.987688 -0.156434 0
    outer loop
      vertex 39.6846 -5.01333 50
      vertex 39.2915 -7.49525 50
      vertex 39.6846 -5.01333 -50
    endloop
  endfacet
  facet normal 0.995562 -0.0941083 0
    outer loop
      vertex 39.6846 -5.01333 50
      vertex 39.6846 -5.01333 -50
      vertex 39.9211 -2.51162 -50
    endloop
  endfacet
  facet normal 0.995562 -0.0941083 0
    outer loop
      vertex 39.9211 -2.51162 50
      vertex 39.6846 -5.01333 50
      vertex 39.9211 -2.51162 -50
    endloop
  endfacet
  facet normal 0.999507 -0.0314108 0
    outer loop
      vertex 39.9211 -2.51162 50
      vertex 39.9211 -2.51162 -50
      vertex 40 0 -50
    endloop
  endfacet
  facet normal 0.999507 -0.0314108 0
    outer loop
      vertex 40 0 50
      vertex 39.9211 -2.51162 50
      vertex 40 0 -50
    endloop
  endfacet
  facet normal 0.999507 0.0314108 0
    outer loop
      vertex 40 0 -50
      vertex 39.9211 2.51162 -50
      vertex 39.9211 2.51162 50
    endloop
  endfacet
  facet normal 0.999507 0.0314108 -0
    outer loop
      vertex 40 0 50
      vertex 40 0 -50
      vertex 39.9211 2.51162 50
    endloop
  endfacet
  facet normal 0.995562 0.0941083 0
    outer loop
      vertex 39.9211 2.51162 -50
      vertex 39.6846 5.01333 -50
      vertex 39.6846 5.01333 50
    endloop
  endfacet
  facet normal 0.995562 0.0941083 -0
    outer loop
      vertex 39.9211 2.51162 50
      vertex 39.9211 2.51162 -50
      vertex 39.6846 5.01333 50
    endloop
  endfacet
  facet normal 0.987688 0.156434 0
    outer loop
      vertex 39.6846 5.01333 -50
      vertex 39.2915 7.49525 -50
      vertex 39.2915 7.49525 50
    endloop
  endfacet
  facet normal 0.987688 0.156434 -0
    outer loop
      vertex 39.6846 5.01333 50
      vertex 39.6846 5.01333 -50
      vertex 39.2915 7.49525 50
    endloop
  endfacet
  facet normal 0.975917 0.218143 0
    outer loop
      vertex 39.2915 7.49525 -50
      vertex 38.7433 9.94759 -50
      vertex 38.7433 9.94759 50
    endloop
  endfacet
  facet normal 0.975917 0.218143 -0
    outer loop
      vertex 39.2915 7.49525 50
      vertex 39.2915 7.49525 -50
      vertex 38.7433 9.94759 50
    endloop
  endfacet
  facet normal 0.960294 0.278991 0
    outer loop
      vertex 38.7433 9.94759 -50
      vertex 38.0423 12.3607 -50
      vertex 38.0423 12.3607 50
    endloop
  endfacet
  facet normal 0.960294 0.278991 -0
    outer loop
      vertex 38.7433 9.94759 50
      vertex 38.7433 9.94759 -50
      vertex 38.0423 12.3607 50
    endloop
  endfacet
  facet normal 0.940881 0.338738 0
    outer loop
      vertex 38.0423 12.3607 -50
      vertex 37.1911 14.725 -50
      vertex 37.1911 14.725 50
    endloop
  endfacet
  facet normal 0.940881 0.338738 -0
    outer loop
      vertex 38.0423 12.3607 50
      vertex 38.0423 12.3607 -50
      vertex 37.1911 14.725 50
    endloop
  endfacet
  facet normal 0.917755 0.397148 0
    outer loop
      vertex 37.1911 14.725 -50
      vertex 36.1931 17.0312 -50
      vertex 36.1931 17.0312 50
    endloop
  endfacet
  facet normal 0.917755 0.397148 -0
    outer loop
      vertex 37.1911 14.725 50
      vertex 37.1911 14.725 -50
      vertex 36.1931 17.0312 50
    endloop
  endfacet
  facet normal 0.891006 0.453991 0
    outer loop
      vertex 36.1931 17.0312 -50
      vertex 35.0523 19.2701 -50
      vertex 35.0523 19.2701 50
    endloop
  endfacet
  facet normal 0.891006 0.453991 -0
    outer loop
      vertex 36.1931 17.0312 50
      vertex 36.1931 17.0312 -50
      vertex 35.0523 19.2701 50
    endloop
  endfacet
  facet normal 0.860742 0.509041 0
    outer loop
      vertex 35.0523 19.2701 -50
      vertex 33.7731 21.4331 -50
      vertex 33.7731 21.4331 50
    endloop
  endfacet
  facet normal 0.860742 0.509041 -0
    outer loop
      vertex 35.0523 19.2701 50
      vertex 35.0523 19.2701 -50
      vertex 33.7731 21.4331 50
    endloop
  endfacet
  facet normal 0.827081 0.562083 0
    outer loop
      vertex 33.7731 21.4331 -50
      vertex 32.3607 23.5114 -50
      vertex 32.3607 23.5114 50
    endloop
  endfacet
  facet normal 0.827081 0.562083 -0
    outer loop
      vertex 33.7731 21.4331 50
      vertex 33.7731 21.4331 -50
      vertex 32.3607 23.5114 50
    endloop
  endfacet
  facet normal 0.790155 0.612907 0
    outer loop
      vertex 32.3607 23.5114 -50
      vertex 30.8205 25.497 -50
      vertex 30.8205 25.497 50
    endloop
  endfacet
  facet normal 0.790155 0.612907 -0
    outer loop
      vertex 32.3607 23.5114 50
      vertex 32.3607 23.5114 -50
      vertex 30.8205 25.497 50
    endloop
  endfacet
  facet normal 0.750111 0.661312 0
    outer loop
      vertex 30.8205 25.497 -50
      vertex 29.1587 27.3819 -50
      vertex 29.1587 27.3819 50
    endloop
  endfacet
  facet normal 0.750111 0.661312 -0
    outer loop
      vertex 30.8205 25.497 50
      vertex 30.8205 25.497 -50
      vertex 29.1587 27.3819 50
    endloop
  endfacet
  facet normal 0.707107 0.707107 0
    outer loop
      vertex 27.3819 29.1587 -50
      vertex 27.3819 29.1587 50
      vertex 29.1587 27.3819 -50
    endloop
  endfacet
  facet normal 0.707107 0.707107 0
    outer loop
      vertex 29.1587 27.3819 -50
      vertex 27.3819 29.1587 50
      vertex 29.1587 27.3819 50
    endloop
  endfacet
  facet normal 0.661312 0.750111 0
    outer loop
      vertex 25.497 30.8205 -50
      vertex 25.497 30.8205 50
      vertex 27.3819 29.1587 -50
    endloop
  endfacet
  facet normal 0.661312 0.750111 0
    outer loop
      vertex 27.3819 29.1587 -50
      vertex 25.497 30.8205 50
      vertex 27.3819 29.1587 50
    endloop
  endfacet
  facet normal 0.612907 0.790155 0
    outer loop
      vertex 23.5114 32.3607 -50
      vertex 23.5114 32.3607 50
      vertex 25.497 30.8205 -50
    endloop
  endfacet
  facet normal 0.612907 0.790155 0
    outer loop
      vertex 25.497 30.8205 -50
      vertex 23.5114 32.3607 50
      vertex 25.497 30.8205 50
    endloop
  endfacet
  facet normal 0.562083 0.827081 0
    outer loop
      vertex 21.4331 33.7731 -50
      vertex 21.4331 33.7731 50
      vertex 23.5114 32.3607 -50
    endloop
  endfacet
  facet normal 0.562083 0.827081 0
    outer loop
      vertex 23.5114 32.3607 -50
      vertex 21.4331 33.7731 50
      vertex 23.5114 32.3607 50
    endloop
  endfacet
  facet normal 0.509041 0.860742 0
    outer loop
      vertex 19.2701 35.0523 -50
      vertex 19.2701 35.0523 50
      vertex 21.4331 33.7731 -50
    endloop
  endfacet
  facet normal 0.509041 0.860742 0
    outer loop
      vertex 21.4331 33.7731 -50
      vertex 19.2701 35.0523 50
      vertex 21.4331 33.7731 50
    endloop
  endfacet
  facet normal 0.453991 0.891006 0
    outer loop
      vertex 17.0312 36.1931 -50
      vertex 17.0312 36.1931 50
      vertex 19.2701 35.0523 -50
    endloop
  endfacet
  facet normal 0.453991 0.891006 0
    outer loop
      vertex 19.2701 35.0523 -50
      vertex 17.0312 36.1931 50
      vertex 19.2701 35.0523 50
    endloop
  endfacet
  facet normal 0.397148 0.917755 0
    outer loop
      vertex 14.725 37.1911 -50
      vertex 14.725 37.1911 50
      vertex 17.0312 36.1931 -50
    endloop
  endfacet
  facet normal 0.397148 0.917755 0
    outer loop
      vertex 17.0312 36.1931 -50
      vertex 14.725 37.1911 50
      vertex 17.0312 36.1931 50
    endloop
  endfacet
  facet normal 0.338738 0.940881 0
    outer loop
      vertex 12.3607 38.0423 -50
      vertex 12.3607 38.0423 50
      vertex 14.725 37.1911 -50
    endloop
  endfacet
  facet normal 0.338738 0.940881 0
    outer loop
      vertex 14.725 37.1911 -50
      vertex 12.3607 38.0423 50
      vertex 14.725 37.1911 50
    endloop
  endfacet
  facet normal 0.278991 0.960294 0
    outer loop
      vertex 9.94759 38.7433 -50
      vertex 9.94759 38.7433 50
      vertex 12.3607 38.0423 -50
    endloop
  endfacet
  facet normal 0.278991 0.960294 0
    outer loop
      vertex 12.3607 38.0423 -50
      vertex 9.94759 38.7433 50
      vertex 12.3607 38.0423 50
    endloop
  endfacet
  facet normal 0.218143 0.975917 0
    outer loop
      vertex 7.49525 39.2915 -50
      vertex 7.49525 39.2915 50
      vertex 9.94759 38.7433 -50
    endloop
  endfacet
  facet normal 0.218143 0.975917 0
    outer loop
      vertex 9.94759 38.7433 -50
      vertex 7.49525 39.2915 50
      vertex 9.94759 38.7433 50
    endloop
  endfacet
  facet normal 0.156434 0.987688 0
    outer loop
      vertex 5.01333 39.6846 -50
      vertex 5.01333 39.6846 50
      vertex 7.49525 39.2915 -50
    endloop
  endfacet
  facet normal 0.156434 0.987688 0
    outer loop
      vertex 7.49525 39.2915 -50
      vertex 5.01333 39.6846 50
      vertex 7.49525 39.2915 50
    endloop
  endfacet
  facet normal 0.0941083 0.995562 0
    outer loop
      vertex 2.51162 39.9211 -50
      vertex 2.51162 39.9211 50
      vertex 5.01333 39.6846 -50
    endloop
  endfacet
  facet normal 0.0941083 0.995562 0
    outer loop
      vertex 5.01333 39.6846 -50
      vertex 2.51162 39.9211 50
      vertex 5.01333 39.6846 50
    endloop
  endfacet
  facet normal 0.0314108 0.999507 0
    outer loop
      vertex 0 40 -50
      vertex 0 40 50
      vertex 2.51162 39.9211 -50
    endloop
  endfacet
  facet normal 0.0314108 0.999507 0
    outer loop
      vertex 2.51162 39.9211 -50
      vertex 0 40 50
      vertex 2.51162 39.9211 50
    endloop
  endfacet
  facet normal -0.0314108 0.999507 0
    outer loop
      vertex -2.51162 39.9211 -50
      vertex -2.51162 39.9211 50
      vertex 0 40 -50
    endloop
  endfacet
  facet normal -0.0314108 0.999507 0
    outer loop
      vertex 0 40 -50
      vertex -2.51162 39.9211 50
      vertex 0 40 50
    endloop
  endfacet
  facet normal -0.0941083 0.995562 0
    outer loop
      vertex -5.01333 39.6846 -50
      vertex -5.01333 39.6846 50
      vertex -2.51162 39.9211 -50
    endloop
  endfacet
  facet normal -0.0941083 0.995562 0
    outer loop
      vertex -2.51162 39.9211 -50
      vertex -5.01333 39.6846 50
      vertex -2.51162 39.9211 50
    endloop
  endfacet
  facet normal -0.156434 0.987688 0
    outer loop
      vertex -7.49525 39.2915 -50
      vertex -7.49525 39.2915 50
      vertex -5.01333 39.6846 -50
    endloop
  endfacet
  facet normal -0.156434 0.987688 0
    outer loop
      vertex -5.01333 39.6846 -50
      vertex -7.49525 39.2915 50
      vertex -5.01333 39.6846 50
    endloop
  endfacet
  facet normal -0.218143 0.975917 0
    outer loop
      vertex -9.94759 38.7433 -50
      vertex -9.94759 38.7433 50
      vertex -7.49525 39.2915 -50
    endloop
  endfacet
  facet normal -0.218143 0.975917 0
    outer loop
      vertex -7.49525 39.2915 -50
      vertex -9.94759 38.7433 50
      vertex -7.49525 39.2915 50
    endloop
  endfacet
  facet normal -0.278991 0.960294 0
    outer loop
      vertex -12.3607 38.0423 -50
      vertex -12.3607 38.0423 50
      vertex -9.94759 38.7433 -50
    endloop
  endfacet
  facet normal -0.278991 0.960294 0
    outer loop
      vertex -9.94759 38.7433 -50
      vertex -12.3607 38.0423 50
      vertex -9.94759 38.7433 50
    endloop
  endfacet
  facet normal -0.338738 0.940881 0
    outer loop
      vertex -14.725 37.1911 -50
      vertex -14.725 37.1911 50
      vertex -12.3607 38.0423 -50
    endloop
  endfacet
  facet normal -0.338738 0.940881 0
    outer loop
      vertex -12.3607 38.0423 -50
      vertex -14.725 37.1911 50
      vertex -12.3607 38.0423 50
    endloop
  endfacet
  facet normal -0.397148 0.917755 0
    outer loop
      vertex -17.0312 36.1931 -50
      vertex -17.0312 36.1931 50
      vertex -14.725 37.1911 -50
    endloop
  endfacet
  facet normal -0.397148 0.917755 0
    outer loop
      vertex -14.725 37.1911 -50
      vertex -17.0312 36.1931 50
      vertex -14.725 37.1911 50
    endloop
  endfacet
  facet normal -0.453991 0.891006 0
    outer loop
      vertex -19.2701 35.0523 -50
      vertex -19.2701 35.0523 50
      vertex -17.0312 36.1931 -50
    endloop
  endfacet
  facet normal -0.453991 0.891006 0
    outer loop
      vertex -17.0312 36.1931 -50
      vertex -19.2701 35.0523 50
      vertex -17.0312 36.1931 50
    endloop
  endfacet
  facet normal -0.509041 0.860742 0
    outer loop
      vertex -21.4331 33.7731 -50
      vertex -21.4331 33.7731 50
      vertex -19.2701 35.0523 -50
    endloop
  endfacet
  facet normal -0.509041 0.860742 0
    outer loop
      vertex -19.2701 35.0523 -50
      vertex -21.4331 33.7731 50
      vertex -19.2701 35.0523 50
    endloop
  endfacet
  facet normal -0.562083 0.827081 0
    outer loop
      vertex -23.5114 32.3607 -50
      vertex -23.5114 32.3607 50
      vertex -21.4331 33.7731 -50
    endloop
  endfacet
  facet normal -0.562083 0.827081 0
    outer loop
      vertex -21.4331 33.7731 -50
      vertex -23.5114 32.3607 50
      vertex -21.4331 33.7731 50
    endloop
  endfacet
  facet normal -0.612907 0.790155 0
    outer loop
      vertex -25.497 30.8205 -50
      vertex -25.497 30.8205 50
      vertex -23.5114 32.3607 -50
    endloop
  endfacet
  facet normal -0.612907 0.790155 0
    outer loop
      vertex -23.5114 32.3607 -50
      vertex -25.497 30.8205 50
      vertex -23.5114 32.3607 50
    endloop
  endfacet
  facet normal -0.661312 0.750111 0
    outer loop
      vertex -27.3819 29.1587 -50
      vertex -27.3819 29.1587 50
      vertex -25.497 30.8205 -50
    endloop
  endfacet
  facet normal -0.661312 0.750111 0
    outer loop
      vertex -25.497 30.8205 -50
      vertex -27.3819 29.1587 50
      vertex -25.497 30.8205 50
    endloop
  endfacet
  facet normal -0.707107 0.707107 0
    outer loop
      vertex -29.1587 27.3819 -50
      vertex -29.1587 27.3819 50
      vertex -27.3819 29.1587 -50
    endloop
  endfacet
  facet normal -0.707107 0.707107 0
    outer loop
      vertex -27.3819 29.1587 -50
      vertex -29.1587 27.3819 50
      vertex -27.3819 29.1587 50
    endloop
  endfacet
  facet normal -0.750111 0.661312 0
    outer loop
      vertex -30.8205 25.497 -50
      vertex -30.8205 25.497 50
      vertex -29.1587 27.3819 -50
    endloop
  endfacet
  facet normal -0.750111 0.661312 0
    outer loop
      vertex -29.1587 27.3819 -50
      vertex -30.8205 25.497 50
      vertex -29.1587 27.3819 50
    endloop
  endfacet
  facet normal -0.790155 0.612907 0
    outer loop
      vertex -32.3607 23.5114 -50
      vertex -32.3607 23.5114 50
      vertex -30.8205 25.497 -50
    endloop
  endfacet
  facet normal -0.790155 0.612907 0
    outer loop
      vertex -30.8205 25.497 -50
      vertex -32.3607 23.5114 50
      vertex -30.8205 25.497 50
    endloop
  endfacet
  facet normal -0.827081 0.562083 0
    outer loop
      vertex -33.7731 21.4331 -50
      vertex -33.7731 21.4331 50
      vertex -32.3607 23.5114 -50
    endloop
  endfacet
  facet normal -0.827081 0.562083 0
    outer loop
      vertex -32.3607 23.5114 -50
      vertex -33.7731 21.4331 50
      vertex -32.3607 23.5114 50
    endloop
  endfacet
  facet normal -0.860742 0.509041 0
    outer loop
      vertex -35.0523 19.2701 -50
      vertex -35.0523 19.2701 50
      vertex -33.7731 21.4331 -50
    endloop
  endfacet
  facet normal -0.860742 0.509041 0
    outer loop
      vertex -33.7731 21.4331 -50
      vertex -35.0523 19.2701 50
      vertex -33.7731 21.4331 50
    endloop
  endfacet
  facet normal -0.891006 0.453991 0
    outer loop
      vertex -36.1931 17.0312 -50
      vertex -36.1931 17.0312 50
      vertex -35.0523 19.2701 -50
    endloop
  endfacet
  facet normal -0.891006 0.453991 0
    outer loop
      vertex -35.0523 19.2701 -50
      vertex -36.1931 17.0312 50
      vertex -35.0523 19.2701 50
    endloop
  endfacet
  facet normal -0.917755 0.397148 0
    outer loop
      vertex -37.1911 14.725 -50
      vertex -37.1911 14.725 50
      vertex -36.1931 17.0312 -50
    endloop
  endfacet
  facet normal -0.917755 0.397148 0
    outer loop
      vertex -36.1931 17.0312 -50
      vertex -37.1911 14.725 50
      vertex -36.1931 17.0312 50
    endloop
  endfacet
  facet normal -0.940881 0.338738 0
    outer loop
      vertex -38.0423 12.3607 -50
      vertex -38.0423 12.3607 50
      vertex -37.1911 14.725 -50
    endloop
  endfacet
  facet normal -0.940881 0.338738 0
    outer loop
      vertex -37.1911 14.725 -50
      vertex -38.0423 12.3607 50
      vertex -37.1911 14.725 50
    endloop
  endfacet
  facet normal -0.960294 0.278991 0
    outer loop
      vertex -38.7433 9.94759 -50
      vertex -38.7433 9.94759 50
      vertex -38.0423 12.3607 -50
    endloop
  endfacet
  facet normal -0.960294 0.278991 0
    outer loop
      vertex -38.0423 12.3607 -50
      vertex -38.7433 9.94759 50
      vertex -38.0423 12.3607 50
    endloop
  endfacet
  facet normal -0.975917 0.218143 0
    outer loop
      vertex -39.2915 7.49525 -50
      vertex -39.2915 7.49525 50
      vertex -38.7433 9.94759 -50
    endloop
  endfacet
  facet normal -0.975917 0.218143 0
    outer loop
      vertex -38.7433 9.94759 -50
      vertex -39.2915 7.49525 50
      vertex -38.7433 9.94759 50
    endloop
  endfacet
  facet normal -0.987688 0.156434 0
    outer loop
      vertex -39.6846 5.01333 -50
      vertex -39.6846 5.01333 50
      vertex -39.2915 7.49525 -50
    endloop
  endfacet
  facet normal -0.987688 0.156434 0
    outer loop
      vertex -39.2915 7.49525 -50
      vertex -39.6846 5.01333 50
      vertex -39.2915 7.49525 50
    endloop
  endfacet
  facet normal -0.995562 0.0941083 0
    outer loop
      vertex -39.9211 2.51162 -50
      vertex -39.9211 2.51162 50
      vertex -39.6846 5.01333 -50
    endloop
  endfacet
  facet normal -0.995562 0.0941083 0
    outer loop
      vertex -39.6846 5.01333 -50
      vertex -39.9211 2.51162 50
      vertex -39.6846 5.01333 50
    endloop
  endfacet
  facet normal 0 0 1
    outer loop
      vertex -39.9211 2.51162 50
      vertex -40 0 50
      vertex -39.9211 -2.51162 50
    endloop
  endfacet
  facet normal 0 0 1
    outer loop
      vertex -39.2915 -7.49525 50
      vertex -39.9211 2.51162 50
      vertex -39.6846 -5.01333 50
    endloop
  endfacet
  facet normal 0 0 1
    outer loop
      vertex -39.6846 -5.01333 50
      vertex -39.9211 2.51162 50
      vertex -39.9211 -2.51162 50
    endloop
  endfacet
  facet normal 0 0 1
    outer loop
      vertex -38.7433 -9.94759 50
      vertex -39.9211 2.51162 50
      vertex -39.2915 -7.49525 50
    endloop
  endfacet
  facet normal 0 0 1
    outer loop
      vertex -38.0423 -12.3607 50
      vertex -39.9211 2.51162 50
      vertex -38.7433 -9.94759 50
    endloop
  endfacet
  facet normal 0 0 1
    outer loop
      vertex -37.1911 -14.725 50
      vertex -39.9211 2.51162 50
      vertex -38.0423 -12.3607 50
    endloop
  endfacet
  facet normal 0 0 1
    outer loop
      vertex -36.1931 -17.0312 50
      vertex -39.9211 2.51162 50
      vertex -37.1911 -14.725 50
    endloop
  endfacet
  facet normal 0 0 1
    outer loop
      vertex -35.0523 -19.2701 50
      vertex -39.9211 2.51162 50
      vertex -36.1931 -17.0312 50
    endloop
  endfacet
  facet normal 0 0 1
    outer loop
      vertex -33.7731 -21.4331 50
      vertex -39.9211 2.51162 50
      vertex -35.0523 -19.2701 50
    endloop
  endfacet
  facet normal 0 0 1
    outer loop
      vertex -32.3607 -23.5114 50
      vertex -39.9211 2.51162 50
      vertex -33.7731 -21.4331 50
    endloop
  endfacet
  facet normal 0 0 1
    outer loop
      vertex -30.8205 -25.497 50
      vertex -39.9211 2.51162 50
      vertex -32.3607 -23.5114 50
    endloop
  endfacet
  facet normal 0 0 1
    outer loop
      vertex -29.1587 -27.3819 50
      vertex -39.9211 2.51162 50
      vertex -30.8205 -25.497 50
    endloop
  endfacet
  facet normal 0 0 1
    outer loop
      vertex -27.3819 -29.1587 50
      vertex -39.9211 2.51162 50
      vertex -29.1587 -27.3819 50
    endloop
  endfacet
  facet normal 0 0 1
    outer loop
      vertex -25.497 -30.8205 50
      vertex -39.9211 2.51162 50
      vertex -27.3819 -29.1587 50
    endloop
  endfacet
  facet normal 0 0 1
    outer loop
      vertex -23.5114 -32.3607 50
      vertex -39.9211 2.51162 50
      vertex -25.497 -30.8205 50
    endloop
  endfacet
  facet normal -0 -0 1
    outer loop
      vertex -28.2843 -21.2132 50
      vertex -39.9211 2.51162 50
      vertex -23.5114 -32.3607 50
    endloop
  endfacet
  facet normal 0 0 1
    outer loop
      vertex -28.2843 -21.2132 50
      vertex -29 -5 50
      vertex -39.9211 2.51162 50
    endloop
  endfacet
  facet normal 0 0 1
    outer loop
      vertex -28.2843 -21.2132 50
      vertex -12.0711 -5 50
      vertex -29 -5 50
    endloop
  endfacet
  facet normal 0 0 1
    outer loop
      vertex -21.2132 -28.2843 50
      vertex -19.2701 -35.0523 50
      vertex -17.0312 -36.1931 50
    endloop
  endfacet
  facet normal 0 -0 1
    outer loop
      vertex -21.2132 -28.2843 50
      vertex -21.4331 -33.7731 50
      vertex -19.2701 -35.0523 50
    endloop
  endfacet
  facet normal -0 0 1
    outer loop
      vertex -21.2132 -28.2843 50
      vertex -28.2843 -21.2132 50
      vertex -21.4331 -33.7731 50
    endloop
  endfacet
  facet normal 0 0 1
    outer loop
      vertex -5 -29 50
      vertex 2.51162 -39.9211 50
      vertex 5.01333 -39.6846 50
    endloop
  endfacet
  facet normal 0 0 1
    outer loop
      vertex -5 -29 50
      vertex 0 -40 50
      vertex 2.51162 -39.9211 50
    endloop
  endfacet
  facet normal 0 0 1
    outer loop
      vertex 12.0711 -5 50
      vertex 36.1931 -17.0312 50
      vertex 37.1911 -14.725 50
    endloop
  endfacet
  facet normal 0 0 1
    outer loop
      vertex 12.0711 -5 50
      vertex 37.1911 -14.725 50
      vertex 38.0423 -12.3607 50
    endloop
  endfacet
  facet normal -0 -0 1
    outer loop
      vertex 29 -5 50
      vertex 12.0711 -5 50
      vertex 39.2915 -7.49525 50
    endloop
  endfacet
  facet normal 0 0 1
    outer loop
      vertex 28.2843 21.2132 50
      vertex 35.0523 19.2701 50
      vertex 33.7731 21.4331 50
    endloop
  endfacet
  facet normal 0 -0 1
    outer loop
      vertex 5 -12.0711 50
      vertex 5 -29 50
      vertex 17.0312 -36.1931 50
    endloop
  endfacet
  facet normal 0 0 1
    outer loop
      vertex 5 29 50
      vertex 23.5114 32.3607 50
      vertex 21.4331 33.7731 50
    endloop
  endfacet
  facet normal 0 0 1
    outer loop
      vertex 5 29 50
      vertex 21.4331 33.7731 50
      vertex 19.2701 35.0523 50
    endloop
  endfacet
  facet normal 0 0 1
    outer loop
      vertex -5 -12.0711 50
      vertex -9.94759 -38.7433 50
      vertex -7.49525 -39.2915 50
    endloop
  endfacet
  facet normal 0 0 1
    outer loop
      vertex -5 29 50
      vertex 14.725 37.1911 50
      vertex 12.3607 38.0423 50
    endloop
  endfacet
  facet normal 0 0 1
    outer loop
      vertex -5 29 50
      vertex 12.3607 38.0423 50
      vertex 9.94759 38.7433 50
    endloop
  endfacet
  facet normal 0 0 1
    outer loop
      vertex -5 -12.0711 50
      vertex -12.3607 -38.0423 50
      vertex -9.94759 -38.7433 50
    endloop
  endfacet
  facet normal 0 0 1
    outer loop
      vertex -5 -12.0711 50
      vertex -14.725 -37.1911 50
      vertex -12.3607 -38.0423 50
    endloop
  endfacet
  facet normal 0 0 1
    outer loop
      vertex -5 -12.0711 50
      vertex -21.2132 -28.2843 50
      vertex -14.725 -37.1911 50
    endloop
  endfacet
  facet normal 0 0 1
    outer loop
      vertex -21.2132 28.2843 50
      vertex -9.94759 38.7433 50
      vertex -12.3607 38.0423 50
    endloop
  endfacet
  facet normal 0 0 1
    outer loop
      vertex -21.2132 28.2843 50
      vertex -12.3607 38.0423 50
      vertex -14.725 37.1911 50
    endloop
  endfacet
  facet normal 0 0 1
    outer loop
      vertex -28.2843 21.2132 50
      vertex -17.0312 36.1931 50
      vertex -19.2701 35.0523 50
    endloop
  endfacet
  facet normal 0 0 1
    outer loop
      vertex 21.2132 28.2843 50
      vertex 29.1587 27.3819 50
      vertex 27.3819 29.1587 50
    endloop
  endfacet
  facet normal 0 0 1
    outer loop
      vertex 5 29 50
      vertex 21.2132 28.2843 50
      vertex 25.497 30.8205 50
    endloop
  endfacet
  facet normal 0 0 1
    outer loop
      vertex 5 29 50
      vertex 25.497 30.8205 50
      vertex 23.5114 32.3607 50
    endloop
  endfacet
  facet normal 0 0 1
    outer loop
      vertex -5 29 50
      vertex 5 29 50
      vertex 17.0312 36.1931 50
    endloop
  endfacet
  facet normal 0 0 1
    outer loop
      vertex -21.2132 28.2843 50
      vertex -5 29 50
      vertex 7.49525 39.2915 50
    endloop
  endfacet
  facet normal 0 0 1
    outer loop
      vertex -21.2132 28.2843 50
      vertex 7.49525 39.2915 50
      vertex 5.01333 39.6846 50
    endloop
  endfacet
  facet normal 0 0 1
    outer loop
      vertex -21.2132 28.2843 50
      vertex 5.01333 39.6846 50
      vertex 2.51162 39.9211 50
    endloop
  endfacet
  facet normal 0 0 1
    outer loop
      vertex -21.2132 28.2843 50
      vertex 2.51162 39.9211 50
      vertex 0 40 50
    endloop
  endfacet
  facet normal 0 0 1
    outer loop
      vertex -21.2132 28.2843 50
      vertex 0 40 50
      vertex -2.51162 39.9211 50
    endloop
  endfacet
  facet normal 0 0 1
    outer loop
      vertex -21.2132 28.2843 50
      vertex -2.51162 39.9211 50
      vertex -5.01333 39.6846 50
    endloop
  endfacet
  facet normal 0 0 1
    outer loop
      vertex -21.2132 28.2843 50
      vertex -7.49525 39.2915 50
      vertex -9.94759 38.7433 50
    endloop
  endfacet
  facet normal 0 -0 1
    outer loop
      vertex -23.5114 32.3607 50
      vertex -39.9211 2.51162 50
      vertex -21.4331 33.7731 50
    endloop
  endfacet
  facet normal 0 -0 1
    outer loop
      vertex -25.497 30.8205 50
      vertex -39.9211 2.51162 50
      vertex -23.5114 32.3607 50
    endloop
  endfacet
  facet normal 0 -0 1
    outer loop
      vertex -27.3819 29.1587 50
      vertex -39.9211 2.51162 50
      vertex -25.497 30.8205 50
    endloop
  endfacet
  facet normal 0 -0 1
    outer loop
      vertex -29.1587 27.3819 50
      vertex -39.9211 2.51162 50
      vertex -27.3819 29.1587 50
    endloop
  endfacet
  facet normal 0 -0 1
    outer loop
      vertex -30.8205 25.497 50
      vertex -39.9211 2.51162 50
      vertex -29.1587 27.3819 50
    endloop
  endfacet
  facet normal 0 -0 1
    outer loop
      vertex -32.3607 23.5114 50
      vertex -39.9211 2.51162 50
      vertex -30.8205 25.497 50
    endloop
  endfacet
  facet normal 0 -0 1
    outer loop
      vertex -33.7731 21.4331 50
      vertex -39.9211 2.51162 50
      vertex -32.3607 23.5114 50
    endloop
  endfacet
  facet normal 0 -0 1
    outer loop
      vertex -35.0523 19.2701 50
      vertex -39.9211 2.51162 50
      vertex -33.7731 21.4331 50
    endloop
  endfacet
  facet normal 0 -0 1
    outer loop
      vertex -36.1931 17.0312 50
      vertex -39.9211 2.51162 50
      vertex -35.0523 19.2701 50
    endloop
  endfacet
  facet normal 0 -0 1
    outer loop
      vertex -37.1911 14.725 50
      vertex -39.9211 2.51162 50
      vertex -36.1931 17.0312 50
    endloop
  endfacet
  facet normal 0 -0 1
    outer loop
      vertex -38.0423 12.3607 50
      vertex -39.9211 2.51162 50
      vertex -37.1911 14.725 50
    endloop
  endfacet
  facet normal 0 -0 1
    outer loop
      vertex -38.7433 9.94759 50
      vertex -39.9211 2.51162 50
      vertex -38.0423 12.3607 50
    endloop
  endfacet
  facet normal 0 -0 1
    outer loop
      vertex -39.2915 7.49525 50
      vertex -39.9211 2.51162 50
      vertex -38.7433 9.94759 50
    endloop
  endfacet
  facet normal 0 -0 1
    outer loop
      vertex -39.6846 5.01333 50
      vertex -39.9211 2.51162 50
      vertex -39.2915 7.49525 50
    endloop
  endfacet
  facet normal 0 0 1
    outer loop
      vertex -5 -29 50
      vertex -2.51162 -39.9211 50
      vertex 0 -40 50
    endloop
  endfacet
  facet normal 0 0 1
    outer loop
      vertex 29 5 50
      vertex 40 0 50
      vertex 39.9211 2.51162 50
    endloop
  endfacet
  facet normal 0 -0 1
    outer loop
      vertex -21.4331 33.7731 50
      vertex -28.2843 21.2132 50
      vertex -19.2701 35.0523 50
    endloop
  endfacet
  facet normal 0 0 1
    outer loop
      vertex -21.4331 33.7731 50
      vertex -39.9211 2.51162 50
      vertex -28.2843 21.2132 50
    endloop
  endfacet
  facet normal 0 -0 1
    outer loop
      vertex -17.0312 36.1931 50
      vertex -21.2132 28.2843 50
      vertex -14.725 37.1911 50
    endloop
  endfacet
  facet normal 0 0 1
    outer loop
      vertex -21.2132 28.2843 50
      vertex -5.01333 39.6846 50
      vertex -7.49525 39.2915 50
    endloop
  endfacet
  facet normal 0 0 1
    outer loop
      vertex 21.2132 28.2843 50
      vertex 28.2843 21.2132 50
      vertex 32.3607 23.5114 50
    endloop
  endfacet
  facet normal 0 -0 1
    outer loop
      vertex 7.49525 39.2915 50
      vertex -5 29 50
      vertex 9.94759 38.7433 50
    endloop
  endfacet
  facet normal 0 -0 1
    outer loop
      vertex 17.0312 36.1931 50
      vertex 5 29 50
      vertex 19.2701 35.0523 50
    endloop
  endfacet
  facet normal 0 0 1
    outer loop
      vertex 28.2843 21.2132 50
      vertex 36.1931 17.0312 50
      vertex 35.0523 19.2701 50
    endloop
  endfacet
  facet normal 0 0 1
    outer loop
      vertex 12.0711 -5 50
      vertex 28.2843 -21.2132 50
      vertex 33.7731 -21.4331 50
    endloop
  endfacet
  facet normal 0 0 1
    outer loop
      vertex -28.2843 21.2132 50
      vertex -21.2132 28.2843 50
      vertex -17.0312 36.1931 50
    endloop
  endfacet
  facet normal 0 -0 1
    outer loop
      vertex 25.497 30.8205 50
      vertex 21.2132 28.2843 50
      vertex 27.3819 29.1587 50
    endloop
  endfacet
  facet normal 0 -0 1
    outer loop
      vertex 32.3607 23.5114 50
      vertex 28.2843 21.2132 50
      vertex 33.7731 21.4331 50
    endloop
  endfacet
  facet normal 0 -0 1
    outer loop
      vertex 39.2915 7.49525 50
      vertex 12.0711 5 50
      vertex 39.6846 5.01333 50
    endloop
  endfacet
  facet normal 0 0 1
    outer loop
      vertex 12.0711 5 50
      vertex 29 5 50
      vertex 39.6846 5.01333 50
    endloop
  endfacet
  facet normal -0 0 1
    outer loop
      vertex 39.6846 -5.01333 50
      vertex 29 -5 50
      vertex 39.2915 -7.49525 50
    endloop
  endfacet
  facet normal 0 0 1
    outer loop
      vertex -5 29 50
      vertex 17.0312 36.1931 50
      vertex 14.725 37.1911 50
    endloop
  endfacet
  facet normal -0 0 1
    outer loop
      vertex 39.2915 -7.49525 50
      vertex 12.0711 -5 50
      vertex 38.7433 -9.94759 50
    endloop
  endfacet
  facet normal 0 0 1
    outer loop
      vertex 28.2843 21.2132 50
      vertex 37.1911 14.725 50
      vertex 36.1931 17.0312 50
    endloop
  endfacet
  facet normal -0 0 1
    outer loop
      vertex 33.7731 -21.4331 50
      vertex 28.2843 -21.2132 50
      vertex 32.3607 -23.5114 50
    endloop
  endfacet
  facet normal -0 0 1
    outer loop
      vertex 27.3819 -29.1587 50
      vertex 21.2132 -28.2843 50
      vertex 25.497 -30.8205 50
    endloop
  endfacet
  facet normal 0 0 1
    outer loop
      vertex -5 -12.0711 50
      vertex -7.49525 -39.2915 50
      vertex -5.01333 -39.6846 50
    endloop
  endfacet
  facet normal -0 0 1
    outer loop
      vertex 17.0312 -36.1931 50
      vertex 5 -29 50
      vertex 14.725 -37.1911 50
    endloop
  endfacet
  facet normal -0 0 1
    outer loop
      vertex 7.49525 -39.2915 50
      vertex -5 -29 50
      vertex 5.01333 -39.6846 50
    endloop
  endfacet
  facet normal 0 0 1
    outer loop
      vertex 29 5 50
      vertex 39.9211 2.51162 50
      vertex 39.6846 5.01333 50
    endloop
  endfacet
  facet normal 0 0 1
    outer loop
      vertex -14.725 -37.1911 50
      vertex -21.2132 -28.2843 50
      vertex -17.0312 -36.1931 50
    endloop
  endfacet
  facet normal 0 0 1
    outer loop
      vertex -21.4331 -33.7731 50
      vertex -28.2843 -21.2132 50
      vertex -23.5114 -32.3607 50
    endloop
  endfacet
  facet normal 0 0 1
    outer loop
      vertex 28.2843 -21.2132 50
      vertex 30.8205 -25.497 50
      vertex 32.3607 -23.5114 50
    endloop
  endfacet
  facet normal 0 0 1
    outer loop
      vertex -5 12.0711 50
      vertex -5 29 50
      vertex -21.2132 28.2843 50
    endloop
  endfacet
  facet normal 0 0 1
    outer loop
      vertex 5 12.0711 50
      vertex 21.2132 28.2843 50
      vertex 5 29 50
    endloop
  endfacet
  facet normal 0 0 1
    outer loop
      vertex -5 -12.0711 50
      vertex -5.01333 -39.6846 50
      vertex -5 -29 50
    endloop
  endfacet
  facet normal 0 0 1
    outer loop
      vertex 5 -12.0711 50
      vertex 19.2701 -35.0523 50
      vertex 21.4331 -33.7731 50
    endloop
  endfacet
  facet normal 0 0 1
    outer loop
      vertex 5 -12.0711 50
      vertex 21.4331 -33.7731 50
      vertex 23.5114 -32.3607 50
    endloop
  endfacet
  facet normal 0 0 1
    outer loop
      vertex 5 -12.0711 50
      vertex 23.5114 -32.3607 50
      vertex 21.2132 -28.2843 50
    endloop
  endfacet
  facet normal 0 0 1
    outer loop
      vertex 21.2132 -28.2843 50
      vertex 23.5114 -32.3607 50
      vertex 25.497 -30.8205 50
    endloop
  endfacet
  facet normal 0 -0 1
    outer loop
      vertex -5 -29 50
      vertex -5.01333 -39.6846 50
      vertex -2.51162 -39.9211 50
    endloop
  endfacet
  facet normal -0 -0 1
    outer loop
      vertex 5 -29 50
      vertex -5 -29 50
      vertex 7.49525 -39.2915 50
    endloop
  endfacet
  facet normal 0 0 1
    outer loop
      vertex 5 -29 50
      vertex 7.49525 -39.2915 50
      vertex 9.94759 -38.7433 50
    endloop
  endfacet
  facet normal 0 0 1
    outer loop
      vertex 5 -29 50
      vertex 9.94759 -38.7433 50
      vertex 12.3607 -38.0423 50
    endloop
  endfacet
  facet normal 0 0 1
    outer loop
      vertex 5 -29 50
      vertex 12.3607 -38.0423 50
      vertex 14.725 -37.1911 50
    endloop
  endfacet
  facet normal 0 0 1
    outer loop
      vertex 12.0711 -5 50
      vertex 38.0423 -12.3607 50
      vertex 38.7433 -9.94759 50
    endloop
  endfacet
  facet normal 0 0 1
    outer loop
      vertex 5 -12.0711 50
      vertex 17.0312 -36.1931 50
      vertex 19.2701 -35.0523 50
    endloop
  endfacet
  facet normal 0 0 1
    outer loop
      vertex 28.2843 -21.2132 50
      vertex 21.2132 -28.2843 50
      vertex 27.3819 -29.1587 50
    endloop
  endfacet
  facet normal 0 -0 1
    outer loop
      vertex 28.2843 -21.2132 50
      vertex 27.3819 -29.1587 50
      vertex 29.1587 -27.3819 50
    endloop
  endfacet
  facet normal 0 0 1
    outer loop
      vertex 28.2843 -21.2132 50
      vertex 29.1587 -27.3819 50
      vertex 30.8205 -25.497 50
    endloop
  endfacet
  facet normal 0 0 1
    outer loop
      vertex -29 -5 50
      vertex -29 5 50
      vertex -39.9211 2.51162 50
    endloop
  endfacet
  facet normal 0 0 1
    outer loop
      vertex 28.2843 21.2132 50
      vertex 38.0423 12.3607 50
      vertex 37.1911 14.725 50
    endloop
  endfacet
  facet normal 0 0 1
    outer loop
      vertex 28.2843 21.2132 50
      vertex 38.7433 9.94759 50
      vertex 38.0423 12.3607 50
    endloop
  endfacet
  facet normal 0 0 1
    outer loop
      vertex 28.2843 21.2132 50
      vertex 39.2915 7.49525 50
      vertex 38.7433 9.94759 50
    endloop
  endfacet
  facet normal 0 -0 1
    outer loop
      vertex 28.2843 21.2132 50
      vertex 12.0711 5 50
      vertex 39.2915 7.49525 50
    endloop
  endfacet
  facet normal 0 0 1
    outer loop
      vertex 21.2132 28.2843 50
      vertex 32.3607 23.5114 50
      vertex 30.8205 25.497 50
    endloop
  endfacet
  facet normal 0 0 1
    outer loop
      vertex 21.2132 28.2843 50
      vertex 30.8205 25.497 50
      vertex 29.1587 27.3819 50
    endloop
  endfacet
  facet normal 0 0 1
    outer loop
      vertex 12.0711 -5 50
      vertex 33.7731 -21.4331 50
      vertex 35.0523 -19.2701 50
    endloop
  endfacet
  facet normal 0 0 1
    outer loop
      vertex 12.0711 -5 50
      vertex 35.0523 -19.2701 50
      vertex 36.1931 -17.0312 50
    endloop
  endfacet
  facet normal 0 -0 1
    outer loop
      vertex 29 5 50
      vertex 29 -5 50
      vertex 39.6846 -5.01333 50
    endloop
  endfacet
  facet normal 0 0 1
    outer loop
      vertex 29 5 50
      vertex 39.6846 -5.01333 50
      vertex 39.9211 -2.51162 50
    endloop
  endfacet
  facet normal 0 0 1
    outer loop
      vertex 29 5 50
      vertex 39.9211 -2.51162 50
      vertex 40 0 50
    endloop
  endfacet
  facet normal -0 0 1
    outer loop
      vertex -29 5 50
      vertex -28.2843 21.2132 50
      vertex -39.9211 2.51162 50
    endloop
  endfacet
  facet normal 0 0 1
    outer loop
      vertex -12.0711 5 50
      vertex -28.2843 21.2132 50
      vertex -29 5 50
    endloop
  endfacet
  facet normal 5.24651e-17 1 -0
    outer loop
      vertex -12.0711 -5 50
      vertex -12.0711 -5 -45
      vertex -29 -5 50
    endloop
  endfacet
  facet normal 5.24651e-17 1 -0
    outer loop
      vertex -29 -5 50
      vertex -12.0711 -5 -45
      vertex -29 -5 -45
    endloop
  endfacet
  facet normal 1 -3.55271e-16 0
    outer loop
      vertex -29 -5 50
      vertex -29 -5 -45
      vertex -29 5 -45
    endloop
  endfacet
  facet normal 1 -3.55271e-16 0
    outer loop
      vertex -29 5 50
      vertex -29 -5 50
      vertex -29 5 -45
    endloop
  endfacet
  facet normal 0.707107 -0.707107 0
    outer loop
      vertex -12.0711 -5 -45
      vertex -12.0711 -5 50
      vertex -28.2843 -21.2132 50
    endloop
  endfacet
  facet normal 0.707107 -0.707107 0
    outer loop
      vertex -28.2843 -21.2132 -45
      vertex -12.0711 -5 -45
      vertex -28.2843 -21.2132 50
    endloop
  endfacet
  facet normal 0.707107 0.707107 0
    outer loop
      vertex -28.2843 -21.2132 50
      vertex -21.2132 -28.2843 50
      vertex -21.2132 -28.2843 -45
    endloop
  endfacet
  facet normal 0.707107 0.707107 0
    outer loop
      vertex -28.2843 -21.2132 -45
      vertex -28.2843 -21.2132 50
      vertex -21.2132 -28.2843 -45
    endloop
  endfacet
  facet normal -0.707107 0.707107 0
    outer loop
      vertex -5 -12.0711 50
      vertex -5 -12.0711 -45
      vertex -21.2132 -28.2843 50
    endloop
  endfacet
  facet normal -0.707107 0.707107 0
    outer loop
      vertex -21.2132 -28.2843 50
      vertex -5 -12.0711 -45
      vertex -21.2132 -28.2843 -45
    endloop
  endfacet
  facet normal 1 -1.0493e-16 0
    outer loop
      vertex -5 -12.0711 -45
      vertex -5 -12.0711 50
      vertex -5 -29 50
    endloop
  endfacet
  facet normal 1 -1.0493e-16 0
    outer loop
      vertex -5 -29 -45
      vertex -5 -12.0711 -45
      vertex -5 -29 50
    endloop
  endfacet
  facet normal 3.55271e-16 1 0
    outer loop
      vertex -5 -29 -45
      vertex -5 -29 50
      vertex 5 -29 -45
    endloop
  endfacet
  facet normal 3.55271e-16 1 0
    outer loop
      vertex 5 -29 -45
      vertex -5 -29 50
      vertex 5 -29 50
    endloop
  endfacet
  facet normal -1 1.0493e-16 0
    outer loop
      vertex 5 -12.0711 50
      vertex 5 -12.0711 -45
      vertex 5 -29 50
    endloop
  endfacet
  facet normal -1 1.0493e-16 0
    outer loop
      vertex 5 -29 50
      vertex 5 -12.0711 -45
      vertex 5 -29 -45
    endloop
  endfacet
  facet normal 0.707107 0.707107 0
    outer loop
      vertex 5 -12.0711 50
      vertex 21.2132 -28.2843 50
      vertex 21.2132 -28.2843 -45
    endloop
  endfacet
  facet normal 0.707107 0.707107 0
    outer loop
      vertex 5 -12.0711 -45
      vertex 5 -12.0711 50
      vertex 21.2132 -28.2843 -45
    endloop
  endfacet
  facet normal -0.707107 0.707107 0
    outer loop
      vertex 28.2843 -21.2132 50
      vertex 28.2843 -21.2132 -45
      vertex 21.2132 -28.2843 50
    endloop
  endfacet
  facet normal -0.707107 0.707107 0
    outer loop
      vertex 21.2132 -28.2843 50
      vertex 28.2843 -21.2132 -45
      vertex 21.2132 -28.2843 -45
    endloop
  endfacet
  facet normal -0.707107 -0.707107 0
    outer loop
      vertex 28.2843 -21.2132 50
      vertex 12.0711 -5 50
      vertex 28.2843 -21.2132 -45
    endloop
  endfacet
  facet normal -0.707107 -0.707107 0
    outer loop
      vertex 28.2843 -21.2132 -45
      vertex 12.0711 -5 50
      vertex 12.0711 -5 -45
    endloop
  endfacet
  facet normal 1.57395e-16 1 -0
    outer loop
      vertex 29 -5 50
      vertex 29 -5 -45
      vertex 12.0711 -5 50
    endloop
  endfacet
  facet normal 1.57395e-16 1 -0
    outer loop
      vertex 12.0711 -5 50
      vertex 29 -5 -45
      vertex 12.0711 -5 -45
    endloop
  endfacet
  facet normal -1 3.55271e-16 0
    outer loop
      vertex 29 -5 -45
      vertex 29 -5 50
      vertex 29 5 -45
    endloop
  endfacet
  facet normal -1 3.55271e-16 0
    outer loop
      vertex 29 5 -45
      vertex 29 -5 50
      vertex 29 5 50
    endloop
  endfacet
  facet normal -1.57395e-16 -1 -0
    outer loop
      vertex 29 5 -45
      vertex 29 5 50
      vertex 12.0711 5 50
    endloop
  endfacet
  facet normal -1.57395e-16 -1 -0
    outer loop
      vertex 12.0711 5 -45
      vertex 29 5 -45
      vertex 12.0711 5 50
    endloop
  endfacet
  facet normal -0.707107 0.707107 0
    outer loop
      vertex 28.2843 21.2132 50
      vertex 28.2843 21.2132 -45
      vertex 12.0711 5 50
    endloop
  endfacet
  facet normal -0.707107 0.707107 0
    outer loop
      vertex 12.0711 5 50
      vertex 28.2843 21.2132 -45
      vertex 12.0711 5 -45
    endloop
  endfacet
  facet normal -0.707107 -0.707107 0
    outer loop
      vertex 28.2843 21.2132 50
      vertex 21.2132 28.2843 50
      vertex 28.2843 21.2132 -45
    endloop
  endfacet
  facet normal -0.707107 -0.707107 0
    outer loop
      vertex 28.2843 21.2132 -45
      vertex 21.2132 28.2843 50
      vertex 21.2132 28.2843 -45
    endloop
  endfacet
  facet normal 0.707107 -0.707107 0
    outer loop
      vertex 21.2132 28.2843 -45
      vertex 21.2132 28.2843 50
      vertex 5 12.0711 50
    endloop
  endfacet
  facet normal 0.707107 -0.707107 0
    outer loop
      vertex 5 12.0711 -45
      vertex 21.2132 28.2843 -45
      vertex 5 12.0711 50
    endloop
  endfacet
  facet normal -1 0 0
    outer loop
      vertex 5 29 50
      vertex 5 29 -45
      vertex 5 12.0711 50
    endloop
  endfacet
  facet normal -1 0 0
    outer loop
      vertex 5 12.0711 50
      vertex 5 29 -45
      vertex 5 12.0711 -45
    endloop
  endfacet
  facet normal 0 -1 0
    outer loop
      vertex -5 29 50
      vertex -5 29 -45
      vertex 5 29 -45
    endloop
  endfacet
  facet normal 0 -1 0
    outer loop
      vertex 5 29 50
      vertex -5 29 50
      vertex 5 29 -45
    endloop
  endfacet
  facet normal 1 0 0
    outer loop
      vertex -5 29 -45
      vertex -5 29 50
      vertex -5 12.0711 50
    endloop
  endfacet
  facet normal 1 0 0
    outer loop
      vertex -5 12.0711 -45
      vertex -5 29 -45
      vertex -5 12.0711 50
    endloop
  endfacet
  facet normal -0.707107 -0.707107 0
    outer loop
      vertex -5 12.0711 50
      vertex -21.2132 28.2843 50
      vertex -5 12.0711 -45
    endloop
  endfacet
  facet normal -0.707107 -0.707107 0
    outer loop
      vertex -5 12.0711 -45
      vertex -21.2132 28.2843 50
      vertex -21.2132 28.2843 -45
    endloop
  endfacet
  facet normal 0.707107 -0.707107 0
    outer loop
      vertex -21.2132 28.2843 -45
      vertex -21.2132 28.2843 50
      vertex -28.2843 21.2132 50
    endloop
  endfacet
  facet normal 0.707107 -0.707107 0
    outer loop
      vertex -28.2843 21.2132 -45
      vertex -21.2132 28.2843 -45
      vertex -28.2843 21.2132 50
    endloop
  endfacet
  facet normal 0.707107 0.707107 0
    outer loop
      vertex -28.2843 21.2132 50
      vertex -12.0711 5 50
      vertex -12.0711 5 -45
    endloop
  endfacet
  facet normal 0.707107 0.707107 0
    outer loop
      vertex -28.2843 21.2132 -45
      vertex -28.2843 21.2132 50
      vertex -12.0711 5 -45
    endloop
  endfacet
  facet normal -5.24651e-17 -1 -0
    outer loop
      vertex -12.0711 5 -45
      vertex -12.0711 5 50
      vertex -29 5 50
    endloop
  endfacet
  facet normal -5.24651e-17 -1 -0
    outer loop
      vertex -29 5 -45
      vertex -12.0711 5 -45
      vertex -29 5 50
    endloop
  endfacet
  facet normal 0 0 1
    outer loop
      vertex -12.0711 -5 -45
      vertex -28.2843 -21.2132 -45
      vertex -21.2132 -28.2843 -45
    endloop
  endfacet
  facet normal 0 0 1
    outer loop
      vertex 5 -12.0711 -45
      vertex -12.0711 -5 -45
      vertex -5 -12.0711 -45
    endloop
  endfacet
  facet normal -0 0 1
    outer loop
      vertex -5 -12.0711 -45
      vertex -12.0711 -5 -45
      vertex -21.2132 -28.2843 -45
    endloop
  endfacet
  facet normal 0 -0 1
    outer loop
      vertex -5 12.0711 -45
      vertex -12.0711 -5 -45
      vertex 5 29 -45
    endloop
  endfacet
  facet normal 0 0 1
    outer loop
      vertex 5 -29 -45
      vertex -5 -12.0711 -45
      vertex -5 -29 -45
    endloop
  endfacet
  facet normal -0 0 1
    outer loop
      vertex 5 -12.0711 -45
      vertex -5 -12.0711 -45
      vertex 5 -29 -45
    endloop
  endfacet
  facet normal 0 0 1
    outer loop
      vertex 28.2843 -21.2132 -45
      vertex -12.0711 -5 -45
      vertex 5 -12.0711 -45
    endloop
  endfacet
  facet normal -0 0 1
    outer loop
      vertex 28.2843 -21.2132 -45
      vertex 5 -12.0711 -45
      vertex 21.2132 -28.2843 -45
    endloop
  endfacet
  facet normal -0 -0 1
    outer loop
      vertex 12.0711 -5 -45
      vertex -12.0711 -5 -45
      vertex 28.2843 -21.2132 -45
    endloop
  endfacet
  facet normal -0 -0 8.11985e-17
    outer loop
      vertex 2.07107 -5 -45
      vertex -12.0711 -5 -45
      vertex 12.0711 -5 -45
    endloop
  endfacet
  facet normal 0 0 1
    outer loop
      vertex 29 5 -45
      vertex 12.0711 -5 -45
      vertex 29 -5 -45
    endloop
  endfacet
  facet normal -0 0 1
    outer loop
      vertex -2.07107 -5 -45
      vertex -5 -2.07107 -45
      vertex -12.0711 -5 -45
    endloop
  endfacet
  facet normal 0 -0 1
    outer loop
      vertex 5 12.0711 -45
      vertex 2.07107 5 -45
      vertex 21.2132 28.2843 -45
    endloop
  endfacet
  facet normal -0 0 1
    outer loop
      vertex -12.0711 5 -45
      vertex -29 5 -45
      vertex -29 -5 -45
    endloop
  endfacet
  facet normal -0 0 1
    outer loop
      vertex -5 -2.07107 -45
      vertex -5 2.07107 -45
      vertex -12.0711 -5 -45
    endloop
  endfacet
  facet normal 0 -0 1
    outer loop
      vertex -5 29 -45
      vertex -5 12.0711 -45
      vertex 5 29 -45
    endloop
  endfacet
  facet normal 0 0 1
    outer loop
      vertex -28.2843 21.2132 -45
      vertex -12.0711 5 -45
      vertex -5 12.0711 -45
    endloop
  endfacet
  facet normal 0 -0 1
    outer loop
      vertex 5 2.07107 -45
      vertex 5 -2.07107 -45
      vertex 29 5 -45
    endloop
  endfacet
  facet normal 0 0 1
    outer loop
      vertex 5 29 -45
      vertex -12.0711 -5 -45
      vertex -5 2.07107 -45
    endloop
  endfacet
  facet normal 0 0 1
    outer loop
      vertex 5 29 -45
      vertex -2.07107 5 -45
      vertex 5 12.0711 -45
    endloop
  endfacet
  facet normal 0 0 1
    outer loop
      vertex 5 29 -45
      vertex -5 2.07107 -45
      vertex -2.07107 5 -45
    endloop
  endfacet
  facet normal 0 -0 1
    outer loop
      vertex 21.2132 28.2843 -45
      vertex 2.07107 5 -45
      vertex 28.2843 21.2132 -45
    endloop
  endfacet
  facet normal 0 0 1
    outer loop
      vertex -2.07107 5 -45
      vertex 2.07107 5 -45
      vertex 5 12.0711 -45
    endloop
  endfacet
  facet normal 0 0 1
    outer loop
      vertex 28.2843 21.2132 -45
      vertex 5 2.07107 -45
      vertex 12.0711 5 -45
    endloop
  endfacet
  facet normal 0 0 1
    outer loop
      vertex 29 5 -45
      vertex 5 -2.07107 -45
      vertex 12.0711 -5 -45
    endloop
  endfacet
  facet normal 0 -0 1
    outer loop
      vertex 5 -2.07107 -45
      vertex 2.07107 -5 -45
      vertex 12.0711 -5 -45
    endloop
  endfacet
  facet normal 0 -0 8.88178e-17
    outer loop
      vertex -2.07107 -5 -45
      vertex -12.0711 -5 -45
      vertex 2.07107 -5 -45
    endloop
  endfacet
  facet normal 0 0 1
    outer loop
      vertex 2.07107 5 -45
      vertex 5 2.07107 -45
      vertex 28.2843 21.2132 -45
    endloop
  endfacet
  facet normal 0 0 1
    outer loop
      vertex 5 2.07107 -45
      vertex 29 5 -45
      vertex 12.0711 5 -45
    endloop
  endfacet
  facet normal 0 0 1
    outer loop
      vertex -28.2843 21.2132 -45
      vertex -5 12.0711 -45
      vertex -21.2132 28.2843 -45
    endloop
  endfacet
  facet normal 0 -0 1
    outer loop
      vertex -12.0711 5 -45
      vertex -12.0711 -5 -45
      vertex -5 12.0711 -45
    endloop
  endfacet
  facet normal 0 0 1
    outer loop
      vertex -29 -5 -45
      vertex -12.0711 -5 -45
      vertex -12.0711 5 -45
    endloop
  endfacet
  facet normal -1 2.14425e-16 0
    outer loop
      vertex -5 2.07107 50
      vertex -5 2.07107 -45
      vertex -5 -2.07107 50
    endloop
  endfacet
  facet normal -1 2.14425e-16 0
    outer loop
      vertex -5 -2.07107 50
      vertex -5 2.07107 -45
      vertex -5 -2.07107 -45
    endloop
  endfacet
  facet normal -0.707107 0.707107 0
    outer loop
      vertex -2.07107 5 50
      vertex -2.07107 5 -45
      vertex -5 2.07107 50
    endloop
  endfacet
  facet normal -0.707107 0.707107 0
    outer loop
      vertex -5 2.07107 50
      vertex -2.07107 5 -45
      vertex -5 2.07107 -45
    endloop
  endfacet
  facet normal -0.707107 -0.707107 0
    outer loop
      vertex -2.07107 -5 50
      vertex -5 -2.07107 50
      vertex -2.07107 -5 -45
    endloop
  endfacet
  facet normal -0.707107 -0.707107 0
    outer loop
      vertex -2.07107 -5 -45
      vertex -5 -2.07107 50
      vertex -5 -2.07107 -45
    endloop
  endfacet
  facet normal -2.14425e-16 -1 -0
    outer loop
      vertex 2.07107 -5 -45
      vertex 2.07107 -5 50
      vertex -2.07107 -5 50
    endloop
  endfacet
  facet normal -2.14425e-16 -1 -0
    outer loop
      vertex -2.07107 -5 -45
      vertex 2.07107 -5 -45
      vertex -2.07107 -5 50
    endloop
  endfacet
  facet normal 0.707107 -0.707107 0
    outer loop
      vertex 5 -2.07107 -45
      vertex 5 -2.07107 50
      vertex 2.07107 -5 50
    endloop
  endfacet
  facet normal 0.707107 -0.707107 0
    outer loop
      vertex 2.07107 -5 -45
      vertex 5 -2.07107 -45
      vertex 2.07107 -5 50
    endloop
  endfacet
  facet normal 1 -2.14425e-16 0
    outer loop
      vertex 5 2.07107 -45
      vertex 5 2.07107 50
      vertex 5 -2.07107 50
    endloop
  endfacet
  facet normal 1 -2.14425e-16 0
    outer loop
      vertex 5 -2.07107 -45
      vertex 5 2.07107 -45
      vertex 5 -2.07107 50
    endloop
  endfacet
  facet normal 0.707107 0.707107 0
    outer loop
      vertex 2.07107 5 50
      vertex 5 2.07107 50
      vertex 5 2.07107 -45
    endloop
  endfacet
  facet normal 0.707107 0.707107 0
    outer loop
      vertex 2.07107 5 -45
      vertex 2.07107 5 50
      vertex 5 2.07107 -45
    endloop
  endfacet
  facet normal 0 1 0
    outer loop
      vertex 2.07107 5 50
      vertex 2.07107 5 -45
      vertex -2.07107 5 50
    endloop
  endfacet
  facet normal 0 1 -0
    outer loop
      vertex -2.07107 5 50
      vertex 2.07107 5 -45
      vertex -2.07107 5 -45
    endloop
  endfacet
  facet normal 0 -0 1
    outer loop
      vertex -5 2.07107 50
      vertex -5 -2.07107 50
      vertex -2.07107 -5 50
    endloop
  endfacet
  facet normal -0 0 1
    outer loop
      vertex 5 -2.07107 50
      vertex -5 2.07107 50
      vertex 2.07107 -5 50
    endloop
  endfacet
  facet normal 0 0 1
    outer loop
      vertex 2.07107 -5 50
      vertex -5 2.07107 50
      vertex -2.07107 -5 50
    endloop
  endfacet
  facet normal -0 0 1
    outer loop
      vertex 5 2.07107 50
      vertex -5 2.07107 50
      vertex 5 -2.07107 50
    endloop
  endfacet
  facet normal 0 -0 1
    outer loop
      vertex 2.07107 5 50
      vertex -5 2.07107 50
      vertex 5 2.07107 50
    endloop
  endfacet
  facet normal 0 -0 1
    outer loop
      vertex -2.07107 5 50
      vertex -5 2.07107 50
      vertex 2.07107 5 50
    endloop
  endfacet
endsolid OpenSCAD_Model
