solid OpenSCAD_Model
  facet normal -0.707096 -0.707118 0
    outer loop
      vertex -63.748 45.119 0
      vertex -31.771 13.143 0
      vertex -31.771 13.143 10
    endloop
  endfacet
  facet normal -0.707096 -0.707118 0
    outer loop
      vertex -63.748 45.119 10
      vertex -63.748 45.119 0
      vertex -31.771 13.143 10
    endloop
  endfacet
  facet normal 0.0146985 0.999892 0
    outer loop
      vertex -64.968 13.631 10
      vertex -31.771 13.143 10
      vertex -64.968 13.631 0
    endloop
  endfacet
  facet normal 0.0146985 0.999892 0
    outer loop
      vertex -64.968 13.631 0
      vertex -31.771 13.143 10
      vertex -31.771 13.143 0
    endloop
  endfacet
  facet normal 0 0 -1
    outer loop
      vertex -71.315 8.261 0
      vertex -69.85 11.19 0
      vertex -71.559 -8.094 0
    endloop
  endfacet
  facet normal 0 0 -1
    outer loop
      vertex -71.559 -8.094 0
      vertex -69.85 11.19 0
      vertex -68.142 12.898 0
    endloop
  endfacet
  facet normal 0 0 -1
    outer loop
      vertex -71.559 -8.094 0
      vertex -68.142 12.898 0
      vertex -64.968 13.631 0
    endloop
  endfacet
  facet normal 0 0 -1
    outer loop
      vertex -71.559 -8.094 0
      vertex -64.968 13.631 0
      vertex -31.771 13.143 0
    endloop
  endfacet
  facet normal 0 0 -1
    outer loop
      vertex -63.748 45.119 0
      vertex -65.945 47.56 0
      vertex -31.771 13.143 0
    endloop
  endfacet
  facet normal 0 0 -1
    outer loop
      vertex -31.771 13.143 0
      vertex -65.945 47.56 0
      vertex -67.165 50.001 0
    endloop
  endfacet
  facet normal 0 0 -1
    outer loop
      vertex -31.771 13.143 0
      vertex -67.165 50.001 0
      vertex -66.921 52.93 0
    endloop
  endfacet
  facet normal 0 0 -1
    outer loop
      vertex -31.771 13.143 0
      vertex -66.921 52.93 0
      vertex -65.701 55.371 0
    endloop
  endfacet
  facet normal 0 0 -1
    outer loop
      vertex -31.771 13.143 0
      vertex -65.701 55.371 0
      vertex -64.48 56.592 0
    endloop
  endfacet
  facet normal 0 0 -1
    outer loop
      vertex -31.771 13.143 0
      vertex -64.48 56.592 0
      vertex -53.984 67.088 0
    endloop
  endfacet
  facet normal 0 0 -1
    outer loop
      vertex -31.771 13.143 0
      vertex -53.984 67.088 0
      vertex -52.275 67.576 0
    endloop
  endfacet
  facet normal 0 0 -1
    outer loop
      vertex -31.771 13.143 0
      vertex -52.275 67.576 0
      vertex -49.59 67.576 0
    endloop
  endfacet
  facet normal 0 0 -1
    outer loop
      vertex -31.771 13.143 0
      vertex -49.59 67.576 0
      vertex -47.393 67.088 0
    endloop
  endfacet
  facet normal 0 0 -1
    outer loop
      vertex -31.771 13.143 0
      vertex -47.393 67.088 0
      vertex -12.976 33.158 0
    endloop
  endfacet
  facet normal 0 0 -1
    outer loop
      vertex -31.771 13.143 0
      vertex 14.119 32.426 0
      vertex -71.559 -8.094 0
    endloop
  endfacet
  facet normal 0 0 -1
    outer loop
      vertex -12.976 65.623 0
      vertex -12.732 68.308 0
      vertex -12.976 33.158 0
    endloop
  endfacet
  facet normal 0 0 -1
    outer loop
      vertex -12.732 68.308 0
      vertex -11.023 70.505 0
      vertex -12.976 33.158 0
    endloop
  endfacet
  facet normal 0 0 -1
    outer loop
      vertex -12.976 33.158 0
      vertex -11.023 70.505 0
      vertex -9.558 71.238 0
    endloop
  endfacet
  facet normal 0 0 -1
    outer loop
      vertex -12.976 33.158 0
      vertex -9.558 71.238 0
      vertex -7.606 72.214 0
    endloop
  endfacet
  facet normal 0 0 -1
    outer loop
      vertex -12.976 33.158 0
      vertex -7.606 72.214 0
      vertex 8.993 71.97 0
    endloop
  endfacet
  facet normal 0 0 -1
    outer loop
      vertex -12.976 33.158 0
      vertex 8.993 71.97 0
      vertex 11.19 70.993 0
    endloop
  endfacet
  facet normal 0 0 -1
    outer loop
      vertex -12.976 33.158 0
      vertex 11.19 70.993 0
      vertex 12.654 70.017 0
    endloop
  endfacet
  facet normal 0 0 -1
    outer loop
      vertex -12.976 33.158 0
      vertex 12.654 70.017 0
      vertex 14.119 66.6 0
    endloop
  endfacet
  facet normal 0 0 -1
    outer loop
      vertex -12.976 33.158 0
      vertex 14.119 66.6 0
      vertex 14.119 32.426 0
    endloop
  endfacet
  facet normal 0 0 -1
    outer loop
      vertex -12.976 33.158 0
      vertex 14.119 32.426 0
      vertex -31.771 13.143 0
    endloop
  endfacet
  facet normal 0 0 -1
    outer loop
      vertex 49.025 67.332 0
      vertex 51.954 67.82 0
      vertex 14.119 32.426 0
    endloop
  endfacet
  facet normal 0 0 -1
    outer loop
      vertex 14.119 32.426 0
      vertex 51.954 67.82 0
      vertex 55.127 66.844 0
    endloop
  endfacet
  facet normal 0 0 -1
    outer loop
      vertex 14.119 32.426 0
      vertex 55.127 66.844 0
      vertex 67.088 54.883 0
    endloop
  endfacet
  facet normal 0 0 -1
    outer loop
      vertex 14.119 32.426 0
      vertex 67.088 54.883 0
      vertex -71.559 -8.094 0
    endloop
  endfacet
  facet normal 0 0 -1
    outer loop
      vertex -71.559 -8.094 0
      vertex 67.088 54.883 0
      vertex 68.308 51.954 0
    endloop
  endfacet
  facet normal 0 0 -1
    outer loop
      vertex -71.559 -8.094 0
      vertex 68.308 51.954 0
      vertex 68.064 49.269 0
    endloop
  endfacet
  facet normal 0 0 -1
    outer loop
      vertex -71.559 -8.094 0
      vertex 68.064 49.269 0
      vertex 67.088 47.56 0
    endloop
  endfacet
  facet normal 0 0 -1
    outer loop
      vertex 6.064 13.387 0
      vertex 67.088 47.56 0
      vertex 33.403 13.631 0
    endloop
  endfacet
  facet normal 0 0 -1
    outer loop
      vertex 13.875 5.82 0
      vertex 33.403 13.631 0
      vertex 62.206 13.631 0
    endloop
  endfacet
  facet normal 0 0 -1
    outer loop
      vertex 14.119 -5.653 0
      vertex 72.458 8.505 0
      vertex 72.458 -8.094 0
    endloop
  endfacet
  facet normal 0 0 -1
    outer loop
      vertex 14.119 -5.653 0
      vertex 32.914 -13.22 0
      vertex 6.064 -13.22 0
    endloop
  endfacet
  facet normal 0 0 -1
    outer loop
      vertex 14.119 -5.653 0
      vertex 67.576 -13.22 0
      vertex 32.914 -13.22 0
    endloop
  endfacet
  facet normal 0 0 -1
    outer loop
      vertex 14.119 -5.653 0
      vertex 69.773 -11.999 0
      vertex 67.576 -13.22 0
    endloop
  endfacet
  facet normal 0 0 -1
    outer loop
      vertex 14.119 -5.653 0
      vertex 71.482 -10.291 0
      vertex 69.773 -11.999 0
    endloop
  endfacet
  facet normal 0 0 -1
    outer loop
      vertex -32.015 -13.464 0
      vertex 32.914 -13.22 0
      vertex 66.356 -46.173 0
    endloop
  endfacet
  facet normal 0 0 -1
    outer loop
      vertex 13.875 -32.504 0
      vertex 67.088 -47.149 0
      vertex 68.064 -49.346 0
    endloop
  endfacet
  facet normal 0 0 -1
    outer loop
      vertex 13.875 -63.26 0
      vertex -12.732 -32.504 0
      vertex 13.875 -32.504 0
    endloop
  endfacet
  facet normal 0 0 -1
    outer loop
      vertex -12.732 -32.504 0
      vertex 9.481 -71.559 0
      vertex -7.362 -71.803 0
    endloop
  endfacet
  facet normal 0 0 -1
    outer loop
      vertex -32.015 -13.464 0
      vertex -12.732 -32.504 0
      vertex -45.685 -65.945 0
    endloop
  endfacet
  facet normal 0 0 -1
    outer loop
      vertex 47.072 -65.457 0
      vertex 54.883 -66.921 0
      vertex 51.466 -67.653 0
    endloop
  endfacet
  facet normal 0 0 -1
    outer loop
      vertex 13.875 -32.504 0
      vertex 68.064 -51.787 0
      vertex 67.332 -54.472 0
    endloop
  endfacet
  facet normal 0 0 -1
    outer loop
      vertex 13.875 5.087 0
      vertex 68.064 13.387 0
      vertex 70.749 11.922 0
    endloop
  endfacet
  facet normal 0 0 -1
    outer loop
      vertex 13.875 -32.504 0
      vertex 68.064 -49.346 0
      vertex 68.064 -51.787 0
    endloop
  endfacet
  facet normal 0 0 -1
    outer loop
      vertex 13.875 5.82 0
      vertex 62.206 13.631 0
      vertex 13.875 5.087 0
    endloop
  endfacet
  facet normal 0 0 -1
    outer loop
      vertex -66.921 -13.22 0
      vertex -71.559 -8.094 0
      vertex -63.504 -13.464 0
    endloop
  endfacet
  facet normal 0 0 -1
    outer loop
      vertex -12.732 -67.653 0
      vertex -9.558 -71.071 0
      vertex -11.267 -69.606 0
    endloop
  endfacet
  facet normal 0 0 -1
    outer loop
      vertex -32.015 -13.464 0
      vertex -47.393 -66.921 0
      vertex -50.323 -67.653 0
    endloop
  endfacet
  facet normal 0 0 -1
    outer loop
      vertex -32.015 -13.464 0
      vertex -50.323 -67.653 0
      vertex -53.252 -66.677 0
    endloop
  endfacet
  facet normal 0 0 -1
    outer loop
      vertex -32.015 -13.464 0
      vertex -53.252 -66.677 0
      vertex -55.205 -65.457 0
    endloop
  endfacet
  facet normal 0 0 -1
    outer loop
      vertex -12.732 -67.653 0
      vertex -7.362 -71.803 0
      vertex -9.558 -71.071 0
    endloop
  endfacet
  facet normal 0 0 -1
    outer loop
      vertex -12.732 -32.504 0
      vertex 13.631 -66.189 0
      vertex 13.143 -68.142 0
    endloop
  endfacet
  facet normal 0 0 -1
    outer loop
      vertex -32.015 -13.464 0
      vertex -55.205 -65.457 0
      vertex -64.48 -45.929 0
    endloop
  endfacet
  facet normal 0 0 -1
    outer loop
      vertex -12.732 -32.504 0
      vertex 13.875 -63.26 0
      vertex 13.631 -66.189 0
    endloop
  endfacet
  facet normal 0 0 -1
    outer loop
      vertex -12.732 -32.504 0
      vertex -7.362 -71.803 0
      vertex -12.732 -67.653 0
    endloop
  endfacet
  facet normal 0 0 -1
    outer loop
      vertex -66.189 -47.393 0
      vertex -66.189 -53.984 0
      vertex -67.165 -51.299 0
    endloop
  endfacet
  facet normal 0 0 -1
    outer loop
      vertex -66.189 -47.393 0
      vertex -55.205 -65.457 0
      vertex -66.189 -53.984 0
    endloop
  endfacet
  facet normal 0 0 -1
    outer loop
      vertex -32.015 -13.464 0
      vertex 67.088 -47.149 0
      vertex 13.875 -32.504 0
    endloop
  endfacet
  facet normal 0 0 -1
    outer loop
      vertex -64.48 -45.929 0
      vertex -55.205 -65.457 0
      vertex -66.189 -47.393 0
    endloop
  endfacet
  facet normal 0 0 -1
    outer loop
      vertex -32.015 -13.464 0
      vertex 66.356 -46.173 0
      vertex 67.088 -47.149 0
    endloop
  endfacet
  facet normal 0 0 -1
    outer loop
      vertex 6.064 -13.22 0
      vertex 32.914 -13.22 0
      vertex -32.015 -13.464 0
    endloop
  endfacet
  facet normal 0 0 -1
    outer loop
      vertex -12.732 -5.165 0
      vertex -71.559 -8.094 0
      vertex -12.976 5.576 0
    endloop
  endfacet
  facet normal 0 0 -1
    outer loop
      vertex 13.875 5.087 0
      vertex 70.749 11.922 0
      vertex 72.458 8.505 0
    endloop
  endfacet
  facet normal 0 0 -1
    outer loop
      vertex 6.064 13.387 0
      vertex 33.403 13.631 0
      vertex 13.875 5.82 0
    endloop
  endfacet
  facet normal 0 0 -1
    outer loop
      vertex -71.559 -8.094 0
      vertex -66.921 -13.22 0
      vertex -68.874 -12.244 0
    endloop
  endfacet
  facet normal 0 0 -1
    outer loop
      vertex -71.559 -8.094 0
      vertex -68.874 -12.244 0
      vertex -70.094 -10.535 0
    endloop
  endfacet
  facet normal 0 0 -1
    outer loop
      vertex -4.921 -12.976 0
      vertex -71.559 -8.094 0
      vertex -12.732 -5.165 0
    endloop
  endfacet
  facet normal 0 0 -1
    outer loop
      vertex 14.119 -5.653 0
      vertex 72.458 -8.094 0
      vertex 71.482 -10.291 0
    endloop
  endfacet
  facet normal 0 0 -1
    outer loop
      vertex -71.559 -8.094 0
      vertex -4.921 -12.976 0
      vertex -32.015 -13.464 0
    endloop
  endfacet
  facet normal 0 0 -1
    outer loop
      vertex -4.921 -12.976 0
      vertex 6.064 -13.22 0
      vertex -32.015 -13.464 0
    endloop
  endfacet
  facet normal 0 0 -1
    outer loop
      vertex 13.875 5.087 0
      vertex 72.458 8.505 0
      vertex 14.119 -5.653 0
    endloop
  endfacet
  facet normal 0 0 -1
    outer loop
      vertex 62.206 13.631 0
      vertex 68.064 13.387 0
      vertex 13.875 5.087 0
    endloop
  endfacet
  facet normal 0 0 -1
    outer loop
      vertex -5.653 13.631 0
      vertex 67.088 47.56 0
      vertex 6.064 13.387 0
    endloop
  endfacet
  facet normal 0 0 -1
    outer loop
      vertex -71.559 -8.094 0
      vertex 67.088 47.56 0
      vertex -5.653 13.631 0
    endloop
  endfacet
  facet normal 0 0 -1
    outer loop
      vertex -71.559 -8.094 0
      vertex -5.653 13.631 0
      vertex -12.976 5.576 0
    endloop
  endfacet
  facet normal 0 0 -1
    outer loop
      vertex -5.653 13.631 0
      vertex -5.897 13.143 0
      vertex -12.976 5.576 0
    endloop
  endfacet
  facet normal 0 0 -1
    outer loop
      vertex 47.072 -65.457 0
      vertex 51.466 -67.653 0
      vertex 48.781 -66.921 0
    endloop
  endfacet
  facet normal 0 0 -1
    outer loop
      vertex -32.015 -13.464 0
      vertex 13.875 -32.504 0
      vertex -12.732 -32.504 0
    endloop
  endfacet
  facet normal 0 0 -1
    outer loop
      vertex 13.875 -32.504 0
      vertex 67.332 -54.472 0
      vertex 55.615 -65.945 0
    endloop
  endfacet
  facet normal 0 0 -1
    outer loop
      vertex 13.875 -32.504 0
      vertex 55.615 -65.945 0
      vertex 54.883 -66.921 0
    endloop
  endfacet
  facet normal 0 0 -1
    outer loop
      vertex 13.875 -32.504 0
      vertex 54.883 -66.921 0
      vertex 47.072 -65.457 0
    endloop
  endfacet
  facet normal 0 0 -1
    outer loop
      vertex -12.732 -32.504 0
      vertex 13.143 -68.142 0
      vertex 11.19 -70.583 0
    endloop
  endfacet
  facet normal 0 0 -1
    outer loop
      vertex -12.732 -32.504 0
      vertex 11.19 -70.583 0
      vertex 9.481 -71.559 0
    endloop
  endfacet
  facet normal 0 0 -1
    outer loop
      vertex -32.015 -13.464 0
      vertex -45.685 -65.945 0
      vertex -47.393 -66.921 0
    endloop
  endfacet
  facet normal 0 0 -1
    outer loop
      vertex -63.504 -13.464 0
      vertex -71.559 -8.094 0
      vertex -32.015 -13.464 0
    endloop
  endfacet
  facet normal -0.743279 -0.668982 0
    outer loop
      vertex -63.748 45.119 0
      vertex -63.748 45.119 10
      vertex -65.945 47.56 0
    endloop
  endfacet
  facet normal -0.743279 -0.668982 0
    outer loop
      vertex -65.945 47.56 0
      vertex -63.748 45.119 10
      vertex -65.945 47.56 10
    endloop
  endfacet
  facet normal 0 0 1
    outer loop
      vertex -71.559 -8.094 10
      vertex -70.094 -10.535 10
      vertex -68.874 -12.244 10
    endloop
  endfacet
  facet normal 0 0 1
    outer loop
      vertex -63.504 -13.464 10
      vertex -71.559 -8.094 10
      vertex -66.921 -13.22 10
    endloop
  endfacet
  facet normal 0 0 1
    outer loop
      vertex -66.921 -13.22 10
      vertex -71.559 -8.094 10
      vertex -68.874 -12.244 10
    endloop
  endfacet
  facet normal 0 0 1
    outer loop
      vertex -32.015 -13.464 10
      vertex -71.559 -8.094 10
      vertex -63.504 -13.464 10
    endloop
  endfacet
  facet normal 0 0 1
    outer loop
      vertex -4.921 -12.976 10
      vertex -71.559 -8.094 10
      vertex -32.015 -13.464 10
    endloop
  endfacet
  facet normal 0 0 1
    outer loop
      vertex -67.165 -51.299 10
      vertex -32.015 -13.464 10
      vertex -64.48 -45.929 10
    endloop
  endfacet
  facet normal 0 0 1
    outer loop
      vertex -64.48 -45.929 10
      vertex -66.189 -47.393 10
      vertex -67.165 -51.299 10
    endloop
  endfacet
  facet normal 0 0 1
    outer loop
      vertex -32.015 -13.464 10
      vertex -67.165 -51.299 10
      vertex -66.189 -53.984 10
    endloop
  endfacet
  facet normal 0 0 1
    outer loop
      vertex -32.015 -13.464 10
      vertex -66.189 -53.984 10
      vertex -55.205 -65.457 10
    endloop
  endfacet
  facet normal 0 0 1
    outer loop
      vertex -32.015 -13.464 10
      vertex -55.205 -65.457 10
      vertex -53.252 -66.677 10
    endloop
  endfacet
  facet normal 0 0 1
    outer loop
      vertex -32.015 -13.464 10
      vertex -53.252 -66.677 10
      vertex -50.323 -67.653 10
    endloop
  endfacet
  facet normal 0 0 1
    outer loop
      vertex -32.015 -13.464 10
      vertex -50.323 -67.653 10
      vertex -47.393 -66.921 10
    endloop
  endfacet
  facet normal 0 0 1
    outer loop
      vertex -32.015 -13.464 10
      vertex -47.393 -66.921 10
      vertex -45.685 -65.945 10
    endloop
  endfacet
  facet normal 0 0 1
    outer loop
      vertex -32.015 -13.464 10
      vertex -12.732 -32.504 10
      vertex 13.875 -32.504 10
    endloop
  endfacet
  facet normal 0 0 1
    outer loop
      vertex -32.015 -13.464 10
      vertex -45.685 -65.945 10
      vertex -12.732 -32.504 10
    endloop
  endfacet
  facet normal 0 0 1
    outer loop
      vertex -12.732 -32.504 10
      vertex -12.732 -67.653 10
      vertex -11.267 -69.606 10
    endloop
  endfacet
  facet normal 0 0 1
    outer loop
      vertex -12.732 -32.504 10
      vertex -11.267 -69.606 10
      vertex -9.558 -71.071 10
    endloop
  endfacet
  facet normal 0 0 1
    outer loop
      vertex -12.732 -32.504 10
      vertex -9.558 -71.071 10
      vertex -7.362 -71.803 10
    endloop
  endfacet
  facet normal 0 0 1
    outer loop
      vertex -12.732 -32.504 10
      vertex -7.362 -71.803 10
      vertex 9.481 -71.559 10
    endloop
  endfacet
  facet normal 0 0 1
    outer loop
      vertex -12.732 -32.504 10
      vertex 9.481 -71.559 10
      vertex 11.19 -70.583 10
    endloop
  endfacet
  facet normal 0 0 1
    outer loop
      vertex -12.732 -32.504 10
      vertex 11.19 -70.583 10
      vertex 13.143 -68.142 10
    endloop
  endfacet
  facet normal 0 0 1
    outer loop
      vertex -12.732 -32.504 10
      vertex 13.143 -68.142 10
      vertex 13.631 -66.189 10
    endloop
  endfacet
  facet normal 0 0 1
    outer loop
      vertex -12.732 -32.504 10
      vertex 13.631 -66.189 10
      vertex 13.875 -63.26 10
    endloop
  endfacet
  facet normal 0 0 1
    outer loop
      vertex -32.015 -13.464 10
      vertex 13.875 -32.504 10
      vertex 67.332 -54.472 10
    endloop
  endfacet
  facet normal 0 0 1
    outer loop
      vertex -12.732 -32.504 10
      vertex 13.875 -63.26 10
      vertex 13.875 -32.504 10
    endloop
  endfacet
  facet normal 0 0 1
    outer loop
      vertex 13.875 -32.504 10
      vertex 47.072 -65.457 10
      vertex 48.781 -66.921 10
    endloop
  endfacet
  facet normal 0 0 1
    outer loop
      vertex 13.875 -32.504 10
      vertex 48.781 -66.921 10
      vertex 51.466 -67.653 10
    endloop
  endfacet
  facet normal 0 0 1
    outer loop
      vertex 13.875 -32.504 10
      vertex 51.466 -67.653 10
      vertex 54.883 -66.921 10
    endloop
  endfacet
  facet normal 0 0 1
    outer loop
      vertex 13.875 -32.504 10
      vertex 55.615 -65.945 10
      vertex 67.332 -54.472 10
    endloop
  endfacet
  facet normal 0 0 1
    outer loop
      vertex 13.875 -32.504 10
      vertex 54.883 -66.921 10
      vertex 55.615 -65.945 10
    endloop
  endfacet
  facet normal 0 0 1
    outer loop
      vertex -32.015 -13.464 10
      vertex 67.332 -54.472 10
      vertex 68.064 -51.787 10
    endloop
  endfacet
  facet normal 0 0 1
    outer loop
      vertex -32.015 -13.464 10
      vertex 68.064 -51.787 10
      vertex 68.064 -49.346 10
    endloop
  endfacet
  facet normal 0 0 1
    outer loop
      vertex -32.015 -13.464 10
      vertex 68.064 -49.346 10
      vertex 67.088 -47.149 10
    endloop
  endfacet
  facet normal 0 0 1
    outer loop
      vertex -32.015 -13.464 10
      vertex 67.088 -47.149 10
      vertex 66.356 -46.173 10
    endloop
  endfacet
  facet normal 0 0 1
    outer loop
      vertex -32.015 -13.464 10
      vertex 66.356 -46.173 10
      vertex 32.914 -13.22 10
    endloop
  endfacet
  facet normal 0 0 1
    outer loop
      vertex -4.921 -12.976 10
      vertex -12.732 -5.165 10
      vertex -71.559 -8.094 10
    endloop
  endfacet
  facet normal 0 0 1
    outer loop
      vertex 14.119 -5.653 10
      vertex 72.458 -8.094 10
      vertex 72.458 8.505 10
    endloop
  endfacet
  facet normal 0 0 1
    outer loop
      vertex 14.119 -5.653 10
      vertex 6.064 -13.22 10
      vertex 32.914 -13.22 10
    endloop
  endfacet
  facet normal 0 0 1
    outer loop
      vertex 13.875 5.087 10
      vertex 68.064 13.387 10
      vertex 62.206 13.631 10
    endloop
  endfacet
  facet normal 0 0 1
    outer loop
      vertex 6.064 13.387 10
      vertex 33.403 13.631 10
      vertex 67.088 47.56 10
    endloop
  endfacet
  facet normal 0 0 1
    outer loop
      vertex 13.875 5.82 10
      vertex 62.206 13.631 10
      vertex 33.403 13.631 10
    endloop
  endfacet
  facet normal 0 0 1
    outer loop
      vertex -71.559 -8.094 10
      vertex 67.088 47.56 10
      vertex 68.064 49.269 10
    endloop
  endfacet
  facet normal 0 0 1
    outer loop
      vertex -71.559 -8.094 10
      vertex 68.064 49.269 10
      vertex 68.308 51.954 10
    endloop
  endfacet
  facet normal 0 0 1
    outer loop
      vertex -71.559 -8.094 10
      vertex 68.308 51.954 10
      vertex 67.088 54.883 10
    endloop
  endfacet
  facet normal 0 0 1
    outer loop
      vertex 14.119 32.426 10
      vertex 67.088 54.883 10
      vertex 55.127 66.844 10
    endloop
  endfacet
  facet normal 0 0 1
    outer loop
      vertex 14.119 32.426 10
      vertex -12.976 33.158 10
      vertex -31.771 13.143 10
    endloop
  endfacet
  facet normal 0 0 1
    outer loop
      vertex 13.875 5.82 10
      vertex 13.875 5.087 10
      vertex 62.206 13.631 10
    endloop
  endfacet
  facet normal 0 0 1
    outer loop
      vertex 14.119 32.426 10
      vertex 14.119 66.6 10
      vertex -12.976 33.158 10
    endloop
  endfacet
  facet normal 0 0 1
    outer loop
      vertex -71.559 -8.094 10
      vertex 67.088 54.883 10
      vertex 14.119 32.426 10
    endloop
  endfacet
  facet normal 0 0 1
    outer loop
      vertex -67.165 50.001 10
      vertex -65.701 55.371 10
      vertex -66.921 52.93 10
    endloop
  endfacet
  facet normal 0 0 1
    outer loop
      vertex -67.165 50.001 10
      vertex -65.945 47.56 10
      vertex -65.701 55.371 10
    endloop
  endfacet
  facet normal 0 0 1
    outer loop
      vertex -12.976 65.623 10
      vertex -7.606 72.214 10
      vertex -9.558 71.238 10
    endloop
  endfacet
  facet normal 0 0 1
    outer loop
      vertex -12.976 65.623 10
      vertex 8.993 71.97 10
      vertex -7.606 72.214 10
    endloop
  endfacet
  facet normal 0 0 1
    outer loop
      vertex -12.976 65.623 10
      vertex 11.19 70.993 10
      vertex 8.993 71.97 10
    endloop
  endfacet
  facet normal 0 0 1
    outer loop
      vertex -63.748 45.119 10
      vertex -49.59 67.576 10
      vertex -52.275 67.576 10
    endloop
  endfacet
  facet normal 0 0 1
    outer loop
      vertex -12.732 68.308 10
      vertex -9.558 71.238 10
      vertex -11.023 70.505 10
    endloop
  endfacet
  facet normal 0 0 1
    outer loop
      vertex 13.875 5.087 10
      vertex 70.749 11.922 10
      vertex 68.064 13.387 10
    endloop
  endfacet
  facet normal 0 0 1
    outer loop
      vertex 14.119 -5.653 10
      vertex 71.482 -10.291 10
      vertex 72.458 -8.094 10
    endloop
  endfacet
  facet normal 0 0 1
    outer loop
      vertex -63.748 45.119 10
      vertex -53.984 67.088 10
      vertex -64.48 56.592 10
    endloop
  endfacet
  facet normal 0 0 1
    outer loop
      vertex -65.945 47.56 10
      vertex -64.48 56.592 10
      vertex -65.701 55.371 10
    endloop
  endfacet
  facet normal 0 0 1
    outer loop
      vertex -63.748 45.119 10
      vertex -52.275 67.576 10
      vertex -53.984 67.088 10
    endloop
  endfacet
  facet normal 0 0 1
    outer loop
      vertex -69.85 11.19 10
      vertex -71.315 8.261 10
      vertex -71.559 -8.094 10
    endloop
  endfacet
  facet normal 0 0 1
    outer loop
      vertex -64.968 13.631 10
      vertex -68.142 12.898 10
      vertex -71.559 -8.094 10
    endloop
  endfacet
  facet normal 0 0 1
    outer loop
      vertex -31.771 13.143 10
      vertex -64.968 13.631 10
      vertex -71.559 -8.094 10
    endloop
  endfacet
  facet normal 0 0 1
    outer loop
      vertex -71.559 -8.094 10
      vertex 14.119 32.426 10
      vertex -31.771 13.143 10
    endloop
  endfacet
  facet normal 0 0 1
    outer loop
      vertex 13.875 5.087 10
      vertex 72.458 8.505 10
      vertex 70.749 11.922 10
    endloop
  endfacet
  facet normal 0 0 1
    outer loop
      vertex -68.142 12.898 10
      vertex -69.85 11.19 10
      vertex -71.559 -8.094 10
    endloop
  endfacet
  facet normal 0 0 1
    outer loop
      vertex -12.732 -5.165 10
      vertex -12.976 5.576 10
      vertex -71.559 -8.094 10
    endloop
  endfacet
  facet normal 0 0 1
    outer loop
      vertex -65.945 47.56 10
      vertex -63.748 45.119 10
      vertex -64.48 56.592 10
    endloop
  endfacet
  facet normal 0 0 1
    outer loop
      vertex 6.064 13.387 10
      vertex 13.875 5.82 10
      vertex 33.403 13.631 10
    endloop
  endfacet
  facet normal 0 0 1
    outer loop
      vertex 14.119 -5.653 10
      vertex 69.773 -11.999 10
      vertex 71.482 -10.291 10
    endloop
  endfacet
  facet normal 0 0 1
    outer loop
      vertex -71.559 -8.094 10
      vertex -12.976 5.576 10
      vertex -5.897 13.143 10
    endloop
  endfacet
  facet normal 0 0 1
    outer loop
      vertex -71.559 -8.094 10
      vertex -5.653 13.631 10
      vertex 67.088 47.56 10
    endloop
  endfacet
  facet normal 0 0 1
    outer loop
      vertex -71.559 -8.094 10
      vertex -5.897 13.143 10
      vertex -5.653 13.631 10
    endloop
  endfacet
  facet normal 0 0 1
    outer loop
      vertex 13.875 5.087 10
      vertex 14.119 -5.653 10
      vertex 72.458 8.505 10
    endloop
  endfacet
  facet normal 0 0 1
    outer loop
      vertex -5.653 13.631 10
      vertex 6.064 13.387 10
      vertex 67.088 47.56 10
    endloop
  endfacet
  facet normal 0 0 1
    outer loop
      vertex 14.119 -5.653 10
      vertex 67.576 -13.22 10
      vertex 69.773 -11.999 10
    endloop
  endfacet
  facet normal 0 0 1
    outer loop
      vertex 14.119 -5.653 10
      vertex 32.914 -13.22 10
      vertex 67.576 -13.22 10
    endloop
  endfacet
  facet normal 0 0 1
    outer loop
      vertex 32.914 -13.22 10
      vertex 6.064 -13.22 10
      vertex -32.015 -13.464 10
    endloop
  endfacet
  facet normal 0 0 1
    outer loop
      vertex 6.064 -13.22 10
      vertex -4.921 -12.976 10
      vertex -32.015 -13.464 10
    endloop
  endfacet
  facet normal 0 0 1
    outer loop
      vertex -12.732 68.308 10
      vertex -12.976 65.623 10
      vertex -9.558 71.238 10
    endloop
  endfacet
  facet normal 0 0 1
    outer loop
      vertex -12.976 65.623 10
      vertex 12.654 70.017 10
      vertex 11.19 70.993 10
    endloop
  endfacet
  facet normal 0 0 1
    outer loop
      vertex 49.025 67.332 10
      vertex 55.127 66.844 10
      vertex 51.954 67.82 10
    endloop
  endfacet
  facet normal 0 0 1
    outer loop
      vertex 49.025 67.332 10
      vertex 14.119 32.426 10
      vertex 55.127 66.844 10
    endloop
  endfacet
  facet normal 0 0 1
    outer loop
      vertex -12.976 65.623 10
      vertex 14.119 66.6 10
      vertex 12.654 70.017 10
    endloop
  endfacet
  facet normal 0 0 1
    outer loop
      vertex -12.976 65.623 10
      vertex -12.976 33.158 10
      vertex 14.119 66.6 10
    endloop
  endfacet
  facet normal 0 0 1
    outer loop
      vertex -63.748 45.119 10
      vertex -47.393 67.088 10
      vertex -49.59 67.576 10
    endloop
  endfacet
  facet normal 0 0 1
    outer loop
      vertex -63.748 45.119 10
      vertex -12.976 33.158 10
      vertex -47.393 67.088 10
    endloop
  endfacet
  facet normal 0 0 1
    outer loop
      vertex -63.748 45.119 10
      vertex -31.771 13.143 10
      vertex -12.976 33.158 10
    endloop
  endfacet
  facet normal -0.225016 0.974355 0
    outer loop
      vertex -68.142 12.898 10
      vertex -64.968 13.631 10
      vertex -68.142 12.898 0
    endloop
  endfacet
  facet normal -0.225016 0.974355 0
    outer loop
      vertex -68.142 12.898 0
      vertex -64.968 13.631 10
      vertex -64.968 13.631 0
    endloop
  endfacet
  facet normal -0.857431 -0.514599 0
    outer loop
      vertex -70.094 -10.535 0
      vertex -70.094 -10.535 10
      vertex -71.559 -8.094 0
    endloop
  endfacet
  facet normal -0.857431 -0.514599 0
    outer loop
      vertex -71.559 -8.094 0
      vertex -70.094 -10.535 10
      vertex -71.559 -8.094 10
    endloop
  endfacet
  facet normal -0.999889 0.0149173 0
    outer loop
      vertex -71.559 -8.094 10
      vertex -71.315 8.261 10
      vertex -71.559 -8.094 0
    endloop
  endfacet
  facet normal -0.999889 0.0149173 0
    outer loop
      vertex -71.559 -8.094 0
      vertex -71.315 8.261 10
      vertex -71.315 8.261 0
    endloop
  endfacet
  facet normal -0.813894 -0.581013 0
    outer loop
      vertex -68.874 -12.244 0
      vertex -68.874 -12.244 10
      vertex -70.094 -10.535 0
    endloop
  endfacet
  facet normal -0.813894 -0.581013 0
    outer loop
      vertex -70.094 -10.535 0
      vertex -68.874 -12.244 10
      vertex -70.094 -10.535 10
    endloop
  endfacet
  facet normal -0.44703 -0.894519 0
    outer loop
      vertex -68.874 -12.244 0
      vertex -66.921 -13.22 0
      vertex -66.921 -13.22 10
    endloop
  endfacet
  facet normal -0.44703 -0.894519 0
    outer loop
      vertex -68.874 -12.244 10
      vertex -68.874 -12.244 0
      vertex -66.921 -13.22 10
    endloop
  endfacet
  facet normal -0.0712263 -0.99746 0
    outer loop
      vertex -66.921 -13.22 0
      vertex -63.504 -13.464 0
      vertex -63.504 -13.464 10
    endloop
  endfacet
  facet normal -0.0712263 -0.99746 0
    outer loop
      vertex -66.921 -13.22 10
      vertex -66.921 -13.22 0
      vertex -63.504 -13.464 10
    endloop
  endfacet
  facet normal 0 -1 0
    outer loop
      vertex -63.504 -13.464 0
      vertex -32.015 -13.464 0
      vertex -32.015 -13.464 10
    endloop
  endfacet
  facet normal 0 -1 0
    outer loop
      vertex -63.504 -13.464 10
      vertex -63.504 -13.464 0
      vertex -32.015 -13.464 10
    endloop
  endfacet
  facet normal -0.707107 0.707107 0
    outer loop
      vertex -64.48 -45.929 10
      vertex -32.015 -13.464 10
      vertex -64.48 -45.929 0
    endloop
  endfacet
  facet normal -0.707107 0.707107 0
    outer loop
      vertex -64.48 -45.929 0
      vertex -32.015 -13.464 10
      vertex -32.015 -13.464 0
    endloop
  endfacet
  facet normal -0.650572 0.759445 0
    outer loop
      vertex -66.189 -47.393 10
      vertex -64.48 -45.929 10
      vertex -66.189 -47.393 0
    endloop
  endfacet
  facet normal -0.650572 0.759445 0
    outer loop
      vertex -66.189 -47.393 0
      vertex -64.48 -45.929 10
      vertex -64.48 -45.929 0
    endloop
  endfacet
  facet normal -0.970172 0.242419 0
    outer loop
      vertex -67.165 -51.299 10
      vertex -66.189 -47.393 10
      vertex -67.165 -51.299 0
    endloop
  endfacet
  facet normal -0.970172 0.242419 0
    outer loop
      vertex -67.165 -51.299 0
      vertex -66.189 -47.393 10
      vertex -66.189 -47.393 0
    endloop
  endfacet
  facet normal -0.939834 -0.341631 0
    outer loop
      vertex -66.189 -53.984 0
      vertex -66.189 -53.984 10
      vertex -67.165 -51.299 0
    endloop
  endfacet
  facet normal -0.939834 -0.341631 0
    outer loop
      vertex -67.165 -51.299 0
      vertex -66.189 -53.984 10
      vertex -67.165 -51.299 10
    endloop
  endfacet
  facet normal -0.722333 -0.691546 0
    outer loop
      vertex -55.205 -65.457 0
      vertex -55.205 -65.457 10
      vertex -66.189 -53.984 0
    endloop
  endfacet
  facet normal -0.722333 -0.691546 0
    outer loop
      vertex -66.189 -53.984 0
      vertex -55.205 -65.457 10
      vertex -66.189 -53.984 10
    endloop
  endfacet
  facet normal -0.529804 -0.84812 0
    outer loop
      vertex -55.205 -65.457 0
      vertex -53.252 -66.677 0
      vertex -53.252 -66.677 10
    endloop
  endfacet
  facet normal -0.529804 -0.84812 0
    outer loop
      vertex -55.205 -65.457 10
      vertex -55.205 -65.457 0
      vertex -53.252 -66.677 10
    endloop
  endfacet
  facet normal -0.316131 -0.948716 0
    outer loop
      vertex -53.252 -66.677 0
      vertex -50.323 -67.653 0
      vertex -50.323 -67.653 10
    endloop
  endfacet
  facet normal -0.316131 -0.948716 0
    outer loop
      vertex -53.252 -66.677 10
      vertex -53.252 -66.677 0
      vertex -50.323 -67.653 10
    endloop
  endfacet
  facet normal 0.24238 -0.970181 0
    outer loop
      vertex -50.323 -67.653 0
      vertex -47.393 -66.921 0
      vertex -47.393 -66.921 10
    endloop
  endfacet
  facet normal 0.24238 -0.970181 0
    outer loop
      vertex -50.323 -67.653 10
      vertex -50.323 -67.653 0
      vertex -47.393 -66.921 10
    endloop
  endfacet
  facet normal 0.496139 -0.868243 0
    outer loop
      vertex -47.393 -66.921 0
      vertex -45.685 -65.945 0
      vertex -45.685 -65.945 10
    endloop
  endfacet
  facet normal 0.496139 -0.868243 0
    outer loop
      vertex -47.393 -66.921 10
      vertex -47.393 -66.921 0
      vertex -45.685 -65.945 10
    endloop
  endfacet
  facet normal 0.712285 -0.701891 0
    outer loop
      vertex -45.685 -65.945 0
      vertex -12.732 -32.504 0
      vertex -12.732 -32.504 10
    endloop
  endfacet
  facet normal 0.712285 -0.701891 0
    outer loop
      vertex -45.685 -65.945 10
      vertex -45.685 -65.945 0
      vertex -12.732 -32.504 10
    endloop
  endfacet
  facet normal -1 0 0
    outer loop
      vertex -12.732 -67.653 10
      vertex -12.732 -32.504 10
      vertex -12.732 -67.653 0
    endloop
  endfacet
  facet normal -1 0 0
    outer loop
      vertex -12.732 -67.653 0
      vertex -12.732 -32.504 10
      vertex -12.732 -32.504 0
    endloop
  endfacet
  facet normal -0.799951 -0.600066 0
    outer loop
      vertex -11.267 -69.606 0
      vertex -11.267 -69.606 10
      vertex -12.732 -67.653 0
    endloop
  endfacet
  facet normal -0.799951 -0.600066 0
    outer loop
      vertex -12.732 -67.653 0
      vertex -11.267 -69.606 10
      vertex -12.732 -67.653 10
    endloop
  endfacet
  facet normal -0.650828 -0.759225 0
    outer loop
      vertex -11.267 -69.606 0
      vertex -9.558 -71.071 0
      vertex -9.558 -71.071 10
    endloop
  endfacet
  facet normal -0.650828 -0.759225 0
    outer loop
      vertex -11.267 -69.606 10
      vertex -11.267 -69.606 0
      vertex -9.558 -71.071 10
    endloop
  endfacet
  facet normal -0.316228 -0.948683 0
    outer loop
      vertex -9.558 -71.071 0
      vertex -7.362 -71.803 0
      vertex -7.362 -71.803 10
    endloop
  endfacet
  facet normal -0.316228 -0.948683 0
    outer loop
      vertex -9.558 -71.071 10
      vertex -9.558 -71.071 0
      vertex -7.362 -71.803 10
    endloop
  endfacet
  facet normal 0.0144852 -0.999895 0
    outer loop
      vertex -7.362 -71.803 0
      vertex 9.481 -71.559 0
      vertex 9.481 -71.559 10
    endloop
  endfacet
  facet normal 0.0144852 -0.999895 0
    outer loop
      vertex -7.362 -71.803 10
      vertex -7.362 -71.803 0
      vertex 9.481 -71.559 10
    endloop
  endfacet
  facet normal 0.49592 -0.868368 0
    outer loop
      vertex 9.481 -71.559 0
      vertex 11.19 -70.583 0
      vertex 11.19 -70.583 10
    endloop
  endfacet
  facet normal 0.49592 -0.868368 0
    outer loop
      vertex 9.481 -71.559 10
      vertex 9.481 -71.559 0
      vertex 11.19 -70.583 10
    endloop
  endfacet
  facet normal 0.780838 -0.624734 0
    outer loop
      vertex 11.19 -70.583 0
      vertex 13.143 -68.142 0
      vertex 13.143 -68.142 10
    endloop
  endfacet
  facet normal 0.780838 -0.624734 0
    outer loop
      vertex 11.19 -70.583 10
      vertex 11.19 -70.583 0
      vertex 13.143 -68.142 10
    endloop
  endfacet
  facet normal 0.970172 -0.242419 0
    outer loop
      vertex 13.143 -68.142 0
      vertex 13.631 -66.189 0
      vertex 13.631 -66.189 10
    endloop
  endfacet
  facet normal 0.970172 -0.242419 0
    outer loop
      vertex 13.143 -68.142 10
      vertex 13.143 -68.142 0
      vertex 13.631 -66.189 10
    endloop
  endfacet
  facet normal 0.996548 -0.0830173 0
    outer loop
      vertex 13.631 -66.189 0
      vertex 13.875 -63.26 0
      vertex 13.875 -63.26 10
    endloop
  endfacet
  facet normal 0.996548 -0.0830173 0
    outer loop
      vertex 13.631 -66.189 10
      vertex 13.631 -66.189 0
      vertex 13.875 -63.26 10
    endloop
  endfacet
  facet normal 1 0 0
    outer loop
      vertex 13.875 -63.26 0
      vertex 13.875 -32.504 0
      vertex 13.875 -32.504 10
    endloop
  endfacet
  facet normal 1 0 0
    outer loop
      vertex 13.875 -63.26 10
      vertex 13.875 -63.26 0
      vertex 13.875 -32.504 10
    endloop
  endfacet
  facet normal -0.704494 -0.70971 0
    outer loop
      vertex 13.875 -32.504 0
      vertex 47.072 -65.457 0
      vertex 47.072 -65.457 10
    endloop
  endfacet
  facet normal -0.704494 -0.70971 0
    outer loop
      vertex 13.875 -32.504 10
      vertex 13.875 -32.504 0
      vertex 47.072 -65.457 10
    endloop
  endfacet
  facet normal -0.650572 -0.759445 0
    outer loop
      vertex 47.072 -65.457 0
      vertex 48.781 -66.921 0
      vertex 48.781 -66.921 10
    endloop
  endfacet
  facet normal -0.650572 -0.759445 0
    outer loop
      vertex 47.072 -65.457 10
      vertex 47.072 -65.457 0
      vertex 48.781 -66.921 10
    endloop
  endfacet
  facet normal -0.263026 -0.964789 0
    outer loop
      vertex 48.781 -66.921 0
      vertex 51.466 -67.653 0
      vertex 51.466 -67.653 10
    endloop
  endfacet
  facet normal -0.263026 -0.964789 0
    outer loop
      vertex 48.781 -66.921 10
      vertex 48.781 -66.921 0
      vertex 51.466 -67.653 10
    endloop
  endfacet
  facet normal 0.20947 -0.977815 0
    outer loop
      vertex 51.466 -67.653 0
      vertex 54.883 -66.921 0
      vertex 54.883 -66.921 10
    endloop
  endfacet
  facet normal 0.20947 -0.977815 0
    outer loop
      vertex 51.466 -67.653 10
      vertex 51.466 -67.653 0
      vertex 54.883 -66.921 10
    endloop
  endfacet
  facet normal 0.8 -0.6 0
    outer loop
      vertex 54.883 -66.921 0
      vertex 55.615 -65.945 0
      vertex 55.615 -65.945 10
    endloop
  endfacet
  facet normal 0.8 -0.6 0
    outer loop
      vertex 54.883 -66.921 10
      vertex 54.883 -66.921 0
      vertex 55.615 -65.945 10
    endloop
  endfacet
  facet normal 0.699628 -0.714507 0
    outer loop
      vertex 55.615 -65.945 0
      vertex 67.332 -54.472 0
      vertex 67.332 -54.472 10
    endloop
  endfacet
  facet normal 0.699628 -0.714507 0
    outer loop
      vertex 55.615 -65.945 10
      vertex 55.615 -65.945 0
      vertex 67.332 -54.472 10
    endloop
  endfacet
  facet normal 0.964789 -0.263026 0
    outer loop
      vertex 67.332 -54.472 0
      vertex 68.064 -51.787 0
      vertex 68.064 -51.787 10
    endloop
  endfacet
  facet normal 0.964789 -0.263026 0
    outer loop
      vertex 67.332 -54.472 10
      vertex 67.332 -54.472 0
      vertex 68.064 -51.787 10
    endloop
  endfacet
  facet normal 1 0 0
    outer loop
      vertex 68.064 -51.787 0
      vertex 68.064 -49.346 0
      vertex 68.064 -49.346 10
    endloop
  endfacet
  facet normal 1 0 0
    outer loop
      vertex 68.064 -51.787 10
      vertex 68.064 -51.787 0
      vertex 68.064 -49.346 10
    endloop
  endfacet
  facet normal 0.91388 0.405984 0
    outer loop
      vertex 67.088 -47.149 0
      vertex 67.088 -47.149 10
      vertex 68.064 -49.346 10
    endloop
  endfacet
  facet normal 0.91388 0.405984 0
    outer loop
      vertex 68.064 -49.346 0
      vertex 67.088 -47.149 0
      vertex 68.064 -49.346 10
    endloop
  endfacet
  facet normal 0.8 0.6 0
    outer loop
      vertex 66.356 -46.173 0
      vertex 66.356 -46.173 10
      vertex 67.088 -47.149 10
    endloop
  endfacet
  facet normal 0.8 0.6 0
    outer loop
      vertex 67.088 -47.149 0
      vertex 66.356 -46.173 0
      vertex 67.088 -47.149 10
    endloop
  endfacet
  facet normal 0.70188 0.712295 0
    outer loop
      vertex 32.914 -13.22 10
      vertex 66.356 -46.173 10
      vertex 32.914 -13.22 0
    endloop
  endfacet
  facet normal 0.70188 0.712295 0
    outer loop
      vertex 32.914 -13.22 0
      vertex 66.356 -46.173 10
      vertex 66.356 -46.173 0
    endloop
  endfacet
  facet normal 0 -1 0
    outer loop
      vertex 32.914 -13.22 0
      vertex 67.576 -13.22 0
      vertex 67.576 -13.22 10
    endloop
  endfacet
  facet normal 0 -1 0
    outer loop
      vertex 32.914 -13.22 10
      vertex 32.914 -13.22 0
      vertex 67.576 -13.22 10
    endloop
  endfacet
  facet normal 0.485778 -0.874082 0
    outer loop
      vertex 67.576 -13.22 0
      vertex 69.773 -11.999 0
      vertex 69.773 -11.999 10
    endloop
  endfacet
  facet normal 0.485778 -0.874082 0
    outer loop
      vertex 67.576 -13.22 10
      vertex 67.576 -13.22 0
      vertex 69.773 -11.999 10
    endloop
  endfacet
  facet normal 0.7069 -0.707314 0
    outer loop
      vertex 69.773 -11.999 0
      vertex 71.482 -10.291 0
      vertex 71.482 -10.291 10
    endloop
  endfacet
  facet normal 0.7069 -0.707314 0
    outer loop
      vertex 69.773 -11.999 10
      vertex 69.773 -11.999 0
      vertex 71.482 -10.291 10
    endloop
  endfacet
  facet normal 0.91388 -0.405984 0
    outer loop
      vertex 71.482 -10.291 0
      vertex 72.458 -8.094 0
      vertex 72.458 -8.094 10
    endloop
  endfacet
  facet normal 0.91388 -0.405984 0
    outer loop
      vertex 71.482 -10.291 10
      vertex 71.482 -10.291 0
      vertex 72.458 -8.094 10
    endloop
  endfacet
  facet normal 1 0 0
    outer loop
      vertex 72.458 -8.094 0
      vertex 72.458 8.505 0
      vertex 72.458 8.505 10
    endloop
  endfacet
  facet normal 1 0 0
    outer loop
      vertex 72.458 -8.094 10
      vertex 72.458 -8.094 0
      vertex 72.458 8.505 10
    endloop
  endfacet
  facet normal 0.894375 0.447318 0
    outer loop
      vertex 70.749 11.922 0
      vertex 70.749 11.922 10
      vertex 72.458 8.505 10
    endloop
  endfacet
  facet normal 0.894375 0.447318 0
    outer loop
      vertex 72.458 8.505 0
      vertex 70.749 11.922 0
      vertex 72.458 8.505 10
    endloop
  endfacet
  facet normal 0.478967 0.877833 0
    outer loop
      vertex 68.064 13.387 10
      vertex 70.749 11.922 10
      vertex 68.064 13.387 0
    endloop
  endfacet
  facet normal 0.478967 0.877833 0
    outer loop
      vertex 68.064 13.387 0
      vertex 70.749 11.922 10
      vertex 70.749 11.922 0
    endloop
  endfacet
  facet normal 0.0416164 0.999134 0
    outer loop
      vertex 62.206 13.631 10
      vertex 68.064 13.387 10
      vertex 62.206 13.631 0
    endloop
  endfacet
  facet normal 0.0416164 0.999134 0
    outer loop
      vertex 62.206 13.631 0
      vertex 68.064 13.387 10
      vertex 68.064 13.387 0
    endloop
  endfacet
  facet normal 0 1 0
    outer loop
      vertex 33.403 13.631 10
      vertex 62.206 13.631 10
      vertex 33.403 13.631 0
    endloop
  endfacet
  facet normal 0 1 0
    outer loop
      vertex 33.403 13.631 0
      vertex 62.206 13.631 10
      vertex 62.206 13.631 0
    endloop
  endfacet
  facet normal 0.709654 -0.70455 0
    outer loop
      vertex 33.403 13.631 0
      vertex 67.088 47.56 0
      vertex 67.088 47.56 10
    endloop
  endfacet
  facet normal 0.709654 -0.70455 0
    outer loop
      vertex 33.403 13.631 10
      vertex 33.403 13.631 0
      vertex 67.088 47.56 10
    endloop
  endfacet
  facet normal 0.868368 -0.49592 0
    outer loop
      vertex 67.088 47.56 0
      vertex 68.064 49.269 0
      vertex 68.064 49.269 10
    endloop
  endfacet
  facet normal 0.868368 -0.49592 0
    outer loop
      vertex 67.088 47.56 10
      vertex 67.088 47.56 0
      vertex 68.064 49.269 10
    endloop
  endfacet
  facet normal 0.995896 -0.0905023 0
    outer loop
      vertex 68.064 49.269 0
      vertex 68.308 51.954 0
      vertex 68.308 51.954 10
    endloop
  endfacet
  facet normal 0.995896 -0.0905023 0
    outer loop
      vertex 68.064 49.269 10
      vertex 68.064 49.269 0
      vertex 68.308 51.954 10
    endloop
  endfacet
  facet normal 0.923124 0.384503 0
    outer loop
      vertex 67.088 54.883 0
      vertex 67.088 54.883 10
      vertex 68.308 51.954 10
    endloop
  endfacet
  facet normal 0.923124 0.384503 0
    outer loop
      vertex 68.308 51.954 0
      vertex 67.088 54.883 0
      vertex 68.308 51.954 10
    endloop
  endfacet
  facet normal 0.707107 0.707107 0
    outer loop
      vertex 55.127 66.844 10
      vertex 67.088 54.883 10
      vertex 55.127 66.844 0
    endloop
  endfacet
  facet normal 0.707107 0.707107 0
    outer loop
      vertex 55.127 66.844 0
      vertex 67.088 54.883 10
      vertex 67.088 54.883 0
    endloop
  endfacet
  facet normal 0.294001 0.955805 0
    outer loop
      vertex 51.954 67.82 10
      vertex 55.127 66.844 10
      vertex 51.954 67.82 0
    endloop
  endfacet
  facet normal 0.294001 0.955805 0
    outer loop
      vertex 51.954 67.82 0
      vertex 55.127 66.844 10
      vertex 55.127 66.844 0
    endloop
  endfacet
  facet normal -0.164344 0.986403 0
    outer loop
      vertex 49.025 67.332 10
      vertex 51.954 67.82 10
      vertex 49.025 67.332 0
    endloop
  endfacet
  facet normal -0.164344 0.986403 0
    outer loop
      vertex 49.025 67.332 0
      vertex 51.954 67.82 10
      vertex 51.954 67.82 0
    endloop
  endfacet
  facet normal -0.707107 0.707107 0
    outer loop
      vertex 14.119 32.426 10
      vertex 49.025 67.332 10
      vertex 14.119 32.426 0
    endloop
  endfacet
  facet normal -0.707107 0.707107 0
    outer loop
      vertex 14.119 32.426 0
      vertex 49.025 67.332 10
      vertex 49.025 67.332 0
    endloop
  endfacet
  facet normal 1 0 0
    outer loop
      vertex 14.119 32.426 0
      vertex 14.119 66.6 0
      vertex 14.119 66.6 10
    endloop
  endfacet
  facet normal 1 0 0
    outer loop
      vertex 14.119 32.426 10
      vertex 14.119 32.426 0
      vertex 14.119 66.6 10
    endloop
  endfacet
  facet normal 0.919089 0.394049 0
    outer loop
      vertex 12.654 70.017 0
      vertex 12.654 70.017 10
      vertex 14.119 66.6 10
    endloop
  endfacet
  facet normal 0.919089 0.394049 0
    outer loop
      vertex 14.119 66.6 0
      vertex 12.654 70.017 0
      vertex 14.119 66.6 10
    endloop
  endfacet
  facet normal 0.5547 0.83205 0
    outer loop
      vertex 11.19 70.993 10
      vertex 12.654 70.017 10
      vertex 11.19 70.993 0
    endloop
  endfacet
  facet normal 0.5547 0.83205 0
    outer loop
      vertex 11.19 70.993 0
      vertex 12.654 70.017 10
      vertex 12.654 70.017 0
    endloop
  endfacet
  facet normal 0.406331 0.913726 0
    outer loop
      vertex 8.993 71.97 10
      vertex 11.19 70.993 10
      vertex 8.993 71.97 0
    endloop
  endfacet
  facet normal 0.406331 0.913726 0
    outer loop
      vertex 8.993 71.97 0
      vertex 11.19 70.993 10
      vertex 11.19 70.993 0
    endloop
  endfacet
  facet normal 0.0146981 0.999892 0
    outer loop
      vertex -7.606 72.214 10
      vertex 8.993 71.97 10
      vertex -7.606 72.214 0
    endloop
  endfacet
  facet normal 0.0146981 0.999892 0
    outer loop
      vertex -7.606 72.214 0
      vertex 8.993 71.97 10
      vertex 8.993 71.97 0
    endloop
  endfacet
  facet normal -0.447214 0.894427 0
    outer loop
      vertex -9.558 71.238 10
      vertex -7.606 72.214 10
      vertex -9.558 71.238 0
    endloop
  endfacet
  facet normal -0.447214 0.894427 0
    outer loop
      vertex -9.558 71.238 0
      vertex -7.606 72.214 10
      vertex -7.606 72.214 0
    endloop
  endfacet
  facet normal -0.447458 0.894305 0
    outer loop
      vertex -11.023 70.505 10
      vertex -9.558 71.238 10
      vertex -11.023 70.505 0
    endloop
  endfacet
  facet normal -0.447458 0.894305 0
    outer loop
      vertex -11.023 70.505 0
      vertex -9.558 71.238 10
      vertex -9.558 71.238 0
    endloop
  endfacet
  facet normal -0.789314 0.61399 0
    outer loop
      vertex -12.732 68.308 10
      vertex -11.023 70.505 10
      vertex -12.732 68.308 0
    endloop
  endfacet
  facet normal -0.789314 0.61399 0
    outer loop
      vertex -12.732 68.308 0
      vertex -11.023 70.505 10
      vertex -11.023 70.505 0
    endloop
  endfacet
  facet normal -0.995896 0.0905023 0
    outer loop
      vertex -12.976 65.623 10
      vertex -12.732 68.308 10
      vertex -12.976 65.623 0
    endloop
  endfacet
  facet normal -0.995896 0.0905023 0
    outer loop
      vertex -12.976 65.623 0
      vertex -12.732 68.308 10
      vertex -12.732 68.308 0
    endloop
  endfacet
  facet normal -1 0 0
    outer loop
      vertex -12.976 33.158 10
      vertex -12.976 65.623 10
      vertex -12.976 33.158 0
    endloop
  endfacet
  facet normal -1 0 0
    outer loop
      vertex -12.976 33.158 0
      vertex -12.976 65.623 10
      vertex -12.976 65.623 0
    endloop
  endfacet
  facet normal 0.702051 0.712127 0
    outer loop
      vertex -47.393 67.088 10
      vertex -12.976 33.158 10
      vertex -47.393 67.088 0
    endloop
  endfacet
  facet normal 0.702051 0.712127 0
    outer loop
      vertex -47.393 67.088 0
      vertex -12.976 33.158 10
      vertex -12.976 33.158 0
    endloop
  endfacet
  facet normal 0.216836 0.976208 0
    outer loop
      vertex -49.59 67.576 10
      vertex -47.393 67.088 10
      vertex -49.59 67.576 0
    endloop
  endfacet
  facet normal 0.216836 0.976208 0
    outer loop
      vertex -49.59 67.576 0
      vertex -47.393 67.088 10
      vertex -47.393 67.088 0
    endloop
  endfacet
  facet normal 0 1 0
    outer loop
      vertex -52.275 67.576 10
      vertex -49.59 67.576 10
      vertex -52.275 67.576 0
    endloop
  endfacet
  facet normal 0 1 0
    outer loop
      vertex -52.275 67.576 0
      vertex -49.59 67.576 10
      vertex -49.59 67.576 0
    endloop
  endfacet
  facet normal -0.274573 0.961566 0
    outer loop
      vertex -53.984 67.088 10
      vertex -52.275 67.576 10
      vertex -53.984 67.088 0
    endloop
  endfacet
  facet normal -0.274573 0.961566 0
    outer loop
      vertex -53.984 67.088 0
      vertex -52.275 67.576 10
      vertex -52.275 67.576 0
    endloop
  endfacet
  facet normal -0.707107 0.707107 0
    outer loop
      vertex -64.48 56.592 10
      vertex -53.984 67.088 10
      vertex -64.48 56.592 0
    endloop
  endfacet
  facet normal -0.707107 0.707107 0
    outer loop
      vertex -64.48 56.592 0
      vertex -53.984 67.088 10
      vertex -53.984 67.088 0
    endloop
  endfacet
  facet normal -0.707107 0.707107 0
    outer loop
      vertex -65.701 55.371 10
      vertex -64.48 56.592 10
      vertex -65.701 55.371 0
    endloop
  endfacet
  facet normal -0.707107 0.707107 0
    outer loop
      vertex -65.701 55.371 0
      vertex -64.48 56.592 10
      vertex -64.48 56.592 0
    endloop
  endfacet
  facet normal -0.8945 0.447067 0
    outer loop
      vertex -66.921 52.93 10
      vertex -65.701 55.371 10
      vertex -66.921 52.93 0
    endloop
  endfacet
  facet normal -0.8945 0.447067 0
    outer loop
      vertex -66.921 52.93 0
      vertex -65.701 55.371 10
      vertex -65.701 55.371 0
    endloop
  endfacet
  facet normal -0.996548 0.0830173 0
    outer loop
      vertex -67.165 50.001 10
      vertex -66.921 52.93 10
      vertex -67.165 50.001 0
    endloop
  endfacet
  facet normal -0.996548 0.0830173 0
    outer loop
      vertex -67.165 50.001 0
      vertex -66.921 52.93 10
      vertex -66.921 52.93 0
    endloop
  endfacet
  facet normal -0.8945 -0.447067 0
    outer loop
      vertex -65.945 47.56 0
      vertex -65.945 47.56 10
      vertex -67.165 50.001 0
    endloop
  endfacet
  facet normal -0.8945 -0.447067 0
    outer loop
      vertex -67.165 50.001 0
      vertex -65.945 47.56 10
      vertex -67.165 50.001 10
    endloop
  endfacet
  facet normal -0.707107 0.707107 0
    outer loop
      vertex -69.85 11.19 10
      vertex -68.142 12.898 10
      vertex -69.85 11.19 0
    endloop
  endfacet
  facet normal -0.707107 0.707107 0
    outer loop
      vertex -69.85 11.19 0
      vertex -68.142 12.898 10
      vertex -68.142 12.898 0
    endloop
  endfacet
  facet normal -0.894366 0.447336 0
    outer loop
      vertex -71.315 8.261 10
      vertex -69.85 11.19 10
      vertex -71.315 8.261 0
    endloop
  endfacet
  facet normal -0.894366 0.447336 0
    outer loop
      vertex -71.315 8.261 0
      vertex -69.85 11.19 10
      vertex -69.85 11.19 0
    endloop
  endfacet
  facet normal 0.999742 0.0227108 0
    outer loop
      vertex -12.976 5.576 0
      vertex -12.976 5.576 10
      vertex -12.732 -5.165 10
    endloop
  endfacet
  facet normal 0.999742 0.0227108 0
    outer loop
      vertex -12.732 -5.165 0
      vertex -12.976 5.576 0
      vertex -12.732 -5.165 10
    endloop
  endfacet
  facet normal 0.730262 -0.683167 0
    outer loop
      vertex -12.976 5.576 0
      vertex -5.897 13.143 0
      vertex -5.897 13.143 10
    endloop
  endfacet
  facet normal 0.730262 -0.683167 0
    outer loop
      vertex -12.976 5.576 10
      vertex -12.976 5.576 0
      vertex -5.897 13.143 10
    endloop
  endfacet
  facet normal 0.894427 -0.447214 0
    outer loop
      vertex -5.897 13.143 0
      vertex -5.653 13.631 0
      vertex -5.653 13.631 10
    endloop
  endfacet
  facet normal 0.894427 -0.447214 0
    outer loop
      vertex -5.897 13.143 10
      vertex -5.897 13.143 0
      vertex -5.653 13.631 10
    endloop
  endfacet
  facet normal -0.0208199 -0.999783 0
    outer loop
      vertex -5.653 13.631 0
      vertex 6.064 13.387 0
      vertex 6.064 13.387 10
    endloop
  endfacet
  facet normal -0.0208199 -0.999783 0
    outer loop
      vertex -5.653 13.631 10
      vertex -5.653 13.631 0
      vertex 6.064 13.387 10
    endloop
  endfacet
  facet normal -0.6958 -0.718236 0
    outer loop
      vertex 6.064 13.387 0
      vertex 13.875 5.82 0
      vertex 13.875 5.82 10
    endloop
  endfacet
  facet normal -0.6958 -0.718236 0
    outer loop
      vertex 6.064 13.387 10
      vertex 6.064 13.387 0
      vertex 13.875 5.82 10
    endloop
  endfacet
  facet normal -1 0 0
    outer loop
      vertex 13.875 5.087 10
      vertex 13.875 5.82 10
      vertex 13.875 5.087 0
    endloop
  endfacet
  facet normal -1 0 0
    outer loop
      vertex 13.875 5.087 0
      vertex 13.875 5.82 10
      vertex 13.875 5.82 0
    endloop
  endfacet
  facet normal -0.999742 -0.0227129 0
    outer loop
      vertex 14.119 -5.653 0
      vertex 14.119 -5.653 10
      vertex 13.875 5.087 0
    endloop
  endfacet
  facet normal -0.999742 -0.0227129 0
    outer loop
      vertex 13.875 5.087 0
      vertex 14.119 -5.653 10
      vertex 13.875 5.087 10
    endloop
  endfacet
  facet normal -0.684684 0.72884 0
    outer loop
      vertex 6.064 -13.22 10
      vertex 14.119 -5.653 10
      vertex 6.064 -13.22 0
    endloop
  endfacet
  facet normal -0.684684 0.72884 0
    outer loop
      vertex 6.064 -13.22 0
      vertex 14.119 -5.653 10
      vertex 14.119 -5.653 0
    endloop
  endfacet
  facet normal 0.0222066 0.999753 0
    outer loop
      vertex -4.921 -12.976 10
      vertex 6.064 -13.22 10
      vertex -4.921 -12.976 0
    endloop
  endfacet
  facet normal 0.0222066 0.999753 0
    outer loop
      vertex -4.921 -12.976 0
      vertex 6.064 -13.22 10
      vertex 6.064 -13.22 0
    endloop
  endfacet
  facet normal 0.707107 0.707107 0
    outer loop
      vertex -12.732 -5.165 0
      vertex -12.732 -5.165 10
      vertex -4.921 -12.976 10
    endloop
  endfacet
  facet normal 0.707107 0.707107 0
    outer loop
      vertex -4.921 -12.976 0
      vertex -12.732 -5.165 0
      vertex -4.921 -12.976 10
    endloop
  endfacet
endsolid OpenSCAD_Model
