solid OpenSCAD_Model
  facet normal -0.707107 0.707107 0
    outer loop
      vertex -24.7487 -29.2 -2.5
      vertex -24.7487 -29.2 2.5
      vertex -4 -8.45126 -2.5
    endloop
  endfacet
  facet normal -0.707107 0.707107 0
    outer loop
      vertex -4 -8.45126 -2.5
      vertex -24.7487 -29.2 2.5
      vertex -4 -8.45126 2.5
    endloop
  endfacet
  facet normal -0.707107 -0.707107 0
    outer loop
      vertex -24.7487 -29.2 -2.5
      vertex -19.0919 -34.8569 -2.5
      vertex -24.7487 -29.2 2.5
    endloop
  endfacet
  facet normal -0.707107 -0.707107 0
    outer loop
      vertex -24.7487 -29.2 2.5
      vertex -19.0919 -34.8569 -2.5
      vertex -19.0919 -34.8569 2.5
    endloop
  endfacet
  facet normal 0 0 -1
    outer loop
      vertex -24.7487 -29.2 -2.5
      vertex -4 -8.45126 -2.5
      vertex -19.0919 -34.8569 -2.5
    endloop
  endfacet
  facet normal 0 0 -1
    outer loop
      vertex 1.40536 29.8672 -2.5
      vertex -4 -8.45126 -2.5
      vertex 0.939999 29.9409 -2.5
    endloop
  endfacet
  facet normal 0 0 -1
    outer loop
      vertex -23.9474 16.5 -2.5
      vertex -4 8.5 -2.5
      vertex -24 16.5 -2.5
    endloop
  endfacet
  facet normal 0 0 -1
    outer loop
      vertex -4 8.5 -2.5
      vertex -24 8.5 -2.5
      vertex -24 16.5 -2.5
    endloop
  endfacet
  facet normal 0 0 -1
    outer loop
      vertex -15.9474 16.5 -2.5
      vertex -4 8.5 -2.5
      vertex -23.4755 20.9899 -2.5
    endloop
  endfacet
  facet normal 0 0 -1
    outer loop
      vertex -4 8.5 -2.5
      vertex -23.9474 16.5 -2.5
      vertex -23.4755 20.9899 -2.5
    endloop
  endfacet
  facet normal 0 0 -1
    outer loop
      vertex 5.1341 27.9673 -2.5
      vertex -4 -8.45126 -2.5
      vertex 4.78068 28.2788 -2.5
    endloop
  endfacet
  facet normal 0 0 -1
    outer loop
      vertex -12.9443 25.4046 -2.5
      vertex -16.0591 33.8355 -2.5
      vertex -10.7061 27.8903 -2.5
    endloop
  endfacet
  facet normal 0 0 -1
    outer loop
      vertex 15.6504 19.3266 -2.5
      vertex 19.4164 30.1068 -2.5
      vertex 21.9251 25.7617 -2.5
    endloop
  endfacet
  facet normal 0 0 -1
    outer loop
      vertex 15.9474 16.5 -2.5
      vertex 21.9251 25.7617 -2.5
      vertex 23.4755 20.9899 -2.5
    endloop
  endfacet
  facet normal 0 0 -1
    outer loop
      vertex 4 -8.45126 -2.5
      vertex -4 -8.45126 -2.5
      vertex 4 8.5 -2.5
    endloop
  endfacet
  facet normal 0 0 -1
    outer loop
      vertex -14.6167 22.5078 -2.5
      vertex -19.4164 30.1068 -2.5
      vertex -12.9443 25.4046 -2.5
    endloop
  endfacet
  facet normal 0 0 -1
    outer loop
      vertex 1.05471e-15 -15.765 -2.5
      vertex 24.7487 -29.2 -2.5
      vertex 19.0919 -34.8569 -2.5
    endloop
  endfacet
  facet normal 0 0 -1
    outer loop
      vertex -15.6504 19.3266 -2.5
      vertex -21.9251 25.7617 -2.5
      vertex -14.6167 22.5078 -2.5
    endloop
  endfacet
  facet normal 0 0 -1
    outer loop
      vertex -4.49557 16.5 -2.5
      vertex -4 8.5 -2.5
      vertex -15.9474 16.5 -2.5
    endloop
  endfacet
  facet normal 0 0 -1
    outer loop
      vertex -21.9251 25.7617 -2.5
      vertex -15.6504 19.3266 -2.5
      vertex -23.4755 20.9899 -2.5
    endloop
  endfacet
  facet normal 0 0 -1
    outer loop
      vertex -15.6504 19.3266 -2.5
      vertex -15.9474 16.5 -2.5
      vertex -23.4755 20.9899 -2.5
    endloop
  endfacet
  facet normal 0 0 -1
    outer loop
      vertex -3.19334 29.2862 -2.5
      vertex -4 8.5 -2.5
      vertex -4.49557 16.5 -2.5
    endloop
  endfacet
  facet normal 0 0 -1
    outer loop
      vertex -3.19334 29.2862 -2.5
      vertex -4.49557 16.5 -2.5
      vertex -3.61315 29.0723 -2.5
    endloop
  endfacet
  facet normal 0 0 -1
    outer loop
      vertex -7.36715 21.0946 -2.5
      vertex -6.97332 19.7391 -2.5
      vertex -7.26437 20.6348 -2.5
    endloop
  endfacet
  facet normal 0 0 -1
    outer loop
      vertex -6.06763 26.9084 -2.5
      vertex -5.1341 17.0327 -2.5
      vertex -6.33246 26.5187 -2.5
    endloop
  endfacet
  facet normal 0 0 -1
    outer loop
      vertex -7.36715 23.9054 -2.5
      vertex -5.1341 17.0327 -2.5
      vertex -7.44086 23.44 -2.5
    endloop
  endfacet
  facet normal 0 0 -1
    outer loop
      vertex -7.44086 23.44 -2.5
      vertex -5.46726 17.3659 -2.5
      vertex -7.4852 22.9709 -2.5
    endloop
  endfacet
  facet normal 0 0 -1
    outer loop
      vertex 8 29.8564 -2.5
      vertex 12 36.7846 -2.5
      vertex 10.7061 27.8903 -2.5
    endloop
  endfacet
  facet normal 0 0 -1
    outer loop
      vertex -7.4852 22.9709 -2.5
      vertex -5.77885 17.7193 -2.5
      vertex -6.06763 18.0916 -2.5
    endloop
  endfacet
  facet normal 0 0 -1
    outer loop
      vertex -7.5 22.5 -2.5
      vertex -6.33246 18.4813 -2.5
      vertex -7.4852 22.0291 -2.5
    endloop
  endfacet
  facet normal 0 0 -1
    outer loop
      vertex -7.4852 22.0291 -2.5
      vertex -6.5723 18.8868 -2.5
      vertex -7.44086 21.56 -2.5
    endloop
  endfacet
  facet normal 0 0 -1
    outer loop
      vertex -7.44086 21.56 -2.5
      vertex -6.7862 19.3067 -2.5
      vertex -7.36715 21.0946 -2.5
    endloop
  endfacet
  facet normal 0 0 -1
    outer loop
      vertex -6.97332 19.7391 -2.5
      vertex -7.13292 20.1824 -2.5
      vertex -7.26437 20.6348 -2.5
    endloop
  endfacet
  facet normal 0 0 -1
    outer loop
      vertex -6.7862 19.3067 -2.5
      vertex -6.97332 19.7391 -2.5
      vertex -7.36715 21.0946 -2.5
    endloop
  endfacet
  facet normal 0 0 -1
    outer loop
      vertex -6.5723 18.8868 -2.5
      vertex -6.7862 19.3067 -2.5
      vertex -7.44086 21.56 -2.5
    endloop
  endfacet
  facet normal 0 0 -1
    outer loop
      vertex -6.33246 18.4813 -2.5
      vertex -6.5723 18.8868 -2.5
      vertex -7.4852 22.0291 -2.5
    endloop
  endfacet
  facet normal 0 0 -1
    outer loop
      vertex -7.4852 22.9709 -2.5
      vertex -6.06763 18.0916 -2.5
      vertex -7.5 22.5 -2.5
    endloop
  endfacet
  facet normal 0 0 -1
    outer loop
      vertex -6.06763 18.0916 -2.5
      vertex -6.33246 18.4813 -2.5
      vertex -7.5 22.5 -2.5
    endloop
  endfacet
  facet normal 0 0 -1
    outer loop
      vertex -5.46726 17.3659 -2.5
      vertex -5.77885 17.7193 -2.5
      vertex -7.4852 22.9709 -2.5
    endloop
  endfacet
  facet normal 0 0 -1
    outer loop
      vertex -5.1341 17.0327 -2.5
      vertex -5.46726 17.3659 -2.5
      vertex -7.44086 23.44 -2.5
    endloop
  endfacet
  facet normal 0 0 -1
    outer loop
      vertex -7.26437 24.3652 -2.5
      vertex -5.1341 17.0327 -2.5
      vertex -7.36715 23.9054 -2.5
    endloop
  endfacet
  facet normal 0 0 -1
    outer loop
      vertex -7.13292 24.8176 -2.5
      vertex -5.1341 17.0327 -2.5
      vertex -7.26437 24.3652 -2.5
    endloop
  endfacet
  facet normal 0 0 -1
    outer loop
      vertex -6.97332 25.2609 -2.5
      vertex -5.1341 17.0327 -2.5
      vertex -7.13292 24.8176 -2.5
    endloop
  endfacet
  facet normal 0 0 -1
    outer loop
      vertex -6.7862 25.6933 -2.5
      vertex -5.1341 17.0327 -2.5
      vertex -6.97332 25.2609 -2.5
    endloop
  endfacet
  facet normal 0 0 -1
    outer loop
      vertex -6.5723 26.1132 -2.5
      vertex -5.1341 17.0327 -2.5
      vertex -6.7862 25.6933 -2.5
    endloop
  endfacet
  facet normal 0 0 -1
    outer loop
      vertex -6.33246 26.5187 -2.5
      vertex -5.1341 17.0327 -2.5
      vertex -6.5723 26.1132 -2.5
    endloop
  endfacet
  facet normal 0 0 -1
    outer loop
      vertex -5.77885 27.2807 -2.5
      vertex -4.78068 16.7212 -2.5
      vertex -6.06763 26.9084 -2.5
    endloop
  endfacet
  facet normal 0 0 -1
    outer loop
      vertex -5.46726 27.6341 -2.5
      vertex -4.49557 16.5 -2.5
      vertex -5.77885 27.2807 -2.5
    endloop
  endfacet
  facet normal 0 0 -1
    outer loop
      vertex -5.1341 27.9673 -2.5
      vertex -4.49557 16.5 -2.5
      vertex -5.46726 27.6341 -2.5
    endloop
  endfacet
  facet normal 0 0 -1
    outer loop
      vertex -4.78068 28.2788 -2.5
      vertex -4.49557 16.5 -2.5
      vertex -5.1341 27.9673 -2.5
    endloop
  endfacet
  facet normal 0 0 -1
    outer loop
      vertex -4.40839 28.5676 -2.5
      vertex -4.49557 16.5 -2.5
      vertex -4.78068 28.2788 -2.5
    endloop
  endfacet
  facet normal 0 0 -1
    outer loop
      vertex -4.0187 28.8325 -2.5
      vertex -4.49557 16.5 -2.5
      vertex -4.40839 28.5676 -2.5
    endloop
  endfacet
  facet normal 0 0 -1
    outer loop
      vertex -3.61315 29.0723 -2.5
      vertex -4.49557 16.5 -2.5
      vertex -4.0187 28.8325 -2.5
    endloop
  endfacet
  facet normal 0 0 -1
    outer loop
      vertex -2.76093 29.4733 -2.5
      vertex -4 8.5 -2.5
      vertex -3.19334 29.2862 -2.5
    endloop
  endfacet
  facet normal 0 0 -1
    outer loop
      vertex -2.76093 29.4733 -2.5
      vertex -4 -8.45126 -2.5
      vertex -4 8.5 -2.5
    endloop
  endfacet
  facet normal 0 0 -1
    outer loop
      vertex -2.31763 29.6329 -2.5
      vertex -4 -8.45126 -2.5
      vertex -2.76093 29.4733 -2.5
    endloop
  endfacet
  facet normal 0 0 -1
    outer loop
      vertex -1.86517 29.7644 -2.5
      vertex -4 -8.45126 -2.5
      vertex -2.31763 29.6329 -2.5
    endloop
  endfacet
  facet normal 0 0 -1
    outer loop
      vertex -1.40536 29.8672 -2.5
      vertex -4 -8.45126 -2.5
      vertex -1.86517 29.7644 -2.5
    endloop
  endfacet
  facet normal 0 0 -1
    outer loop
      vertex -0.939999 29.9409 -2.5
      vertex -4 -8.45126 -2.5
      vertex -1.40536 29.8672 -2.5
    endloop
  endfacet
  facet normal 0 0 -1
    outer loop
      vertex -0.470929 29.9852 -2.5
      vertex -4 -8.45126 -2.5
      vertex -0.939999 29.9409 -2.5
    endloop
  endfacet
  facet normal 0 0 -1
    outer loop
      vertex 0 30 -2.5
      vertex -4 -8.45126 -2.5
      vertex -0.470929 29.9852 -2.5
    endloop
  endfacet
  facet normal 0 0 -1
    outer loop
      vertex 0.470929 29.9852 -2.5
      vertex -4 -8.45126 -2.5
      vertex 0 30 -2.5
    endloop
  endfacet
  facet normal 0 0 -1
    outer loop
      vertex 0.939999 29.9409 -2.5
      vertex -4 -8.45126 -2.5
      vertex 0.470929 29.9852 -2.5
    endloop
  endfacet
  facet normal 0 0 -1
    outer loop
      vertex 1.86517 29.7644 -2.5
      vertex -4 -8.45126 -2.5
      vertex 1.40536 29.8672 -2.5
    endloop
  endfacet
  facet normal 0 0 -1
    outer loop
      vertex 2.31763 29.6329 -2.5
      vertex -4 -8.45126 -2.5
      vertex 1.86517 29.7644 -2.5
    endloop
  endfacet
  facet normal 0 0 -1
    outer loop
      vertex 2.76093 29.4733 -2.5
      vertex -4 -8.45126 -2.5
      vertex 2.31763 29.6329 -2.5
    endloop
  endfacet
  facet normal 0 0 -1
    outer loop
      vertex 3.19334 29.2862 -2.5
      vertex -4 -8.45126 -2.5
      vertex 2.76093 29.4733 -2.5
    endloop
  endfacet
  facet normal 0 0 -1
    outer loop
      vertex 3.61315 29.0723 -2.5
      vertex -4 -8.45126 -2.5
      vertex 3.19334 29.2862 -2.5
    endloop
  endfacet
  facet normal 0 0 -1
    outer loop
      vertex 4.0187 28.8325 -2.5
      vertex -4 -8.45126 -2.5
      vertex 3.61315 29.0723 -2.5
    endloop
  endfacet
  facet normal 0 0 -1
    outer loop
      vertex 4.40839 28.5676 -2.5
      vertex -4 -8.45126 -2.5
      vertex 4.0187 28.8325 -2.5
    endloop
  endfacet
  facet normal 0 0 -1
    outer loop
      vertex 4.78068 28.2788 -2.5
      vertex -4 -8.45126 -2.5
      vertex 4.40839 28.5676 -2.5
    endloop
  endfacet
  facet normal 0 0 -1
    outer loop
      vertex 7.44086 23.44 -2.5
      vertex 5.1341 17.0327 -2.5
      vertex 7.36715 23.9054 -2.5
    endloop
  endfacet
  facet normal 0 0 -1
    outer loop
      vertex 5.46726 27.6341 -2.5
      vertex -4 -8.45126 -2.5
      vertex 5.1341 27.9673 -2.5
    endloop
  endfacet
  facet normal 0 0 -1
    outer loop
      vertex 5.77885 27.2807 -2.5
      vertex -4 -8.45126 -2.5
      vertex 5.46726 27.6341 -2.5
    endloop
  endfacet
  facet normal 0 0 -1
    outer loop
      vertex 6.06763 26.9084 -2.5
      vertex -4 -8.45126 -2.5
      vertex 5.77885 27.2807 -2.5
    endloop
  endfacet
  facet normal 0 0 -1
    outer loop
      vertex 6.33246 26.5187 -2.5
      vertex -4 -8.45126 -2.5
      vertex 6.06763 26.9084 -2.5
    endloop
  endfacet
  facet normal 0 0 -1
    outer loop
      vertex 6.5723 26.1132 -2.5
      vertex -4 -8.45126 -2.5
      vertex 6.33246 26.5187 -2.5
    endloop
  endfacet
  facet normal 0 0 -1
    outer loop
      vertex 6.7862 25.6933 -2.5
      vertex -4 -8.45126 -2.5
      vertex 6.5723 26.1132 -2.5
    endloop
  endfacet
  facet normal 0 0 -1
    outer loop
      vertex 4.94427 31.2169 -2.5
      vertex 12 36.7846 -2.5
      vertex 8 29.8564 -2.5
    endloop
  endfacet
  facet normal 0 0 -1
    outer loop
      vertex 6.97332 25.2609 -2.5
      vertex -4 -8.45126 -2.5
      vertex 6.7862 25.6933 -2.5
    endloop
  endfacet
  facet normal 0 0 -1
    outer loop
      vertex 7.13292 24.8176 -2.5
      vertex -4 -8.45126 -2.5
      vertex 6.97332 25.2609 -2.5
    endloop
  endfacet
  facet normal 0 0 -1
    outer loop
      vertex 4.49557 16.5 -2.5
      vertex -4 -8.45126 -2.5
      vertex 7.13292 24.8176 -2.5
    endloop
  endfacet
  facet normal 0 0 -1
    outer loop
      vertex 15.9474 16.5 -2.5
      vertex 4 8.5 -2.5
      vertex 4.49557 16.5 -2.5
    endloop
  endfacet
  facet normal 0 0 -1
    outer loop
      vertex 6.33246 18.4813 -2.5
      vertex 7.44086 23.44 -2.5
      vertex 7.4852 22.9709 -2.5
    endloop
  endfacet
  facet normal 0 0 -1
    outer loop
      vertex 6.5723 18.8868 -2.5
      vertex 7.4852 22.9709 -2.5
      vertex 7.5 22.5 -2.5
    endloop
  endfacet
  facet normal 0 0 -1
    outer loop
      vertex 6.7862 19.3067 -2.5
      vertex 7.4852 22.0291 -2.5
      vertex 7.44086 21.56 -2.5
    endloop
  endfacet
  facet normal 0 0 -1
    outer loop
      vertex 6.97332 19.7391 -2.5
      vertex 7.44086 21.56 -2.5
      vertex 7.36715 21.0946 -2.5
    endloop
  endfacet
  facet normal 0 0 -1
    outer loop
      vertex 7.13292 20.1824 -2.5
      vertex 7.36715 21.0946 -2.5
      vertex 7.26437 20.6348 -2.5
    endloop
  endfacet
  facet normal 0 0 -1
    outer loop
      vertex 6.5723 18.8868 -2.5
      vertex 7.4852 22.0291 -2.5
      vertex 6.7862 19.3067 -2.5
    endloop
  endfacet
  facet normal 0 0 -1
    outer loop
      vertex 6.7862 19.3067 -2.5
      vertex 7.44086 21.56 -2.5
      vertex 6.97332 19.7391 -2.5
    endloop
  endfacet
  facet normal 0 0 -1
    outer loop
      vertex 6.5723 18.8868 -2.5
      vertex 7.5 22.5 -2.5
      vertex 7.4852 22.0291 -2.5
    endloop
  endfacet
  facet normal 0 0 -1
    outer loop
      vertex 6.33246 18.4813 -2.5
      vertex 7.4852 22.9709 -2.5
      vertex 6.5723 18.8868 -2.5
    endloop
  endfacet
  facet normal 0 0 -1
    outer loop
      vertex 6.06763 18.0916 -2.5
      vertex 7.44086 23.44 -2.5
      vertex 6.33246 18.4813 -2.5
    endloop
  endfacet
  facet normal 0 0 -1
    outer loop
      vertex 5.1341 17.0327 -2.5
      vertex 7.44086 23.44 -2.5
      vertex 5.46726 17.3659 -2.5
    endloop
  endfacet
  facet normal 0 0 -1
    outer loop
      vertex 6.06763 18.0916 -2.5
      vertex 5.77885 17.7193 -2.5
      vertex 7.44086 23.44 -2.5
    endloop
  endfacet
  facet normal 0 0 -1
    outer loop
      vertex 5.77885 17.7193 -2.5
      vertex 5.46726 17.3659 -2.5
      vertex 7.44086 23.44 -2.5
    endloop
  endfacet
  facet normal 0 0 -1
    outer loop
      vertex 4.78068 16.7212 -2.5
      vertex 7.36715 23.9054 -2.5
      vertex 5.1341 17.0327 -2.5
    endloop
  endfacet
  facet normal 0 0 -1
    outer loop
      vertex 6.97332 19.7391 -2.5
      vertex 7.36715 21.0946 -2.5
      vertex 7.13292 20.1824 -2.5
    endloop
  endfacet
  facet normal 0 0 -1
    outer loop
      vertex 4.49557 16.5 -2.5
      vertex 7.26437 24.3652 -2.5
      vertex 4.78068 16.7212 -2.5
    endloop
  endfacet
  facet normal 0 0 -1
    outer loop
      vertex 7.36715 23.9054 -2.5
      vertex 4.78068 16.7212 -2.5
      vertex 7.26437 24.3652 -2.5
    endloop
  endfacet
  facet normal 0 0 -1
    outer loop
      vertex 4 8.5 -2.5
      vertex -4 -8.45126 -2.5
      vertex 4.49557 16.5 -2.5
    endloop
  endfacet
  facet normal 0 0 -1
    outer loop
      vertex 7.26437 24.3652 -2.5
      vertex 4.49557 16.5 -2.5
      vertex 7.13292 24.8176 -2.5
    endloop
  endfacet
  facet normal 0 0 -1
    outer loop
      vertex 19.4164 30.1068 -2.5
      vertex 14.6167 22.5078 -2.5
      vertex 16.0591 33.8355 -2.5
    endloop
  endfacet
  facet normal 0 0 -1
    outer loop
      vertex 14.6167 22.5078 -2.5
      vertex 12.9443 25.4046 -2.5
      vertex 16.0591 33.8355 -2.5
    endloop
  endfacet
  facet normal 0 0 -1
    outer loop
      vertex 16.0591 33.8355 -2.5
      vertex 10.7061 27.8903 -2.5
      vertex 12 36.7846 -2.5
    endloop
  endfacet
  facet normal 0 0 -1
    outer loop
      vertex 4.94427 31.2169 -2.5
      vertex 7.41641 38.8254 -2.5
      vertex 12 36.7846 -2.5
    endloop
  endfacet
  facet normal 0 0 -1
    outer loop
      vertex 1.67246 31.9123 -2.5
      vertex 7.41641 38.8254 -2.5
      vertex 4.94427 31.2169 -2.5
    endloop
  endfacet
  facet normal 0 0 -1
    outer loop
      vertex -1.67246 31.9123 -2.5
      vertex 2.50868 39.8685 -2.5
      vertex 1.67246 31.9123 -2.5
    endloop
  endfacet
  facet normal 0 0 -1
    outer loop
      vertex 7.41641 38.8254 -2.5
      vertex 1.67246 31.9123 -2.5
      vertex 2.50868 39.8685 -2.5
    endloop
  endfacet
  facet normal 0 0 -1
    outer loop
      vertex -4.94427 31.2169 -2.5
      vertex -2.50868 39.8685 -2.5
      vertex -1.67246 31.9123 -2.5
    endloop
  endfacet
  facet normal 0 0 -1
    outer loop
      vertex 2.50868 39.8685 -2.5
      vertex -1.67246 31.9123 -2.5
      vertex -2.50868 39.8685 -2.5
    endloop
  endfacet
  facet normal 0 0 -1
    outer loop
      vertex -8 29.8564 -2.5
      vertex -7.41641 38.8254 -2.5
      vertex -4.94427 31.2169 -2.5
    endloop
  endfacet
  facet normal 0 0 -1
    outer loop
      vertex -2.50868 39.8685 -2.5
      vertex -4.94427 31.2169 -2.5
      vertex -7.41641 38.8254 -2.5
    endloop
  endfacet
  facet normal 0 0 -1
    outer loop
      vertex -10.7061 27.8903 -2.5
      vertex -12 36.7846 -2.5
      vertex -8 29.8564 -2.5
    endloop
  endfacet
  facet normal 0 0 -1
    outer loop
      vertex -7.41641 38.8254 -2.5
      vertex -8 29.8564 -2.5
      vertex -12 36.7846 -2.5
    endloop
  endfacet
  facet normal 0 0 -1
    outer loop
      vertex -12 36.7846 -2.5
      vertex -10.7061 27.8903 -2.5
      vertex -16.0591 33.8355 -2.5
    endloop
  endfacet
  facet normal 0 0 -1
    outer loop
      vertex -16.0591 33.8355 -2.5
      vertex -12.9443 25.4046 -2.5
      vertex -19.4164 30.1068 -2.5
    endloop
  endfacet
  facet normal 0 0 -1
    outer loop
      vertex -19.4164 30.1068 -2.5
      vertex -14.6167 22.5078 -2.5
      vertex -21.9251 25.7617 -2.5
    endloop
  endfacet
  facet normal 0 0 -1
    outer loop
      vertex 14.6167 22.5078 -2.5
      vertex 19.4164 30.1068 -2.5
      vertex 15.6504 19.3266 -2.5
    endloop
  endfacet
  facet normal 0 0 -1
    outer loop
      vertex 15.6504 19.3266 -2.5
      vertex 21.9251 25.7617 -2.5
      vertex 15.9474 16.5 -2.5
    endloop
  endfacet
  facet normal 0 0 -1
    outer loop
      vertex 10.7061 27.8903 -2.5
      vertex 16.0591 33.8355 -2.5
      vertex 12.9443 25.4046 -2.5
    endloop
  endfacet
  facet normal 0 0 -1
    outer loop
      vertex 4 8.5 -2.5
      vertex 15.9474 16.5 -2.5
      vertex 23.4755 20.9899 -2.5
    endloop
  endfacet
  facet normal 0 0 -1
    outer loop
      vertex 4 8.5 -2.5
      vertex 23.4755 20.9899 -2.5
      vertex 23.9474 16.5 -2.5
    endloop
  endfacet
  facet normal 0 0 -1
    outer loop
      vertex 4 8.5 -2.5
      vertex 23.9474 16.5 -2.5
      vertex 24 16.5 -2.5
    endloop
  endfacet
  facet normal 0 0 -1
    outer loop
      vertex 4 8.5 -2.5
      vertex 24 16.5 -2.5
      vertex 24 8.5 -2.5
    endloop
  endfacet
  facet normal 0 0 -1
    outer loop
      vertex 4 -8.45126 -2.5
      vertex -19.0919 -34.8569 -2.5
      vertex -4 -8.45126 -2.5
    endloop
  endfacet
  facet normal 0 0 -1
    outer loop
      vertex 1.05471e-15 -15.765 -2.5
      vertex -19.0919 -34.8569 -2.5
      vertex 4 -8.45126 -2.5
    endloop
  endfacet
  facet normal 0 0 -1
    outer loop
      vertex 24.7487 -29.2 -2.5
      vertex 1.05471e-15 -15.765 -2.5
      vertex 4 -8.45126 -2.5
    endloop
  endfacet
  facet normal 0 0 -1
    outer loop
      vertex -5.77885 27.2807 -2.5
      vertex -4.49557 16.5 -2.5
      vertex -4.78068 16.7212 -2.5
    endloop
  endfacet
  facet normal 0 0 -1
    outer loop
      vertex -5.1341 17.0327 -2.5
      vertex -6.06763 26.9084 -2.5
      vertex -4.78068 16.7212 -2.5
    endloop
  endfacet
  facet normal -1 0 0
    outer loop
      vertex -4 -8.45126 -2.5
      vertex -4 -8.45126 2.5
      vertex -4 8.5 -2.5
    endloop
  endfacet
  facet normal -1 0 0
    outer loop
      vertex -4 8.5 -2.5
      vertex -4 -8.45126 2.5
      vertex -4 8.5 2.5
    endloop
  endfacet
  facet normal 0 0 1
    outer loop
      vertex -4 -8.45126 2.5
      vertex -24.7487 -29.2 2.5
      vertex -19.0919 -34.8569 2.5
    endloop
  endfacet
  facet normal 0 0 1
    outer loop
      vertex 19.0919 -34.8569 2.5
      vertex -4 -8.45126 2.5
      vertex 1.05471e-15 -15.765 2.5
    endloop
  endfacet
  facet normal 0 0 1
    outer loop
      vertex 1.05471e-15 -15.765 2.5
      vertex -4 -8.45126 2.5
      vertex -19.0919 -34.8569 2.5
    endloop
  endfacet
  facet normal 0 0 1
    outer loop
      vertex 24.7487 -29.2 2.5
      vertex -4 -8.45126 2.5
      vertex 19.0919 -34.8569 2.5
    endloop
  endfacet
  facet normal 0 0 1
    outer loop
      vertex 4 -8.45126 2.5
      vertex -4 -8.45126 2.5
      vertex 24.7487 -29.2 2.5
    endloop
  endfacet
  facet normal 0 0 1
    outer loop
      vertex 4 8.5 2.5
      vertex -4 -8.45126 2.5
      vertex 4 -8.45126 2.5
    endloop
  endfacet
  facet normal 0 0 1
    outer loop
      vertex -24 16.5 2.5
      vertex -24 8.5 2.5
      vertex -23.9474 16.5 2.5
    endloop
  endfacet
  facet normal 0 0 1
    outer loop
      vertex 24 16.5 2.5
      vertex 4 8.5 2.5
      vertex 24 8.5 2.5
    endloop
  endfacet
  facet normal 0 0 1
    outer loop
      vertex 23.9474 16.5 2.5
      vertex 4 8.5 2.5
      vertex 24 16.5 2.5
    endloop
  endfacet
  facet normal 0 0 1
    outer loop
      vertex 23.4755 20.9899 2.5
      vertex 4 8.5 2.5
      vertex 23.9474 16.5 2.5
    endloop
  endfacet
  facet normal 0 0 1
    outer loop
      vertex 15.9474 16.5 2.5
      vertex 4 8.5 2.5
      vertex 23.4755 20.9899 2.5
    endloop
  endfacet
  facet normal 0 0 1
    outer loop
      vertex -24 8.5 2.5
      vertex -19.4164 30.1068 2.5
      vertex -21.9251 25.7617 2.5
    endloop
  endfacet
  facet normal 0 0 1
    outer loop
      vertex -7.4852 22.9709 2.5
      vertex -7.5 22.5 2.5
      vertex -6.06763 26.9084 2.5
    endloop
  endfacet
  facet normal 0 0 1
    outer loop
      vertex -24 8.5 2.5
      vertex -21.9251 25.7617 2.5
      vertex -23.4755 20.9899 2.5
    endloop
  endfacet
  facet normal 0 0 1
    outer loop
      vertex -23.9474 16.5 2.5
      vertex -24 8.5 2.5
      vertex -23.4755 20.9899 2.5
    endloop
  endfacet
  facet normal 0 0 1
    outer loop
      vertex 7.26437 20.6348 2.5
      vertex 7.36715 21.0946 2.5
      vertex 4.49557 16.5 2.5
    endloop
  endfacet
  facet normal 0 0 1
    outer loop
      vertex -16.0591 33.8355 2.5
      vertex -15.6504 19.3266 2.5
      vertex -12 36.7846 2.5
    endloop
  endfacet
  facet normal 0 0 1
    outer loop
      vertex -16.0591 33.8355 2.5
      vertex -15.9474 16.5 2.5
      vertex -15.6504 19.3266 2.5
    endloop
  endfacet
  facet normal 0 0 1
    outer loop
      vertex -12 36.7846 2.5
      vertex -14.6167 22.5078 2.5
      vertex -7.41641 38.8254 2.5
    endloop
  endfacet
  facet normal 0 0 1
    outer loop
      vertex -14.6167 22.5078 2.5
      vertex -12.9443 25.4046 2.5
      vertex -7.41641 38.8254 2.5
    endloop
  endfacet
  facet normal 0 0 1
    outer loop
      vertex -12.9443 25.4046 2.5
      vertex -10.7061 27.8903 2.5
      vertex -7.41641 38.8254 2.5
    endloop
  endfacet
  facet normal 0 0 1
    outer loop
      vertex -7.41641 38.8254 2.5
      vertex -8 29.8564 2.5
      vertex -2.50868 39.8685 2.5
    endloop
  endfacet
  facet normal 0 0 1
    outer loop
      vertex -2.50868 39.8685 2.5
      vertex -4.94427 31.2169 2.5
      vertex 2.50868 39.8685 2.5
    endloop
  endfacet
  facet normal 0 0 1
    outer loop
      vertex -4.94427 31.2169 2.5
      vertex -1.67246 31.9123 2.5
      vertex 2.50868 39.8685 2.5
    endloop
  endfacet
  facet normal 0 0 1
    outer loop
      vertex 2.50868 39.8685 2.5
      vertex 1.67246 31.9123 2.5
      vertex 7.41641 38.8254 2.5
    endloop
  endfacet
  facet normal 0 0 1
    outer loop
      vertex 7.41641 38.8254 2.5
      vertex 4.94427 31.2169 2.5
      vertex 12 36.7846 2.5
    endloop
  endfacet
  facet normal 0 0 1
    outer loop
      vertex 4.94427 31.2169 2.5
      vertex 8 29.8564 2.5
      vertex 12 36.7846 2.5
    endloop
  endfacet
  facet normal 0 0 1
    outer loop
      vertex 12 36.7846 2.5
      vertex 10.7061 27.8903 2.5
      vertex 16.0591 33.8355 2.5
    endloop
  endfacet
  facet normal 0 0 1
    outer loop
      vertex 16.0591 33.8355 2.5
      vertex 12.9443 25.4046 2.5
      vertex 19.4164 30.1068 2.5
    endloop
  endfacet
  facet normal 0 0 1
    outer loop
      vertex -24 8.5 2.5
      vertex -16.0591 33.8355 2.5
      vertex -19.4164 30.1068 2.5
    endloop
  endfacet
  facet normal 0 0 1
    outer loop
      vertex 19.4164 30.1068 2.5
      vertex 14.6167 22.5078 2.5
      vertex 21.9251 25.7617 2.5
    endloop
  endfacet
  facet normal 0 0 1
    outer loop
      vertex 21.9251 25.7617 2.5
      vertex 15.6504 19.3266 2.5
      vertex 23.4755 20.9899 2.5
    endloop
  endfacet
  facet normal 0 0 1
    outer loop
      vertex 15.6504 19.3266 2.5
      vertex 15.9474 16.5 2.5
      vertex 23.4755 20.9899 2.5
    endloop
  endfacet
  facet normal 0 0 1
    outer loop
      vertex -10.7061 27.8903 2.5
      vertex -8 29.8564 2.5
      vertex -7.41641 38.8254 2.5
    endloop
  endfacet
  facet normal 0 0 1
    outer loop
      vertex -24 8.5 2.5
      vertex -15.9474 16.5 2.5
      vertex -16.0591 33.8355 2.5
    endloop
  endfacet
  facet normal 0 0 1
    outer loop
      vertex 6.7862 19.3067 2.5
      vertex 5.46726 17.3659 2.5
      vertex 5.77885 17.7193 2.5
    endloop
  endfacet
  facet normal 0 0 1
    outer loop
      vertex 6.5723 18.8868 2.5
      vertex 5.77885 17.7193 2.5
      vertex 6.06763 18.0916 2.5
    endloop
  endfacet
  facet normal 0 0 1
    outer loop
      vertex -2.31763 29.6329 2.5
      vertex -2.76093 29.4733 2.5
      vertex -6.7862 19.3067 2.5
    endloop
  endfacet
  facet normal 0 0 1
    outer loop
      vertex 12.9443 25.4046 2.5
      vertex 14.6167 22.5078 2.5
      vertex 19.4164 30.1068 2.5
    endloop
  endfacet
  facet normal 0 0 1
    outer loop
      vertex 15.9474 16.5 2.5
      vertex 4.49557 16.5 2.5
      vertex -4 8.5 2.5
    endloop
  endfacet
  facet normal 0 0 1
    outer loop
      vertex 4.78068 16.7212 2.5
      vertex 5.1341 17.0327 2.5
      vertex 7.13292 20.1824 2.5
    endloop
  endfacet
  facet normal 0 0 1
    outer loop
      vertex 4.49557 16.5 2.5
      vertex 4.78068 16.7212 2.5
      vertex 7.26437 20.6348 2.5
    endloop
  endfacet
  facet normal 0 0 1
    outer loop
      vertex 7.44086 21.56 2.5
      vertex 4.49557 16.5 2.5
      vertex 7.36715 21.0946 2.5
    endloop
  endfacet
  facet normal 0 0 1
    outer loop
      vertex 6.33246 26.5187 2.5
      vertex 6.06763 26.9084 2.5
      vertex -4 8.5 2.5
    endloop
  endfacet
  facet normal 0 0 1
    outer loop
      vertex 6.33246 18.4813 2.5
      vertex 6.5723 18.8868 2.5
      vertex 6.06763 18.0916 2.5
    endloop
  endfacet
  facet normal 0 0 1
    outer loop
      vertex -7.13292 24.8176 2.5
      vertex -7.26437 24.3652 2.5
      vertex -6.97332 25.2609 2.5
    endloop
  endfacet
  facet normal 0 0 1
    outer loop
      vertex -15.6504 19.3266 2.5
      vertex -14.6167 22.5078 2.5
      vertex -12 36.7846 2.5
    endloop
  endfacet
  facet normal 0 0 1
    outer loop
      vertex 6.5723 18.8868 2.5
      vertex 6.7862 19.3067 2.5
      vertex 5.77885 17.7193 2.5
    endloop
  endfacet
  facet normal 0 0 1
    outer loop
      vertex -7.26437 24.3652 2.5
      vertex -7.36715 23.9054 2.5
      vertex -6.7862 25.6933 2.5
    endloop
  endfacet
  facet normal 0 0 1
    outer loop
      vertex 6.7862 19.3067 2.5
      vertex 6.97332 19.7391 2.5
      vertex 5.46726 17.3659 2.5
    endloop
  endfacet
  facet normal 0 0 1
    outer loop
      vertex -7.36715 23.9054 2.5
      vertex -7.44086 23.44 2.5
      vertex -6.5723 26.1132 2.5
    endloop
  endfacet
  facet normal 0 0 1
    outer loop
      vertex 6.97332 19.7391 2.5
      vertex 7.13292 20.1824 2.5
      vertex 5.1341 17.0327 2.5
    endloop
  endfacet
  facet normal 0 0 1
    outer loop
      vertex -8 29.8564 2.5
      vertex -4.94427 31.2169 2.5
      vertex -2.50868 39.8685 2.5
    endloop
  endfacet
  facet normal 0 0 1
    outer loop
      vertex -7.44086 23.44 2.5
      vertex -7.4852 22.9709 2.5
      vertex -6.33246 26.5187 2.5
    endloop
  endfacet
  facet normal 0 0 1
    outer loop
      vertex 7.13292 20.1824 2.5
      vertex 7.26437 20.6348 2.5
      vertex 4.78068 16.7212 2.5
    endloop
  endfacet
  facet normal 0 0 1
    outer loop
      vertex -1.40536 29.8672 2.5
      vertex -6.33246 18.4813 2.5
      vertex -6.06763 18.0916 2.5
    endloop
  endfacet
  facet normal 0 0 1
    outer loop
      vertex 5.77885 27.2807 2.5
      vertex -4 8.5 2.5
      vertex 6.06763 26.9084 2.5
    endloop
  endfacet
  facet normal 0 0 1
    outer loop
      vertex 5.46726 27.6341 2.5
      vertex -4 8.5 2.5
      vertex 5.77885 27.2807 2.5
    endloop
  endfacet
  facet normal 0 0 1
    outer loop
      vertex 5.1341 27.9673 2.5
      vertex -4 8.5 2.5
      vertex 5.46726 27.6341 2.5
    endloop
  endfacet
  facet normal 0 0 1
    outer loop
      vertex 4.78068 28.2788 2.5
      vertex -4 8.5 2.5
      vertex 5.1341 27.9673 2.5
    endloop
  endfacet
  facet normal 0 0 1
    outer loop
      vertex 4.40839 28.5676 2.5
      vertex -4 8.5 2.5
      vertex 4.78068 28.2788 2.5
    endloop
  endfacet
  facet normal 0 0 1
    outer loop
      vertex 4.0187 28.8325 2.5
      vertex -4 8.5 2.5
      vertex 4.40839 28.5676 2.5
    endloop
  endfacet
  facet normal 0 0 1
    outer loop
      vertex 0.939999 29.9409 2.5
      vertex 0.470929 29.9852 2.5
      vertex -5.1341 17.0327 2.5
    endloop
  endfacet
  facet normal 0 0 1
    outer loop
      vertex 1.67246 31.9123 2.5
      vertex 4.94427 31.2169 2.5
      vertex 7.41641 38.8254 2.5
    endloop
  endfacet
  facet normal 0 0 1
    outer loop
      vertex 4.0187 28.8325 2.5
      vertex 3.61315 29.0723 2.5
      vertex -4 8.5 2.5
    endloop
  endfacet
  facet normal 0 0 1
    outer loop
      vertex -6.97332 25.2609 2.5
      vertex -7.26437 24.3652 2.5
      vertex -6.7862 25.6933 2.5
    endloop
  endfacet
  facet normal 0 0 1
    outer loop
      vertex -6.5723 26.1132 2.5
      vertex -7.44086 23.44 2.5
      vertex -6.33246 26.5187 2.5
    endloop
  endfacet
  facet normal 0 0 1
    outer loop
      vertex -6.33246 26.5187 2.5
      vertex -7.4852 22.9709 2.5
      vertex -6.06763 26.9084 2.5
    endloop
  endfacet
  facet normal 0 0 1
    outer loop
      vertex -6.06763 26.9084 2.5
      vertex -7.5 22.5 2.5
      vertex -5.77885 27.2807 2.5
    endloop
  endfacet
  facet normal 0 0 1
    outer loop
      vertex -5.77885 27.2807 2.5
      vertex -7.4852 22.0291 2.5
      vertex -5.46726 27.6341 2.5
    endloop
  endfacet
  facet normal 0 0 1
    outer loop
      vertex -5.46726 27.6341 2.5
      vertex -7.44086 21.56 2.5
      vertex -5.1341 27.9673 2.5
    endloop
  endfacet
  facet normal 0 0 1
    outer loop
      vertex -5.1341 27.9673 2.5
      vertex -7.36715 21.0946 2.5
      vertex -4.78068 28.2788 2.5
    endloop
  endfacet
  facet normal 0 0 1
    outer loop
      vertex -4.78068 28.2788 2.5
      vertex -7.26437 20.6348 2.5
      vertex -4.40839 28.5676 2.5
    endloop
  endfacet
  facet normal 0 0 1
    outer loop
      vertex -4.40839 28.5676 2.5
      vertex -7.13292 20.1824 2.5
      vertex -4.0187 28.8325 2.5
    endloop
  endfacet
  facet normal 0 0 1
    outer loop
      vertex -3.61315 29.0723 2.5
      vertex -6.97332 19.7391 2.5
      vertex -3.19334 29.2862 2.5
    endloop
  endfacet
  facet normal 0 0 1
    outer loop
      vertex -3.19334 29.2862 2.5
      vertex -6.7862 19.3067 2.5
      vertex -2.76093 29.4733 2.5
    endloop
  endfacet
  facet normal 0 0 1
    outer loop
      vertex -2.31763 29.6329 2.5
      vertex -6.33246 18.4813 2.5
      vertex -1.86517 29.7644 2.5
    endloop
  endfacet
  facet normal 0 0 1
    outer loop
      vertex -4.49557 16.5 2.5
      vertex -15.9474 16.5 2.5
      vertex -24 8.5 2.5
    endloop
  endfacet
  facet normal 0 0 1
    outer loop
      vertex -0.939999 29.9409 2.5
      vertex -5.77885 17.7193 2.5
      vertex -0.470929 29.9852 2.5
    endloop
  endfacet
  facet normal 0 0 1
    outer loop
      vertex -0.470929 29.9852 2.5
      vertex -5.46726 17.3659 2.5
      vertex 0 30 2.5
    endloop
  endfacet
  facet normal 0 0 1
    outer loop
      vertex 0 30 2.5
      vertex -5.1341 17.0327 2.5
      vertex 0.470929 29.9852 2.5
    endloop
  endfacet
  facet normal 0 0 1
    outer loop
      vertex 0.939999 29.9409 2.5
      vertex -4.78068 16.7212 2.5
      vertex 1.40536 29.8672 2.5
    endloop
  endfacet
  facet normal 0 0 1
    outer loop
      vertex 1.40536 29.8672 2.5
      vertex -4.49557 16.5 2.5
      vertex 1.86517 29.7644 2.5
    endloop
  endfacet
  facet normal 0 0 1
    outer loop
      vertex -4 8.5 2.5
      vertex 6.5723 26.1132 2.5
      vertex 6.33246 26.5187 2.5
    endloop
  endfacet
  facet normal 0 0 1
    outer loop
      vertex -4 8.5 2.5
      vertex 6.7862 25.6933 2.5
      vertex 6.5723 26.1132 2.5
    endloop
  endfacet
  facet normal 0 0 1
    outer loop
      vertex -4 8.5 2.5
      vertex 6.97332 25.2609 2.5
      vertex 6.7862 25.6933 2.5
    endloop
  endfacet
  facet normal 0 0 1
    outer loop
      vertex -4 8.5 2.5
      vertex 7.13292 24.8176 2.5
      vertex 6.97332 25.2609 2.5
    endloop
  endfacet
  facet normal 0 0 1
    outer loop
      vertex -4 8.5 2.5
      vertex 7.26437 24.3652 2.5
      vertex 7.13292 24.8176 2.5
    endloop
  endfacet
  facet normal 0 0 1
    outer loop
      vertex -4 8.5 2.5
      vertex 7.36715 23.9054 2.5
      vertex 7.26437 24.3652 2.5
    endloop
  endfacet
  facet normal 0 0 1
    outer loop
      vertex -4 8.5 2.5
      vertex 7.44086 23.44 2.5
      vertex 7.36715 23.9054 2.5
    endloop
  endfacet
  facet normal 0 0 1
    outer loop
      vertex -4 8.5 2.5
      vertex 7.4852 22.9709 2.5
      vertex 7.44086 23.44 2.5
    endloop
  endfacet
  facet normal 0 0 1
    outer loop
      vertex -4 8.5 2.5
      vertex 7.5 22.5 2.5
      vertex 7.4852 22.9709 2.5
    endloop
  endfacet
  facet normal 0 0 1
    outer loop
      vertex -4 8.5 2.5
      vertex 7.4852 22.0291 2.5
      vertex 7.5 22.5 2.5
    endloop
  endfacet
  facet normal 0 0 1
    outer loop
      vertex -4 8.5 2.5
      vertex 4.49557 16.5 2.5
      vertex 7.4852 22.0291 2.5
    endloop
  endfacet
  facet normal 0 0 1
    outer loop
      vertex 7.44086 21.56 2.5
      vertex 7.4852 22.0291 2.5
      vertex 4.49557 16.5 2.5
    endloop
  endfacet
  facet normal 0 0 1
    outer loop
      vertex 5.1341 17.0327 2.5
      vertex 5.46726 17.3659 2.5
      vertex 6.97332 19.7391 2.5
    endloop
  endfacet
  facet normal 0 0 1
    outer loop
      vertex 15.9474 16.5 2.5
      vertex -4 8.5 2.5
      vertex 4 8.5 2.5
    endloop
  endfacet
  facet normal 0 0 1
    outer loop
      vertex 14.6167 22.5078 2.5
      vertex 15.6504 19.3266 2.5
      vertex 21.9251 25.7617 2.5
    endloop
  endfacet
  facet normal 0 0 1
    outer loop
      vertex -4 8.5 2.5
      vertex -4 -8.45126 2.5
      vertex 4 8.5 2.5
    endloop
  endfacet
  facet normal 0 0 1
    outer loop
      vertex -1.40536 29.8672 2.5
      vertex -1.86517 29.7644 2.5
      vertex -6.33246 18.4813 2.5
    endloop
  endfacet
  facet normal 0 0 1
    outer loop
      vertex -7.5 22.5 2.5
      vertex -7.4852 22.0291 2.5
      vertex -5.77885 27.2807 2.5
    endloop
  endfacet
  facet normal 0 0 1
    outer loop
      vertex -7.4852 22.0291 2.5
      vertex -7.44086 21.56 2.5
      vertex -5.46726 27.6341 2.5
    endloop
  endfacet
  facet normal 0 0 1
    outer loop
      vertex -7.44086 21.56 2.5
      vertex -7.36715 21.0946 2.5
      vertex -5.1341 27.9673 2.5
    endloop
  endfacet
  facet normal 0 0 1
    outer loop
      vertex -1.67246 31.9123 2.5
      vertex 1.67246 31.9123 2.5
      vertex 2.50868 39.8685 2.5
    endloop
  endfacet
  facet normal 0 0 1
    outer loop
      vertex -7.36715 21.0946 2.5
      vertex -7.26437 20.6348 2.5
      vertex -4.78068 28.2788 2.5
    endloop
  endfacet
  facet normal 0 0 1
    outer loop
      vertex -7.26437 20.6348 2.5
      vertex -7.13292 20.1824 2.5
      vertex -4.40839 28.5676 2.5
    endloop
  endfacet
  facet normal 0 0 1
    outer loop
      vertex 8 29.8564 2.5
      vertex 10.7061 27.8903 2.5
      vertex 12 36.7846 2.5
    endloop
  endfacet
  facet normal 0 0 1
    outer loop
      vertex -7.13292 20.1824 2.5
      vertex -3.61315 29.0723 2.5
      vertex -4.0187 28.8325 2.5
    endloop
  endfacet
  facet normal 0 0 1
    outer loop
      vertex -7.13292 20.1824 2.5
      vertex -6.97332 19.7391 2.5
      vertex -3.61315 29.0723 2.5
    endloop
  endfacet
  facet normal 0 0 1
    outer loop
      vertex -6.97332 19.7391 2.5
      vertex -6.7862 19.3067 2.5
      vertex -3.19334 29.2862 2.5
    endloop
  endfacet
  facet normal 0 0 1
    outer loop
      vertex -6.5723 26.1132 2.5
      vertex -6.7862 25.6933 2.5
      vertex -7.36715 23.9054 2.5
    endloop
  endfacet
  facet normal 0 0 1
    outer loop
      vertex 10.7061 27.8903 2.5
      vertex 12.9443 25.4046 2.5
      vertex 16.0591 33.8355 2.5
    endloop
  endfacet
  facet normal 0 0 1
    outer loop
      vertex -6.5723 18.8868 2.5
      vertex -6.33246 18.4813 2.5
      vertex -2.31763 29.6329 2.5
    endloop
  endfacet
  facet normal 0 0 1
    outer loop
      vertex -6.06763 18.0916 2.5
      vertex -0.939999 29.9409 2.5
      vertex -1.40536 29.8672 2.5
    endloop
  endfacet
  facet normal 0 0 1
    outer loop
      vertex -6.06763 18.0916 2.5
      vertex -5.77885 17.7193 2.5
      vertex -0.939999 29.9409 2.5
    endloop
  endfacet
  facet normal 0 0 1
    outer loop
      vertex -5.77885 17.7193 2.5
      vertex -5.46726 17.3659 2.5
      vertex -0.470929 29.9852 2.5
    endloop
  endfacet
  facet normal 0 0 1
    outer loop
      vertex -5.46726 17.3659 2.5
      vertex -5.1341 17.0327 2.5
      vertex 0 30 2.5
    endloop
  endfacet
  facet normal 0 0 1
    outer loop
      vertex -2.31763 29.6329 2.5
      vertex -6.7862 19.3067 2.5
      vertex -6.5723 18.8868 2.5
    endloop
  endfacet
  facet normal 0 0 1
    outer loop
      vertex -5.1341 17.0327 2.5
      vertex -4.78068 16.7212 2.5
      vertex 0.939999 29.9409 2.5
    endloop
  endfacet
  facet normal 0 0 1
    outer loop
      vertex -4.78068 16.7212 2.5
      vertex -4.49557 16.5 2.5
      vertex 1.40536 29.8672 2.5
    endloop
  endfacet
  facet normal 0 0 1
    outer loop
      vertex -4.49557 16.5 2.5
      vertex 2.31763 29.6329 2.5
      vertex 1.86517 29.7644 2.5
    endloop
  endfacet
  facet normal 0 0 1
    outer loop
      vertex -4.49557 16.5 2.5
      vertex 2.76093 29.4733 2.5
      vertex 2.31763 29.6329 2.5
    endloop
  endfacet
  facet normal 0 0 1
    outer loop
      vertex -4.49557 16.5 2.5
      vertex 3.19334 29.2862 2.5
      vertex 2.76093 29.4733 2.5
    endloop
  endfacet
  facet normal 0 0 1
    outer loop
      vertex -4.49557 16.5 2.5
      vertex 3.61315 29.0723 2.5
      vertex 3.19334 29.2862 2.5
    endloop
  endfacet
  facet normal 0 0 1
    outer loop
      vertex -4.49557 16.5 2.5
      vertex -4 8.5 2.5
      vertex 3.61315 29.0723 2.5
    endloop
  endfacet
  facet normal 0 0 1
    outer loop
      vertex -24 8.5 2.5
      vertex -4 8.5 2.5
      vertex -4.49557 16.5 2.5
    endloop
  endfacet
  facet normal 0.707107 -0.707107 0
    outer loop
      vertex 1.05471e-15 -15.765 -2.5
      vertex 1.05471e-15 -15.765 2.5
      vertex -19.0919 -34.8569 2.5
    endloop
  endfacet
  facet normal 0.707107 -0.707107 0
    outer loop
      vertex -19.0919 -34.8569 -2.5
      vertex 1.05471e-15 -15.765 -2.5
      vertex -19.0919 -34.8569 2.5
    endloop
  endfacet
  facet normal -0.707107 -0.707107 0
    outer loop
      vertex 19.0919 -34.8569 2.5
      vertex 1.05471e-15 -15.765 2.5
      vertex 19.0919 -34.8569 -2.5
    endloop
  endfacet
  facet normal -0.707107 -0.707107 0
    outer loop
      vertex 19.0919 -34.8569 -2.5
      vertex 1.05471e-15 -15.765 2.5
      vertex 1.05471e-15 -15.765 -2.5
    endloop
  endfacet
  facet normal 0.707107 -0.707107 0
    outer loop
      vertex 19.0919 -34.8569 2.5
      vertex 19.0919 -34.8569 -2.5
      vertex 24.7487 -29.2 -2.5
    endloop
  endfacet
  facet normal 0.707107 -0.707107 0
    outer loop
      vertex 24.7487 -29.2 2.5
      vertex 19.0919 -34.8569 2.5
      vertex 24.7487 -29.2 -2.5
    endloop
  endfacet
  facet normal 0.707107 0.707107 0
    outer loop
      vertex 24.7487 -29.2 -2.5
      vertex 4 -8.45126 -2.5
      vertex 4 -8.45126 2.5
    endloop
  endfacet
  facet normal 0.707107 0.707107 0
    outer loop
      vertex 24.7487 -29.2 2.5
      vertex 24.7487 -29.2 -2.5
      vertex 4 -8.45126 2.5
    endloop
  endfacet
  facet normal 1 0 0
    outer loop
      vertex 4 -8.45126 2.5
      vertex 4 -8.45126 -2.5
      vertex 4 8.5 -2.5
    endloop
  endfacet
  facet normal 1 0 0
    outer loop
      vertex 4 8.5 2.5
      vertex 4 -8.45126 2.5
      vertex 4 8.5 -2.5
    endloop
  endfacet
  facet normal 0 -1 0
    outer loop
      vertex 4 8.5 2.5
      vertex 4 8.5 -2.5
      vertex 24 8.5 -2.5
    endloop
  endfacet
  facet normal 0 -1 0
    outer loop
      vertex 24 8.5 2.5
      vertex 4 8.5 2.5
      vertex 24 8.5 -2.5
    endloop
  endfacet
  facet normal 1 0 0
    outer loop
      vertex 24 8.5 2.5
      vertex 24 8.5 -2.5
      vertex 24 16.5 -2.5
    endloop
  endfacet
  facet normal 1 0 0
    outer loop
      vertex 24 16.5 2.5
      vertex 24 8.5 2.5
      vertex 24 16.5 -2.5
    endloop
  endfacet
  facet normal 0 1 0
    outer loop
      vertex 23.9474 16.5 -2.5
      vertex 23.9474 16.5 2.5
      vertex 24 16.5 -2.5
    endloop
  endfacet
  facet normal 0 1 0
    outer loop
      vertex 24 16.5 -2.5
      vertex 23.9474 16.5 2.5
      vertex 24 16.5 2.5
    endloop
  endfacet
  facet normal 0.994522 0.104529 0
    outer loop
      vertex 23.9474 16.5 -2.5
      vertex 23.4755 20.9899 -2.5
      vertex 23.4755 20.9899 2.5
    endloop
  endfacet
  facet normal 0.994522 0.104529 0
    outer loop
      vertex 23.9474 16.5 2.5
      vertex 23.9474 16.5 -2.5
      vertex 23.4755 20.9899 2.5
    endloop
  endfacet
  facet normal 0.951057 0.309017 0
    outer loop
      vertex 23.4755 20.9899 -2.5
      vertex 21.9251 25.7617 -2.5
      vertex 21.9251 25.7617 2.5
    endloop
  endfacet
  facet normal 0.951057 0.309017 0
    outer loop
      vertex 23.4755 20.9899 2.5
      vertex 23.4755 20.9899 -2.5
      vertex 21.9251 25.7617 2.5
    endloop
  endfacet
  facet normal 0.866025 0.5 0
    outer loop
      vertex 21.9251 25.7617 -2.5
      vertex 19.4164 30.1068 -2.5
      vertex 19.4164 30.1068 2.5
    endloop
  endfacet
  facet normal 0.866025 0.5 0
    outer loop
      vertex 21.9251 25.7617 2.5
      vertex 21.9251 25.7617 -2.5
      vertex 19.4164 30.1068 2.5
    endloop
  endfacet
  facet normal 0.743145 0.669131 0
    outer loop
      vertex 19.4164 30.1068 -2.5
      vertex 16.0591 33.8355 -2.5
      vertex 16.0591 33.8355 2.5
    endloop
  endfacet
  facet normal 0.743145 0.669131 0
    outer loop
      vertex 19.4164 30.1068 2.5
      vertex 19.4164 30.1068 -2.5
      vertex 16.0591 33.8355 2.5
    endloop
  endfacet
  facet normal 0.587785 0.809017 0
    outer loop
      vertex 12 36.7846 -2.5
      vertex 12 36.7846 2.5
      vertex 16.0591 33.8355 -2.5
    endloop
  endfacet
  facet normal 0.587785 0.809017 0
    outer loop
      vertex 16.0591 33.8355 -2.5
      vertex 12 36.7846 2.5
      vertex 16.0591 33.8355 2.5
    endloop
  endfacet
  facet normal 0.406737 0.913546 0
    outer loop
      vertex 7.41641 38.8254 -2.5
      vertex 7.41641 38.8254 2.5
      vertex 12 36.7846 -2.5
    endloop
  endfacet
  facet normal 0.406737 0.913546 0
    outer loop
      vertex 12 36.7846 -2.5
      vertex 7.41641 38.8254 2.5
      vertex 12 36.7846 2.5
    endloop
  endfacet
  facet normal 0.207912 0.978148 0
    outer loop
      vertex 2.50868 39.8685 -2.5
      vertex 2.50868 39.8685 2.5
      vertex 7.41641 38.8254 -2.5
    endloop
  endfacet
  facet normal 0.207912 0.978148 0
    outer loop
      vertex 7.41641 38.8254 -2.5
      vertex 2.50868 39.8685 2.5
      vertex 7.41641 38.8254 2.5
    endloop
  endfacet
  facet normal 0 1 0
    outer loop
      vertex -2.50868 39.8685 -2.5
      vertex -2.50868 39.8685 2.5
      vertex 2.50868 39.8685 -2.5
    endloop
  endfacet
  facet normal 0 1 0
    outer loop
      vertex 2.50868 39.8685 -2.5
      vertex -2.50868 39.8685 2.5
      vertex 2.50868 39.8685 2.5
    endloop
  endfacet
  facet normal -0.207912 0.978148 0
    outer loop
      vertex -7.41641 38.8254 -2.5
      vertex -7.41641 38.8254 2.5
      vertex -2.50868 39.8685 -2.5
    endloop
  endfacet
  facet normal -0.207912 0.978148 0
    outer loop
      vertex -2.50868 39.8685 -2.5
      vertex -7.41641 38.8254 2.5
      vertex -2.50868 39.8685 2.5
    endloop
  endfacet
  facet normal -0.406737 0.913546 0
    outer loop
      vertex -12 36.7846 -2.5
      vertex -12 36.7846 2.5
      vertex -7.41641 38.8254 -2.5
    endloop
  endfacet
  facet normal -0.406737 0.913546 0
    outer loop
      vertex -7.41641 38.8254 -2.5
      vertex -12 36.7846 2.5
      vertex -7.41641 38.8254 2.5
    endloop
  endfacet
  facet normal -0.587785 0.809017 0
    outer loop
      vertex -16.0591 33.8355 -2.5
      vertex -16.0591 33.8355 2.5
      vertex -12 36.7846 -2.5
    endloop
  endfacet
  facet normal -0.587785 0.809017 0
    outer loop
      vertex -12 36.7846 -2.5
      vertex -16.0591 33.8355 2.5
      vertex -12 36.7846 2.5
    endloop
  endfacet
  facet normal -0.743145 0.669131 0
    outer loop
      vertex -19.4164 30.1068 -2.5
      vertex -19.4164 30.1068 2.5
      vertex -16.0591 33.8355 -2.5
    endloop
  endfacet
  facet normal -0.743145 0.669131 0
    outer loop
      vertex -16.0591 33.8355 -2.5
      vertex -19.4164 30.1068 2.5
      vertex -16.0591 33.8355 2.5
    endloop
  endfacet
  facet normal -0.866025 0.5 0
    outer loop
      vertex -21.9251 25.7617 -2.5
      vertex -21.9251 25.7617 2.5
      vertex -19.4164 30.1068 -2.5
    endloop
  endfacet
  facet normal -0.866025 0.5 0
    outer loop
      vertex -19.4164 30.1068 -2.5
      vertex -21.9251 25.7617 2.5
      vertex -19.4164 30.1068 2.5
    endloop
  endfacet
  facet normal -0.951057 0.309017 0
    outer loop
      vertex -23.4755 20.9899 -2.5
      vertex -23.4755 20.9899 2.5
      vertex -21.9251 25.7617 -2.5
    endloop
  endfacet
  facet normal -0.951057 0.309017 0
    outer loop
      vertex -21.9251 25.7617 -2.5
      vertex -23.4755 20.9899 2.5
      vertex -21.9251 25.7617 2.5
    endloop
  endfacet
  facet normal -0.994522 0.104529 0
    outer loop
      vertex -23.9474 16.5 -2.5
      vertex -23.9474 16.5 2.5
      vertex -23.4755 20.9899 -2.5
    endloop
  endfacet
  facet normal -0.994522 0.104529 0
    outer loop
      vertex -23.4755 20.9899 -2.5
      vertex -23.9474 16.5 2.5
      vertex -23.4755 20.9899 2.5
    endloop
  endfacet
  facet normal 0 1 0
    outer loop
      vertex -24 16.5 -2.5
      vertex -24 16.5 2.5
      vertex -23.9474 16.5 -2.5
    endloop
  endfacet
  facet normal 0 1 0
    outer loop
      vertex -23.9474 16.5 -2.5
      vertex -24 16.5 2.5
      vertex -23.9474 16.5 2.5
    endloop
  endfacet
  facet normal -1 0 0
    outer loop
      vertex -24 8.5 -2.5
      vertex -24 8.5 2.5
      vertex -24 16.5 -2.5
    endloop
  endfacet
  facet normal -1 0 0
    outer loop
      vertex -24 16.5 -2.5
      vertex -24 8.5 2.5
      vertex -24 16.5 2.5
    endloop
  endfacet
  facet normal 0 -1 0
    outer loop
      vertex -24 8.5 2.5
      vertex -24 8.5 -2.5
      vertex -4 8.5 -2.5
    endloop
  endfacet
  facet normal 0 -1 0
    outer loop
      vertex -4 8.5 2.5
      vertex -24 8.5 2.5
      vertex -4 8.5 -2.5
    endloop
  endfacet
  facet normal 0.994522 -0.104528 0
    outer loop
      vertex -15.6504 19.3266 -2.5
      vertex -15.6504 19.3266 2.5
      vertex -15.9474 16.5 2.5
    endloop
  endfacet
  facet normal 0.994522 -0.104528 0
    outer loop
      vertex -15.9474 16.5 -2.5
      vertex -15.6504 19.3266 -2.5
      vertex -15.9474 16.5 2.5
    endloop
  endfacet
  facet normal 0.951056 -0.309017 0
    outer loop
      vertex -14.6167 22.5078 -2.5
      vertex -14.6167 22.5078 2.5
      vertex -15.6504 19.3266 2.5
    endloop
  endfacet
  facet normal 0.951056 -0.309017 0
    outer loop
      vertex -15.6504 19.3266 -2.5
      vertex -14.6167 22.5078 -2.5
      vertex -15.6504 19.3266 2.5
    endloop
  endfacet
  facet normal 0.866025 -0.5 0
    outer loop
      vertex -12.9443 25.4046 -2.5
      vertex -12.9443 25.4046 2.5
      vertex -14.6167 22.5078 2.5
    endloop
  endfacet
  facet normal 0.866025 -0.5 0
    outer loop
      vertex -14.6167 22.5078 -2.5
      vertex -12.9443 25.4046 -2.5
      vertex -14.6167 22.5078 2.5
    endloop
  endfacet
  facet normal 0.743145 -0.669131 0
    outer loop
      vertex -10.7061 27.8903 -2.5
      vertex -10.7061 27.8903 2.5
      vertex -12.9443 25.4046 2.5
    endloop
  endfacet
  facet normal 0.743145 -0.669131 0
    outer loop
      vertex -12.9443 25.4046 -2.5
      vertex -10.7061 27.8903 -2.5
      vertex -12.9443 25.4046 2.5
    endloop
  endfacet
  facet normal 0.587785 -0.809017 0
    outer loop
      vertex -8 29.8564 -2.5
      vertex -8 29.8564 2.5
      vertex -10.7061 27.8903 2.5
    endloop
  endfacet
  facet normal 0.587785 -0.809017 0
    outer loop
      vertex -10.7061 27.8903 -2.5
      vertex -8 29.8564 -2.5
      vertex -10.7061 27.8903 2.5
    endloop
  endfacet
  facet normal 0.406737 -0.913545 0
    outer loop
      vertex -4.94427 31.2169 -2.5
      vertex -4.94427 31.2169 2.5
      vertex -8 29.8564 2.5
    endloop
  endfacet
  facet normal 0.406737 -0.913545 0
    outer loop
      vertex -8 29.8564 -2.5
      vertex -4.94427 31.2169 -2.5
      vertex -8 29.8564 2.5
    endloop
  endfacet
  facet normal 0.207912 -0.978148 0
    outer loop
      vertex -1.67246 31.9123 -2.5
      vertex -1.67246 31.9123 2.5
      vertex -4.94427 31.2169 2.5
    endloop
  endfacet
  facet normal 0.207912 -0.978148 0
    outer loop
      vertex -4.94427 31.2169 -2.5
      vertex -1.67246 31.9123 -2.5
      vertex -4.94427 31.2169 2.5
    endloop
  endfacet
  facet normal 0 -1 0
    outer loop
      vertex 1.67246 31.9123 -2.5
      vertex 1.67246 31.9123 2.5
      vertex -1.67246 31.9123 2.5
    endloop
  endfacet
  facet normal 0 -1 0
    outer loop
      vertex -1.67246 31.9123 -2.5
      vertex 1.67246 31.9123 -2.5
      vertex -1.67246 31.9123 2.5
    endloop
  endfacet
  facet normal -0.207912 -0.978148 0
    outer loop
      vertex 4.94427 31.2169 -2.5
      vertex 4.94427 31.2169 2.5
      vertex 1.67246 31.9123 2.5
    endloop
  endfacet
  facet normal -0.207912 -0.978148 0
    outer loop
      vertex 1.67246 31.9123 -2.5
      vertex 4.94427 31.2169 -2.5
      vertex 1.67246 31.9123 2.5
    endloop
  endfacet
  facet normal -0.406737 -0.913545 0
    outer loop
      vertex 8 29.8564 -2.5
      vertex 8 29.8564 2.5
      vertex 4.94427 31.2169 2.5
    endloop
  endfacet
  facet normal -0.406737 -0.913545 0
    outer loop
      vertex 4.94427 31.2169 -2.5
      vertex 8 29.8564 -2.5
      vertex 4.94427 31.2169 2.5
    endloop
  endfacet
  facet normal -0.587785 -0.809017 0
    outer loop
      vertex 10.7061 27.8903 -2.5
      vertex 10.7061 27.8903 2.5
      vertex 8 29.8564 2.5
    endloop
  endfacet
  facet normal -0.587785 -0.809017 0
    outer loop
      vertex 8 29.8564 -2.5
      vertex 10.7061 27.8903 -2.5
      vertex 8 29.8564 2.5
    endloop
  endfacet
  facet normal -0.743145 -0.669131 0
    outer loop
      vertex 12.9443 25.4046 2.5
      vertex 10.7061 27.8903 2.5
      vertex 12.9443 25.4046 -2.5
    endloop
  endfacet
  facet normal -0.743145 -0.669131 0
    outer loop
      vertex 12.9443 25.4046 -2.5
      vertex 10.7061 27.8903 2.5
      vertex 10.7061 27.8903 -2.5
    endloop
  endfacet
  facet normal -0.866025 -0.5 0
    outer loop
      vertex 14.6167 22.5078 2.5
      vertex 12.9443 25.4046 2.5
      vertex 14.6167 22.5078 -2.5
    endloop
  endfacet
  facet normal -0.866025 -0.5 0
    outer loop
      vertex 14.6167 22.5078 -2.5
      vertex 12.9443 25.4046 2.5
      vertex 12.9443 25.4046 -2.5
    endloop
  endfacet
  facet normal -0.951056 -0.309017 0
    outer loop
      vertex 15.6504 19.3266 2.5
      vertex 14.6167 22.5078 2.5
      vertex 15.6504 19.3266 -2.5
    endloop
  endfacet
  facet normal -0.951056 -0.309017 0
    outer loop
      vertex 15.6504 19.3266 -2.5
      vertex 14.6167 22.5078 2.5
      vertex 14.6167 22.5078 -2.5
    endloop
  endfacet
  facet normal -0.994522 -0.104528 0
    outer loop
      vertex 15.9474 16.5 2.5
      vertex 15.6504 19.3266 2.5
      vertex 15.9474 16.5 -2.5
    endloop
  endfacet
  facet normal -0.994522 -0.104528 0
    outer loop
      vertex 15.9474 16.5 -2.5
      vertex 15.6504 19.3266 2.5
      vertex 15.6504 19.3266 -2.5
    endloop
  endfacet
  facet normal 0 1 0
    outer loop
      vertex 4.49557 16.5 -2.5
      vertex 4.49557 16.5 2.5
      vertex 15.9474 16.5 -2.5
    endloop
  endfacet
  facet normal 0 1 0
    outer loop
      vertex 15.9474 16.5 -2.5
      vertex 4.49557 16.5 2.5
      vertex 15.9474 16.5 2.5
    endloop
  endfacet
  facet normal 0.612906 -0.790156 0
    outer loop
      vertex 4.49557 16.5 2.5
      vertex 4.49557 16.5 -2.5
      vertex 4.78068 16.7212 -2.5
    endloop
  endfacet
  facet normal 0.612906 -0.790156 0
    outer loop
      vertex 4.78068 16.7212 2.5
      vertex 4.49557 16.5 2.5
      vertex 4.78068 16.7212 -2.5
    endloop
  endfacet
  facet normal 0.661312 -0.750111 0
    outer loop
      vertex 4.78068 16.7212 2.5
      vertex 4.78068 16.7212 -2.5
      vertex 5.1341 17.0327 -2.5
    endloop
  endfacet
  facet normal 0.661312 -0.750111 0
    outer loop
      vertex 5.1341 17.0327 2.5
      vertex 4.78068 16.7212 2.5
      vertex 5.1341 17.0327 -2.5
    endloop
  endfacet
  facet normal 0.707107 -0.707107 0
    outer loop
      vertex 5.1341 17.0327 2.5
      vertex 5.1341 17.0327 -2.5
      vertex 5.46726 17.3659 -2.5
    endloop
  endfacet
  facet normal 0.707107 -0.707107 0
    outer loop
      vertex 5.46726 17.3659 2.5
      vertex 5.1341 17.0327 2.5
      vertex 5.46726 17.3659 -2.5
    endloop
  endfacet
  facet normal 0.750111 -0.661312 0
    outer loop
      vertex 5.46726 17.3659 2.5
      vertex 5.46726 17.3659 -2.5
      vertex 5.77885 17.7193 -2.5
    endloop
  endfacet
  facet normal 0.750111 -0.661312 0
    outer loop
      vertex 5.77885 17.7193 2.5
      vertex 5.46726 17.3659 2.5
      vertex 5.77885 17.7193 -2.5
    endloop
  endfacet
  facet normal 0.790156 -0.612906 0
    outer loop
      vertex 5.77885 17.7193 2.5
      vertex 5.77885 17.7193 -2.5
      vertex 6.06763 18.0916 -2.5
    endloop
  endfacet
  facet normal 0.790156 -0.612906 0
    outer loop
      vertex 6.06763 18.0916 2.5
      vertex 5.77885 17.7193 2.5
      vertex 6.06763 18.0916 -2.5
    endloop
  endfacet
  facet normal 0.82708 -0.562084 0
    outer loop
      vertex 6.06763 18.0916 2.5
      vertex 6.06763 18.0916 -2.5
      vertex 6.33246 18.4813 -2.5
    endloop
  endfacet
  facet normal 0.82708 -0.562084 0
    outer loop
      vertex 6.33246 18.4813 2.5
      vertex 6.06763 18.0916 2.5
      vertex 6.33246 18.4813 -2.5
    endloop
  endfacet
  facet normal 0.860741 -0.509042 0
    outer loop
      vertex 6.33246 18.4813 2.5
      vertex 6.33246 18.4813 -2.5
      vertex 6.5723 18.8868 -2.5
    endloop
  endfacet
  facet normal 0.860741 -0.509042 0
    outer loop
      vertex 6.5723 18.8868 2.5
      vertex 6.33246 18.4813 2.5
      vertex 6.5723 18.8868 -2.5
    endloop
  endfacet
  facet normal 0.891006 -0.453991 0
    outer loop
      vertex 6.5723 18.8868 2.5
      vertex 6.5723 18.8868 -2.5
      vertex 6.7862 19.3067 -2.5
    endloop
  endfacet
  facet normal 0.891006 -0.453991 0
    outer loop
      vertex 6.7862 19.3067 2.5
      vertex 6.5723 18.8868 2.5
      vertex 6.7862 19.3067 -2.5
    endloop
  endfacet
  facet normal 0.917755 -0.397148 0
    outer loop
      vertex 6.7862 19.3067 2.5
      vertex 6.7862 19.3067 -2.5
      vertex 6.97332 19.7391 -2.5
    endloop
  endfacet
  facet normal 0.917755 -0.397148 0
    outer loop
      vertex 6.97332 19.7391 2.5
      vertex 6.7862 19.3067 2.5
      vertex 6.97332 19.7391 -2.5
    endloop
  endfacet
  facet normal 0.940881 -0.338737 0
    outer loop
      vertex 6.97332 19.7391 2.5
      vertex 6.97332 19.7391 -2.5
      vertex 7.13292 20.1824 -2.5
    endloop
  endfacet
  facet normal 0.940881 -0.338737 0
    outer loop
      vertex 7.13292 20.1824 2.5
      vertex 6.97332 19.7391 2.5
      vertex 7.13292 20.1824 -2.5
    endloop
  endfacet
  facet normal 0.960294 -0.278992 0
    outer loop
      vertex 7.13292 20.1824 2.5
      vertex 7.13292 20.1824 -2.5
      vertex 7.26437 20.6348 -2.5
    endloop
  endfacet
  facet normal 0.960294 -0.278992 0
    outer loop
      vertex 7.26437 20.6348 2.5
      vertex 7.13292 20.1824 2.5
      vertex 7.26437 20.6348 -2.5
    endloop
  endfacet
  facet normal 0.975917 -0.218142 0
    outer loop
      vertex 7.26437 20.6348 2.5
      vertex 7.26437 20.6348 -2.5
      vertex 7.36715 21.0946 -2.5
    endloop
  endfacet
  facet normal 0.975917 -0.218142 0
    outer loop
      vertex 7.36715 21.0946 2.5
      vertex 7.26437 20.6348 2.5
      vertex 7.36715 21.0946 -2.5
    endloop
  endfacet
  facet normal 0.987688 -0.156435 0
    outer loop
      vertex 7.36715 21.0946 2.5
      vertex 7.36715 21.0946 -2.5
      vertex 7.44086 21.56 -2.5
    endloop
  endfacet
  facet normal 0.987688 -0.156435 0
    outer loop
      vertex 7.44086 21.56 2.5
      vertex 7.36715 21.0946 2.5
      vertex 7.44086 21.56 -2.5
    endloop
  endfacet
  facet normal 0.995562 -0.094108 0
    outer loop
      vertex 7.44086 21.56 2.5
      vertex 7.44086 21.56 -2.5
      vertex 7.4852 22.0291 -2.5
    endloop
  endfacet
  facet normal 0.995562 -0.094108 0
    outer loop
      vertex 7.4852 22.0291 2.5
      vertex 7.44086 21.56 2.5
      vertex 7.4852 22.0291 -2.5
    endloop
  endfacet
  facet normal 0.999507 -0.0314117 0
    outer loop
      vertex 7.4852 22.0291 2.5
      vertex 7.4852 22.0291 -2.5
      vertex 7.5 22.5 -2.5
    endloop
  endfacet
  facet normal 0.999507 -0.0314117 0
    outer loop
      vertex 7.5 22.5 2.5
      vertex 7.4852 22.0291 2.5
      vertex 7.5 22.5 -2.5
    endloop
  endfacet
  facet normal 0.999507 0.0314117 0
    outer loop
      vertex 7.5 22.5 -2.5
      vertex 7.4852 22.9709 -2.5
      vertex 7.4852 22.9709 2.5
    endloop
  endfacet
  facet normal 0.999507 0.0314117 0
    outer loop
      vertex 7.5 22.5 2.5
      vertex 7.5 22.5 -2.5
      vertex 7.4852 22.9709 2.5
    endloop
  endfacet
  facet normal 0.995562 0.094108 0
    outer loop
      vertex 7.4852 22.9709 -2.5
      vertex 7.44086 23.44 -2.5
      vertex 7.44086 23.44 2.5
    endloop
  endfacet
  facet normal 0.995562 0.094108 0
    outer loop
      vertex 7.4852 22.9709 2.5
      vertex 7.4852 22.9709 -2.5
      vertex 7.44086 23.44 2.5
    endloop
  endfacet
  facet normal 0.987688 0.156435 0
    outer loop
      vertex 7.44086 23.44 -2.5
      vertex 7.36715 23.9054 -2.5
      vertex 7.36715 23.9054 2.5
    endloop
  endfacet
  facet normal 0.987688 0.156435 0
    outer loop
      vertex 7.44086 23.44 2.5
      vertex 7.44086 23.44 -2.5
      vertex 7.36715 23.9054 2.5
    endloop
  endfacet
  facet normal 0.975917 0.218142 0
    outer loop
      vertex 7.36715 23.9054 -2.5
      vertex 7.26437 24.3652 -2.5
      vertex 7.26437 24.3652 2.5
    endloop
  endfacet
  facet normal 0.975917 0.218142 0
    outer loop
      vertex 7.36715 23.9054 2.5
      vertex 7.36715 23.9054 -2.5
      vertex 7.26437 24.3652 2.5
    endloop
  endfacet
  facet normal 0.960294 0.278992 0
    outer loop
      vertex 7.26437 24.3652 -2.5
      vertex 7.13292 24.8176 -2.5
      vertex 7.13292 24.8176 2.5
    endloop
  endfacet
  facet normal 0.960294 0.278992 0
    outer loop
      vertex 7.26437 24.3652 2.5
      vertex 7.26437 24.3652 -2.5
      vertex 7.13292 24.8176 2.5
    endloop
  endfacet
  facet normal 0.940881 0.338737 0
    outer loop
      vertex 7.13292 24.8176 -2.5
      vertex 6.97332 25.2609 -2.5
      vertex 6.97332 25.2609 2.5
    endloop
  endfacet
  facet normal 0.940881 0.338737 0
    outer loop
      vertex 7.13292 24.8176 2.5
      vertex 7.13292 24.8176 -2.5
      vertex 6.97332 25.2609 2.5
    endloop
  endfacet
  facet normal 0.917755 0.397148 0
    outer loop
      vertex 6.97332 25.2609 -2.5
      vertex 6.7862 25.6933 -2.5
      vertex 6.7862 25.6933 2.5
    endloop
  endfacet
  facet normal 0.917755 0.397148 0
    outer loop
      vertex 6.97332 25.2609 2.5
      vertex 6.97332 25.2609 -2.5
      vertex 6.7862 25.6933 2.5
    endloop
  endfacet
  facet normal 0.891006 0.453991 0
    outer loop
      vertex 6.7862 25.6933 -2.5
      vertex 6.5723 26.1132 -2.5
      vertex 6.5723 26.1132 2.5
    endloop
  endfacet
  facet normal 0.891006 0.453991 0
    outer loop
      vertex 6.7862 25.6933 2.5
      vertex 6.7862 25.6933 -2.5
      vertex 6.5723 26.1132 2.5
    endloop
  endfacet
  facet normal 0.860741 0.509042 0
    outer loop
      vertex 6.5723 26.1132 -2.5
      vertex 6.33246 26.5187 -2.5
      vertex 6.33246 26.5187 2.5
    endloop
  endfacet
  facet normal 0.860741 0.509042 0
    outer loop
      vertex 6.5723 26.1132 2.5
      vertex 6.5723 26.1132 -2.5
      vertex 6.33246 26.5187 2.5
    endloop
  endfacet
  facet normal 0.82708 0.562084 0
    outer loop
      vertex 6.33246 26.5187 -2.5
      vertex 6.06763 26.9084 -2.5
      vertex 6.06763 26.9084 2.5
    endloop
  endfacet
  facet normal 0.82708 0.562084 0
    outer loop
      vertex 6.33246 26.5187 2.5
      vertex 6.33246 26.5187 -2.5
      vertex 6.06763 26.9084 2.5
    endloop
  endfacet
  facet normal 0.790156 0.612906 0
    outer loop
      vertex 6.06763 26.9084 -2.5
      vertex 5.77885 27.2807 -2.5
      vertex 5.77885 27.2807 2.5
    endloop
  endfacet
  facet normal 0.790156 0.612906 0
    outer loop
      vertex 6.06763 26.9084 2.5
      vertex 6.06763 26.9084 -2.5
      vertex 5.77885 27.2807 2.5
    endloop
  endfacet
  facet normal 0.750111 0.661312 0
    outer loop
      vertex 5.77885 27.2807 -2.5
      vertex 5.46726 27.6341 -2.5
      vertex 5.46726 27.6341 2.5
    endloop
  endfacet
  facet normal 0.750111 0.661312 0
    outer loop
      vertex 5.77885 27.2807 2.5
      vertex 5.77885 27.2807 -2.5
      vertex 5.46726 27.6341 2.5
    endloop
  endfacet
  facet normal 0.707107 0.707107 0
    outer loop
      vertex 5.1341 27.9673 -2.5
      vertex 5.1341 27.9673 2.5
      vertex 5.46726 27.6341 -2.5
    endloop
  endfacet
  facet normal 0.707107 0.707107 0
    outer loop
      vertex 5.46726 27.6341 -2.5
      vertex 5.1341 27.9673 2.5
      vertex 5.46726 27.6341 2.5
    endloop
  endfacet
  facet normal 0.661312 0.750111 0
    outer loop
      vertex 4.78068 28.2788 -2.5
      vertex 4.78068 28.2788 2.5
      vertex 5.1341 27.9673 -2.5
    endloop
  endfacet
  facet normal 0.661312 0.750111 0
    outer loop
      vertex 5.1341 27.9673 -2.5
      vertex 4.78068 28.2788 2.5
      vertex 5.1341 27.9673 2.5
    endloop
  endfacet
  facet normal 0.612906 0.790156 0
    outer loop
      vertex 4.40839 28.5676 -2.5
      vertex 4.40839 28.5676 2.5
      vertex 4.78068 28.2788 -2.5
    endloop
  endfacet
  facet normal 0.612906 0.790156 0
    outer loop
      vertex 4.78068 28.2788 -2.5
      vertex 4.40839 28.5676 2.5
      vertex 4.78068 28.2788 2.5
    endloop
  endfacet
  facet normal 0.562084 0.82708 0
    outer loop
      vertex 4.0187 28.8325 -2.5
      vertex 4.0187 28.8325 2.5
      vertex 4.40839 28.5676 -2.5
    endloop
  endfacet
  facet normal 0.562084 0.82708 0
    outer loop
      vertex 4.40839 28.5676 -2.5
      vertex 4.0187 28.8325 2.5
      vertex 4.40839 28.5676 2.5
    endloop
  endfacet
  facet normal 0.509042 0.860741 0
    outer loop
      vertex 3.61315 29.0723 -2.5
      vertex 3.61315 29.0723 2.5
      vertex 4.0187 28.8325 -2.5
    endloop
  endfacet
  facet normal 0.509042 0.860741 0
    outer loop
      vertex 4.0187 28.8325 -2.5
      vertex 3.61315 29.0723 2.5
      vertex 4.0187 28.8325 2.5
    endloop
  endfacet
  facet normal 0.453991 0.891006 0
    outer loop
      vertex 3.19334 29.2862 -2.5
      vertex 3.19334 29.2862 2.5
      vertex 3.61315 29.0723 -2.5
    endloop
  endfacet
  facet normal 0.453991 0.891006 0
    outer loop
      vertex 3.61315 29.0723 -2.5
      vertex 3.19334 29.2862 2.5
      vertex 3.61315 29.0723 2.5
    endloop
  endfacet
  facet normal 0.397148 0.917755 0
    outer loop
      vertex 2.76093 29.4733 -2.5
      vertex 2.76093 29.4733 2.5
      vertex 3.19334 29.2862 -2.5
    endloop
  endfacet
  facet normal 0.397148 0.917755 0
    outer loop
      vertex 3.19334 29.2862 -2.5
      vertex 2.76093 29.4733 2.5
      vertex 3.19334 29.2862 2.5
    endloop
  endfacet
  facet normal 0.338737 0.940881 0
    outer loop
      vertex 2.31763 29.6329 -2.5
      vertex 2.31763 29.6329 2.5
      vertex 2.76093 29.4733 -2.5
    endloop
  endfacet
  facet normal 0.338737 0.940881 0
    outer loop
      vertex 2.76093 29.4733 -2.5
      vertex 2.31763 29.6329 2.5
      vertex 2.76093 29.4733 2.5
    endloop
  endfacet
  facet normal 0.278992 0.960294 0
    outer loop
      vertex 1.86517 29.7644 -2.5
      vertex 1.86517 29.7644 2.5
      vertex 2.31763 29.6329 -2.5
    endloop
  endfacet
  facet normal 0.278992 0.960294 0
    outer loop
      vertex 2.31763 29.6329 -2.5
      vertex 1.86517 29.7644 2.5
      vertex 2.31763 29.6329 2.5
    endloop
  endfacet
  facet normal 0.218142 0.975917 0
    outer loop
      vertex 1.40536 29.8672 -2.5
      vertex 1.40536 29.8672 2.5
      vertex 1.86517 29.7644 -2.5
    endloop
  endfacet
  facet normal 0.218142 0.975917 0
    outer loop
      vertex 1.86517 29.7644 -2.5
      vertex 1.40536 29.8672 2.5
      vertex 1.86517 29.7644 2.5
    endloop
  endfacet
  facet normal 0.156435 0.987688 0
    outer loop
      vertex 0.939999 29.9409 -2.5
      vertex 0.939999 29.9409 2.5
      vertex 1.40536 29.8672 -2.5
    endloop
  endfacet
  facet normal 0.156435 0.987688 0
    outer loop
      vertex 1.40536 29.8672 -2.5
      vertex 0.939999 29.9409 2.5
      vertex 1.40536 29.8672 2.5
    endloop
  endfacet
  facet normal 0.094108 0.995562 0
    outer loop
      vertex 0.470929 29.9852 -2.5
      vertex 0.470929 29.9852 2.5
      vertex 0.939999 29.9409 -2.5
    endloop
  endfacet
  facet normal 0.094108 0.995562 0
    outer loop
      vertex 0.939999 29.9409 -2.5
      vertex 0.470929 29.9852 2.5
      vertex 0.939999 29.9409 2.5
    endloop
  endfacet
  facet normal 0.0314117 0.999507 0
    outer loop
      vertex 0 30 -2.5
      vertex 0 30 2.5
      vertex 0.470929 29.9852 -2.5
    endloop
  endfacet
  facet normal 0.0314117 0.999507 0
    outer loop
      vertex 0.470929 29.9852 -2.5
      vertex 0 30 2.5
      vertex 0.470929 29.9852 2.5
    endloop
  endfacet
  facet normal -0.0314117 0.999507 0
    outer loop
      vertex -0.470929 29.9852 -2.5
      vertex -0.470929 29.9852 2.5
      vertex 0 30 -2.5
    endloop
  endfacet
  facet normal -0.0314117 0.999507 0
    outer loop
      vertex 0 30 -2.5
      vertex -0.470929 29.9852 2.5
      vertex 0 30 2.5
    endloop
  endfacet
  facet normal -0.094108 0.995562 0
    outer loop
      vertex -0.939999 29.9409 -2.5
      vertex -0.939999 29.9409 2.5
      vertex -0.470929 29.9852 -2.5
    endloop
  endfacet
  facet normal -0.094108 0.995562 0
    outer loop
      vertex -0.470929 29.9852 -2.5
      vertex -0.939999 29.9409 2.5
      vertex -0.470929 29.9852 2.5
    endloop
  endfacet
  facet normal -0.156435 0.987688 0
    outer loop
      vertex -1.40536 29.8672 -2.5
      vertex -1.40536 29.8672 2.5
      vertex -0.939999 29.9409 -2.5
    endloop
  endfacet
  facet normal -0.156435 0.987688 0
    outer loop
      vertex -0.939999 29.9409 -2.5
      vertex -1.40536 29.8672 2.5
      vertex -0.939999 29.9409 2.5
    endloop
  endfacet
  facet normal -0.218142 0.975917 0
    outer loop
      vertex -1.86517 29.7644 -2.5
      vertex -1.86517 29.7644 2.5
      vertex -1.40536 29.8672 -2.5
    endloop
  endfacet
  facet normal -0.218142 0.975917 0
    outer loop
      vertex -1.40536 29.8672 -2.5
      vertex -1.86517 29.7644 2.5
      vertex -1.40536 29.8672 2.5
    endloop
  endfacet
  facet normal -0.278992 0.960294 0
    outer loop
      vertex -2.31763 29.6329 -2.5
      vertex -2.31763 29.6329 2.5
      vertex -1.86517 29.7644 -2.5
    endloop
  endfacet
  facet normal -0.278992 0.960294 0
    outer loop
      vertex -1.86517 29.7644 -2.5
      vertex -2.31763 29.6329 2.5
      vertex -1.86517 29.7644 2.5
    endloop
  endfacet
  facet normal -0.338737 0.940881 0
    outer loop
      vertex -2.76093 29.4733 -2.5
      vertex -2.76093 29.4733 2.5
      vertex -2.31763 29.6329 -2.5
    endloop
  endfacet
  facet normal -0.338737 0.940881 0
    outer loop
      vertex -2.31763 29.6329 -2.5
      vertex -2.76093 29.4733 2.5
      vertex -2.31763 29.6329 2.5
    endloop
  endfacet
  facet normal -0.397148 0.917755 0
    outer loop
      vertex -3.19334 29.2862 -2.5
      vertex -3.19334 29.2862 2.5
      vertex -2.76093 29.4733 -2.5
    endloop
  endfacet
  facet normal -0.397148 0.917755 0
    outer loop
      vertex -2.76093 29.4733 -2.5
      vertex -3.19334 29.2862 2.5
      vertex -2.76093 29.4733 2.5
    endloop
  endfacet
  facet normal -0.453991 0.891006 0
    outer loop
      vertex -3.61315 29.0723 -2.5
      vertex -3.61315 29.0723 2.5
      vertex -3.19334 29.2862 -2.5
    endloop
  endfacet
  facet normal -0.453991 0.891006 0
    outer loop
      vertex -3.19334 29.2862 -2.5
      vertex -3.61315 29.0723 2.5
      vertex -3.19334 29.2862 2.5
    endloop
  endfacet
  facet normal -0.509042 0.860741 0
    outer loop
      vertex -4.0187 28.8325 -2.5
      vertex -4.0187 28.8325 2.5
      vertex -3.61315 29.0723 -2.5
    endloop
  endfacet
  facet normal -0.509042 0.860741 0
    outer loop
      vertex -3.61315 29.0723 -2.5
      vertex -4.0187 28.8325 2.5
      vertex -3.61315 29.0723 2.5
    endloop
  endfacet
  facet normal -0.562084 0.82708 0
    outer loop
      vertex -4.40839 28.5676 -2.5
      vertex -4.40839 28.5676 2.5
      vertex -4.0187 28.8325 -2.5
    endloop
  endfacet
  facet normal -0.562084 0.82708 0
    outer loop
      vertex -4.0187 28.8325 -2.5
      vertex -4.40839 28.5676 2.5
      vertex -4.0187 28.8325 2.5
    endloop
  endfacet
  facet normal -0.612906 0.790156 0
    outer loop
      vertex -4.78068 28.2788 -2.5
      vertex -4.78068 28.2788 2.5
      vertex -4.40839 28.5676 -2.5
    endloop
  endfacet
  facet normal -0.612906 0.790156 0
    outer loop
      vertex -4.40839 28.5676 -2.5
      vertex -4.78068 28.2788 2.5
      vertex -4.40839 28.5676 2.5
    endloop
  endfacet
  facet normal -0.661312 0.750111 0
    outer loop
      vertex -5.1341 27.9673 -2.5
      vertex -5.1341 27.9673 2.5
      vertex -4.78068 28.2788 -2.5
    endloop
  endfacet
  facet normal -0.661312 0.750111 0
    outer loop
      vertex -4.78068 28.2788 -2.5
      vertex -5.1341 27.9673 2.5
      vertex -4.78068 28.2788 2.5
    endloop
  endfacet
  facet normal -0.707107 0.707107 0
    outer loop
      vertex -5.46726 27.6341 -2.5
      vertex -5.46726 27.6341 2.5
      vertex -5.1341 27.9673 -2.5
    endloop
  endfacet
  facet normal -0.707107 0.707107 0
    outer loop
      vertex -5.1341 27.9673 -2.5
      vertex -5.46726 27.6341 2.5
      vertex -5.1341 27.9673 2.5
    endloop
  endfacet
  facet normal -0.750111 0.661312 0
    outer loop
      vertex -5.77885 27.2807 -2.5
      vertex -5.77885 27.2807 2.5
      vertex -5.46726 27.6341 -2.5
    endloop
  endfacet
  facet normal -0.750111 0.661312 0
    outer loop
      vertex -5.46726 27.6341 -2.5
      vertex -5.77885 27.2807 2.5
      vertex -5.46726 27.6341 2.5
    endloop
  endfacet
  facet normal -0.790156 0.612906 0
    outer loop
      vertex -6.06763 26.9084 -2.5
      vertex -6.06763 26.9084 2.5
      vertex -5.77885 27.2807 -2.5
    endloop
  endfacet
  facet normal -0.790156 0.612906 0
    outer loop
      vertex -5.77885 27.2807 -2.5
      vertex -6.06763 26.9084 2.5
      vertex -5.77885 27.2807 2.5
    endloop
  endfacet
  facet normal -0.82708 0.562084 0
    outer loop
      vertex -6.33246 26.5187 -2.5
      vertex -6.33246 26.5187 2.5
      vertex -6.06763 26.9084 -2.5
    endloop
  endfacet
  facet normal -0.82708 0.562084 0
    outer loop
      vertex -6.06763 26.9084 -2.5
      vertex -6.33246 26.5187 2.5
      vertex -6.06763 26.9084 2.5
    endloop
  endfacet
  facet normal -0.860741 0.509042 0
    outer loop
      vertex -6.5723 26.1132 -2.5
      vertex -6.5723 26.1132 2.5
      vertex -6.33246 26.5187 -2.5
    endloop
  endfacet
  facet normal -0.860741 0.509042 0
    outer loop
      vertex -6.33246 26.5187 -2.5
      vertex -6.5723 26.1132 2.5
      vertex -6.33246 26.5187 2.5
    endloop
  endfacet
  facet normal -0.891006 0.453991 0
    outer loop
      vertex -6.7862 25.6933 -2.5
      vertex -6.7862 25.6933 2.5
      vertex -6.5723 26.1132 -2.5
    endloop
  endfacet
  facet normal -0.891006 0.453991 0
    outer loop
      vertex -6.5723 26.1132 -2.5
      vertex -6.7862 25.6933 2.5
      vertex -6.5723 26.1132 2.5
    endloop
  endfacet
  facet normal -0.917755 0.397148 0
    outer loop
      vertex -6.97332 25.2609 -2.5
      vertex -6.97332 25.2609 2.5
      vertex -6.7862 25.6933 -2.5
    endloop
  endfacet
  facet normal -0.917755 0.397148 0
    outer loop
      vertex -6.7862 25.6933 -2.5
      vertex -6.97332 25.2609 2.5
      vertex -6.7862 25.6933 2.5
    endloop
  endfacet
  facet normal -0.940881 0.338737 0
    outer loop
      vertex -7.13292 24.8176 -2.5
      vertex -7.13292 24.8176 2.5
      vertex -6.97332 25.2609 -2.5
    endloop
  endfacet
  facet normal -0.940881 0.338737 0
    outer loop
      vertex -6.97332 25.2609 -2.5
      vertex -7.13292 24.8176 2.5
      vertex -6.97332 25.2609 2.5
    endloop
  endfacet
  facet normal -0.960294 0.278992 0
    outer loop
      vertex -7.26437 24.3652 -2.5
      vertex -7.26437 24.3652 2.5
      vertex -7.13292 24.8176 -2.5
    endloop
  endfacet
  facet normal -0.960294 0.278992 0
    outer loop
      vertex -7.13292 24.8176 -2.5
      vertex -7.26437 24.3652 2.5
      vertex -7.13292 24.8176 2.5
    endloop
  endfacet
  facet normal -0.975917 0.218142 0
    outer loop
      vertex -7.36715 23.9054 -2.5
      vertex -7.36715 23.9054 2.5
      vertex -7.26437 24.3652 -2.5
    endloop
  endfacet
  facet normal -0.975917 0.218142 0
    outer loop
      vertex -7.26437 24.3652 -2.5
      vertex -7.36715 23.9054 2.5
      vertex -7.26437 24.3652 2.5
    endloop
  endfacet
  facet normal -0.987688 0.156435 0
    outer loop
      vertex -7.44086 23.44 -2.5
      vertex -7.44086 23.44 2.5
      vertex -7.36715 23.9054 -2.5
    endloop
  endfacet
  facet normal -0.987688 0.156435 0
    outer loop
      vertex -7.36715 23.9054 -2.5
      vertex -7.44086 23.44 2.5
      vertex -7.36715 23.9054 2.5
    endloop
  endfacet
  facet normal -0.995562 0.094108 0
    outer loop
      vertex -7.4852 22.9709 -2.5
      vertex -7.4852 22.9709 2.5
      vertex -7.44086 23.44 -2.5
    endloop
  endfacet
  facet normal -0.995562 0.094108 0
    outer loop
      vertex -7.44086 23.44 -2.5
      vertex -7.4852 22.9709 2.5
      vertex -7.44086 23.44 2.5
    endloop
  endfacet
  facet normal -0.999507 0.0314117 0
    outer loop
      vertex -7.5 22.5 -2.5
      vertex -7.5 22.5 2.5
      vertex -7.4852 22.9709 -2.5
    endloop
  endfacet
  facet normal -0.999507 0.0314117 0
    outer loop
      vertex -7.4852 22.9709 -2.5
      vertex -7.5 22.5 2.5
      vertex -7.4852 22.9709 2.5
    endloop
  endfacet
  facet normal -0.999507 -0.0314117 0
    outer loop
      vertex -7.5 22.5 -2.5
      vertex -7.4852 22.0291 -2.5
      vertex -7.5 22.5 2.5
    endloop
  endfacet
  facet normal -0.999507 -0.0314117 0
    outer loop
      vertex -7.5 22.5 2.5
      vertex -7.4852 22.0291 -2.5
      vertex -7.4852 22.0291 2.5
    endloop
  endfacet
  facet normal -0.995562 -0.094108 0
    outer loop
      vertex -7.4852 22.0291 -2.5
      vertex -7.44086 21.56 -2.5
      vertex -7.4852 22.0291 2.5
    endloop
  endfacet
  facet normal -0.995562 -0.094108 0
    outer loop
      vertex -7.4852 22.0291 2.5
      vertex -7.44086 21.56 -2.5
      vertex -7.44086 21.56 2.5
    endloop
  endfacet
  facet normal -0.987688 -0.156435 0
    outer loop
      vertex -7.44086 21.56 -2.5
      vertex -7.36715 21.0946 -2.5
      vertex -7.44086 21.56 2.5
    endloop
  endfacet
  facet normal -0.987688 -0.156435 0
    outer loop
      vertex -7.44086 21.56 2.5
      vertex -7.36715 21.0946 -2.5
      vertex -7.36715 21.0946 2.5
    endloop
  endfacet
  facet normal -0.975917 -0.218142 0
    outer loop
      vertex -7.36715 21.0946 -2.5
      vertex -7.26437 20.6348 -2.5
      vertex -7.36715 21.0946 2.5
    endloop
  endfacet
  facet normal -0.975917 -0.218142 0
    outer loop
      vertex -7.36715 21.0946 2.5
      vertex -7.26437 20.6348 -2.5
      vertex -7.26437 20.6348 2.5
    endloop
  endfacet
  facet normal -0.960294 -0.278992 0
    outer loop
      vertex -7.26437 20.6348 -2.5
      vertex -7.13292 20.1824 -2.5
      vertex -7.26437 20.6348 2.5
    endloop
  endfacet
  facet normal -0.960294 -0.278992 0
    outer loop
      vertex -7.26437 20.6348 2.5
      vertex -7.13292 20.1824 -2.5
      vertex -7.13292 20.1824 2.5
    endloop
  endfacet
  facet normal -0.940881 -0.338737 0
    outer loop
      vertex -7.13292 20.1824 -2.5
      vertex -6.97332 19.7391 -2.5
      vertex -7.13292 20.1824 2.5
    endloop
  endfacet
  facet normal -0.940881 -0.338737 0
    outer loop
      vertex -7.13292 20.1824 2.5
      vertex -6.97332 19.7391 -2.5
      vertex -6.97332 19.7391 2.5
    endloop
  endfacet
  facet normal -0.917755 -0.397148 0
    outer loop
      vertex -6.97332 19.7391 -2.5
      vertex -6.7862 19.3067 -2.5
      vertex -6.97332 19.7391 2.5
    endloop
  endfacet
  facet normal -0.917755 -0.397148 0
    outer loop
      vertex -6.97332 19.7391 2.5
      vertex -6.7862 19.3067 -2.5
      vertex -6.7862 19.3067 2.5
    endloop
  endfacet
  facet normal -0.891006 -0.453991 0
    outer loop
      vertex -6.7862 19.3067 -2.5
      vertex -6.5723 18.8868 -2.5
      vertex -6.7862 19.3067 2.5
    endloop
  endfacet
  facet normal -0.891006 -0.453991 0
    outer loop
      vertex -6.7862 19.3067 2.5
      vertex -6.5723 18.8868 -2.5
      vertex -6.5723 18.8868 2.5
    endloop
  endfacet
  facet normal -0.860741 -0.509042 0
    outer loop
      vertex -6.5723 18.8868 -2.5
      vertex -6.33246 18.4813 -2.5
      vertex -6.5723 18.8868 2.5
    endloop
  endfacet
  facet normal -0.860741 -0.509042 0
    outer loop
      vertex -6.5723 18.8868 2.5
      vertex -6.33246 18.4813 -2.5
      vertex -6.33246 18.4813 2.5
    endloop
  endfacet
  facet normal -0.82708 -0.562084 0
    outer loop
      vertex -6.33246 18.4813 -2.5
      vertex -6.06763 18.0916 -2.5
      vertex -6.33246 18.4813 2.5
    endloop
  endfacet
  facet normal -0.82708 -0.562084 0
    outer loop
      vertex -6.33246 18.4813 2.5
      vertex -6.06763 18.0916 -2.5
      vertex -6.06763 18.0916 2.5
    endloop
  endfacet
  facet normal -0.790156 -0.612906 0
    outer loop
      vertex -6.06763 18.0916 -2.5
      vertex -5.77885 17.7193 -2.5
      vertex -6.06763 18.0916 2.5
    endloop
  endfacet
  facet normal -0.790156 -0.612906 0
    outer loop
      vertex -6.06763 18.0916 2.5
      vertex -5.77885 17.7193 -2.5
      vertex -5.77885 17.7193 2.5
    endloop
  endfacet
  facet normal -0.750111 -0.661312 0
    outer loop
      vertex -5.77885 17.7193 -2.5
      vertex -5.46726 17.3659 -2.5
      vertex -5.77885 17.7193 2.5
    endloop
  endfacet
  facet normal -0.750111 -0.661312 0
    outer loop
      vertex -5.77885 17.7193 2.5
      vertex -5.46726 17.3659 -2.5
      vertex -5.46726 17.3659 2.5
    endloop
  endfacet
  facet normal -0.707107 -0.707107 0
    outer loop
      vertex -5.46726 17.3659 2.5
      vertex -5.46726 17.3659 -2.5
      vertex -5.1341 17.0327 -2.5
    endloop
  endfacet
  facet normal -0.707107 -0.707107 0
    outer loop
      vertex -5.1341 17.0327 2.5
      vertex -5.46726 17.3659 2.5
      vertex -5.1341 17.0327 -2.5
    endloop
  endfacet
  facet normal -0.661312 -0.750111 0
    outer loop
      vertex -5.1341 17.0327 2.5
      vertex -5.1341 17.0327 -2.5
      vertex -4.78068 16.7212 -2.5
    endloop
  endfacet
  facet normal -0.661312 -0.750111 0
    outer loop
      vertex -4.78068 16.7212 2.5
      vertex -5.1341 17.0327 2.5
      vertex -4.78068 16.7212 -2.5
    endloop
  endfacet
  facet normal -0.612906 -0.790156 0
    outer loop
      vertex -4.78068 16.7212 2.5
      vertex -4.78068 16.7212 -2.5
      vertex -4.49557 16.5 -2.5
    endloop
  endfacet
  facet normal -0.612906 -0.790156 0
    outer loop
      vertex -4.49557 16.5 2.5
      vertex -4.78068 16.7212 2.5
      vertex -4.49557 16.5 -2.5
    endloop
  endfacet
  facet normal 0 1 0
    outer loop
      vertex -15.9474 16.5 -2.5
      vertex -15.9474 16.5 2.5
      vertex -4.49557 16.5 -2.5
    endloop
  endfacet
  facet normal 0 1 0
    outer loop
      vertex -4.49557 16.5 -2.5
      vertex -15.9474 16.5 2.5
      vertex -4.49557 16.5 2.5
    endloop
  endfacet
endsolid OpenSCAD_Model
