solid OpenSCAD_Model
  facet normal 0.998027 0.0627903 0
    outer loop
      vertex 2 0 67
      vertex 1.98423 0.250666 2
      vertex 1.98423 0.250666 67
    endloop
  endfacet
  facet normal 0.998027 0.0627903 0
    outer loop
      vertex 1.98423 0.250666 2
      vertex 2 0 67
      vertex 2 0 2
    endloop
  endfacet
  facet normal 0.982287 0.187381 0
    outer loop
      vertex 1.98423 0.250666 67
      vertex 1.93717 0.49738 2
      vertex 1.93717 0.49738 67
    endloop
  endfacet
  facet normal 0.982287 0.187381 0
    outer loop
      vertex 1.93717 0.49738 2
      vertex 1.98423 0.250666 67
      vertex 1.98423 0.250666 2
    endloop
  endfacet
  facet normal 0.951057 0.309017 0
    outer loop
      vertex 1.93717 0.49738 67
      vertex 1.85955 0.736249 2
      vertex 1.85955 0.736249 67
    endloop
  endfacet
  facet normal 0.951057 0.309017 0
    outer loop
      vertex 1.85955 0.736249 2
      vertex 1.93717 0.49738 67
      vertex 1.93717 0.49738 2
    endloop
  endfacet
  facet normal 0.904827 0.425779 0
    outer loop
      vertex 1.85955 0.736249 67
      vertex 1.75261 0.963507 2
      vertex 1.75261 0.963507 67
    endloop
  endfacet
  facet normal 0.904827 0.425779 0
    outer loop
      vertex 1.75261 0.963507 2
      vertex 1.85955 0.736249 67
      vertex 1.85955 0.736249 2
    endloop
  endfacet
  facet normal 0.844328 0.535827 0
    outer loop
      vertex 1.75261 0.963507 67
      vertex 1.61803 1.17557 2
      vertex 1.61803 1.17557 67
    endloop
  endfacet
  facet normal 0.844328 0.535827 0
    outer loop
      vertex 1.61803 1.17557 2
      vertex 1.75261 0.963507 67
      vertex 1.75261 0.963507 2
    endloop
  endfacet
  facet normal 0.770513 0.637424 0
    outer loop
      vertex 1.61803 1.17557 67
      vertex 1.45794 1.36909 2
      vertex 1.45794 1.36909 67
    endloop
  endfacet
  facet normal 0.770513 0.637424 0
    outer loop
      vertex 1.45794 1.36909 2
      vertex 1.61803 1.17557 67
      vertex 1.61803 1.17557 2
    endloop
  endfacet
  facet normal 0.684547 0.728969 -0
    outer loop
      vertex 1.45794 1.36909 2
      vertex 1.27485 1.54103 67
      vertex 1.45794 1.36909 67
    endloop
  endfacet
  facet normal 0.684547 0.728969 0
    outer loop
      vertex 1.27485 1.54103 67
      vertex 1.45794 1.36909 2
      vertex 1.27485 1.54103 2
    endloop
  endfacet
  facet normal 0.587785 0.809017 -0
    outer loop
      vertex 1.27485 1.54103 2
      vertex 1.07165 1.68866 67
      vertex 1.27485 1.54103 67
    endloop
  endfacet
  facet normal 0.587785 0.809017 0
    outer loop
      vertex 1.07165 1.68866 67
      vertex 1.27485 1.54103 2
      vertex 1.07165 1.68866 2
    endloop
  endfacet
  facet normal 0.481754 0.876307 -0
    outer loop
      vertex 1.07165 1.68866 2
      vertex 0.851559 1.80965 67
      vertex 1.07165 1.68866 67
    endloop
  endfacet
  facet normal 0.481754 0.876307 0
    outer loop
      vertex 0.851559 1.80965 67
      vertex 1.07165 1.68866 2
      vertex 0.851559 1.80965 2
    endloop
  endfacet
  facet normal 0.368125 0.929776 -0
    outer loop
      vertex 0.851559 1.80965 2
      vertex 0.618034 1.90211 67
      vertex 0.851559 1.80965 67
    endloop
  endfacet
  facet normal 0.368125 0.929776 0
    outer loop
      vertex 0.618034 1.90211 67
      vertex 0.851559 1.80965 2
      vertex 0.618034 1.90211 2
    endloop
  endfacet
  facet normal 0.24869 0.968583 -0
    outer loop
      vertex 0.618034 1.90211 2
      vertex 0.374763 1.96457 67
      vertex 0.618034 1.90211 67
    endloop
  endfacet
  facet normal 0.24869 0.968583 0
    outer loop
      vertex 0.374763 1.96457 67
      vertex 0.618034 1.90211 2
      vertex 0.374763 1.96457 2
    endloop
  endfacet
  facet normal 0.125333 0.992115 -0
    outer loop
      vertex 0.374763 1.96457 2
      vertex 0.125581 1.99605 67
      vertex 0.374763 1.96457 67
    endloop
  endfacet
  facet normal 0.125333 0.992115 0
    outer loop
      vertex 0.125581 1.99605 67
      vertex 0.374763 1.96457 2
      vertex 0.125581 1.99605 2
    endloop
  endfacet
  facet normal 0 1 -0
    outer loop
      vertex 0.125581 1.99605 2
      vertex -0.125581 1.99605 67
      vertex 0.125581 1.99605 67
    endloop
  endfacet
  facet normal 0 1 0
    outer loop
      vertex -0.125581 1.99605 67
      vertex 0.125581 1.99605 2
      vertex -0.125581 1.99605 2
    endloop
  endfacet
  facet normal -0.125333 0.992115 0
    outer loop
      vertex -0.125581 1.99605 2
      vertex -0.374763 1.96457 67
      vertex -0.125581 1.99605 67
    endloop
  endfacet
  facet normal -0.125333 0.992115 0
    outer loop
      vertex -0.374763 1.96457 67
      vertex -0.125581 1.99605 2
      vertex -0.374763 1.96457 2
    endloop
  endfacet
  facet normal -0.24869 0.968583 0
    outer loop
      vertex -0.374763 1.96457 2
      vertex -0.618034 1.90211 67
      vertex -0.374763 1.96457 67
    endloop
  endfacet
  facet normal -0.24869 0.968583 0
    outer loop
      vertex -0.618034 1.90211 67
      vertex -0.374763 1.96457 2
      vertex -0.618034 1.90211 2
    endloop
  endfacet
  facet normal -0.368125 0.929776 0
    outer loop
      vertex -0.618034 1.90211 2
      vertex -0.851559 1.80965 67
      vertex -0.618034 1.90211 67
    endloop
  endfacet
  facet normal -0.368125 0.929776 0
    outer loop
      vertex -0.851559 1.80965 67
      vertex -0.618034 1.90211 2
      vertex -0.851559 1.80965 2
    endloop
  endfacet
  facet normal -0.481754 0.876307 0
    outer loop
      vertex -0.851559 1.80965 2
      vertex -1.07165 1.68866 67
      vertex -0.851559 1.80965 67
    endloop
  endfacet
  facet normal -0.481754 0.876307 0
    outer loop
      vertex -1.07165 1.68866 67
      vertex -0.851559 1.80965 2
      vertex -1.07165 1.68866 2
    endloop
  endfacet
  facet normal -0.587785 0.809017 0
    outer loop
      vertex -1.07165 1.68866 2
      vertex -1.27485 1.54103 67
      vertex -1.07165 1.68866 67
    endloop
  endfacet
  facet normal -0.587785 0.809017 0
    outer loop
      vertex -1.27485 1.54103 67
      vertex -1.07165 1.68866 2
      vertex -1.27485 1.54103 2
    endloop
  endfacet
  facet normal -0.684547 0.728969 0
    outer loop
      vertex -1.27485 1.54103 2
      vertex -1.45794 1.36909 67
      vertex -1.27485 1.54103 67
    endloop
  endfacet
  facet normal -0.684547 0.728969 0
    outer loop
      vertex -1.45794 1.36909 67
      vertex -1.27485 1.54103 2
      vertex -1.45794 1.36909 2
    endloop
  endfacet
  facet normal -0.770513 0.637424 0
    outer loop
      vertex -1.61803 1.17557 2
      vertex -1.45794 1.36909 67
      vertex -1.45794 1.36909 2
    endloop
  endfacet
  facet normal -0.770513 0.637424 0
    outer loop
      vertex -1.45794 1.36909 67
      vertex -1.61803 1.17557 2
      vertex -1.61803 1.17557 67
    endloop
  endfacet
  facet normal -0.844328 0.535827 0
    outer loop
      vertex -1.75261 0.963507 2
      vertex -1.61803 1.17557 67
      vertex -1.61803 1.17557 2
    endloop
  endfacet
  facet normal -0.844328 0.535827 0
    outer loop
      vertex -1.61803 1.17557 67
      vertex -1.75261 0.963507 2
      vertex -1.75261 0.963507 67
    endloop
  endfacet
  facet normal -0.904827 0.425779 0
    outer loop
      vertex -1.85955 0.736249 2
      vertex -1.75261 0.963507 67
      vertex -1.75261 0.963507 2
    endloop
  endfacet
  facet normal -0.904827 0.425779 0
    outer loop
      vertex -1.75261 0.963507 67
      vertex -1.85955 0.736249 2
      vertex -1.85955 0.736249 67
    endloop
  endfacet
  facet normal -0.951057 0.309017 0
    outer loop
      vertex -1.93717 0.49738 2
      vertex -1.85955 0.736249 67
      vertex -1.85955 0.736249 2
    endloop
  endfacet
  facet normal -0.951057 0.309017 0
    outer loop
      vertex -1.85955 0.736249 67
      vertex -1.93717 0.49738 2
      vertex -1.93717 0.49738 67
    endloop
  endfacet
  facet normal -0.982287 0.187381 0
    outer loop
      vertex -1.98423 0.250666 2
      vertex -1.93717 0.49738 67
      vertex -1.93717 0.49738 2
    endloop
  endfacet
  facet normal -0.982287 0.187381 0
    outer loop
      vertex -1.93717 0.49738 67
      vertex -1.98423 0.250666 2
      vertex -1.98423 0.250666 67
    endloop
  endfacet
  facet normal -0.998027 0.0627903 0
    outer loop
      vertex -2 2.44929e-16 2
      vertex -1.98423 0.250666 67
      vertex -1.98423 0.250666 2
    endloop
  endfacet
  facet normal -0.998027 0.0627903 0
    outer loop
      vertex -1.98423 0.250666 67
      vertex -2 2.44929e-16 2
      vertex -2 2.44929e-16 67
    endloop
  endfacet
  facet normal -0.998027 -0.0627903 0
    outer loop
      vertex -1.98423 -0.250666 2
      vertex -2 2.44929e-16 67
      vertex -2 2.44929e-16 2
    endloop
  endfacet
  facet normal -0.998027 -0.0627903 0
    outer loop
      vertex -2 2.44929e-16 67
      vertex -1.98423 -0.250666 2
      vertex -1.98423 -0.250666 67
    endloop
  endfacet
  facet normal -0.982287 -0.187381 0
    outer loop
      vertex -1.93717 -0.49738 2
      vertex -1.98423 -0.250666 67
      vertex -1.98423 -0.250666 2
    endloop
  endfacet
  facet normal -0.982287 -0.187381 0
    outer loop
      vertex -1.98423 -0.250666 67
      vertex -1.93717 -0.49738 2
      vertex -1.93717 -0.49738 67
    endloop
  endfacet
  facet normal -0.951057 -0.309017 0
    outer loop
      vertex -1.85955 -0.736249 2
      vertex -1.93717 -0.49738 67
      vertex -1.93717 -0.49738 2
    endloop
  endfacet
  facet normal -0.951057 -0.309017 0
    outer loop
      vertex -1.93717 -0.49738 67
      vertex -1.85955 -0.736249 2
      vertex -1.85955 -0.736249 67
    endloop
  endfacet
  facet normal -0.904827 -0.425779 0
    outer loop
      vertex -1.75261 -0.963507 2
      vertex -1.85955 -0.736249 67
      vertex -1.85955 -0.736249 2
    endloop
  endfacet
  facet normal -0.904827 -0.425779 0
    outer loop
      vertex -1.85955 -0.736249 67
      vertex -1.75261 -0.963507 2
      vertex -1.75261 -0.963507 67
    endloop
  endfacet
  facet normal -0.844328 -0.535827 0
    outer loop
      vertex -1.61803 -1.17557 2
      vertex -1.75261 -0.963507 67
      vertex -1.75261 -0.963507 2
    endloop
  endfacet
  facet normal -0.844328 -0.535827 0
    outer loop
      vertex -1.75261 -0.963507 67
      vertex -1.61803 -1.17557 2
      vertex -1.61803 -1.17557 67
    endloop
  endfacet
  facet normal -0.770513 -0.637424 0
    outer loop
      vertex -1.45794 -1.36909 2
      vertex -1.61803 -1.17557 67
      vertex -1.61803 -1.17557 2
    endloop
  endfacet
  facet normal -0.770513 -0.637424 0
    outer loop
      vertex -1.61803 -1.17557 67
      vertex -1.45794 -1.36909 2
      vertex -1.45794 -1.36909 67
    endloop
  endfacet
  facet normal -0.684547 -0.728969 0
    outer loop
      vertex -1.45794 -1.36909 2
      vertex -1.27485 -1.54103 67
      vertex -1.45794 -1.36909 67
    endloop
  endfacet
  facet normal -0.684547 -0.728969 -0
    outer loop
      vertex -1.27485 -1.54103 67
      vertex -1.45794 -1.36909 2
      vertex -1.27485 -1.54103 2
    endloop
  endfacet
  facet normal -0.587785 -0.809017 0
    outer loop
      vertex -1.27485 -1.54103 2
      vertex -1.07165 -1.68866 67
      vertex -1.27485 -1.54103 67
    endloop
  endfacet
  facet normal -0.587785 -0.809017 -0
    outer loop
      vertex -1.07165 -1.68866 67
      vertex -1.27485 -1.54103 2
      vertex -1.07165 -1.68866 2
    endloop
  endfacet
  facet normal -0.481754 -0.876307 0
    outer loop
      vertex -1.07165 -1.68866 2
      vertex -0.851559 -1.80965 67
      vertex -1.07165 -1.68866 67
    endloop
  endfacet
  facet normal -0.481754 -0.876307 -0
    outer loop
      vertex -0.851559 -1.80965 67
      vertex -1.07165 -1.68866 2
      vertex -0.851559 -1.80965 2
    endloop
  endfacet
  facet normal -0.368125 -0.929776 0
    outer loop
      vertex -0.851559 -1.80965 2
      vertex -0.618034 -1.90211 67
      vertex -0.851559 -1.80965 67
    endloop
  endfacet
  facet normal -0.368125 -0.929776 -0
    outer loop
      vertex -0.618034 -1.90211 67
      vertex -0.851559 -1.80965 2
      vertex -0.618034 -1.90211 2
    endloop
  endfacet
  facet normal -0.24869 -0.968583 0
    outer loop
      vertex -0.618034 -1.90211 2
      vertex -0.374763 -1.96457 67
      vertex -0.618034 -1.90211 67
    endloop
  endfacet
  facet normal -0.24869 -0.968583 -0
    outer loop
      vertex -0.374763 -1.96457 67
      vertex -0.618034 -1.90211 2
      vertex -0.374763 -1.96457 2
    endloop
  endfacet
  facet normal -0.125333 -0.992115 0
    outer loop
      vertex -0.374763 -1.96457 2
      vertex -0.125581 -1.99605 67
      vertex -0.374763 -1.96457 67
    endloop
  endfacet
  facet normal -0.125333 -0.992115 -0
    outer loop
      vertex -0.125581 -1.99605 67
      vertex -0.374763 -1.96457 2
      vertex -0.125581 -1.99605 2
    endloop
  endfacet
  facet normal 0 -1 0
    outer loop
      vertex -0.125581 -1.99605 2
      vertex 0.125581 -1.99605 67
      vertex -0.125581 -1.99605 67
    endloop
  endfacet
  facet normal 0 -1 -0
    outer loop
      vertex 0.125581 -1.99605 67
      vertex -0.125581 -1.99605 2
      vertex 0.125581 -1.99605 2
    endloop
  endfacet
  facet normal 0.125333 -0.992115 0
    outer loop
      vertex 0.125581 -1.99605 2
      vertex 0.374763 -1.96457 67
      vertex 0.125581 -1.99605 67
    endloop
  endfacet
  facet normal 0.125333 -0.992115 0
    outer loop
      vertex 0.374763 -1.96457 67
      vertex 0.125581 -1.99605 2
      vertex 0.374763 -1.96457 2
    endloop
  endfacet
  facet normal 0.24869 -0.968583 0
    outer loop
      vertex 0.374763 -1.96457 2
      vertex 0.618034 -1.90211 67
      vertex 0.374763 -1.96457 67
    endloop
  endfacet
  facet normal 0.24869 -0.968583 0
    outer loop
      vertex 0.618034 -1.90211 67
      vertex 0.374763 -1.96457 2
      vertex 0.618034 -1.90211 2
    endloop
  endfacet
  facet normal 0.368125 -0.929776 0
    outer loop
      vertex 0.618034 -1.90211 2
      vertex 0.851559 -1.80965 67
      vertex 0.618034 -1.90211 67
    endloop
  endfacet
  facet normal 0.368125 -0.929776 0
    outer loop
      vertex 0.851559 -1.80965 67
      vertex 0.618034 -1.90211 2
      vertex 0.851559 -1.80965 2
    endloop
  endfacet
  facet normal 0.481754 -0.876307 0
    outer loop
      vertex 0.851559 -1.80965 2
      vertex 1.07165 -1.68866 67
      vertex 0.851559 -1.80965 67
    endloop
  endfacet
  facet normal 0.481754 -0.876307 0
    outer loop
      vertex 1.07165 -1.68866 67
      vertex 0.851559 -1.80965 2
      vertex 1.07165 -1.68866 2
    endloop
  endfacet
  facet normal 0.587785 -0.809017 0
    outer loop
      vertex 1.07165 -1.68866 2
      vertex 1.27485 -1.54103 67
      vertex 1.07165 -1.68866 67
    endloop
  endfacet
  facet normal 0.587785 -0.809017 0
    outer loop
      vertex 1.27485 -1.54103 67
      vertex 1.07165 -1.68866 2
      vertex 1.27485 -1.54103 2
    endloop
  endfacet
  facet normal 0.684547 -0.728969 0
    outer loop
      vertex 1.27485 -1.54103 2
      vertex 1.45794 -1.36909 67
      vertex 1.27485 -1.54103 67
    endloop
  endfacet
  facet normal 0.684547 -0.728969 0
    outer loop
      vertex 1.45794 -1.36909 67
      vertex 1.27485 -1.54103 2
      vertex 1.45794 -1.36909 2
    endloop
  endfacet
  facet normal 0.770513 -0.637424 0
    outer loop
      vertex 1.45794 -1.36909 67
      vertex 1.61803 -1.17557 2
      vertex 1.61803 -1.17557 67
    endloop
  endfacet
  facet normal 0.770513 -0.637424 0
    outer loop
      vertex 1.61803 -1.17557 2
      vertex 1.45794 -1.36909 67
      vertex 1.45794 -1.36909 2
    endloop
  endfacet
  facet normal 0.844328 -0.535827 0
    outer loop
      vertex 1.61803 -1.17557 67
      vertex 1.75261 -0.963507 2
      vertex 1.75261 -0.963507 67
    endloop
  endfacet
  facet normal 0.844328 -0.535827 0
    outer loop
      vertex 1.75261 -0.963507 2
      vertex 1.61803 -1.17557 67
      vertex 1.61803 -1.17557 2
    endloop
  endfacet
  facet normal 0.904827 -0.425779 0
    outer loop
      vertex 1.75261 -0.963507 67
      vertex 1.85955 -0.736249 2
      vertex 1.85955 -0.736249 67
    endloop
  endfacet
  facet normal 0.904827 -0.425779 0
    outer loop
      vertex 1.85955 -0.736249 2
      vertex 1.75261 -0.963507 67
      vertex 1.75261 -0.963507 2
    endloop
  endfacet
  facet normal 0.951057 -0.309017 0
    outer loop
      vertex 1.85955 -0.736249 67
      vertex 1.93717 -0.49738 2
      vertex 1.93717 -0.49738 67
    endloop
  endfacet
  facet normal 0.951057 -0.309017 0
    outer loop
      vertex 1.93717 -0.49738 2
      vertex 1.85955 -0.736249 67
      vertex 1.85955 -0.736249 2
    endloop
  endfacet
  facet normal 0.982287 -0.187381 0
    outer loop
      vertex 1.93717 -0.49738 67
      vertex 1.98423 -0.250666 2
      vertex 1.98423 -0.250666 67
    endloop
  endfacet
  facet normal 0.982287 -0.187381 0
    outer loop
      vertex 1.98423 -0.250666 2
      vertex 1.93717 -0.49738 67
      vertex 1.93717 -0.49738 2
    endloop
  endfacet
  facet normal 0.998027 -0.0627903 0
    outer loop
      vertex 1.98423 -0.250666 67
      vertex 2 0 2
      vertex 2 0 67
    endloop
  endfacet
  facet normal 0.998027 -0.0627903 0
    outer loop
      vertex 2 0 2
      vertex 1.98423 -0.250666 67
      vertex 1.98423 -0.250666 2
    endloop
  endfacet
  facet normal 0 0 -1
    outer loop
      vertex 1.98423 -0.250666 2
      vertex 1.98423 0.250666 2
      vertex 2 0 2
    endloop
  endfacet
  facet normal 0 0 -1
    outer loop
      vertex 1.93717 -0.49738 2
      vertex 1.98423 0.250666 2
      vertex 1.98423 -0.250666 2
    endloop
  endfacet
  facet normal 0 0 -1
    outer loop
      vertex 1.93717 -0.49738 2
      vertex 1.93717 0.49738 2
      vertex 1.98423 0.250666 2
    endloop
  endfacet
  facet normal 0 0 -1
    outer loop
      vertex 1.85955 -0.736249 2
      vertex 1.93717 0.49738 2
      vertex 1.93717 -0.49738 2
    endloop
  endfacet
  facet normal 0 0 -1
    outer loop
      vertex 1.85955 -0.736249 2
      vertex 1.85955 0.736249 2
      vertex 1.93717 0.49738 2
    endloop
  endfacet
  facet normal 0 0 -1
    outer loop
      vertex 1.75261 -0.963507 2
      vertex 1.85955 0.736249 2
      vertex 1.85955 -0.736249 2
    endloop
  endfacet
  facet normal 0 0 -1
    outer loop
      vertex 1.75261 -0.963507 2
      vertex 1.75261 0.963507 2
      vertex 1.85955 0.736249 2
    endloop
  endfacet
  facet normal 0 0 -1
    outer loop
      vertex 1.61803 -1.17557 2
      vertex 1.75261 0.963507 2
      vertex 1.75261 -0.963507 2
    endloop
  endfacet
  facet normal 0 0 -1
    outer loop
      vertex 1.61803 -1.17557 2
      vertex 1.61803 1.17557 2
      vertex 1.75261 0.963507 2
    endloop
  endfacet
  facet normal 0 0 -1
    outer loop
      vertex 1.45794 -1.36909 2
      vertex 1.61803 1.17557 2
      vertex 1.61803 -1.17557 2
    endloop
  endfacet
  facet normal 0 0 -1
    outer loop
      vertex 1.45794 -1.36909 2
      vertex 1.45794 1.36909 2
      vertex 1.61803 1.17557 2
    endloop
  endfacet
  facet normal 0 0 -1
    outer loop
      vertex 1.27485 -1.54103 2
      vertex 1.45794 1.36909 2
      vertex 1.45794 -1.36909 2
    endloop
  endfacet
  facet normal 0 0 -1
    outer loop
      vertex 1.27485 -1.54103 2
      vertex 1.27485 1.54103 2
      vertex 1.45794 1.36909 2
    endloop
  endfacet
  facet normal 0 0 -1
    outer loop
      vertex 1.07165 -1.68866 2
      vertex 1.27485 1.54103 2
      vertex 1.27485 -1.54103 2
    endloop
  endfacet
  facet normal 0 0 -1
    outer loop
      vertex 1.07165 -1.68866 2
      vertex 1.07165 1.68866 2
      vertex 1.27485 1.54103 2
    endloop
  endfacet
  facet normal 0 0 -1
    outer loop
      vertex 0.851559 -1.80965 2
      vertex 1.07165 1.68866 2
      vertex 1.07165 -1.68866 2
    endloop
  endfacet
  facet normal 0 0 -1
    outer loop
      vertex 0.851559 -1.80965 2
      vertex 0.851559 1.80965 2
      vertex 1.07165 1.68866 2
    endloop
  endfacet
  facet normal 0 0 -1
    outer loop
      vertex 0.618034 -1.90211 2
      vertex 0.851559 1.80965 2
      vertex 0.851559 -1.80965 2
    endloop
  endfacet
  facet normal 0 0 -1
    outer loop
      vertex 0.618034 -1.90211 2
      vertex 0.618034 1.90211 2
      vertex 0.851559 1.80965 2
    endloop
  endfacet
  facet normal 0 0 -1
    outer loop
      vertex 0.374763 -1.96457 2
      vertex 0.618034 1.90211 2
      vertex 0.618034 -1.90211 2
    endloop
  endfacet
  facet normal 0 0 -1
    outer loop
      vertex 0.374763 -1.96457 2
      vertex 0.374763 1.96457 2
      vertex 0.618034 1.90211 2
    endloop
  endfacet
  facet normal 0 0 -1
    outer loop
      vertex 0.125581 -1.99605 2
      vertex 0.374763 1.96457 2
      vertex 0.374763 -1.96457 2
    endloop
  endfacet
  facet normal 0 0 -1
    outer loop
      vertex 0.125581 -1.99605 2
      vertex 0.125581 1.99605 2
      vertex 0.374763 1.96457 2
    endloop
  endfacet
  facet normal 0 0 -1
    outer loop
      vertex -0.125581 -1.99605 2
      vertex 0.125581 1.99605 2
      vertex 0.125581 -1.99605 2
    endloop
  endfacet
  facet normal 0 0 -1
    outer loop
      vertex -0.125581 -1.99605 2
      vertex -0.125581 1.99605 2
      vertex 0.125581 1.99605 2
    endloop
  endfacet
  facet normal 0 0 -1
    outer loop
      vertex -0.374763 -1.96457 2
      vertex -0.125581 1.99605 2
      vertex -0.125581 -1.99605 2
    endloop
  endfacet
  facet normal 0 0 -1
    outer loop
      vertex -0.374763 -1.96457 2
      vertex -0.374763 1.96457 2
      vertex -0.125581 1.99605 2
    endloop
  endfacet
  facet normal 0 0 -1
    outer loop
      vertex -0.618034 -1.90211 2
      vertex -0.374763 1.96457 2
      vertex -0.374763 -1.96457 2
    endloop
  endfacet
  facet normal 0 0 -1
    outer loop
      vertex -0.618034 -1.90211 2
      vertex -0.618034 1.90211 2
      vertex -0.374763 1.96457 2
    endloop
  endfacet
  facet normal 0 0 -1
    outer loop
      vertex -0.851559 -1.80965 2
      vertex -0.618034 1.90211 2
      vertex -0.618034 -1.90211 2
    endloop
  endfacet
  facet normal 0 0 -1
    outer loop
      vertex -0.851559 -1.80965 2
      vertex -0.851559 1.80965 2
      vertex -0.618034 1.90211 2
    endloop
  endfacet
  facet normal 0 0 -1
    outer loop
      vertex -1.07165 -1.68866 2
      vertex -0.851559 1.80965 2
      vertex -0.851559 -1.80965 2
    endloop
  endfacet
  facet normal 0 0 -1
    outer loop
      vertex -1.07165 -1.68866 2
      vertex -1.07165 1.68866 2
      vertex -0.851559 1.80965 2
    endloop
  endfacet
  facet normal 0 0 -1
    outer loop
      vertex -1.27485 -1.54103 2
      vertex -1.07165 1.68866 2
      vertex -1.07165 -1.68866 2
    endloop
  endfacet
  facet normal 0 0 -1
    outer loop
      vertex -1.27485 -1.54103 2
      vertex -1.27485 1.54103 2
      vertex -1.07165 1.68866 2
    endloop
  endfacet
  facet normal 0 0 -1
    outer loop
      vertex -1.45794 -1.36909 2
      vertex -1.27485 1.54103 2
      vertex -1.27485 -1.54103 2
    endloop
  endfacet
  facet normal 0 0 -1
    outer loop
      vertex -1.45794 -1.36909 2
      vertex -1.45794 1.36909 2
      vertex -1.27485 1.54103 2
    endloop
  endfacet
  facet normal 0 0 -1
    outer loop
      vertex -1.61803 -1.17557 2
      vertex -1.45794 1.36909 2
      vertex -1.45794 -1.36909 2
    endloop
  endfacet
  facet normal 0 0 -1
    outer loop
      vertex -1.61803 -1.17557 2
      vertex -1.61803 1.17557 2
      vertex -1.45794 1.36909 2
    endloop
  endfacet
  facet normal 0 0 -1
    outer loop
      vertex -1.75261 -0.963507 2
      vertex -1.61803 1.17557 2
      vertex -1.61803 -1.17557 2
    endloop
  endfacet
  facet normal 0 0 -1
    outer loop
      vertex -1.75261 -0.963507 2
      vertex -1.75261 0.963507 2
      vertex -1.61803 1.17557 2
    endloop
  endfacet
  facet normal 0 0 -1
    outer loop
      vertex -1.85955 -0.736249 2
      vertex -1.75261 0.963507 2
      vertex -1.75261 -0.963507 2
    endloop
  endfacet
  facet normal 0 0 -1
    outer loop
      vertex -1.85955 -0.736249 2
      vertex -1.85955 0.736249 2
      vertex -1.75261 0.963507 2
    endloop
  endfacet
  facet normal 0 0 -1
    outer loop
      vertex -1.93717 -0.49738 2
      vertex -1.85955 0.736249 2
      vertex -1.85955 -0.736249 2
    endloop
  endfacet
  facet normal 0 0 -1
    outer loop
      vertex -1.93717 -0.49738 2
      vertex -1.93717 0.49738 2
      vertex -1.85955 0.736249 2
    endloop
  endfacet
  facet normal 0 0 -1
    outer loop
      vertex -1.98423 -0.250666 2
      vertex -1.93717 0.49738 2
      vertex -1.93717 -0.49738 2
    endloop
  endfacet
  facet normal 0 0 -1
    outer loop
      vertex -1.98423 -0.250666 2
      vertex -1.98423 0.250666 2
      vertex -1.93717 0.49738 2
    endloop
  endfacet
  facet normal 0 -0 -1
    outer loop
      vertex -1.98423 0.250666 2
      vertex -1.98423 -0.250666 2
      vertex -2 2.44929e-16 2
    endloop
  endfacet
  facet normal 0 0 1
    outer loop
      vertex 1.98423 0.250666 67
      vertex 1.98423 -0.250666 67
      vertex 2 0 67
    endloop
  endfacet
  facet normal 0 0 1
    outer loop
      vertex 1.93717 0.49738 67
      vertex 1.98423 -0.250666 67
      vertex 1.98423 0.250666 67
    endloop
  endfacet
  facet normal 0 0 1
    outer loop
      vertex 1.93717 0.49738 67
      vertex 1.93717 -0.49738 67
      vertex 1.98423 -0.250666 67
    endloop
  endfacet
  facet normal 0 0 1
    outer loop
      vertex 1.85955 0.736249 67
      vertex 1.93717 -0.49738 67
      vertex 1.93717 0.49738 67
    endloop
  endfacet
  facet normal 0 0 1
    outer loop
      vertex 1.85955 0.736249 67
      vertex 1.85955 -0.736249 67
      vertex 1.93717 -0.49738 67
    endloop
  endfacet
  facet normal 0 0 1
    outer loop
      vertex 1.75261 0.963507 67
      vertex 1.85955 -0.736249 67
      vertex 1.85955 0.736249 67
    endloop
  endfacet
  facet normal 0 0 1
    outer loop
      vertex 1.75261 0.963507 67
      vertex 1.75261 -0.963507 67
      vertex 1.85955 -0.736249 67
    endloop
  endfacet
  facet normal 0 0 1
    outer loop
      vertex 1.61803 1.17557 67
      vertex 1.75261 -0.963507 67
      vertex 1.75261 0.963507 67
    endloop
  endfacet
  facet normal 0 0 1
    outer loop
      vertex 1.61803 1.17557 67
      vertex 1.61803 -1.17557 67
      vertex 1.75261 -0.963507 67
    endloop
  endfacet
  facet normal 0 0 1
    outer loop
      vertex 1.45794 1.36909 67
      vertex 1.61803 -1.17557 67
      vertex 1.61803 1.17557 67
    endloop
  endfacet
  facet normal 0 0 1
    outer loop
      vertex 1.45794 1.36909 67
      vertex 1.45794 -1.36909 67
      vertex 1.61803 -1.17557 67
    endloop
  endfacet
  facet normal 0 0 1
    outer loop
      vertex 1.27485 1.54103 67
      vertex 1.45794 -1.36909 67
      vertex 1.45794 1.36909 67
    endloop
  endfacet
  facet normal 0 0 1
    outer loop
      vertex 1.27485 1.54103 67
      vertex 1.27485 -1.54103 67
      vertex 1.45794 -1.36909 67
    endloop
  endfacet
  facet normal 0 0 1
    outer loop
      vertex 1.07165 1.68866 67
      vertex 1.27485 -1.54103 67
      vertex 1.27485 1.54103 67
    endloop
  endfacet
  facet normal 0 0 1
    outer loop
      vertex 1.07165 1.68866 67
      vertex 1.07165 -1.68866 67
      vertex 1.27485 -1.54103 67
    endloop
  endfacet
  facet normal 0 0 1
    outer loop
      vertex 0.851559 1.80965 67
      vertex 1.07165 -1.68866 67
      vertex 1.07165 1.68866 67
    endloop
  endfacet
  facet normal 0 0 1
    outer loop
      vertex 0.851559 1.80965 67
      vertex 0.851559 -1.80965 67
      vertex 1.07165 -1.68866 67
    endloop
  endfacet
  facet normal 0 0 1
    outer loop
      vertex 0.618034 1.90211 67
      vertex 0.851559 -1.80965 67
      vertex 0.851559 1.80965 67
    endloop
  endfacet
  facet normal 0 0 1
    outer loop
      vertex 0.618034 1.90211 67
      vertex 0.618034 -1.90211 67
      vertex 0.851559 -1.80965 67
    endloop
  endfacet
  facet normal 0 0 1
    outer loop
      vertex 0.374763 1.96457 67
      vertex 0.618034 -1.90211 67
      vertex 0.618034 1.90211 67
    endloop
  endfacet
  facet normal 0 0 1
    outer loop
      vertex 0.374763 1.96457 67
      vertex 0.374763 -1.96457 67
      vertex 0.618034 -1.90211 67
    endloop
  endfacet
  facet normal 0 0 1
    outer loop
      vertex 0.125581 1.99605 67
      vertex 0.374763 -1.96457 67
      vertex 0.374763 1.96457 67
    endloop
  endfacet
  facet normal 0 0 1
    outer loop
      vertex 0.125581 1.99605 67
      vertex 0.125581 -1.99605 67
      vertex 0.374763 -1.96457 67
    endloop
  endfacet
  facet normal -0 0 1
    outer loop
      vertex -0.125581 1.99605 67
      vertex 0.125581 -1.99605 67
      vertex 0.125581 1.99605 67
    endloop
  endfacet
  facet normal 0 0 1
    outer loop
      vertex -0.125581 1.99605 67
      vertex -0.125581 -1.99605 67
      vertex 0.125581 -1.99605 67
    endloop
  endfacet
  facet normal -0 0 1
    outer loop
      vertex -0.374763 1.96457 67
      vertex -0.125581 -1.99605 67
      vertex -0.125581 1.99605 67
    endloop
  endfacet
  facet normal 0 0 1
    outer loop
      vertex -0.374763 1.96457 67
      vertex -0.374763 -1.96457 67
      vertex -0.125581 -1.99605 67
    endloop
  endfacet
  facet normal -0 0 1
    outer loop
      vertex -0.618034 1.90211 67
      vertex -0.374763 -1.96457 67
      vertex -0.374763 1.96457 67
    endloop
  endfacet
  facet normal 0 0 1
    outer loop
      vertex -0.618034 1.90211 67
      vertex -0.618034 -1.90211 67
      vertex -0.374763 -1.96457 67
    endloop
  endfacet
  facet normal -0 0 1
    outer loop
      vertex -0.851559 1.80965 67
      vertex -0.618034 -1.90211 67
      vertex -0.618034 1.90211 67
    endloop
  endfacet
  facet normal 0 0 1
    outer loop
      vertex -0.851559 1.80965 67
      vertex -0.851559 -1.80965 67
      vertex -0.618034 -1.90211 67
    endloop
  endfacet
  facet normal -0 0 1
    outer loop
      vertex -1.07165 1.68866 67
      vertex -0.851559 -1.80965 67
      vertex -0.851559 1.80965 67
    endloop
  endfacet
  facet normal 0 0 1
    outer loop
      vertex -1.07165 1.68866 67
      vertex -1.07165 -1.68866 67
      vertex -0.851559 -1.80965 67
    endloop
  endfacet
  facet normal -0 0 1
    outer loop
      vertex -1.27485 1.54103 67
      vertex -1.07165 -1.68866 67
      vertex -1.07165 1.68866 67
    endloop
  endfacet
  facet normal 0 0 1
    outer loop
      vertex -1.27485 1.54103 67
      vertex -1.27485 -1.54103 67
      vertex -1.07165 -1.68866 67
    endloop
  endfacet
  facet normal -0 0 1
    outer loop
      vertex -1.45794 1.36909 67
      vertex -1.27485 -1.54103 67
      vertex -1.27485 1.54103 67
    endloop
  endfacet
  facet normal 0 0 1
    outer loop
      vertex -1.45794 1.36909 67
      vertex -1.45794 -1.36909 67
      vertex -1.27485 -1.54103 67
    endloop
  endfacet
  facet normal -0 0 1
    outer loop
      vertex -1.61803 1.17557 67
      vertex -1.45794 -1.36909 67
      vertex -1.45794 1.36909 67
    endloop
  endfacet
  facet normal 0 0 1
    outer loop
      vertex -1.61803 1.17557 67
      vertex -1.61803 -1.17557 67
      vertex -1.45794 -1.36909 67
    endloop
  endfacet
  facet normal -0 0 1
    outer loop
      vertex -1.75261 0.963507 67
      vertex -1.61803 -1.17557 67
      vertex -1.61803 1.17557 67
    endloop
  endfacet
  facet normal 0 0 1
    outer loop
      vertex -1.75261 0.963507 67
      vertex -1.75261 -0.963507 67
      vertex -1.61803 -1.17557 67
    endloop
  endfacet
  facet normal -0 0 1
    outer loop
      vertex -1.85955 0.736249 67
      vertex -1.75261 -0.963507 67
      vertex -1.75261 0.963507 67
    endloop
  endfacet
  facet normal 0 0 1
    outer loop
      vertex -1.85955 0.736249 67
      vertex -1.85955 -0.736249 67
      vertex -1.75261 -0.963507 67
    endloop
  endfacet
  facet normal -0 0 1
    outer loop
      vertex -1.93717 0.49738 67
      vertex -1.85955 -0.736249 67
      vertex -1.85955 0.736249 67
    endloop
  endfacet
  facet normal 0 0 1
    outer loop
      vertex -1.93717 0.49738 67
      vertex -1.93717 -0.49738 67
      vertex -1.85955 -0.736249 67
    endloop
  endfacet
  facet normal -0 0 1
    outer loop
      vertex -1.98423 0.250666 67
      vertex -1.93717 -0.49738 67
      vertex -1.93717 0.49738 67
    endloop
  endfacet
  facet normal 0 0 1
    outer loop
      vertex -1.98423 0.250666 67
      vertex -1.98423 -0.250666 67
      vertex -1.93717 -0.49738 67
    endloop
  endfacet
  facet normal 0 -0 1
    outer loop
      vertex -1.98423 -0.250666 67
      vertex -1.98423 0.250666 67
      vertex -2 2.44929e-16 67
    endloop
  endfacet
endsolid OpenSCAD_Model
